# Blender 3.6.5
# www.blender.org
mtllib cherry.mtl
o body
v -0.500000 0.000000 0.000000
v -0.500000 0.937500 -0.000000
v -0.853553 0.791053 0.170262
v -1.000000 0.437500 0.240787
v -0.853553 0.083947 0.170262
v -0.587320 0.791053 0.382576
v -0.623490 0.437500 0.541044
v -0.587320 0.083947 0.382576
v -0.255333 0.791053 0.306802
v -0.153989 0.437500 0.433884
v -0.255333 0.083947 0.306802
v -0.107585 0.791053 -0.000000
v 0.054958 0.437500 -0.000000
v -0.107585 0.083947 -0.000000
v -0.255333 0.791053 -0.306802
v -0.153989 0.437500 -0.433884
v -0.255333 0.083947 -0.306802
v -0.587320 0.791053 -0.382576
v -0.623490 0.437500 -0.541044
v -0.587320 0.083947 -0.382576
v -0.853553 0.791053 -0.170262
v -1.000000 0.437500 -0.240787
v -0.853553 0.083947 -0.170262
v 0.500000 0.000000 0.000000
v 0.500000 0.937500 -0.000000
v 0.146447 0.791053 0.170262
v 0.000000 0.437500 0.240787
v 0.146447 0.083947 0.170262
v 0.412680 0.791053 0.382576
v 0.376510 0.437500 0.541044
v 0.412680 0.083947 0.382576
v 0.744667 0.791053 0.306802
v 0.846011 0.437500 0.433884
v 0.744667 0.083947 0.306802
v 0.892415 0.791053 -0.000000
v 1.054958 0.437500 -0.000000
v 0.892415 0.083947 -0.000000
v 0.744667 0.791053 -0.306802
v 0.846011 0.437500 -0.433884
v 0.744667 0.083947 -0.306802
v 0.412680 0.791053 -0.382576
v 0.376510 0.437500 -0.541044
v 0.412680 0.083947 -0.382576
v 0.146447 0.791053 -0.170262
v 0.000000 0.437500 -0.240787
v 0.146447 0.083947 -0.170262
vn -0.6582 0.6829 0.3170
vn -0.1626 0.6829 0.7122
vn -0.0000 1.0000 -0.0000
vn -0.9010 -0.0000 0.4339
vn -0.2225 -0.0000 0.9749
vn -0.6226 -0.7228 0.2998
vn -0.1538 -0.7228 0.6737
vn -0.0000 -1.0000 -0.0000
vn 0.4555 0.6829 0.5712
vn 0.6235 -0.0000 0.7818
vn 0.4309 -0.7228 0.5403
vn 0.7305 0.6829 -0.0000
vn 1.0000 -0.0000 -0.0000
vn 0.6910 -0.7228 -0.0000
vn 0.4555 0.6829 -0.5712
vn 0.6235 -0.0000 -0.7818
vn 0.4309 -0.7228 -0.5403
vn -0.1626 0.6829 -0.7122
vn -0.2225 -0.0000 -0.9749
vn -0.1538 -0.7228 -0.6737
vn -0.6582 0.6829 -0.3170
vn -0.9010 -0.0000 -0.4339
vn -0.6226 -0.7228 -0.2998
vt 0.003200 0.892143
vt 0.048797 0.841555
vt 0.082850 0.918092
vt 0.551605 1.000000
vt 0.537500 0.925000
vt 0.633815 0.925000
vt 0.619710 1.000000
vt 0.550000 0.737500
vt 0.564105 0.662500
vt 0.632210 0.662500
vt 0.646315 0.737500
vt 0.297197 0.990214
vt 0.253613 0.937881
vt 0.331250 0.917537
vt 0.116902 0.841555
vt 0.082850 0.918091
vt 0.117790 0.512500
vt 0.103685 0.437500
vt 0.200000 0.437500
vt 0.185895 0.512500
vt 0.441185 0.700000
vt 0.455290 0.625000
vt 0.523395 0.625000
vt 0.537500 0.700000
vt 0.365303 0.990214
vt 0.162500 0.892143
vt 0.082850 0.918092
vt 0.230290 0.475000
vt 0.216185 0.400000
vt 0.312500 0.400000
vt 0.298395 0.475000
vt 0.528685 0.825000
vt 0.542790 0.750000
vt 0.610895 0.750000
vt 0.625000 0.825000
vt 0.408887 0.937881
vt 0.155452 0.959882
vt 0.539105 0.912500
vt 0.525000 0.837500
vt 0.621315 0.837500
vt 0.607210 0.912500
vt 0.525000 0.612500
vt 0.539105 0.537500
vt 0.607210 0.537500
vt 0.621315 0.612500
vt 0.396567 0.870900
vt 0.100417 1.000000
vt 0.082850 0.918093
vt 0.464105 0.500000
vt 0.450000 0.425000
vt 0.546315 0.425000
vt 0.532210 0.500000
vt 0.337500 0.500000
vt 0.351605 0.425000
vt 0.419710 0.425000
vt 0.433815 0.500000
vt 0.337214 0.837501
vt 0.065284 1.000000
vt 0.010248 0.959882
vt 0.082850 0.918091
vt 0.580290 0.525000
vt 0.566185 0.450000
vt 0.662500 0.450000
vt 0.648395 0.525000
vt 0.566185 0.437500
vt 0.580290 0.362500
vt 0.648395 0.362500
vt 0.662500 0.437500
vt 0.265932 0.870900
vt 0.325285 0.837500
vt 0.331250 0.917536
vt 0.082849 0.918092
vt 0.240947 0.562500
vt 0.226842 0.487500
vt 0.323157 0.487500
vt 0.309052 0.562500
vt 0.001842 0.562500
vt 0.015948 0.487500
vt 0.084053 0.487500
vt 0.098158 0.562500
vt 0.331251 0.917537
vt 0.128201 0.754644
vt 0.173798 0.704055
vt 0.207851 0.780592
vt 0.426605 0.875000
vt 0.412500 0.800000
vt 0.508815 0.800000
vt 0.494710 0.875000
vt 0.412500 0.587500
vt 0.426605 0.512500
vt 0.494710 0.512500
vt 0.508815 0.587500
vt 0.309698 0.727714
vt 0.266113 0.675381
vt 0.343750 0.655037
vt 0.241902 0.704055
vt 0.330291 0.412500
vt 0.316186 0.337500
vt 0.412500 0.337500
vt 0.398395 0.412500
vt 0.003686 0.425000
vt 0.017791 0.350000
vt 0.085895 0.350000
vt 0.100000 0.425000
vt 0.377802 0.727714
vt 0.287500 0.754643
vt 0.207851 0.780592
vt 0.017790 0.650000
vt 0.003685 0.575000
vt 0.100000 0.575000
vt 0.085895 0.650000
vt 0.116185 0.687500
vt 0.130290 0.612500
vt 0.198395 0.612500
vt 0.212500 0.687500
vt 0.421387 0.675382
vt 0.343750 0.655037
vt 0.280452 0.822383
vt 0.314105 0.825000
vt 0.300000 0.750000
vt 0.396315 0.750000
vt 0.382210 0.825000
vt 0.112500 0.600000
vt 0.126605 0.525000
vt 0.194710 0.525000
vt 0.208815 0.600000
vt 0.409068 0.608400
vt 0.225418 0.862500
vt 0.207851 0.780592
vt 0.126605 0.412500
vt 0.112500 0.337500
vt 0.208814 0.337500
vt 0.194709 0.412500
vt 0.425000 0.412500
vt 0.439105 0.337500
vt 0.507209 0.337500
vt 0.521314 0.412500
vt 0.349717 0.575000
vt 0.343750 0.655037
vt 0.190285 0.862500
vt 0.135250 0.822383
vt 0.207851 0.780593
vt 0.442790 1.000000
vt 0.428685 0.925000
vt 0.525000 0.925000
vt 0.510895 1.000000
vt 0.416185 0.787500
vt 0.430290 0.712500
vt 0.498395 0.712500
vt 0.512500 0.787500
vt 0.278432 0.608400
vt 0.337785 0.575000
vt 0.343750 0.655036
vt 0.207852 0.780592
vt 0.015948 0.737500
vt 0.001842 0.662500
vt 0.098158 0.662500
vt 0.084053 0.737500
vt 0.001842 0.825000
vt 0.015948 0.750000
vt 0.084053 0.750000
vt 0.098158 0.825000
vt 0.343751 0.655037
s 1
usemtl m_28ea73eb-e59d-2a7f-1970-ce46e06932aa
f 3/1/1 6/2/2 2/3/3
f 3/4/1 4/5/4 7/6/5 6/7/2
f 4/8/4 5/9/6 8/10/7 7/11/5
f 8/12/7 5/13/6 1/14/8
f 6/2/2 9/15/9 2/16/3
f 6/17/2 7/18/5 10/19/10 9/20/9
f 7/21/5 8/22/7 11/23/11 10/24/10
f 11/25/11 8/12/7 1/14/8
f 9/15/9 12/26/12 2/27/3
f 9/28/9 10/29/10 13/30/13 12/31/12
f 10/32/10 11/33/11 14/34/14 13/35/13
f 14/36/14 11/25/11 1/14/8
f 12/26/12 15/37/15 2/27/3
f 12/38/12 13/39/13 16/40/16 15/41/15
f 13/42/13 14/43/14 17/44/17 16/45/16
f 17/46/17 14/36/14 1/14/8
f 15/37/15 18/47/18 2/48/3
f 15/49/15 16/50/16 19/51/19 18/52/18
f 16/53/16 17/54/17 20/55/20 19/56/19
f 20/57/20 17/46/17 1/14/8
f 18/58/18 21/59/21 2/60/3
f 18/61/18 19/62/19 22/63/22 21/64/21
f 19/65/19 20/66/20 23/67/23 22/68/22
f 23/69/23 20/70/20 1/71/8
f 21/59/21 3/1/1 2/72/3
f 21/73/21 22/74/22 4/75/4 3/76/1
f 22/77/22 23/78/23 5/79/6 4/80/4
f 5/13/6 23/69/23 1/81/8
f 26/82/1 29/83/2 25/84/3
f 26/85/1 27/86/4 30/87/5 29/88/2
f 27/89/4 28/90/6 31/91/7 30/92/5
f 31/93/7 28/94/6 24/95/8
f 29/83/2 32/96/9 25/84/3
f 29/97/2 30/98/5 33/99/10 32/100/9
f 30/101/5 31/102/7 34/103/11 33/104/10
f 34/105/11 31/93/7 24/95/8
f 32/96/9 35/106/12 25/107/3
f 32/108/9 33/109/10 36/110/13 35/111/12
f 33/112/10 34/113/11 37/114/14 36/115/13
f 37/116/14 34/105/11 24/117/8
f 35/106/12 38/118/15 25/107/3
f 35/119/12 36/120/13 39/121/16 38/122/15
f 36/123/13 37/124/14 40/125/17 39/126/16
f 40/127/17 37/116/14 24/117/8
f 38/118/15 41/128/18 25/129/3
f 38/130/15 39/131/16 42/132/19 41/133/18
f 39/134/16 40/135/17 43/136/20 42/137/19
f 43/138/20 40/127/17 24/139/8
f 41/140/18 44/141/21 25/142/3
f 41/143/18 42/144/19 45/145/22 44/146/21
f 42/147/19 43/148/20 46/149/23 45/150/22
f 46/151/23 43/152/20 24/153/8
f 44/141/21 26/82/1 25/154/3
f 44/155/21 45/156/22 27/157/4 26/158/1
f 45/159/22 46/160/23 28/161/6 27/162/4
f 28/94/6 46/151/23 24/163/8
o hair
v 0.493892 0.861745 0.031250
v -0.038775 1.555929 0.031250
v 0.543476 0.899792 0.031250
v 0.010810 1.593976 0.031250
v 0.493892 0.861745 -0.031250
v -0.038775 1.555929 -0.031250
v 0.543476 0.899792 -0.031250
v 0.010810 1.593976 -0.031250
v -0.549585 0.913048 0.031250
v 0.249415 1.954324 0.031250
v -0.500000 0.875000 0.031250
v 0.298999 1.916276 0.031250
v -0.549585 0.913048 -0.031250
v 0.249415 1.954324 -0.031250
v -0.500000 0.875000 -0.031250
v 0.298999 1.916276 -0.031250
vn -0.5610 -0.4305 0.7071
vn 0.5610 0.4305 0.7071
vn 0.5610 0.4305 -0.7071
vn -0.5610 -0.4305 -0.7071
vn -0.1066 0.8095 0.5774
vn -0.5610 0.4305 0.7071
vn 0.5610 -0.4305 0.7071
vn 0.8095 0.1066 0.5774
vn 0.5610 -0.4305 -0.7071
vn -0.5610 0.4305 -0.7071
vn -0.1066 0.8095 -0.5774
vn 0.8095 0.1066 -0.5774
vt 0.812500 0.887500
vt 0.637500 0.887500
vt 0.637500 0.875000
vt 0.812500 0.875000
vt 0.812500 0.850000
vt 0.812500 0.862500
vt 0.637500 0.862500
vt 0.637500 0.850000
vt 0.637500 0.837500
vt 0.637500 0.825000
vt 0.812500 0.825000
vt 0.812500 0.837500
vt 0.812500 0.812500
vt 0.637500 0.812500
vt 0.637500 0.800000
vt 0.812500 0.800000
vt 0.812500 0.650000
vt 0.550000 0.650000
vt 0.550000 0.637500
vt 0.812500 0.637500
vt 0.887500 0.900000
vt 0.887500 0.912500
vt 0.625000 0.912500
vt 0.625000 0.900000
vt 0.625000 0.550000
vt 0.625000 0.537500
vt 0.887500 0.537500
vt 0.887500 0.550000
vt 0.900000 1.000000
vt 0.637500 1.000000
vt 0.637500 0.987500
vt 0.900000 0.987500
vt 0.012500 1.000000
vt 0.000000 1.000000
vt 0.000000 0.987500
vt 0.012500 0.987500
s 1
usemtl m_28ea73eb-e59d-2a7f-1970-ce46e06932aa
f 48/164/24 47/165/24 49/166/25 50/167/25
f 53/168/26 51/169/27 52/170/27 54/171/26
f 51/172/27 47/173/24 48/174/24 52/175/27
f 50/176/25 49/177/25 53/178/26 54/179/26
f 56/180/28 55/181/29 57/182/30 58/183/31
f 61/184/32 59/185/33 60/186/34 62/187/35
f 59/188/33 55/189/29 56/190/28 60/191/34
f 58/192/31 57/193/30 61/194/32 62/195/35
f 60/196/34 56/197/28 58/198/31 62/199/35
o left_eye
v -0.281250 0.578125 -0.521875
v -0.256130 0.484494 -0.527327
v -0.212620 0.509582 -0.525867
v -0.187500 0.553037 -0.523336
v -0.187500 0.603213 -0.520414
v -0.212620 0.646668 -0.517884
v -0.256130 0.671756 -0.516423
v -0.306370 0.671756 -0.516423
v -0.349880 0.646668 -0.517884
v -0.375000 0.603213 -0.520414
v -0.375000 0.553037 -0.523336
v -0.349880 0.509582 -0.525867
v -0.306370 0.484494 -0.527327
v -0.250000 0.609375 -0.515625
v -0.216506 0.484494 -0.521077
v -0.158494 0.517956 -0.519616
v -0.125000 0.575913 -0.517086
v -0.125000 0.642837 -0.514164
v -0.158494 0.700794 -0.511634
v -0.216506 0.734256 -0.510173
v -0.283494 0.734256 -0.510173
v -0.341506 0.700794 -0.511634
v -0.375000 0.642837 -0.514164
v -0.375000 0.575913 -0.517086
v -0.341506 0.517956 -0.519616
v -0.283494 0.484494 -0.521077
vn -0.0000 0.0581 -0.9983
vn -0.0000 0.0436 -0.9990
vt 0.225000 0.363716
vt 0.230024 0.355010
vt 0.243750 0.368742
vt 0.225000 0.373769
vt 0.230024 0.382474
vt 0.238726 0.387500
vt 0.248774 0.387500
vt 0.257476 0.382474
vt 0.262500 0.373769
vt 0.262500 0.363716
vt 0.257476 0.355010
vt 0.248774 0.349984
vt 0.238726 0.349984
vt 0.175000 0.905801
vt 0.181699 0.894199
vt 0.200000 0.912500
vt 0.175000 0.919199
vt 0.181699 0.930801
vt 0.193301 0.937500
vt 0.206699 0.937500
vt 0.218301 0.930801
vt 0.225000 0.919199
vt 0.225000 0.905801
vt 0.218301 0.894199
vt 0.206699 0.887500
vt 0.193301 0.887500
s 1
usemtl m_28ea73eb-e59d-2a7f-1970-ce46e06932aa
f 66/200/36 65/201/36 63/202/36
f 67/203/36 66/200/36 63/202/36
f 68/204/36 67/203/36 63/202/36
f 69/205/36 68/204/36 63/202/36
f 70/206/36 69/205/36 63/202/36
f 71/207/36 70/206/36 63/202/36
f 72/208/36 71/207/36 63/202/36
f 73/209/36 72/208/36 63/202/36
f 74/210/36 73/209/36 63/202/36
f 75/211/36 74/210/36 63/202/36
f 64/212/36 75/211/36 63/202/36
f 65/201/36 64/212/36 63/202/36
f 79/213/37 78/214/37 76/215/37
f 80/216/37 79/213/37 76/215/37
f 81/217/37 80/216/37 76/215/37
f 82/218/37 81/217/37 76/215/37
f 83/219/37 82/218/37 76/215/37
f 84/220/37 83/219/37 76/215/37
f 85/221/37 84/220/37 76/215/37
f 86/222/37 85/221/37 76/215/37
f 87/223/37 86/222/37 76/215/37
f 88/224/37 87/223/37 76/215/37
f 77/225/37 88/224/37 76/215/37
f 78/214/37 77/225/37 76/215/37
o right_eye
v 0.250000 0.609375 -0.515625
v 0.216506 0.484494 -0.521077
v 0.158494 0.517956 -0.519616
v 0.125000 0.575913 -0.517086
v 0.125000 0.642837 -0.514164
v 0.158494 0.700794 -0.511634
v 0.216506 0.734256 -0.510173
v 0.283494 0.734256 -0.510173
v 0.341506 0.700794 -0.511634
v 0.375000 0.642837 -0.514164
v 0.375000 0.575913 -0.517086
v 0.341506 0.517956 -0.519616
v 0.283494 0.484494 -0.521077
v 0.281250 0.578125 -0.521875
v 0.256130 0.484494 -0.527327
v 0.212620 0.509582 -0.525867
v 0.187500 0.553037 -0.523336
v 0.187500 0.603213 -0.520414
v 0.212620 0.646668 -0.517884
v 0.256130 0.671756 -0.516423
v 0.306370 0.671756 -0.516423
v 0.349880 0.646668 -0.517884
v 0.375000 0.603213 -0.520414
v 0.375000 0.553037 -0.523336
v 0.349880 0.509582 -0.525867
v 0.306370 0.484494 -0.527327
vn -0.0000 0.0436 -0.9990
vn -0.0000 0.0581 -0.9983
vt 0.218301 0.956699
vt 0.225000 0.968301
vt 0.200000 0.975000
vt 0.225000 0.981699
vt 0.218301 0.993301
vt 0.206699 1.000000
vt 0.193301 1.000000
vt 0.181699 0.993301
vt 0.175000 0.981699
vt 0.175000 0.968301
vt 0.181699 0.956699
vt 0.193301 0.950000
vt 0.206699 0.950000
vt 0.369976 0.530010
vt 0.375000 0.538716
vt 0.356250 0.543742
vt 0.375000 0.548769
vt 0.369976 0.557474
vt 0.361274 0.562500
vt 0.351226 0.562500
vt 0.342524 0.557474
vt 0.337500 0.548769
vt 0.337500 0.538716
vt 0.342524 0.530010
vt 0.351226 0.524984
vt 0.361274 0.524984
s 1
usemtl m_28ea73eb-e59d-2a7f-1970-ce46e06932aa
f 91/226/38 92/227/38 89/228/38
f 92/227/38 93/229/38 89/228/38
f 93/229/38 94/230/38 89/228/38
f 94/230/38 95/231/38 89/228/38
f 95/231/38 96/232/38 89/228/38
f 96/232/38 97/233/38 89/228/38
f 97/233/38 98/234/38 89/228/38
f 98/234/38 99/235/38 89/228/38
f 99/235/38 100/236/38 89/228/38
f 100/236/38 101/237/38 89/228/38
f 101/237/38 90/238/38 89/228/38
f 90/238/38 91/226/38 89/228/38
f 104/239/39 105/240/39 102/241/39
f 105/240/39 106/242/39 102/241/39
f 106/242/39 107/243/39 102/241/39
f 107/243/39 108/244/39 102/241/39
f 108/244/39 109/245/39 102/241/39
f 109/245/39 110/246/39 102/241/39
f 110/246/39 111/247/39 102/241/39
f 111/247/39 112/248/39 102/241/39
f 112/248/39 113/249/39 102/241/39
f 113/249/39 114/250/39 102/241/39
f 114/250/39 103/251/39 102/241/39
f 103/251/39 104/239/39 102/241/39
