# Made in Blockbench 5.2.1
mtllib lamp.mtl

o mesh
v 0.125 1.125 0.125
v 0.125 1.125 -0.125
v 0.125 0 0.125
v 0.125 0 -0.125
v -0.125 1.125 0.125
v -0.125 1.125 -0.125
v -0.125 0 0.125
v -0.125 0 -0.125
vt 1 1
vt 0.75 1
vt 0.75 0
vt 1 0
vt 0.5 0
vt 0.5 1
vt 0.25 1
vt 0.25 0
vt 0 0.9375
vt 0.25 0.9375
vt 0.25 1
vt 0 1
vt 1 0
vt 1 0.0625
vt 0.75 0.0625
vt 0.75 0
vt 0.75 0
vt 0.75 1
vt 0.5 1
vt 0.5 0
vt 0.25 1
vt 0 1
vt 0 0
vt 0.25 0
vn 1 0 0
vn -1 0 0
vn 0 1 0
vn 0 -1 0
vn 0 0 1
vn 0 0 -1
usemtl m_77ed1b97-8c1e-76bf-cd57-726c0f9f878f
f 2/1/1 1/2/1 3/3/1 4/4/1
f 7/5/2 5/6/2 6/7/2 8/8/2
f 5/9/3 1/10/3 2/11/3 6/12/3
f 4/13/4 3/14/4 7/15/4 8/16/4
f 3/17/5 1/18/5 5/19/5 7/20/5
f 6/21/6 2/22/6 4/23/6 8/24/6