# Blender 4.3.2
# www.blender.org
mtllib particle_spawner.mtl
o cylinder
v -0.103553 0.000000 0.250000
v -0.103553 0.250000 0.250000
v -0.250000 0.000000 0.103553
v -0.250000 0.250000 0.103553
v -0.250000 -0.000000 -0.103553
v -0.250000 0.250000 -0.103553
v -0.103553 -0.000000 -0.250000
v -0.103553 0.250000 -0.250000
v 0.103553 -0.000000 -0.250000
v 0.103553 0.250000 -0.250000
v 0.250000 -0.000000 -0.103553
v 0.250000 0.250000 -0.103553
v 0.250000 0.000000 0.103553
v 0.250000 0.250000 0.103553
v 0.103553 0.000000 0.250000
v 0.103553 0.250000 0.250000
vn -0.7173 0.6303 0.2971
vn -0.7173 -0.6303 0.2971
vn -0.2971 -0.6303 0.7173
vn -0.2971 0.6303 0.7173
vn -0.7173 0.6303 -0.2971
vn -0.7173 -0.6303 -0.2971
vn -0.2971 0.6303 -0.7173
vn -0.2971 -0.6303 -0.7173
vn 0.2971 0.6303 -0.7173
vn 0.2971 -0.6303 -0.7173
vn 0.7173 0.6303 -0.2971
vn 0.7173 -0.6303 -0.2971
vn 0.7173 0.6303 0.2971
vn 0.7173 -0.6303 0.2971
vn 0.2971 0.6303 0.7173
vn 0.2971 -0.6303 0.7173
vt 0.350000 0.200000
vt 0.350000 0.000000
vt 0.200000 0.000000
vt 0.200000 0.200000
vt 0.150000 0.550000
vt 0.150000 0.350000
vt 0.000000 0.350000
vt 0.000000 0.550000
vt 0.950000 0.750000
vt 0.950000 0.550000
vt 0.800000 0.550000
vt 0.800000 0.750000
vt 0.150000 0.300000
vt 0.150000 0.100000
vt 0.000000 0.100000
vt 0.000000 0.300000
vt 0.900000 0.200000
vt 0.900000 0.000000
vt 0.750000 0.000000
vt 0.750000 0.200000
vt 0.600000 1.000000
vt 0.600000 0.800000
vt 0.450000 0.800000
vt 0.450000 1.000000
vt 0.950000 0.500000
vt 0.950000 0.300000
vt 0.800000 0.300000
vt 0.800000 0.500000
vt 0.800000 1.000000
vt 0.800000 0.800000
vt 0.650000 0.800000
vt 0.650000 1.000000
vt 0.282845 1.000000
vt 0.400000 0.882845
vt 0.000000 0.882845
vt 0.117155 1.000000
vt 0.400000 0.717155
vt 0.282845 0.600000
vt 0.117155 0.600000
vt 0.000000 0.717155
vt 0.750000 0.317155
vt 0.632845 0.200000
vt 0.467155 0.200000
vt 0.350000 0.317155
vt 0.750000 0.482845
vt 0.350000 0.482845
vt 0.632845 0.600000
vt 0.467155 0.600000
s 1
usemtl m_9967ff77-5095-5865-7d0a-f30c7deb98da
f 4/1/1 3/2/2 1/3/3 2/4/4
f 6/5/5 5/6/6 3/7/2 4/8/1
f 8/9/7 7/10/8 5/11/6 6/12/5
f 10/13/9 9/14/10 7/15/8 8/16/7
f 12/17/11 11/18/12 9/19/10 10/20/9
f 14/21/13 13/22/14 11/23/12 12/24/11
f 16/25/15 15/26/16 13/27/14 14/28/13
f 2/29/4 1/30/3 15/31/16 16/32/15
f 8/33/7 6/34/5 12/35/11 10/36/9
f 4/37/1 2/38/4 16/39/15 14/40/13
f 6/34/5 4/37/1 14/40/13 12/35/11
f 5/41/6 7/42/8 9/43/10 11/44/12
f 3/45/2 5/41/6 11/44/12 13/46/14
f 1/47/3 3/45/2 13/46/14 15/48/16
