# Made in Blockbench 5.0.7
mtllib paint_ball.mtl

o mesh
v 0.0234375 0 -0.0234375
v 0.01736111111111111 0.017361111111111112 -0.01736111111111111
v 0.0234375 0.0234375 0
v 0.03125 0 0
v 0.01736111111111111 0.017361111111111112 0.01736111111111111
v 0.0234375 0 0.0234375
v 0.01736111111111111 -0.017361111111111112 0.01736111111111111
v 0.0234375 -0.0234375 0
v 0.01736111111111111 -0.017361111111111112 -0.01736111111111111
v -0.0234375 -0.0234375 0
v -0.01736111111111111 -0.017361111111111112 0.01736111111111111
v -0.0234375 0 0.0234375
v -0.03125 0 0
v -0.01736111111111111 0.017361111111111112 0.01736111111111111
v -0.0234375 0.0234375 0
v -0.01736111111111111 0.017361111111111112 -0.01736111111111111
v -0.0234375 0 -0.0234375
v -0.01736111111111111 -0.017361111111111112 -0.01736111111111111
v 0 0.0234375 0.0234375
v 0 0.03125 0
v 0 0.0234375 -0.0234375
v 0 -0.0234375 -0.0234375
v 0 -0.03125 0
v 0 -0.0234375 0.0234375
v 0 0 0.03125
v 0 0 -0.03125
vt 1 1
vt 0 1
vt 0 0
vt 1 0
vt 1 1
vt 0 1
vt 0 0
vt 1 0
vt 1 1
vt 0 1
vt 0 0
vt 1 0
vt 1 1
vt 0 1
vt 0 0
vt 1 0
vt 1 1
vt 0 1
vt 0 0
vt 1 0
vt 1 1
vt 0 1
vt 0 0
vt 1 0
vt 1 1
vt 0 1
vt 0 0
vt 1 0
vt 1 1
vt 0 1
vt 0 0
vt 1 0
vt 1 1
vt 0 1
vt 0 0
vt 1 0
vt 1 1
vt 0 1
vt 0 0
vt 1 0
vt 1 1
vt 0 1
vt 0 0
vt 1 0
vt 1 1
vt 0 1
vt 0 0
vt 1 0
vt 1 1
vt 0 1
vt 0 0
vt 1 0
vt 1 1
vt 0 1
vt 0 0
vt 1 0
vt 1 1
vt 0 1
vt 0 0
vt 1 0
vt 1 1
vt 0 1
vt 0 0
vt 1 0
vt 1 1
vt 0 1
vt 0 0
vt 1 0
vt 1 1
vt 0 1
vt 0 0
vt 1 0
vt 1 1
vt 0 1
vt 0 0
vt 1 0
vt 1 1
vt 0 1
vt 0 0
vt 1 0
vt 1 1
vt 0 1
vt 0 0
vt 1 0
vt 1 1
vt 0 1
vt 0 0
vt 1 0
vt 1 1
vt 0 1
vt 0 0
vt 1 0
vt 1 1
vt 0 1
vt 0 0
vt 1 0
vn 0.795587079770736 0.42839304295347347 -0.42839304295347347
vn 0.795587079770736 0.4283930429534734 0.4283930429534734
vn 0.795587079770736 -0.42839304295347347 0.42839304295347347
vn 0.795587079770736 -0.4283930429534734 -0.4283930429534734
vn -0.795587079770736 -0.4283930429534734 0.4283930429534734
vn -0.795587079770736 0.42839304295347347 0.42839304295347347
vn -0.795587079770736 0.4283930429534734 -0.4283930429534734
vn -0.795587079770736 -0.42839304295347347 -0.42839304295347347
vn -0.4283930429534733 0.7955870797707361 0.4283930429534733
vn 0.4283930429534733 0.7955870797707361 0.4283930429534733
vn 0.4283930429534733 0.7955870797707361 -0.4283930429534733
vn -0.4283930429534733 0.7955870797707361 -0.4283930429534733
vn 0.4283930429534733 -0.7955870797707361 -0.4283930429534733
vn 0.4283930429534733 -0.7955870797707361 0.4283930429534733
vn -0.4283930429534733 -0.7955870797707361 0.4283930429534733
vn -0.4283930429534733 -0.7955870797707361 -0.4283930429534733
vn 0.42839304295347336 -0.42839304295347336 0.7955870797707358
vn 0.42839304295347336 0.42839304295347336 0.7955870797707357
vn -0.42839304295347336 0.42839304295347336 0.7955870797707358
vn -0.42839304295347336 -0.42839304295347336 0.7955870797707357
vn -0.42839304295347336 0.42839304295347336 -0.7955870797707357
vn 0.42839304295347336 0.42839304295347336 -0.7955870797707358
vn 0.42839304295347336 -0.42839304295347336 -0.7955870797707357
vn -0.42839304295347336 -0.42839304295347336 -0.7955870797707358
usemtl m_4eac5a43-d1c2-b49e-9566-949b4ad7ec5b
f 1/1/1 2/2/1 3/3/1 4/4/1
f 3/5/2 5/6/2 6/7/2 4/8/2
f 6/9/3 7/10/3 8/11/3 4/12/3
f 8/13/4 9/14/4 1/15/4 4/16/4
f 10/17/5 11/18/5 12/19/5 13/20/5
f 12/21/6 14/22/6 15/23/6 13/24/6
f 15/25/7 16/26/7 17/27/7 13/28/7
f 17/29/8 18/30/8 10/31/8 13/32/8
f 15/33/9 14/34/9 19/35/9 20/36/9
f 19/37/10 5/38/10 3/39/10 20/40/10
f 3/41/11 2/42/11 21/43/11 20/44/11
f 21/45/12 16/46/12 15/47/12 20/48/12
f 22/49/13 9/50/13 8/51/13 23/52/13
f 8/53/14 7/54/14 24/55/14 23/56/14
f 24/57/15 11/58/15 10/59/15 23/60/15
f 10/61/16 18/62/16 22/63/16 23/64/16
f 24/65/17 7/66/17 6/67/17 25/68/17
f 6/69/18 5/70/18 19/71/18 25/72/18
f 19/73/19 14/74/19 12/75/19 25/76/19
f 12/77/20 11/78/20 24/79/20 25/80/20
f 17/81/21 16/82/21 21/83/21 26/84/21
f 21/85/22 2/86/22 1/87/22 26/88/22
f 1/89/23 9/90/23 22/91/23 26/92/23
f 22/93/24 18/94/24 17/95/24 26/96/24