# Made in Blockbench 5.1.4
mtllib brick.mtl

o mesh
v 0.125 0.25 0.09375
v -0.125 0.25 0.09375
v 0.125 0.25 -0.09375
v -0.125 0.25 -0.09375
v 0.125 -0.25 0.09375
v -0.125 -0.25 0.09375
v 0.125 -0.25 -0.09375
v -0.125 -0.25 -0.09375
vt 0.75 0.8125
vt 0.5 0.8125
vt 0.5 0.625
vt 0.75 0.625
vt 0.75 0.4375
vt 0.75 0.625
vt 0.5 0.625
vt 0.5 0.4375
vt 0 0.75
vt 0.5 0.75
vt 0.5 1
vt 0 1
vt 0.5 0.5
vt 0.5 0.75
vt 0 0.75
vt 0 0.5
vt 0.5 0.3125
vt 0.5 0.5
vt 0 0.5
vt 0 0.3125
vt 1 1
vt 0.5 1
vt 0.5 0.8125
vt 1 0.8125
vn 0 1 0
vn 0 -1 0
vn 0 0 1
vn 0 0 -1
vn 1 0 0
vn -1 0 0
usemtl m_8a44419e-6bb0-59e7-501f-93c2f0e88cce
f 2/1/1 1/2/1 3/3/1 4/4/1
f 7/5/2 5/6/2 6/7/2 8/8/2
f 5/9/3 1/10/3 2/11/3 6/12/3
f 4/13/4 3/14/4 7/15/4 8/16/4
f 3/17/5 1/18/5 5/19/5 7/20/5
f 6/21/6 2/22/6 4/23/6 8/24/6
o cylinder
v -2.312964634635743e-18 0 -0.0953125
v -2.312964634635743e-18 0 0.09531250000000002
v 0.06249999999999999 0.02588834764831844 -0.0953125
v 0.06249999999999999 0.02588834764831844 0.09531250000000002
v 0.025888347648318443 0.0625 -0.0953125
v 0.025888347648318443 0.0625 0.09531250000000002
v -0.025888347648318443 0.0625 -0.0953125
v -0.025888347648318443 0.0625 0.09531250000000002
v -0.0625 0.02588834764831845 -0.0953125
v -0.0625 0.02588834764831845 0.09531250000000002
v -0.0625 -0.025888347648318436 -0.0953125
v -0.0625 -0.025888347648318436 0.09531250000000002
v -0.025888347648318485 -0.06249999999999998 -0.0953125
v -0.025888347648318485 -0.06249999999999998 0.09531250000000002
v 0.025888347648318454 -0.0625 -0.0953125
v 0.025888347648318454 -0.0625 0.09531250000000002
v 0.06249999999999999 -0.025888347648318478 -0.0953125
v 0.06249999999999999 -0.025888347648318478 0.09531250000000002
vt 0.625 0.40088749999999995
vt 0.5883875000000001 0.4375
vt 0.5625 0.375
vt 0.7133875000000001 0.3125
vt 0.75 0.34911249999999994
vt 0.6875 0.375
vt 0.625 0.34911249999999994
vt 0.625 0.40088749999999995
vt 0.5625 0.375
vt 0.75 0.34911249999999994
vt 0.75 0.40088749999999995
vt 0.6875 0.375
vt 0.5883875000000001 0.3125
vt 0.625 0.34911249999999994
vt 0.5625 0.375
vt 0.75 0.40088749999999995
vt 0.7133875000000001 0.4375
vt 0.6875 0.375
vt 0.5366125 0.3125
vt 0.5883875000000001 0.3125
vt 0.5625 0.375
vt 0.7133875000000001 0.4375
vt 0.6616125 0.4375
vt 0.6875 0.375
vt 0.5 0.34911249999999994
vt 0.5366125 0.3125
vt 0.5625 0.375
vt 0.6616125 0.4375
vt 0.625 0.40088749999999995
vt 0.6875 0.375
vt 0.5 0.40088749999999995
vt 0.5 0.34911249999999994
vt 0.5625 0.375
vt 0.625 0.40088749999999995
vt 0.625 0.34911249999999994
vt 0.6875 0.375
vt 0.5366125 0.4375
vt 0.5 0.40088749999999995
vt 0.5625 0.375
vt 0.625 0.34911249999999994
vt 0.6616125 0.3125
vt 0.6875 0.375
vt 0.5883875000000001 0.4375
vt 0.5366125 0.4375
vt 0.5625 0.375
vt 0.6616125 0.3125
vt 0.7133875000000001 0.3125
vt 0.6875 0.375
vn 0 0 -1
vn 0 0 1
vn 0 0 -1
vn 0 0 1
vn 0 0 -1
vn 0 0 1
vn 0 0 -1
vn 0 0 1
vn 0 0 -1
vn 0 0 1
vn 0 0 -1
vn 0 0 1
vn 0 0 -1
vn 0 0 1
vn 0 0 -1
vn 0 0 1
usemtl m_8a44419e-6bb0-59e7-501f-93c2f0e88cce
f 13/25/7 11/26/7 9/27/7
f 12/28/8 14/29/8 10/30/8
f 15/31/9 13/32/9 9/33/9
f 14/34/10 16/35/10 10/36/10
f 17/37/11 15/38/11 9/39/11
f 16/40/12 18/41/12 10/42/12
f 19/43/13 17/44/13 9/45/13
f 18/46/14 20/47/14 10/48/14
f 21/49/15 19/50/15 9/51/15
f 20/52/16 22/53/16 10/54/16
f 23/55/17 21/56/17 9/57/17
f 22/58/18 24/59/18 10/60/18
f 25/61/19 23/62/19 9/63/19
f 24/64/20 26/65/20 10/66/20
f 11/67/21 25/68/21 9/69/21
f 26/70/22 12/71/22 10/72/22
o cylinder
v -2.312964634635743e-18 0.15625 -0.0953125
v -2.312964634635743e-18 0.15625 0.09531250000000002
v 0.06249999999999999 0.18213834764831843 -0.0953125
v 0.06249999999999999 0.18213834764831843 0.09531250000000002
v 0.025888347648318443 0.21875 -0.0953125
v 0.025888347648318443 0.21875 0.09531250000000002
v -0.025888347648318443 0.21875 -0.0953125
v -0.025888347648318443 0.21875 0.09531250000000002
v -0.0625 0.18213834764831846 -0.0953125
v -0.0625 0.18213834764831846 0.09531250000000002
v -0.0625 0.13036165235168157 -0.0953125
v -0.0625 0.13036165235168157 0.09531250000000002
v -0.025888347648318485 0.09375000000000003 -0.0953125
v -0.025888347648318485 0.09375000000000003 0.09531250000000002
v 0.025888347648318454 0.09375 -0.0953125
v 0.025888347648318454 0.09375 0.09531250000000002
v 0.06249999999999999 0.1303616523516815 -0.0953125
v 0.06249999999999999 0.1303616523516815 0.09531250000000002
vt 0.125 0.27588749999999995
vt 0.08838750000000001 0.3125
vt 0.0625 0.25
vt 0.2133875 0.1875
vt 0.25 0.22411249999999994
vt 0.1875 0.25
vt 0.125 0.22411249999999994
vt 0.125 0.27588749999999995
vt 0.0625 0.25
vt 0.25 0.22411249999999994
vt 0.25 0.27588749999999995
vt 0.1875 0.25
vt 0.08838750000000001 0.1875
vt 0.125 0.22411249999999994
vt 0.0625 0.25
vt 0.25 0.27588749999999995
vt 0.2133875 0.3125
vt 0.1875 0.25
vt 0.0366125 0.1875
vt 0.08838750000000001 0.1875
vt 0.0625 0.25
vt 0.2133875 0.3125
vt 0.1616125 0.3125
vt 0.1875 0.25
vt 0 0.22411249999999994
vt 0.0366125 0.1875
vt 0.0625 0.25
vt 0.1616125 0.3125
vt 0.125 0.27588749999999995
vt 0.1875 0.25
vt 0 0.27588749999999995
vt 0 0.22411249999999994
vt 0.0625 0.25
vt 0.125 0.27588749999999995
vt 0.125 0.22411249999999994
vt 0.1875 0.25
vt 0.0366125 0.3125
vt 0 0.27588749999999995
vt 0.0625 0.25
vt 0.125 0.22411249999999994
vt 0.1616125 0.1875
vt 0.1875 0.25
vt 0.08838750000000001 0.3125
vt 0.0366125 0.3125
vt 0.0625 0.25
vt 0.1616125 0.1875
vt 0.2133875 0.1875
vt 0.1875 0.25
vn 0 0 -1
vn 0 0 1
vn 0 0 -1
vn 0 0 1
vn 0 0 -1
vn 0 0 1
vn 0 0 -1
vn 0 0 1
vn 0 0 -1
vn 0 0 1
vn 0 0 -1
vn 0 0 1
vn 0 0 -1
vn 0 0 1
vn 0 0 -1
vn 0 0 1
usemtl m_8a44419e-6bb0-59e7-501f-93c2f0e88cce
f 31/73/23 29/74/23 27/75/23
f 30/76/24 32/77/24 28/78/24
f 33/79/25 31/80/25 27/81/25
f 32/82/26 34/83/26 28/84/26
f 35/85/27 33/86/27 27/87/27
f 34/88/28 36/89/28 28/90/28
f 37/91/29 35/92/29 27/93/29
f 36/94/30 38/95/30 28/96/30
f 39/97/31 37/98/31 27/99/31
f 38/100/32 40/101/32 28/102/32
f 41/103/33 39/104/33 27/105/33
f 40/106/34 42/107/34 28/108/34
f 43/109/35 41/110/35 27/111/35
f 42/112/36 44/113/36 28/114/36
f 29/115/37 43/116/37 27/117/37
f 44/118/38 30/119/38 28/120/38
o cylinder
v -2.312964634635743e-18 -0.15625 -0.0953125
v -2.312964634635743e-18 -0.15625 0.09531250000000002
v 0.06249999999999999 -0.13036165235168157 -0.0953125
v 0.06249999999999999 -0.13036165235168157 0.09531250000000002
v 0.025888347648318443 -0.09375 -0.0953125
v 0.025888347648318443 -0.09375 0.09531250000000002
v -0.025888347648318443 -0.09375 -0.0953125
v -0.025888347648318443 -0.09375 0.09531250000000002
v -0.0625 -0.13036165235168154 -0.0953125
v -0.0625 -0.13036165235168154 0.09531250000000002
v -0.0625 -0.18213834764831843 -0.0953125
v -0.0625 -0.18213834764831843 0.09531250000000002
v -0.025888347648318485 -0.21874999999999997 -0.0953125
v -0.025888347648318485 -0.21874999999999997 0.09531250000000002
v 0.025888347648318454 -0.21875 -0.0953125
v 0.025888347648318454 -0.21875 0.09531250000000002
v 0.06249999999999999 -0.1821383476483185 -0.0953125
v 0.06249999999999999 -0.1821383476483185 0.09531250000000002
vt 0.375 0.27588749999999995
vt 0.3383875 0.3125
vt 0.3125 0.25
vt 0.4633875 0.1875
vt 0.5 0.22411249999999994
vt 0.4375 0.25
vt 0.375 0.22411249999999994
vt 0.375 0.27588749999999995
vt 0.3125 0.25
vt 0.5 0.22411249999999994
vt 0.5 0.27588749999999995
vt 0.4375 0.25
vt 0.3383875 0.1875
vt 0.375 0.22411249999999994
vt 0.3125 0.25
vt 0.5 0.27588749999999995
vt 0.4633875 0.3125
vt 0.4375 0.25
vt 0.2866125 0.1875
vt 0.3383875 0.1875
vt 0.3125 0.25
vt 0.4633875 0.3125
vt 0.4116125 0.3125
vt 0.4375 0.25
vt 0.25 0.22411249999999994
vt 0.2866125 0.1875
vt 0.3125 0.25
vt 0.4116125 0.3125
vt 0.375 0.27588749999999995
vt 0.4375 0.25
vt 0.25 0.27588749999999995
vt 0.25 0.22411249999999994
vt 0.3125 0.25
vt 0.375 0.27588749999999995
vt 0.375 0.22411249999999994
vt 0.4375 0.25
vt 0.2866125 0.3125
vt 0.25 0.27588749999999995
vt 0.3125 0.25
vt 0.375 0.22411249999999994
vt 0.4116125 0.1875
vt 0.4375 0.25
vt 0.3383875 0.3125
vt 0.2866125 0.3125
vt 0.3125 0.25
vt 0.4116125 0.1875
vt 0.4633875 0.1875
vt 0.4375 0.25
vn 0 0 -1
vn 0 0 1
vn 0 0 -1
vn 0 0 1
vn 0 0 -1
vn 0 0 1
vn 0 0 -1
vn 0 0 1
vn 0 0 -1
vn 0 0 1
vn 0 0 -1
vn 0 0 1
vn 0 0 -1
vn 0 0 1
vn 0 0 -1
vn 0 0 1
usemtl m_8a44419e-6bb0-59e7-501f-93c2f0e88cce
f 49/121/39 47/122/39 45/123/39
f 48/124/40 50/125/40 46/126/40
f 51/127/41 49/128/41 45/129/41
f 50/130/42 52/131/42 46/132/42
f 53/133/43 51/134/43 45/135/43
f 52/136/44 54/137/44 46/138/44
f 55/139/45 53/140/45 45/141/45
f 54/142/46 56/143/46 46/144/46
f 57/145/47 55/146/47 45/147/47
f 56/148/48 58/149/48 46/150/48
f 59/151/49 57/152/49 45/153/49
f 58/154/50 60/155/50 46/156/50
f 61/157/51 59/158/51 45/159/51
f 60/160/52 62/161/52 46/162/52
f 47/163/53 61/164/53 45/165/53
f 62/166/54 48/167/54 46/168/54