# Made in Blockbench 4.11.1
mtllib floor_light.pbr

o cylinder_selection
v 0.08373412263472584 0 0.3125
v 0.2287658773652741 0 0.2287658773652742
v 0.3125 0 0.08373412263472584
v 0.3125 0 -0.08373412263472586
v 0.2287658773652742 0 -0.22876587736527415
v 0.08373412263472593 0 -0.31249999999999994
v -0.0837341226347257 0 -0.3125
v -0.22876587736527415 0 -0.2287658773652742
v -0.31249999999999994 0 -0.08373412263472578
v -0.3125 0 0.0837341226347257
v -0.2287658773652742 0 0.2287658773652741
v -0.08373412263472581 0 0.3125
v 0.08373412263472584 0 0.3125
v 0.2287658773652741 0 0.2287658773652742
v 0.3125 0 0.08373412263472584
v 0.3125 0 -0.08373412263472586
v 0.2287658773652742 0 -0.22876587736527415
v 0.08373412263472593 0 -0.31249999999999994
v -0.0837341226347257 0 -0.3125
v -0.22876587736527415 0 -0.2287658773652742
v -0.31249999999999994 0 -0.08373412263472578
v -0.3125 0 0.0837341226347257
v -0.2287658773652742 0 0.2287658773652741
v -0.08373412263472581 0 0.3125
vt 0.130725 1
vt 0.047846428571428574 0.9521535714285714
vt 0 0.869275
vt 0 0.7735821428571429
vt 0 0.7735821428571429
vt 0.047846428571428574 0.6907035714285714
vt 0.130725 0.6428571428571428
vt 0.22641785714285714 0.6428571428571428
vt 0.22641785714285714 0.6428571428571428
vt 0.3092964285714285 0.6907035714285714
vt 0.35714285714285715 0.7735821428571429
vt 0.35714285714285715 0.869275
vt 0.35714285714285715 0.869275
vt 0.3092964285714285 0.9521535714285714
vt 0.22641785714285714 1
vt 0.130725 1
vt 0.130725 1
vt 0 0.7735821428571429
vt 0.22641785714285714 0.6428571428571428
vt 0.35714285714285715 0.869275
vt 0.32142857142857145 0.4164392857142857
vt 0.369275 0.3335607142857143
vt 0.45215357142857143 0.2857142857142857
vt 0.32142857142857145 0.5121321428571428
vt 0.45215357142857143 0.6428571428571428
vt 0.369275 0.5950107142857143
vt 0.32142857142857145 0.5121321428571428
vt 0.5478464285714286 0.6428571428571428
vt 0.6785714285714286 0.5121321428571428
vt 0.630725 0.5950107142857143
vt 0.5478464285714286 0.6428571428571428
vt 0.6785714285714286 0.4164392857142857
vt 0.5478464285714286 0.2857142857142857
vt 0.630725 0.3335607142857143
vt 0.6785714285714286 0.4164392857142857
vt 0.45215357142857143 0.2857142857142857
vt 0.5478464285714286 0.6428571428571428
vt 0.32142857142857145 0.5121321428571428
vt 0.45215357142857143 0.2857142857142857
vt 0.6785714285714286 0.4164392857142857
vn 0 1 0
vn 0 1 0
vn 0 1 0
vn 0 1 0
vn 0 1 0
vn 0 -1 0
vn 0 -1 0
vn 0 -1 0
vn 0 -1 0
vn 0 -1 0
usemtl m_d41f45f9-a3c6-a71c-d66d-8e3de0200b21
f 7/1/1 8/2/1 9/3/1 10/4/1
f 10/5/2 11/6/2 12/7/2 1/8/2
f 1/9/3 2/10/3 3/11/3 4/12/3
f 4/13/4 5/14/4 6/15/4 7/16/4
f 7/17/5 10/18/5 1/19/5 4/20/5
f 21/21/6 20/22/6 19/23/6 22/24/6
f 24/25/7 23/26/7 22/27/7 13/28/7
f 15/29/8 14/30/8 13/31/8 16/32/8
f 18/33/9 17/34/9 16/35/9 19/36/9
f 13/37/10 22/38/10 19/39/10 16/40/10
o cylinder
v 0.06698729810778066 0.125 0.24999999999999997
v 0.06698729810778066 0.375 0.24999999999999997
v 0.1830127018922193 0.125 0.18301270189221933
v 0.1830127018922193 0.375 0.18301270189221933
v 0.24999999999999997 0.125 0.06698729810778066
v 0.24999999999999997 0.375 0.06698729810778066
v 0.24999999999999997 0.125 -0.06698729810778069
v 0.24999999999999997 0.375 -0.06698729810778069
v 0.18301270189221933 0.125 -0.1830127018922193
v 0.18301270189221933 0.375 -0.1830127018922193
v 0.06698729810778074 0.125 -0.24999999999999994
v 0.06698729810778074 0.375 -0.24999999999999994
v -0.06698729810778056 0.125 -0.25
v -0.06698729810778056 0.375 -0.25
v -0.1830127018922193 0.125 -0.18301270189221935
v -0.1830127018922193 0.375 -0.18301270189221935
v -0.24999999999999997 0.125 -0.06698729810778063
v -0.24999999999999997 0.375 -0.06698729810778063
v -0.25 0.125 0.06698729810778055
v -0.25 0.375 0.06698729810778055
v -0.18301270189221935 0.125 0.18301270189221927
v -0.18301270189221935 0.375 0.18301270189221927
v -0.06698729810778065 0.125 0.24999999999999997
v -0.06698729810778065 0.375 0.24999999999999997
vt 0.8686357142857143 0.8571428571428572
vt 0.9451928571428573 0.8571428571428572
vt 0.9451928571428573 1
vt 0.8686357142857143 1
vt 0.0012357142857142764 0.1428571428571429
vt 0.07779285714285714 0.1428571428571429
vt 0.07779285714285714 0.2857142857142857
vt 0.0012357142857142764 0.2857142857142857
vt 0.07779285714285714 0.1428571428571429
vt 0.15435 0.1428571428571429
vt 0.15435 0.2857142857142857
vt 0.07779285714285714 0.2857142857142857
vt 0.15435 0.1428571428571429
vt 0.2309071428571429 0.1428571428571429
vt 0.2309071428571429 0.2857142857142857
vt 0.15435 0.2857142857142857
vt 0.7155214285714286 0.5
vt 0.7920785714285714 0.5
vt 0.7920785714285714 0.6428571428571428
vt 0.7155214285714286 0.6428571428571428
vt 0.7920785714285714 0.5
vt 0.8686357142857143 0.5
vt 0.8686357142857143 0.6428571428571428
vt 0.7920785714285714 0.6428571428571428
vt 0.8686357142857143 0.5
vt 0.9451928571428573 0.5
vt 0.9451928571428573 0.6428571428571428
vt 0.8686357142857143 0.6428571428571428
vt 0.7155214285714286 0.6785714285714286
vt 0.7920785714285714 0.6785714285714286
vt 0.7920785714285714 0.8214285714285714
vt 0.7155214285714286 0.8214285714285714
vt 0.7920785714285714 0.6785714285714286
vt 0.8686357142857143 0.6785714285714286
vt 0.8686357142857143 0.8214285714285714
vt 0.7920785714285714 0.8214285714285714
vt 0.8686357142857143 0.6785714285714286
vt 0.9451928571428573 0.6785714285714286
vt 0.9451928571428573 0.8214285714285714
vt 0.8686357142857143 0.8214285714285714
vt 0.7155214285714286 0.8571428571428572
vt 0.7920785714285714 0.8571428571428572
vt 0.7920785714285714 1
vt 0.7155214285714286 1
vt 0.7920785714285714 0.8571428571428572
vt 0.8686357142857143 0.8571428571428572
vt 0.8686357142857143 1
vt 0.7920785714285714 1
vt 0.18113571428571426 0.3214285714285714
vt 0.2474357142857143 0.3597071428571429
vt 0.2857142857142857 0.4260071428571427
vt 0.2857142857142857 0.5025642857142857
vt 0.2857142857142857 0.5025642857142857
vt 0.2474357142857143 0.5688642857142856
vt 0.18113571428571432 0.6071428571428572
vt 0.10457857142857148 0.6071428571428572
vt 0.10457857142857142 0.6071428571428572
vt 0.03827857142857143 0.5688642857142856
vt 0 0.5025642857142857
vt 0 0.4260071428571429
vt 1.586032892321652e-17 0.4260071428571427
vt 0.03827857142857143 0.3597071428571429
vt 0.10457857142857142 0.3214285714285714
vt 0.18113571428571426 0.3214285714285714
vt 0.18113571428571426 0.3214285714285714
vt 0.2857142857142857 0.5025642857142857
vt 0.10457857142857142 0.6071428571428572
vt 1.586032892321652e-17 0.4260071428571427
vt 0.4974357142857143 1
vt 0.4311357142857143 0.9617214285714286
vt 0.39285714285714285 0.8954214285714286
vt 0.39285714285714285 0.8188642857142857
vt 0.39285714285714285 0.8188642857142857
vt 0.4311357142857143 0.7525642857142858
vt 0.4974357142857143 0.7142857142857143
vt 0.5739928571428571 0.7142857142857143
vt 0.5739928571428571 0.7142857142857143
vt 0.6402928571428571 0.7525642857142858
vt 0.6785714285714286 0.8188642857142857
vt 0.6785714285714286 0.8954214285714286
vt 0.2857142857142857 0.07655686989720167
vt 0.32142857142857145 0.14285719281299536
vt 0.32142857142857145 0.219413962798492
vt 0.2857142857142857 0.2857142857142857
vt 0.4974357142857143 1
vt 0.39285714285714285 0.8188642857142857
vt 0.5739928571428571 0.7142857142857143
vt 0.6785714285714286 0.8954214285714286
vn 0.4999999999999999 0 0.8660254037844388
vn 0.8660254037844388 0 0.5
vn 1 0 0
vn 0.8660254037844388 0 -0.5
vn 0.5000000000000001 0 -0.8660254037844388
vn 4.143408735633879e-16 0 -1
vn -0.4999999999999996 0 -0.8660254037844389
vn -0.8660254037844389 0 -0.4999999999999998
vn -1 0 -2.0717043678169412e-16
vn -0.8660254037844389 0 0.4999999999999996
vn -0.4999999999999999 0 0.8660254037844386
vn 0 0 1
vn 0 -1 0
vn 0 -1 0
vn 0 -1 0
vn 0 -1 0
vn 0 -1 0
vn 0 1 0
vn 0 1 0
vn 0 1 0
vn 0 1 0
vn 0 1 0
usemtl m_d41f45f9-a3c6-a71c-d66d-8e3de0200b21
f 25/41/11 27/42/11 28/43/11 26/44/11
f 27/45/12 29/46/12 30/47/12 28/48/12
f 29/49/13 31/50/13 32/51/13 30/52/13
f 31/53/14 33/54/14 34/55/14 32/56/14
f 33/57/15 35/58/15 36/59/15 34/60/15
f 35/61/16 37/62/16 38/63/16 36/64/16
f 37/65/17 39/66/17 40/67/17 38/68/17
f 39/69/18 41/70/18 42/71/18 40/72/18
f 41/73/19 43/74/19 44/75/19 42/76/19
f 43/77/20 45/78/20 46/79/20 44/80/20
f 45/81/21 47/82/21 48/83/21 46/84/21
f 47/85/22 25/86/22 26/87/22 48/88/22
f 35/89/23 33/90/23 31/91/23 29/92/23
f 29/93/24 27/94/24 25/95/24 47/96/24
f 47/97/25 45/98/25 43/99/25 41/100/25
f 41/101/26 39/102/26 37/103/26 35/104/26
f 35/105/27 29/106/27 47/107/27 41/108/27
f 38/109/28 40/110/28 42/111/28 44/112/28
f 44/113/29 46/114/29 48/115/29 26/116/29
f 26/117/30 28/118/30 30/119/30 32/120/30
f 32/121/31 34/122/31 36/123/31 38/124/31
f 38/125/32 44/126/32 26/127/32 32/128/32
o plane
v 1.5 0.375 1.1102230246251565e-16
v 1.5 3.375 -5.551115123125783e-16
v -1.5 0.375 1.1102230246251565e-16
v -1.5 3.375 -5.551115123125783e-16
v 1.5 0.375 1.1102230246251565e-16
v 1.5 3.375 -5.551115123125783e-16
v -1.5 0.375 1.1102230246251565e-16
v -1.5 3.375 -5.551115123125783e-16
vt 1 1
vt 0 1
vt 0 0
vt 1 0
vt 0 0
vt 0 1
vt 1 1
vt 1 0
vn 0 -2.220446049250313e-16 -1
vn 0 2.220446049250313e-16 1
usemtl m_28881cd3-971e-1932-e95e-a8c54417965b
f 52/129/33 50/130/33 49/131/33 51/132/33
f 53/133/34 54/134/34 56/135/34 55/136/34
o base_r
v 0.3125 0.3125 0.03125
v 0.3125 0.3125 -0.03125
v 0.3125 0 0.03125
v 0.3125 0 -0.03125
v 0.25 0.3125 0.03125
v 0.25 0.3125 -0.03125
v 0.25 0 0.03125
v 0.25 0 -0.03125
vt 0.75 0.4642857142857143
vt 0.7142857142857143 0.4642857142857143
vt 0.7142857142857143 0.2857142857142857
vt 0.75 0.2857142857142857
vt 0.39285714285714285 0.0714285714285714
vt 0.39285714285714285 0.25
vt 0.35714285714285715 0.25
vt 0.35714285714285715 0.0714285714285714
vt 0.7857142857142857 0.2142857142857143
vt 0.8214285714285714 0.2142857142857143
vt 0.8214285714285714 0.25
vt 0.7857142857142857 0.25
vt 0.4642857142857143 0.0714285714285714
vt 0.4642857142857143 0.25
vt 0.42857142857142855 0.25
vt 0.42857142857142855 0.0714285714285714
vt 0.5357142857142857 0.25
vt 0.5 0.25
vt 0.5 0.0714285714285714
vt 0.5357142857142857 0.0714285714285714
vn 1 0 0
vn -1 0 0
vn 0 1 0
vn 0 0 1
vn 0 0 -1
usemtl m_d41f45f9-a3c6-a71c-d66d-8e3de0200b21
f 58/137/35 57/138/35 59/139/35 60/140/35
f 63/141/36 61/142/36 62/143/36 64/144/36
f 61/145/37 57/146/37 58/147/37 62/148/37
f 59/149/38 57/150/38 61/151/38 63/152/38
f 62/153/39 58/154/39 60/155/39 64/156/39
o base_l
v -0.25 0.3125 0.03125
v -0.25 0.3125 -0.03125
v -0.25 0 0.03125
v -0.25 0 -0.03125
v -0.3125 0.3125 0.03125
v -0.3125 0.3125 -0.03125
v -0.3125 0 0.03125
v -0.3125 0 -0.03125
vt 0.6071428571428571 0.25
vt 0.5714285714285714 0.25
vt 0.5714285714285714 0.0714285714285714
vt 0.6071428571428571 0.0714285714285714
vt 0.6785714285714286 0.0714285714285714
vt 0.6785714285714286 0.25
vt 0.6428571428571429 0.25
vt 0.6428571428571429 0.0714285714285714
vt 0.7857142857142857 0.1428571428571429
vt 0.8214285714285714 0.1428571428571429
vt 0.8214285714285714 0.1785714285714286
vt 0.7857142857142857 0.1785714285714286
vt 0.75 0.0714285714285714
vt 0.75 0.25
vt 0.7142857142857143 0.25
vt 0.7142857142857143 0.0714285714285714
vt 0.8214285714285714 0.4642857142857143
vt 0.7857142857142857 0.4642857142857143
vt 0.7857142857142857 0.2857142857142857
vt 0.8214285714285714 0.2857142857142857
vn 1 0 0
vn -1 0 0
vn 0 1 0
vn 0 0 1
vn 0 0 -1
usemtl m_d41f45f9-a3c6-a71c-d66d-8e3de0200b21
f 66/157/40 65/158/40 67/159/40 68/160/40
f 71/161/41 69/162/41 70/163/41 72/164/41
f 69/165/42 65/166/42 66/167/42 70/168/42
f 67/169/43 65/170/43 69/171/43 71/172/43
f 70/173/44 66/174/44 68/175/44 72/176/44