# Blender 4.3.2
# www.blender.org
mtllib floor_light.mtl
o base_l
v -0.250000 0.312500 0.031250
v -0.250000 0.312500 -0.031250
v -0.250000 0.000000 0.031250
v -0.250000 -0.000000 -0.031250
v -0.312500 0.312500 0.031250
v -0.312500 0.312500 -0.031250
v -0.312500 0.000000 0.031250
v -0.312500 -0.000000 -0.031250
vn 0.5774 0.5774 -0.5774
vn 0.5774 0.5774 0.5774
vn 0.7071 -0.0000 0.7071
vn 0.7071 -0.0000 -0.7071
vn -0.7071 -0.0000 0.7071
vn -0.5774 0.5774 0.5774
vn -0.5774 0.5774 -0.5774
vn -0.7071 -0.0000 -0.7071
vt 0.607143 0.250000
vt 0.571429 0.250000
vt 0.571429 0.071429
vt 0.607143 0.071429
vt 0.678571 0.071429
vt 0.678571 0.250000
vt 0.642857 0.250000
vt 0.642857 0.071429
vt 0.785714 0.142857
vt 0.821429 0.142857
vt 0.821429 0.178571
vt 0.785714 0.178571
vt 0.750000 0.071429
vt 0.750000 0.250000
vt 0.714286 0.250000
vt 0.714286 0.071429
vt 0.821429 0.464286
vt 0.785714 0.464286
vt 0.785714 0.285714
vt 0.821429 0.285714
s 1
usemtl m_d41f45f9-a3c6-a71c-d66d-8e3de0200b21
f 2/1/1 1/2/2 3/3/3 4/4/4
f 7/5/5 5/6/6 6/7/7 8/8/8
f 5/9/6 1/10/2 2/11/1 6/12/7
f 3/13/3 1/14/2 5/15/6 7/16/5
f 6/17/7 2/18/1 4/19/4 8/20/8
o base_r
v 0.312500 0.312500 0.031250
v 0.312500 0.312500 -0.031250
v 0.312500 0.000000 0.031250
v 0.312500 -0.000000 -0.031250
v 0.250000 0.312500 0.031250
v 0.250000 0.312500 -0.031250
v 0.250000 0.000000 0.031250
v 0.250000 -0.000000 -0.031250
vn 0.5774 0.5774 -0.5774
vn 0.5774 0.5774 0.5774
vn 0.7071 -0.0000 0.7071
vn 0.7071 -0.0000 -0.7071
vn -0.7071 -0.0000 0.7071
vn -0.5774 0.5774 0.5774
vn -0.5774 0.5774 -0.5774
vn -0.7071 -0.0000 -0.7071
vt 0.750000 0.464286
vt 0.714286 0.464286
vt 0.714286 0.285714
vt 0.750000 0.285714
vt 0.392857 0.071429
vt 0.392857 0.250000
vt 0.357143 0.250000
vt 0.357143 0.071429
vt 0.785714 0.214286
vt 0.821429 0.214286
vt 0.821429 0.250000
vt 0.785714 0.250000
vt 0.464286 0.071429
vt 0.464286 0.250000
vt 0.428571 0.250000
vt 0.428571 0.071429
vt 0.535714 0.250000
vt 0.500000 0.250000
vt 0.500000 0.071429
vt 0.535714 0.071429
s 1
usemtl m_d41f45f9-a3c6-a71c-d66d-8e3de0200b21
f 10/21/9 9/22/10 11/23/11 12/24/12
f 15/25/13 13/26/14 14/27/15 16/28/16
f 13/29/14 9/30/10 10/31/9 14/32/15
f 11/33/11 9/34/10 13/35/14 15/36/13
f 14/37/15 10/38/9 12/39/12 16/40/16
o cylinder
v 0.066987 0.125000 0.250000
v 0.066987 0.375000 0.250000
v 0.183013 0.125000 0.183013
v 0.183013 0.375000 0.183013
v 0.250000 0.125000 0.066987
v 0.250000 0.375000 0.066987
v 0.250000 0.125000 -0.066987
v 0.250000 0.375000 -0.066987
v 0.183013 0.125000 -0.183013
v 0.183013 0.375000 -0.183013
v 0.066987 0.125000 -0.250000
v 0.066987 0.375000 -0.250000
v -0.066987 0.125000 -0.250000
v -0.066987 0.375000 -0.250000
v -0.183013 0.125000 -0.183013
v -0.183013 0.375000 -0.183013
v -0.250000 0.125000 -0.066987
v -0.250000 0.375000 -0.066987
v -0.250000 0.125000 0.066987
v -0.250000 0.375000 0.066987
v -0.183013 0.125000 0.183013
v -0.183013 0.375000 0.183013
v -0.066987 0.125000 0.250000
v -0.066987 0.375000 0.250000
vn 0.1960 -0.6532 0.7314
vn 0.5354 -0.6532 0.5354
vn 0.5354 0.6532 0.5354
vn 0.1960 0.6532 0.7314
vn 0.7314 -0.6532 0.1960
vn 0.7314 0.6532 0.1960
vn 0.7314 -0.6532 -0.1960
vn 0.7314 0.6532 -0.1960
vn 0.5354 -0.6532 -0.5354
vn 0.5354 0.6532 -0.5354
vn 0.1960 -0.6532 -0.7314
vn 0.1960 0.6532 -0.7314
vn -0.1960 -0.6532 -0.7314
vn -0.1960 0.6532 -0.7314
vn -0.5354 -0.6532 -0.5354
vn -0.5354 0.6532 -0.5354
vn -0.7314 -0.6532 -0.1960
vn -0.7314 0.6532 -0.1960
vn -0.7314 -0.6532 0.1960
vn -0.7314 0.6532 0.1960
vn -0.5354 -0.6532 0.5354
vn -0.5354 0.6532 0.5354
vn -0.1960 -0.6532 0.7314
vn -0.1960 0.6532 0.7314
vt 0.868636 0.857143
vt 0.945193 0.857143
vt 0.945193 1.000000
vt 0.868636 1.000000
vt 0.001236 0.142857
vt 0.077793 0.142857
vt 0.077793 0.285714
vt 0.001236 0.285714
vt 0.154350 0.142857
vt 0.154350 0.285714
vt 0.230907 0.142857
vt 0.230907 0.285714
vt 0.715521 0.500000
vt 0.792079 0.500000
vt 0.792079 0.642857
vt 0.715521 0.642857
vt 0.868636 0.500000
vt 0.868636 0.642857
vt 0.945193 0.500000
vt 0.945193 0.642857
vt 0.715521 0.678571
vt 0.792079 0.678571
vt 0.792079 0.821429
vt 0.715521 0.821429
vt 0.868636 0.678571
vt 0.868636 0.821429
vt 0.945193 0.678571
vt 0.945193 0.821429
vt 0.715521 0.857143
vt 0.792079 0.857143
vt 0.792079 1.000000
vt 0.715521 1.000000
vt 0.181136 0.321429
vt 0.247436 0.359707
vt 0.285714 0.426007
vt 0.285714 0.502564
vt 0.247436 0.568864
vt 0.181136 0.607143
vt 0.104579 0.607143
vt 0.038279 0.568864
vt 0.000000 0.502564
vt 0.000000 0.426007
vt 0.000000 0.426007
vt 0.038279 0.359707
vt 0.104579 0.321429
vt 0.497436 1.000000
vt 0.431136 0.961721
vt 0.392857 0.895421
vt 0.392857 0.818864
vt 0.431136 0.752564
vt 0.497436 0.714286
vt 0.573993 0.714286
vt 0.640293 0.752564
vt 0.678571 0.818864
vt 0.678571 0.895421
vt 0.285714 0.076557
vt 0.321429 0.142857
vt 0.321429 0.219414
vt 0.285714 0.285714
s 1
usemtl m_d41f45f9-a3c6-a71c-d66d-8e3de0200b21
f 17/41/17 19/42/18 20/43/19 18/44/20
f 19/45/18 21/46/21 22/47/22 20/48/19
f 21/46/21 23/49/23 24/50/24 22/47/22
f 23/49/23 25/51/25 26/52/26 24/50/24
f 25/53/25 27/54/27 28/55/28 26/56/26
f 27/54/27 29/57/29 30/58/30 28/55/28
f 29/57/29 31/59/31 32/60/32 30/58/30
f 31/61/31 33/62/33 34/63/34 32/64/32
f 33/62/33 35/65/35 36/66/36 34/63/34
f 35/65/35 37/67/37 38/68/38 36/66/36
f 37/69/37 39/70/39 40/71/40 38/72/38
f 39/70/39 17/41/17 18/44/20 40/71/40
f 27/73/27 25/74/25 23/75/23 21/76/21
f 21/76/21 19/77/18 17/78/17 39/79/39
f 39/79/39 37/80/37 35/81/35 33/82/33
f 33/83/33 31/84/31 29/85/29 27/73/27
f 27/73/27 21/76/21 39/79/39 33/83/33
f 30/86/30 32/87/32 34/88/34 36/89/36
f 36/89/36 38/90/38 40/91/40 18/92/20
f 18/92/20 20/93/19 22/94/22 24/95/24
f 24/96/24 26/97/26 28/98/28 30/99/30
f 30/86/30 36/89/36 18/92/20 24/95/24
o cylinder_selection
v 0.083734 0.000000 0.312500
v 0.228766 0.000000 0.228766
v 0.312500 0.000000 0.083734
v 0.312500 -0.000000 -0.083734
v 0.228766 -0.000000 -0.228766
v 0.083734 -0.000000 -0.312500
v -0.083734 -0.000000 -0.312500
v -0.228766 -0.000000 -0.228766
v -0.312500 -0.000000 -0.083734
v -0.312500 0.000000 0.083734
v -0.228766 0.000000 0.228766
v -0.083734 0.000000 0.312500
v 0.083734 0.000000 0.312500
v 0.228766 0.000000 0.228766
v 0.312500 0.000000 0.083734
v 0.312500 -0.000000 -0.083734
v 0.228766 -0.000000 -0.228766
v 0.083734 -0.000000 -0.312500
v -0.083734 -0.000000 -0.312500
v -0.228766 -0.000000 -0.228766
v -0.312500 -0.000000 -0.083734
v -0.312500 0.000000 0.083734
v -0.228766 0.000000 0.228766
v -0.083734 0.000000 0.312500
vn -0.0000 1.0000 -0.0000
vn -0.0000 -1.0000 -0.0000
vt 0.130725 1.000000
vt 0.047846 0.952154
vt 0.000000 0.869275
vt 0.000000 0.773582
vt 0.047846 0.690704
vt 0.130725 0.642857
vt 0.226418 0.642857
vt 0.309296 0.690704
vt 0.357143 0.773582
vt 0.357143 0.869275
vt 0.309296 0.952154
vt 0.226418 1.000000
vt 0.321429 0.416439
vt 0.369275 0.333561
vt 0.452154 0.285714
vt 0.321429 0.512132
vt 0.452154 0.642857
vt 0.369275 0.595011
vt 0.547846 0.642857
vt 0.678571 0.512132
vt 0.630725 0.595011
vt 0.678571 0.416439
vt 0.547846 0.285714
vt 0.630725 0.333561
s 1
usemtl m_d41f45f9-a3c6-a71c-d66d-8e3de0200b21
f 47/100/41 48/101/41 49/102/41 50/103/41
f 50/103/41 51/104/41 52/105/41 41/106/41
f 41/106/41 42/107/41 43/108/41 44/109/41
f 44/109/41 45/110/41 46/111/41 47/100/41
f 47/100/41 50/103/41 41/106/41 44/109/41
f 61/112/42 60/113/42 59/114/42 62/115/42
f 64/116/42 63/117/42 62/115/42 53/118/42
f 55/119/42 54/120/42 53/118/42 56/121/42
f 58/122/42 57/123/42 56/121/42 59/114/42
f 53/118/42 62/115/42 59/114/42 56/121/42
o plane
v 1.500000 0.375000 -0.000000
v 1.500000 3.375000 -0.000000
v -1.500000 0.375000 -0.000000
v -1.500000 3.375000 -0.000000
v 1.500000 0.375000 -0.000000
v 1.500000 3.375000 -0.000000
v -1.500000 0.375000 -0.000000
v -1.500000 3.375000 -0.000000
vn -0.0000 -0.0000 -1.0000
vn -0.0000 -0.0000 1.0000
vt 1.000000 1.000000
vt 0.000000 1.000000
vt 0.000000 0.000000
vt 1.000000 0.000000
s 1
usemtl m_28881cd3-971e-1932-e95e-a8c54417965b
f 68/124/43 66/125/43 65/126/43 67/127/43
f 69/126/44 70/125/44 72/124/44 71/127/44
