# Made in Blockbench 4.8.3
mtllib skybox.mtl

o cuboid
v 1.5 1.5 1.5
v 1.5 1.5 -1.5
v 1.5 -1.5 1.5
v 1.5 -1.5 -1.5
v -1.5 1.5 1.5
v -1.5 1.5 -1.5
v -1.5 -1.5 1.5
v -1.5 -1.5 -1.5
vt 0.75 0.33333333333333337
vt 0.75 0.6666666666666667
vt 0.5 0.6666666666666667
vt 0.5 0.33333333333333337
vt 0.25 0.6666666666666667
vt 0 0.6666666666666667
vt 0 0.33333333333333337
vt 0.25 0.33333333333333337
vt 0.5 0.6666666666666667
vt 0.5 1
vt 0.25 1
vt 0.25 0.6666666666666667
vt 0.25 0
vt 0.5 0
vt 0.5 0.33333333333333337
vt 0.25 0.33333333333333337
vt 1 0.6666666666666667
vt 0.75 0.6666666666666667
vt 0.75 0.33333333333333337
vt 1 0.33333333333333337
vt 0.5 0.33333333333333337
vt 0.5 0.6666666666666667
vt 0.25 0.6666666666666667
vt 0.25 0.33333333333333337
vn -1 0 0
vn 1 0 0
vn 0 -1 0
vn 0 1 0
vn 0 0 -1
vn 0 0 1
usemtl m_fd0741b5-1470-473a-b441-1b197bd75efb
f 3/1/1 1/2/1 2/3/1 4/4/1
f 6/5/2 5/6/2 7/7/2 8/8/2
f 2/9/3 1/10/3 5/11/3 6/12/3
f 7/13/4 3/14/4 4/15/4 8/16/4
f 5/17/5 1/18/5 3/19/5 7/20/5
f 4/21/6 2/22/6 6/23/6 8/24/6