# Made in Blockbench 4.8.3
mtllib ice_cream_sandwich.mtl

o cuboid
v 0.5 2 0.1875
v 0.5 2 -0.1875
v 0.5 0 0.1875
v 0.5 0 -0.1875
v -0.5 2 0.1875
v -0.5 2 -0.1875
v -0.5 0 0.1875
v -0.5 0 -0.1875
vt 0.075 0.5875
vt 0 0.5875
vt 0 0.1875
vt 0.075 0.1875
vt 0.1625 0.1875
vt 0.1625 0.5875
vt 0.0875 0.5875
vt 0.0875 0.1875
vt 0.175 0.5125
vt 0.375 0.5125
vt 0.375 0.5875
vt 0.175 0.5875
vt 0.5875 0.5125
vt 0.5875 0.5875
vt 0.3875 0.5875
vt 0.3875 0.5125
vt 0.2 0.6
vt 0.2 1
vt 0 1
vt 0 0.6
vt 0.4125 1
vt 0.2125 1
vt 0.2125 0.6
vt 0.4125 0.6
vn 1 0 0
vn -1 0 0
vn 0 1 0
vn 0 -1 0
vn 0 0 1
vn 0 0 -1
usemtl m_4963b573-fe16-7812-e9fb-d90fd7b219df
f 2/1/1 1/2/1 3/3/1 4/4/1
f 7/5/2 5/6/2 6/7/2 8/8/2
f 5/9/3 1/10/3 2/11/3 6/12/3
f 4/13/4 3/14/4 7/15/4 8/16/4
f 3/17/5 1/18/5 5/19/5 7/20/5
f 6/21/6 2/22/6 4/23/6 8/24/6
o right_eye
v 0.25 1.421875 -0.203125
v 0.2165063509461097 1.2969939723022677 -0.20857742342066699
v 0.1584936490538904 1.330455742823844 -0.20711645096830678
v 0.12500000000000003 1.3884132294784242 -0.2045859724523602
v 0.12500000000000003 1.455336770521576 -0.2016640275476398
v 0.15849364905389038 1.513294257176156 -0.19913354903169322
v 0.21650635094610965 1.5467560276977321 -0.19767257657933301
v 0.2834936490538903 1.5467560276977321 -0.19767257657933301
v 0.3415063509461096 1.5132942571761563 -0.19913354903169322
v 0.375 1.4553367705215758 -0.2016640275476398
v 0.375 1.3884132294784242 -0.2045859724523602
v 0.34150635094610965 1.330455742823844 -0.20711645096830678
v 0.2834936490538903 1.2969939723022677 -0.20857742342066699
v 0.28125 1.390625 -0.20937499999999998
v 0.25612976320958225 1.2969939723022677 -0.21482742342066696
v 0.2126202367904178 1.3220823305603713 -0.21336645096830675
v 0.18750000000000003 1.3655366417418966 -0.2108359724523602
v 0.18750000000000003 1.4157133582581034 -0.20791402754763977
v 0.21262023679041778 1.4591676694396287 -0.2053835490316932
v 0.25612976320958225 1.4842560276977321 -0.203922576579333
v 0.30637023679041775 1.4842560276977321 -0.203922576579333
v 0.3498797632095822 1.459167669439629 -0.2053835490316932
v 0.375 1.4157133582581032 -0.20791402754763977
v 0.375 1.3655366417418966 -0.2108359724523602
v 0.34987976320958225 1.3220823305603713 -0.21336645096830675
v 0.30637023679041775 1.2969939723022677 -0.21482742342066696
vt 0.46830125 0.95669875
vt 0.475 0.96830125
vt 0.45 0.975
vt 0.475 0.96830125
vt 0.475 0.98169875
vt 0.45 0.975
vt 0.475 0.98169875
vt 0.46830125 0.99330125
vt 0.45 0.975
vt 0.46830125 0.99330125
vt 0.45669875 1
vt 0.45 0.975
vt 0.45669875 1
vt 0.44330125000000004 1
vt 0.45 0.975
vt 0.44330125000000004 1
vt 0.43169874999999996 0.99330125
vt 0.45 0.975
vt 0.43169874999999996 0.99330125
vt 0.425 0.98169875
vt 0.45 0.975
vt 0.425 0.98169875
vt 0.425 0.96830125
vt 0.45 0.975
vt 0.425 0.96830125
vt 0.43169874999999996 0.95669875
vt 0.45 0.975
vt 0.43169874999999996 0.95669875
vt 0.44330125000000004 0.95
vt 0.45 0.975
vt 0.44330125000000004 0.95
vt 0.45669875 0.95
vt 0.45 0.975
vt 0.45669875 0.95
vt 0.46830125 0.95669875
vt 0.45 0.975
vt 0.45747625000000003 0.84251
vt 0.4625 0.85121625
vt 0.44375 0.8562425
vt 0.4625 0.85121625
vt 0.4625 0.86126875
vt 0.44375 0.8562425
vt 0.4625 0.86126875
vt 0.45747625000000003 0.86997375
vt 0.44375 0.8562425
vt 0.45747625000000003 0.86997375
vt 0.44877374999999997 0.875
vt 0.44375 0.8562425
vt 0.44877374999999997 0.875
vt 0.43872625000000004 0.875
vt 0.44375 0.8562425
vt 0.43872625000000004 0.875
vt 0.43002375 0.86997375
vt 0.44375 0.8562425
vt 0.43002375 0.86997375
vt 0.425 0.86126875
vt 0.44375 0.8562425
vt 0.425 0.86126875
vt 0.425 0.85121625
vt 0.44375 0.8562425
vt 0.425 0.85121625
vt 0.43002375 0.84251
vt 0.44375 0.8562425
vt 0.43002375 0.84251
vt 0.43872625000000004 0.8374837500000001
vt 0.44375 0.8562425
vt 0.43872625000000004 0.8374837500000001
vt 0.44877374999999997 0.8374837500000001
vt 0.44375 0.8562425
vt 0.44877374999999997 0.8374837500000001
vt 0.45747625000000003 0.84251
vt 0.44375 0.8562425
vn -6.668298433910772e-16 0.04361938736533715 -0.9990482215818578
vn 3.8844456896567684e-17 0.04361938736533452 -0.9990482215818579
vn 7.720335808192831e-16 0.043619387365337256 -0.9990482215818577
vn -7.704150617819251e-16 0.043619387365335716 -0.9990482215818579
vn 0 0.04361938736533592 -0.9990482215818579
vn 6.279853864945108e-16 0.04361938736533576 -0.9990482215818579
vn -6.279853864945073e-16 0.043619387365337 -0.9990482215818578
vn 0 0.04361938736533466 -0.9990482215818579
vn 6.668298433910771e-16 0.043619387365337145 -0.9990482215818578
vn -8.772373182474831e-16 0.0436193873653356 -0.9990482215818578
vn 0 0.04361938736533584 -0.9990482215818578
vn 8.772373182474837e-16 0.043619387365335605 -0.9990482215818578
vn -9.663866643090708e-16 0.058134596684223085 -0.998308754177966
vn 0 0.05813459668421952 -0.9983087541779664
vn 9.66386664309071e-16 0.058134596684223085 -0.998308754177966
vn -9.663866643090714e-16 0.058134596684221176 -0.9983087541779662
vn 0 0.05813459668422143 -0.9983087541779662
vn 7.075330935119996e-16 0.05813459668422124 -0.9983087541779662
vn -7.075330935119927e-16 0.058134596684222654 -0.9983087541779663
vn 6.615146809258552e-17 0.05813459668421977 -0.9983087541779664
vn 9.663866643090708e-16 0.0581345966842231 -0.998308754177966
vn -1.1533364654402861e-15 0.05813459668422099 -0.9983087541779664
vn 0 0.058134596684221294 -0.9983087541779662
vn 1.1504603146536529e-15 0.058134596684220996 -0.9983087541779664
usemtl m_4963b573-fe16-7812-e9fb-d90fd7b219df
f 11/25/7 12/26/7 9/27/7
f 12/28/8 13/29/8 9/30/8
f 13/31/9 14/32/9 9/33/9
f 14/34/10 15/35/10 9/36/10
f 15/37/11 16/38/11 9/39/11
f 16/40/12 17/41/12 9/42/12
f 17/43/13 18/44/13 9/45/13
f 18/46/14 19/47/14 9/48/14
f 19/49/15 20/50/15 9/51/15
f 20/52/16 21/53/16 9/54/16
f 21/55/17 10/56/17 9/57/17
f 10/58/18 11/59/18 9/60/18
f 24/61/19 25/62/19 22/63/19
f 25/64/20 26/65/20 22/66/20
f 26/67/21 27/68/21 22/69/21
f 27/70/22 28/71/22 22/72/22
f 28/73/23 29/74/23 22/75/23
f 29/76/24 30/77/24 22/78/24
f 30/79/25 31/80/25 22/81/25
f 31/82/26 32/83/26 22/84/26
f 32/85/27 33/86/27 22/87/27
f 33/88/28 34/89/28 22/90/28
f 34/91/29 23/92/29 22/93/29
f 23/94/30 24/95/30 22/96/30
o left_eye
v -0.28125 1.390625 -0.20937499999999998
v -0.25612976320958225 1.2969939723022677 -0.21482742342066696
v -0.2126202367904178 1.3220823305603713 -0.21336645096830675
v -0.18750000000000003 1.3655366417418966 -0.2108359724523602
v -0.18750000000000003 1.4157133582581034 -0.20791402754763977
v -0.21262023679041778 1.4591676694396287 -0.2053835490316932
v -0.25612976320958225 1.4842560276977321 -0.203922576579333
v -0.30637023679041775 1.4842560276977321 -0.203922576579333
v -0.3498797632095822 1.459167669439629 -0.2053835490316932
v -0.375 1.4157133582581032 -0.20791402754763977
v -0.375 1.3655366417418966 -0.2108359724523602
v -0.34987976320958225 1.3220823305603713 -0.21336645096830675
v -0.30637023679041775 1.2969939723022677 -0.21482742342066696
v -0.25 1.421875 -0.203125
v -0.2165063509461097 1.2969939723022677 -0.20857742342066699
v -0.1584936490538904 1.330455742823844 -0.20711645096830678
v -0.12500000000000003 1.3884132294784242 -0.2045859724523602
v -0.12500000000000003 1.455336770521576 -0.2016640275476398
v -0.15849364905389038 1.513294257176156 -0.19913354903169322
v -0.21650635094610965 1.5467560276977321 -0.19767257657933301
v -0.2834936490538903 1.5467560276977321 -0.19767257657933301
v -0.3415063509461096 1.5132942571761563 -0.19913354903169322
v -0.375 1.4553367705215758 -0.2016640275476398
v -0.375 1.3884132294784242 -0.2045859724523602
v -0.34150635094610965 1.330455742823844 -0.20711645096830678
v -0.2834936490538903 1.2969939723022677 -0.20857742342066699
vt 0.425 0.78871625
vt 0.43002375 0.78001
vt 0.44375 0.7937425
vt 0.425 0.79876875
vt 0.425 0.78871625
vt 0.44375 0.7937425
vt 0.43002375 0.80747375
vt 0.425 0.79876875
vt 0.44375 0.7937425
vt 0.43872625000000004 0.8125
vt 0.43002375 0.80747375
vt 0.44375 0.7937425
vt 0.44877374999999997 0.8125
vt 0.43872625000000004 0.8125
vt 0.44375 0.7937425
vt 0.45747625000000003 0.80747375
vt 0.44877374999999997 0.8125
vt 0.44375 0.7937425
vt 0.4625 0.79876875
vt 0.45747625000000003 0.80747375
vt 0.44375 0.7937425
vt 0.4625 0.78871625
vt 0.4625 0.79876875
vt 0.44375 0.7937425
vt 0.45747625000000003 0.78001
vt 0.4625 0.78871625
vt 0.44375 0.7937425
vt 0.44877374999999997 0.77498375
vt 0.45747625000000003 0.78001
vt 0.44375 0.7937425
vt 0.43872625000000004 0.77498375
vt 0.44877374999999997 0.77498375
vt 0.44375 0.7937425
vt 0.43002375 0.78001
vt 0.43872625000000004 0.77498375
vt 0.44375 0.7937425
vt 0.425 0.90580125
vt 0.43169874999999996 0.89419875
vt 0.45 0.9125
vt 0.425 0.91919875
vt 0.425 0.90580125
vt 0.45 0.9125
vt 0.43169874999999996 0.93080125
vt 0.425 0.91919875
vt 0.45 0.9125
vt 0.44330125000000004 0.9375
vt 0.43169874999999996 0.93080125
vt 0.45 0.9125
vt 0.45669875 0.9375
vt 0.44330125000000004 0.9375
vt 0.45 0.9125
vt 0.46830125 0.93080125
vt 0.45669875 0.9375
vt 0.45 0.9125
vt 0.475 0.91919875
vt 0.46830125 0.93080125
vt 0.45 0.9125
vt 0.475 0.90580125
vt 0.475 0.91919875
vt 0.45 0.9125
vt 0.46830125 0.89419875
vt 0.475 0.90580125
vt 0.45 0.9125
vt 0.45669875 0.8875
vt 0.46830125 0.89419875
vt 0.45 0.9125
vt 0.44330125000000004 0.8875
vt 0.45669875 0.8875
vt 0.45 0.9125
vt 0.43169874999999996 0.89419875
vt 0.44330125000000004 0.8875
vt 0.45 0.9125
vn 9.663866643090708e-16 0.058134596684223085 -0.998308754177966
vn 0 0.05813459668421952 -0.9983087541779664
vn -9.66386664309071e-16 0.0581345966842231 -0.998308754177966
vn 9.663866643090714e-16 0.058134596684221176 -0.9983087541779662
vn 0 0.05813459668422143 -0.9983087541779662
vn -7.075330935119996e-16 0.05813459668422124 -0.9983087541779662
vn 7.104092442986268e-16 0.05813459668422266 -0.9983087541779663
vn -6.902761887921968e-17 0.05813459668421977 -0.9983087541779664
vn -9.663866643090708e-16 0.0581345966842231 -0.998308754177966
vn 1.1504603146536521e-15 0.05813459668422099 -0.9983087541779664
vn 0 0.058134596684221294 -0.9983087541779662
vn -1.1533364654402871e-15 0.058134596684220996 -0.9983087541779664
vn 6.668298433910772e-16 0.04361938736533715 -0.9990482215818578
vn -3.8844456896567684e-17 0.04361938736533452 -0.9990482215818579
vn -7.704150617819262e-16 0.043619387365337256 -0.9990482215818577
vn 7.704150617819251e-16 0.04361938736533571 -0.9990482215818579
vn 0 0.04361938736533592 -0.9990482215818579
vn -6.279853864945108e-16 0.04361938736533576 -0.9990482215818579
vn 6.279853864945073e-16 0.043619387365337 -0.9990482215818578
vn 0 0.04361938736533466 -0.9990482215818579
vn -6.668298433910771e-16 0.04361938736533715 -0.9990482215818578
vn 8.772373182474831e-16 0.0436193873653356 -0.9990482215818578
vn 0 0.04361938736533584 -0.9990482215818578
vn -8.772373182474837e-16 0.043619387365335605 -0.9990482215818578
usemtl m_4963b573-fe16-7812-e9fb-d90fd7b219df
f 38/97/31 37/98/31 35/99/31
f 39/100/32 38/101/32 35/102/32
f 40/103/33 39/104/33 35/105/33
f 41/106/34 40/107/34 35/108/34
f 42/109/35 41/110/35 35/111/35
f 43/112/36 42/113/36 35/114/36
f 44/115/37 43/116/37 35/117/37
f 45/118/38 44/119/38 35/120/38
f 46/121/39 45/122/39 35/123/39
f 47/124/40 46/125/40 35/126/40
f 36/127/41 47/128/41 35/129/41
f 37/130/42 36/131/42 35/132/42
f 51/133/43 50/134/43 48/135/43
f 52/136/44 51/137/44 48/138/44
f 53/139/45 52/140/45 48/141/45
f 54/142/46 53/143/46 48/144/46
f 55/145/47 54/146/47 48/147/47
f 56/148/48 55/149/48 48/150/48
f 57/151/49 56/152/49 48/153/49
f 58/154/50 57/155/50 48/156/50
f 59/157/51 58/158/51 48/159/51
f 60/160/52 59/161/52 48/162/52
f 49/163/53 60/164/53 48/165/53
f 50/166/54 49/167/54 48/168/54