# Blender 3.6.5
# www.blender.org
mtllib magic_wand.mtl
o cuboid
v 0.031250 0.031250 -0.656250
v 0.031250 -0.031250 -0.656250
v 0.031250 0.031250 0.468750
v 0.031250 -0.031250 0.468750
v -0.031250 0.031250 -0.656250
v -0.031250 -0.031250 -0.656250
v -0.031250 0.031250 0.468750
v -0.031250 -0.031250 0.468750
v 0.046875 -0.000000 -0.656250
v 0.046875 0.000000 0.468750
v -0.046875 0.000000 0.468750
v -0.046875 -0.000000 -0.656250
v 0.000000 0.046875 -0.656250
v 0.000000 0.046875 0.468750
v 0.000000 0.000000 0.468750
v 0.000000 -0.046875 0.468750
v 0.000000 -0.046875 -0.656250
v 0.000000 -0.000000 -0.656250
vn 0.5419 0.5419 0.6424
vn 0.7854 -0.0000 0.6189
vn 0.7854 -0.0000 -0.6189
vn 0.5419 0.5419 -0.6424
vn -0.5419 0.5419 -0.6424
vn -0.7854 -0.0000 -0.6189
vn -0.7854 -0.0000 0.6189
vn -0.5419 0.5419 0.6424
vn -0.0000 0.7854 -0.6189
vn -0.0000 -0.0000 -1.0000
vn -0.0000 -0.0000 1.0000
vn -0.0000 0.7854 0.6189
vn -0.5419 -0.5419 -0.6424
vn -0.0000 -0.7854 -0.6189
vn -0.0000 -0.7854 0.6189
vn -0.5419 -0.5419 0.6424
vn 0.5419 -0.5419 -0.6424
vn 0.5419 -0.5419 0.6424
vt 0.000000 0.437500
vt 0.015625 0.437500
vt 0.015625 1.000000
vt 0.000000 1.000000
vt 0.093750 1.000000
vt 0.078125 1.000000
vt 0.078125 0.437500
vt 0.093750 0.437500
vt 0.250000 0.968750
vt 0.265625 0.968750
vt 0.265625 0.984375
vt 0.250000 0.984375
vt 0.250000 0.921875
vt 0.265625 0.921875
vt 0.265625 0.937500
vt 0.250000 0.937500
vt 0.125000 0.437500
vt 0.140625 0.437500
vt 0.140625 1.000000
vt 0.125000 1.000000
vt 0.218750 1.000000
vt 0.203125 1.000000
vt 0.203125 0.437500
vt 0.218750 0.437500
vt 0.031250 1.000000
vt 0.031250 0.437500
vt 0.250000 0.906250
vt 0.265625 0.906250
vt 0.062500 0.437500
vt 0.062500 1.000000
vt 0.265625 1.000000
vt 0.250000 1.000000
vt 0.156250 1.000000
vt 0.156250 0.437500
vt 0.281250 0.937500
vt 0.281250 0.921875
vt 0.281250 0.906250
vt 0.187500 0.437500
vt 0.187500 1.000000
vt 0.281250 1.000000
vt 0.281250 0.984375
vt 0.281250 0.968750
s 1
usemtl m_3b849363-61e9-61c1-5a19-37a6361ac7fa
f 3/1/1 10/2/2 9/3/3 1/4/4
f 5/5/5 12/6/6 11/7/7 7/8/8
f 5/9/5 13/10/9 18/11/10 12/12/6
f 11/13/7 15/14/11 14/15/12 7/16/8
f 7/17/8 14/18/12 13/19/9 5/20/5
f 6/21/13 17/22/14 16/23/15 8/24/16
f 2/25/17 9/3/3 10/2/2 4/26/18
f 8/27/16 16/28/15 15/14/11 11/13/7
f 8/29/16 11/7/7 12/6/6 6/30/13
f 12/12/6 18/11/10 17/31/14 6/32/13
f 1/33/4 13/19/9 14/18/12 3/34/1
f 3/35/1 14/15/12 15/14/11 10/36/2
f 10/36/2 15/14/11 16/28/15 4/37/18
f 4/38/18 16/23/15 17/22/14 2/39/17
f 2/40/17 17/31/14 18/11/10 9/41/3
f 9/41/3 18/11/10 13/10/9 1/42/4
