# Blender 3.6.5
# www.blender.org
mtllib rice_ball.pbr
o sphere
v 0.000000 -0.187500 0.000000
v 0.000000 0.187500 -0.000000
v 0.063848 0.132583 0.132583
v 0.090295 0.000000 0.187500
v 0.063848 -0.132583 0.132583
v 0.143466 0.132583 0.032745
v 0.202892 0.000000 0.046309
v 0.143466 -0.132583 0.032745
v 0.115051 0.132583 -0.091750
v 0.162706 -0.000000 -0.129754
v 0.115051 -0.132583 -0.091750
v 0.000000 0.132583 -0.147156
v 0.000000 -0.000000 -0.208109
v 0.000000 -0.132583 -0.147155
v -0.115051 0.132583 -0.091750
v -0.162706 -0.000000 -0.129754
v -0.115051 -0.132583 -0.091750
v -0.143466 0.132583 0.032745
v -0.202892 0.000000 0.046309
v -0.143466 -0.132583 0.032745
v -0.063848 0.132583 0.132583
v -0.090295 0.000000 0.187500
v -0.063848 -0.132583 0.132583
vn 0.3170 0.6829 0.6582
vn 0.7122 0.6829 0.1626
vn -0.0000 1.0000 -0.0000
vn 0.4339 -0.0000 0.9010
vn 0.9749 -0.0000 0.2225
vn 0.3170 -0.6829 0.6582
vn 0.7122 -0.6829 0.1626
vn -0.0000 -1.0000 -0.0000
vn 0.5712 0.6829 -0.4555
vn 0.7818 -0.0000 -0.6235
vn 0.5712 -0.6829 -0.4555
vn -0.0000 0.6829 -0.7305
vn -0.0000 -0.0000 -1.0000
vn -0.0000 -0.6829 -0.7305
vn -0.5712 0.6829 -0.4555
vn -0.7818 -0.0000 -0.6235
vn -0.5712 -0.6829 -0.4555
vn -0.7122 0.6829 0.1626
vn -0.9749 -0.0000 0.2225
vn -0.7122 -0.6829 0.1626
vn -0.3170 0.6829 0.6582
vn -0.4339 -0.0000 0.9010
vn -0.3170 -0.6829 0.6582
vt 0.110050 0.851453
vt 0.152799 0.898880
vt 0.078125 0.923209
vt 0.266678 0.625000
vt 0.253456 0.562500
vt 0.343750 0.562500
vt 0.330528 0.625000
vt 0.378456 0.625000
vt 0.391678 0.562500
vt 0.455528 0.562500
vt 0.468750 0.625000
vt 0.152799 0.757370
vt 0.110050 0.804797
vt 0.078125 0.733041
vt 0.146193 0.962387
vt 0.200722 0.718750
vt 0.187500 0.656250
vt 0.277794 0.656250
vt 0.264572 0.718750
vt 0.187500 0.812500
vt 0.200722 0.750000
vt 0.264572 0.750000
vt 0.277794 0.812500
vt 0.146193 0.693863
vt 0.094597 1.000000
vt 0.013222 0.625000
vt 0.000000 0.562500
vt 0.090294 0.562500
vt 0.077072 0.625000
vt 0.125000 0.625000
vt 0.138222 0.562500
vt 0.202072 0.562500
vt 0.215294 0.625000
vt 0.094597 0.656250
vt 0.061653 1.000000
vt 0.010057 0.962387
vt 0.329178 0.812500
vt 0.315956 0.750000
vt 0.406250 0.750000
vt 0.393028 0.812500
vt 0.315956 0.718750
vt 0.329178 0.656250
vt 0.393028 0.656250
vt 0.406250 0.718750
vt 0.010057 0.693863
vt 0.061653 0.656250
vt 0.003451 0.898880
vt 0.329178 1.000000
vt 0.315956 0.937500
vt 0.406250 0.937500
vt 0.393028 1.000000
vt 0.315956 0.906250
vt 0.329178 0.843750
vt 0.393028 0.843750
vt 0.406250 0.906250
vt 0.003451 0.757370
vt 0.046200 0.851453
vt 0.450722 1.000000
vt 0.437500 0.937500
vt 0.527794 0.937500
vt 0.514572 1.000000
vt 0.437500 0.906250
vt 0.450722 0.843750
vt 0.514572 0.843750
vt 0.527794 0.906250
vt 0.046200 0.804797
vt 0.202450 0.906250
vt 0.189228 0.843750
vt 0.279522 0.843750
vt 0.266300 0.906250
vt 0.189228 1.000000
vt 0.202450 0.937500
vt 0.266300 0.937500
vt 0.279522 1.000000
s 1
usemtl m_7e7e0bc6-3a1c-c440-10da-543e2ff1e0f0
f 3/1/1 6/2/2 2/3/3
f 3/4/1 4/5/4 7/6/5 6/7/2
f 4/8/4 5/9/6 8/10/7 7/11/5
f 8/12/7 5/13/6 1/14/8
f 6/2/2 9/15/9 2/3/3
f 6/16/2 7/17/5 10/18/10 9/19/9
f 7/20/5 8/21/7 11/22/11 10/23/10
f 11/24/11 8/12/7 1/14/8
f 9/15/9 12/25/12 2/3/3
f 9/26/9 10/27/10 13/28/13 12/29/12
f 10/30/10 11/31/11 14/32/14 13/33/13
f 14/34/14 11/24/11 1/14/8
f 12/35/12 15/36/15 2/3/3
f 12/37/12 13/38/13 16/39/16 15/40/15
f 13/41/13 14/42/14 17/43/17 16/44/16
f 17/45/17 14/46/14 1/14/8
f 15/36/15 18/47/18 2/3/3
f 15/48/15 16/49/16 19/50/19 18/51/18
f 16/52/16 17/53/17 20/54/20 19/55/19
f 20/56/20 17/45/17 1/14/8
f 18/47/18 21/57/21 2/3/3
f 18/58/18 19/59/19 22/60/22 21/61/21
f 19/62/19 20/63/20 23/64/23 22/65/22
f 23/66/23 20/56/20 1/14/8
f 21/57/21 3/1/1 2/3/3
f 21/67/21 22/68/22 4/69/4 3/70/1
f 22/71/22 23/72/23 5/73/6 4/74/4
f 5/13/6 23/66/23 1/14/8
