# Blender 3.6.5
# www.blender.org
mtllib coin.mtl
o tube
v 0.100481 -0.000000 -0.031250
v 0.100481 0.000000 0.031250
v 0.274519 0.100481 -0.031250
v 0.274519 0.100481 0.031250
v 0.375000 0.274519 -0.031250
v 0.375000 0.274519 0.031250
v 0.375000 0.475481 -0.031250
v 0.375000 0.475481 0.031250
v 0.274519 0.649519 -0.031250
v 0.274519 0.649519 0.031250
v 0.100481 0.750000 -0.031250
v 0.100481 0.750000 0.031250
v -0.100481 0.750000 -0.031250
v -0.100481 0.750000 0.031250
v -0.274519 0.649519 -0.031250
v -0.274519 0.649519 0.031250
v -0.375000 0.475481 -0.031250
v -0.375000 0.475481 0.031250
v -0.375000 0.274519 -0.031250
v -0.375000 0.274519 0.031250
v -0.274519 0.100481 -0.031250
v -0.274519 0.100481 0.031250
v -0.100481 -0.000000 -0.031250
v -0.100481 0.000000 0.031250
v 0.093750 0.468750 0.031250
v 0.093750 0.468750 -0.031250
v 0.093750 0.281250 0.031250
v 0.093750 0.281250 -0.031250
v -0.093750 0.468750 0.031250
v -0.093750 0.468750 -0.031250
v -0.093750 0.281250 0.031250
v -0.093750 0.281250 -0.031250
vn 0.2588 -0.9659 -0.0000
vn 0.7071 -0.7071 -0.0000
vn 0.9659 -0.2588 -0.0000
vn 0.9659 0.2588 -0.0000
vn 0.7071 0.7071 -0.0000
vn 0.2588 0.9659 -0.0000
vn -0.2588 0.9659 -0.0000
vn -0.7071 0.7071 -0.0000
vn -0.9659 0.2588 -0.0000
vn -0.9659 -0.2588 -0.0000
vn -0.7071 -0.7071 -0.0000
vn -0.2588 -0.9659 -0.0000
vn -0.0000 -0.0000 -1.0000
vn -0.0000 -0.0000 1.0000
vn 1.0000 -0.0000 -0.0000
vn -0.0000 1.0000 -0.0000
vn -0.0000 -1.0000 -0.0000
vn -1.0000 -0.0000 -0.0000
vt 0.770113 0.906250
vt 0.904087 0.906250
vt 0.904087 0.968750
vt 0.770113 0.968750
vt 0.187500 0.066825
vt 0.187500 0.200800
vt 0.125000 0.200800
vt 0.125000 0.066825
vt 0.187500 0.334775
vt 0.125000 0.334775
vt 0.187500 0.468750
vt 0.125000 0.468750
vt 0.078125 0.098075
vt 0.078125 0.232050
vt 0.015625 0.232050
vt 0.015625 0.098075
vt 0.078125 0.366025
vt 0.015625 0.366025
vt 0.078125 0.500000
vt 0.015625 0.500000
vt 0.218750 0.468750
vt 0.218750 0.334775
vt 0.281250 0.334775
vt 0.281250 0.468750
vt 0.218750 0.200800
vt 0.281250 0.200800
vt 0.218750 0.066825
vt 0.281250 0.066825
vt 0.502163 0.906250
vt 0.636137 0.906250
vt 0.636137 0.968750
vt 0.502163 0.968750
vt 0.187500 0.812500
vt 0.066987 0.933012
vt 0.000000 0.816988
vt 0.000000 0.683012
vt 0.066987 0.566988
vt 0.187500 0.687500
vt 0.183013 0.500000
vt 0.312500 0.687500
vt 0.316988 0.500000
vt 0.433012 0.566988
vt 0.500000 0.683012
vt 0.183013 1.000000
vt 0.316988 1.000000
vt 0.312500 0.812500
vt 0.433012 0.933012
vt 0.500000 0.816988
vt 0.589262 0.562500
vt 0.473238 0.495512
vt 0.593750 0.375000
vt 0.723238 0.562500
vt 0.718750 0.375000
vt 0.839262 0.495512
vt 0.906250 0.379488
vt 0.906250 0.245513
vt 0.718750 0.250000
vt 0.839262 0.129487
vt 0.723238 0.062500
vt 0.589262 0.062500
vt 0.593750 0.250000
vt 0.473238 0.129487
vt 0.406250 0.245513
vt 0.406250 0.379488
vt 0.531250 0.750000
vt 0.593750 0.750000
vt 0.593750 0.875000
vt 0.531250 0.875000
vt 0.656250 0.656250
vt 0.656250 0.718750
vt 0.531250 0.718750
vt 0.531250 0.656250
vt 0.750000 0.812500
vt 0.750000 0.875000
vt 0.625000 0.875000
vt 0.625000 0.812500
vt 0.312500 0.343750
vt 0.375000 0.343750
vt 0.375000 0.468750
vt 0.312500 0.468750
s 1
usemtl m_3b8d202a-0755-8b24-73df-7516e9a786c0
f 1/1/1 3/2/2 4/3/2 2/4/1
f 3/5/2 5/6/3 6/7/3 4/8/2
f 5/6/3 7/9/4 8/10/4 6/7/3
f 7/9/4 9/11/5 10/12/5 8/10/4
f 9/13/5 11/14/6 12/15/6 10/16/5
f 11/14/6 13/17/7 14/18/7 12/15/6
f 13/17/7 15/19/8 16/20/8 14/18/7
f 15/21/8 17/22/9 18/23/9 16/24/8
f 17/22/9 19/25/10 20/26/10 18/23/9
f 19/25/10 21/27/11 22/28/11 20/26/10
f 21/29/11 23/30/12 24/31/12 22/32/11
f 23/30/12 1/1/1 2/4/1 24/31/12
s 0
f 26/33/13 9/34/13 7/35/13
f 5/36/13 3/37/13 28/38/13
f 1/39/13 28/38/13 3/37/13
f 32/40/13 23/41/13 21/42/13
f 19/43/13 32/40/13 21/42/13
f 26/33/13 11/44/13 9/34/13
f 13/45/13 30/46/13 15/47/13
f 30/46/13 17/48/13 15/47/13
f 13/45/13 11/44/13 26/33/13 30/46/13
f 5/36/13 28/38/13 26/33/13 7/35/13
f 17/48/13 30/46/13 32/40/13 19/43/13
f 23/41/13 32/40/13 28/38/13 1/39/13
f 14/49/14 16/50/14 29/51/14
f 12/52/14 25/53/14 10/54/14
f 25/53/14 8/55/14 10/54/14
f 6/56/14 27/57/14 4/58/14
f 27/57/14 2/59/14 4/58/14
f 24/60/14 31/61/14 22/62/14
f 31/61/14 20/63/14 22/62/14
f 18/64/14 29/51/14 16/50/14
f 18/64/14 20/63/14 31/61/14 29/51/14
f 14/49/14 29/51/14 25/53/14 12/52/14
f 8/55/14 25/53/14 27/57/14 6/56/14
f 2/59/14 27/57/14 31/61/14 24/60/14
f 31/65/15 32/66/15 30/67/15 29/68/15
f 27/69/16 28/70/16 32/71/16 31/72/16
f 26/73/17 25/74/17 29/75/17 30/76/17
f 28/77/18 27/78/18 25/79/18 26/80/18
