# Made in Blockbench 4.8.3
mtllib coin.mtl

o tube
v 0.10048094716167097 5.551115123125783e-17 -0.03125
v 0.10048094716167097 5.551115123125783e-17 0.03125
v 0.27451905283832895 0.10048094716167104 -0.03125
v 0.27451905283832895 0.10048094716167104 0.03125
v 0.375 0.27451905283832906 -0.03125
v 0.375 0.27451905283832906 0.03125
v 0.375 0.4754809471616713 -0.03125
v 0.375 0.4754809471616713 0.03125
v 0.27451905283832895 0.6495190528383292 -0.03125
v 0.27451905283832895 0.6495190528383292 0.03125
v 0.10048094716167111 0.75 -0.03125
v 0.10048094716167111 0.75 0.03125
v -0.10048094716167084 0.75 -0.03125
v -0.10048094716167084 0.75 0.03125
v -0.27451905283832895 0.6495190528383292 -0.03125
v -0.27451905283832895 0.6495190528383292 0.03125
v -0.3749999999999999 0.475480947161671 -0.03125
v -0.3749999999999999 0.475480947161671 0.03125
v -0.375 0.2745190528383292 -0.03125
v -0.375 0.2745190528383292 0.03125
v -0.274519052838329 0.10048094716167112 -0.03125
v -0.274519052838329 0.10048094716167112 0.03125
v -0.10048094716167097 5.551115123125783e-17 -0.03125
v -0.10048094716167097 5.551115123125783e-17 0.03125
v 0.09375 0.4687500000000001 0.03125
v 0.09375 0.4687500000000001 -0.03125
v 0.09375 0.28125 0.03125
v 0.09375 0.28125 -0.03125
v -0.09375 0.4687500000000001 0.03125
v -0.09375 0.4687500000000001 -0.03125
v -0.09375 0.28125 0.03125
v -0.09375 0.28125 -0.03125
vt 0.7701125 0.90625
vt 0.9040875 0.90625
vt 0.9040875 0.96875
vt 0.7701125 0.96875
vt 0.1875 0.06682500000000013
vt 0.1875 0.2008000000000001
vt 0.125 0.2008000000000001
vt 0.125 0.06682500000000013
vt 0.1875 0.2008000000000001
vt 0.1875 0.33477500000000004
vt 0.125 0.33477500000000004
vt 0.125 0.2008000000000001
vt 0.1875 0.33477500000000004
vt 0.1875 0.46875
vt 0.125 0.46875
vt 0.125 0.33477500000000004
vt 0.078125 0.09807499999999991
vt 0.078125 0.23204999999999998
vt 0.015624999999999993 0.23204999999999998
vt 0.015624999999999993 0.09807499999999991
vt 0.078125 0.23204999999999998
vt 0.078125 0.36602500000000004
vt 0.015624999999999993 0.36602500000000004
vt 0.015624999999999993 0.23204999999999998
vt 0.078125 0.36602500000000004
vt 0.078125 0.5
vt 0.015625000000000007 0.5
vt 0.015624999999999993 0.36602500000000004
vt 0.21875 0.46875
vt 0.21875 0.33477500000000004
vt 0.28125 0.33477500000000004
vt 0.28125 0.46875
vt 0.21875 0.33477500000000004
vt 0.21875 0.2008000000000001
vt 0.28125 0.2008000000000001
vt 0.28125 0.33477500000000004
vt 0.21875 0.2008000000000001
vt 0.21875 0.06682500000000013
vt 0.28125 0.06682500000000013
vt 0.28125 0.2008000000000001
vt 0.5021625 0.90625
vt 0.6361375 0.90625
vt 0.6361375 0.96875
vt 0.5021625 0.96875
vt 0.6361375 0.90625
vt 0.7701125 0.90625
vt 0.7701125 0.96875
vt 0.6361375 0.96875
vt 0.1875 0.8125
vt 0.0669875 0.9330125
vt 0 0.8169875
vt 0 0.6830125
vt 0.0669875 0.5669875
vt 0.1875 0.6875
vt 0.1830125 0.5
vt 0.1875 0.6875
vt 0.0669875 0.5669875
vt 0.3125 0.6875
vt 0.3169875 0.5
vt 0.4330125 0.5669875
vt 0.5 0.6830125
vt 0.3125 0.6875
vt 0.4330125 0.5669875
vt 0.1875 0.8125
vt 0.1830125 1
vt 0.0669875 0.9330125
vt 0.3169875 1
vt 0.3125 0.8125
vt 0.4330125 0.9330125
vt 0.3125 0.8125
vt 0.5 0.8169875
vt 0.4330125 0.9330125
vt 0.3169875 1
vt 0.1830125 1
vt 0.1875 0.8125
vt 0.3125 0.8125
vt 0 0.6830125
vt 0.1875 0.6875
vt 0.1875 0.8125
vt 0 0.8169875
vt 0.5 0.8169875
vt 0.3125 0.8125
vt 0.3125 0.6875
vt 0.5 0.6830125
vt 0.3169875 0.5
vt 0.3125 0.6875
vt 0.1875 0.6875
vt 0.1830125 0.5
vt 0.5892625 0.5625
vt 0.4732375 0.4955125
vt 0.59375 0.375
vt 0.7232375 0.5625
vt 0.71875 0.375
vt 0.8392625 0.4955125
vt 0.71875 0.375
vt 0.90625 0.3794875
vt 0.8392625 0.4955125
vt 0.90625 0.24551250000000002
vt 0.71875 0.25
vt 0.8392625 0.12948749999999998
vt 0.71875 0.25
vt 0.7232375 0.0625
vt 0.8392625 0.12948749999999998
vt 0.5892625 0.0625
vt 0.59375 0.25
vt 0.4732375 0.12948749999999998
vt 0.59375 0.25
vt 0.40625 0.24551250000000002
vt 0.4732375 0.12948749999999998
vt 0.40625 0.3794875
vt 0.59375 0.375
vt 0.4732375 0.4955125
vt 0.40625 0.3794875
vt 0.40625 0.24551250000000002
vt 0.59375 0.25
vt 0.59375 0.375
vt 0.5892625 0.5625
vt 0.59375 0.375
vt 0.71875 0.375
vt 0.7232375 0.5625
vt 0.90625 0.3794875
vt 0.71875 0.375
vt 0.71875 0.25
vt 0.90625 0.24551250000000002
vt 0.7232375 0.0625
vt 0.71875 0.25
vt 0.59375 0.25
vt 0.5892625 0.0625
vt 0.53125 0.75
vt 0.59375 0.75
vt 0.59375 0.875
vt 0.53125 0.875
vt 0.65625 0.65625
vt 0.65625 0.71875
vt 0.53125 0.71875
vt 0.53125 0.65625
vt 0.75 0.8125
vt 0.75 0.875
vt 0.625 0.875
vt 0.625 0.8125
vt 0.3125 0.34375
vt 0.375 0.34375
vt 0.375 0.46875
vt 0.3125 0.46875
vn 0.4999999999999999 -0.8660254037844387 0
vn 0.8660254037844386 -0.5000000000000001 0
vn 1 0 0
vn 0.8660254037844387 0.5000000000000002 0
vn 0.4999999999999994 0.866025403784439 0
vn 0 1 0
vn -0.4999999999999989 0.8660254037844395 0
vn -0.8660254037844392 0.49999999999999917 0
vn -1 5.524544980845176e-16 0
vn -0.8660254037844389 -0.49999999999999967 0
vn -0.5000000000000001 -0.8660254037844386 0
vn 0 -1 0
vn 0 0 -1
vn 0 0 -1
vn 0 0 -1
vn 0 0 -1
vn 0 0 -1
vn 0 0 -1
vn 0 0 -1
vn 0 0 -1
vn 0 0 -1
vn 0 0 -1
vn 0 0 -1
vn 0 0 -1
vn 0 0 1
vn 0 0 1
vn 0 0 1
vn 0 0 1
vn 0 0 1
vn 0 0 1
vn 0 0 1
vn 0 0 1
vn 0 0 1
vn 0 0 1
vn 0 0 1
vn 0 0 1
vn 1 0 0
vn 0 1 0
vn 0 -1 0
vn -1 0 0
usemtl m_3b8d202a-0755-8b24-73df-7516e9a786c0
f 1/1/1 3/2/1 4/3/1 2/4/1
f 3/5/2 5/6/2 6/7/2 4/8/2
f 5/9/3 7/10/3 8/11/3 6/12/3
f 7/13/4 9/14/4 10/15/4 8/16/4
f 9/17/5 11/18/5 12/19/5 10/20/5
f 11/21/6 13/22/6 14/23/6 12/24/6
f 13/25/7 15/26/7 16/27/7 14/28/7
f 15/29/8 17/30/8 18/31/8 16/32/8
f 17/33/9 19/34/9 20/35/9 18/36/9
f 19/37/10 21/38/10 22/39/10 20/40/10
f 21/41/11 23/42/11 24/43/11 22/44/11
f 23/45/12 1/46/12 2/47/12 24/48/12
f 26/49/13 9/50/13 7/51/13
f 5/52/14 3/53/14 28/54/14
f 1/55/15 28/56/15 3/57/15
f 32/58/16 23/59/16 21/60/16
f 19/61/17 32/62/17 21/63/17
f 26/64/18 11/65/18 9/66/18
f 13/67/19 30/68/19 15/69/19
f 30/70/20 17/71/20 15/72/20
f 13/73/21 11/74/21 26/75/21 30/76/21
f 5/77/22 28/78/22 26/79/22 7/80/22
f 17/81/23 30/82/23 32/83/23 19/84/23
f 23/85/24 32/86/24 28/87/24 1/88/24
f 14/89/25 16/90/25 29/91/25
f 12/92/26 25/93/26 10/94/26
f 25/95/27 8/96/27 10/97/27
f 6/98/28 27/99/28 4/100/28
f 27/101/29 2/102/29 4/103/29
f 24/104/30 31/105/30 22/106/30
f 31/107/31 20/108/31 22/109/31
f 18/110/32 29/111/32 16/112/32
f 18/113/33 20/114/33 31/115/33 29/116/33
f 14/117/34 29/118/34 25/119/34 12/120/34
f 8/121/35 25/122/35 27/123/35 6/124/35
f 2/125/36 27/126/36 31/127/36 24/128/36
f 31/129/37 32/130/37 30/131/37 29/132/37
f 27/133/38 28/134/38 32/135/38 31/136/38
f 26/137/39 25/138/39 29/139/39 30/140/39
f 28/141/40 27/142/40 25/143/40 26/144/40