# Made in Blockbench 4.8.3
mtllib fence.mtl

o cuboid
v 1 1 0.5625
v 1 1 0.4375
v 1 0.75 0.5625
v 1 0.75 0.4375
v 0 1 0.5625
v 0 1 0.4375
v 0 0.75 0.5625
v 0 0.75 0.4375
v 0.8125 0.9375 0.625
v 0.8125 0.9375 0.5
v 0.8125 0 0.625
v 0.8125 0 0.5
v 0.6875 0.9375 0.625
v 0.6875 0.9375 0.5
v 0.6875 0 0.625
v 0.6875 0 0.5
v 0.3125 0.9375 0.625
v 0.3125 0.9375 0.5
v 0.3125 0 0.625
v 0.3125 0 0.5
v 0.1875 0.9375 0.625
v 0.1875 0.9375 0.5
v 0.1875 0 0.625
v 0.1875 0 0.5
v 1 0.625 0.5625
v 1 0.625 0.4375
v 1 0.375 0.5625
v 1 0.375 0.4375
v 0 0.625 0.5625
v 0 0.625 0.4375
v 0 0.375 0.5625
v 0 0.375 0.4375
vt 0.5833333333333334 0.75
vt 0.5416666666666666 0.75
vt 0.5416666666666666 0.6666666666666667
vt 0.5833333333333334 0.6666666666666667
vt 0.5833333333333334 0.5625
vt 0.5833333333333334 0.6458333333333333
vt 0.5416666666666666 0.6458333333333333
vt 0.5416666666666666 0.5625
vt 0.3541666666666667 0.9583333333333334
vt 0.6875 0.9583333333333334
vt 0.6875 1
vt 0.3541666666666667 1
vt 0.6875 0.8958333333333334
vt 0.6875 0.9375
vt 0.3541666666666667 0.9375
vt 0.3541666666666667 0.8958333333333334
vt 0.3333333333333333 0.9166666666666666
vt 0.3333333333333333 1
vt 0 1
vt 0 0.9166666666666666
vt 0.3333333333333333 0.8958333333333334
vt 0 0.8958333333333334
vt 0 0.8125
vt 0.3333333333333333 0.8125
vt 0.3958333333333333 0.75
vt 0.3541666666666667 0.75
vt 0.3541666666666667 0.4375
vt 0.3958333333333333 0.4375
vt 0.041666666666666664 0.27083333333333337
vt 0.041666666666666664 0.5833333333333333
vt 0 0.5833333333333333
vt 0 0.27083333333333337
vt 0.3541666666666667 0.375
vt 0.3541666666666667 0.41666666666666663
vt 0.3125 0.41666666666666663
vt 0.3125 0.375
vt 0.10416666666666667 0.27083333333333337
vt 0.10416666666666667 0.5833333333333333
vt 0.0625 0.5833333333333333
vt 0.0625 0.27083333333333337
vt 0.16666666666666666 0.5833333333333333
vt 0.125 0.5833333333333333
vt 0.125 0.27083333333333337
vt 0.16666666666666666 0.27083333333333337
vt 0.375 0.375
vt 0.4166666666666667 0.375
vt 0.4166666666666667 0.41666666666666663
vt 0.375 0.41666666666666663
vt 0.22916666666666666 0.5833333333333333
vt 0.1875 0.5833333333333333
vt 0.1875 0.27083333333333337
vt 0.22916666666666666 0.27083333333333337
vt 0.2916666666666667 0.27083333333333337
vt 0.2916666666666667 0.5833333333333333
vt 0.25 0.5833333333333333
vt 0.25 0.27083333333333337
vt 0.4791666666666667 0.375
vt 0.4791666666666667 0.41666666666666663
vt 0.4375 0.41666666666666663
vt 0.4375 0.375
vt 0.4583333333333333 0.4375
vt 0.4583333333333333 0.75
vt 0.4166666666666667 0.75
vt 0.4166666666666667 0.4375
vt 0.5208333333333334 0.75
vt 0.4791666666666667 0.75
vt 0.4791666666666667 0.4375
vt 0.5208333333333334 0.4375
vt 0.6041666666666666 0.7083333333333333
vt 0.6458333333333334 0.7083333333333333
vt 0.6458333333333334 0.75
vt 0.6041666666666666 0.75
vt 0.5833333333333334 0.5416666666666667
vt 0.5416666666666666 0.5416666666666667
vt 0.5416666666666666 0.45833333333333337
vt 0.5833333333333334 0.45833333333333337
vt 0.5833333333333334 0.35416666666666663
vt 0.5833333333333334 0.4375
vt 0.5416666666666666 0.4375
vt 0.5416666666666666 0.35416666666666663
vt 0.3541666666666667 0.8333333333333334
vt 0.6875 0.8333333333333334
vt 0.6875 0.875
vt 0.3541666666666667 0.875
vt 0.6875 0.7708333333333334
vt 0.6875 0.8125
vt 0.3541666666666667 0.8125
vt 0.3541666666666667 0.7708333333333334
vt 0.3333333333333333 0.7083333333333333
vt 0.3333333333333333 0.7916666666666666
vt 0 0.7916666666666666
vt 0 0.7083333333333333
vt 0.3333333333333333 0.6875
vt 0 0.6875
vt 0 0.6041666666666667
vt 0.3333333333333333 0.6041666666666667
vn 1 0 0
vn -1 0 0
vn 0 1 0
vn 0 -1 0
vn 0 0 1
vn 0 0 -1
vn 1 0 0
vn -1 0 0
vn 0 -1 0
vn 0 0 1
vn 0 0 -1
vn 0 1 0
vn 1 0 0
vn -1 0 0
vn 0 -1 0
vn 0 0 1
vn 0 0 -1
vn 0 1 0
vn 1 0 0
vn -1 0 0
vn 0 1 0
vn 0 -1 0
vn 0 0 1
vn 0 0 -1
usemtl m_86e089de-7bc6-d320-1f74-38feab63a3d2
f 2/1/1 1/2/1 3/3/1 4/4/1
f 7/5/2 5/6/2 6/7/2 8/8/2
f 5/9/3 1/10/3 2/11/3 6/12/3
f 4/13/4 3/14/4 7/15/4 8/16/4
f 3/17/5 1/18/5 5/19/5 7/20/5
f 6/21/6 2/22/6 4/23/6 8/24/6
f 10/25/7 9/26/7 11/27/7 12/28/7
f 15/29/8 13/30/8 14/31/8 16/32/8
f 12/33/9 11/34/9 15/35/9 16/36/9
f 11/37/10 9/38/10 13/39/10 15/40/10
f 14/41/11 10/42/11 12/43/11 16/44/11
f 13/45/12 9/46/12 10/47/12 14/48/12
f 18/49/13 17/50/13 19/51/13 20/52/13
f 23/53/14 21/54/14 22/55/14 24/56/14
f 20/57/15 19/58/15 23/59/15 24/60/15
f 19/61/16 17/62/16 21/63/16 23/64/16
f 22/65/17 18/66/17 20/67/17 24/68/17
f 21/69/18 17/70/18 18/71/18 22/72/18
f 26/73/19 25/74/19 27/75/19 28/76/19
f 31/77/20 29/78/20 30/79/20 32/80/20
f 29/81/21 25/82/21 26/83/21 30/84/21
f 28/85/22 27/86/22 31/87/22 32/88/22
f 27/89/23 25/90/23 29/91/23 31/92/23
f 30/93/24 26/94/24 28/95/24 32/96/24