# Made in Blockbench 5.2.1
mtllib terminal.mtl

o base
v 0.5 0.25 0.5
v 0.5 0.25 -0.5
v 0.5 0 0.5
v 0.5 0 -0.5
v -0.5 0.25 0.5
v -0.5 0.25 -0.5
v -0.5 0 0.5
v -0.5 0 -0.5
vt 0.8125 0.44999999999999996
vt 0.8125 0.5
vt 0.6125 0.5
vt 0.6125 0.44999999999999996
vt 0.825 0.6875
vt 0.825 0.7375
vt 0.625 0.7375
vt 0.625 0.6875
vt 0.2 0.8
vt 0.2 1
vt 0 1
vt 0 0.8
vt 0.2 0.5875
vt 0.2 0.7875
vt 0 0.7875
vt 0 0.5875
vt 0.825 0.625
vt 0.825 0.675
vt 0.625 0.675
vt 0.625 0.625
vt 0.825 0.5625
vt 0.825 0.6125
vt 0.625 0.6125
vt 0.625 0.5625
vn 1 0 0
vn -1 0 0
vn 0 1 0
vn 0 -1 0
vn 0 0 1
vn 0 0 -1
usemtl terminal_off
f 4/1/1 2/2/1 1/3/1 3/4/1
f 7/5/2 5/6/2 6/7/2 8/8/2
f 1/9/3 2/10/3 6/11/3 5/12/3
f 4/13/4 3/14/4 7/15/4 8/16/4
f 3/17/5 1/18/5 5/19/5 7/20/5
f 8/21/6 6/22/6 2/23/6 4/24/6
o support2
v 0.5 0.625 0.5
v 0.5 0.625 -0.203125
v 0.5 0.375 0.5
v 0.5 0.375 -0.203125
v -0.5 0.625 0.5
v -0.5 0.625 -0.203125
v -0.5 0.375 0.5
v -0.5 0.375 -0.203125
vt 0.825 0.26249999999999996
vt 0.825 0.3125
vt 0.6875 0.3125
vt 0.6875 0.26249999999999996
vt 0.85 0.95
vt 0.85 1
vt 0.7125 1
vt 0.7125 0.95
vt 0.4125 0.48750000000000004
vt 0.4125 0.625
vt 0.2125 0.625
vt 0.2125 0.48750000000000004
vt 0.6 0.8625
vt 0.6 1
vt 0.4 1
vt 0.4 0.8625
vt 0.8875 0.38749999999999996
vt 0.8875 0.4375
vt 0.6875 0.4375
vt 0.6875 0.38749999999999996
vt 0.8875 0.32499999999999996
vt 0.8875 0.375
vt 0.6875 0.375
vt 0.6875 0.32499999999999996
vn 1 0 0
vn -1 0 0
vn 0 1 0
vn 0 -1 0
vn 0 0 1
vn 0 0 -1
usemtl terminal_off
f 12/25/7 10/26/7 9/27/7 11/28/7
f 15/29/8 13/30/8 14/31/8 16/32/8
f 9/33/9 10/34/9 14/35/9 13/36/9
f 12/37/10 11/38/10 15/39/10 16/40/10
f 11/41/11 9/42/11 13/43/11 15/44/11
f 16/45/12 14/46/12 10/47/12 12/48/12
o support1
v 0.4375 0.375 0.46875
v 0.4375 0.375 -0.40625
v 0.4375 0.25 0.46875
v 0.4375 0.25 -0.40625
v -0.4375 0.375 0.46875
v -0.4375 0.375 -0.40625
v -0.4375 0.25 0.46875
v -0.4375 0.25 -0.40625
vt 0.8 0.525
vt 0.8 0.55
vt 0.625 0.55
vt 0.625 0.525
vt 0.8875 0.9125
vt 0.8875 0.9375
vt 0.7125 0.9375
vt 0.7125 0.9125
vt 0.3875 0.825
vt 0.3875 1
vt 0.2125 1
vt 0.2125 0.825
vt 0.8875 0.875
vt 0.8875 0.9
vt 0.7125 0.9
vt 0.7125 0.875
vt 0.55 0.26249999999999996
vt 0.55 0.2875
vt 0.375 0.2875
vt 0.375 0.26249999999999996
vn 1 0 0
vn -1 0 0
vn 0 1 0
vn 0 0 1
vn 0 0 -1
usemtl terminal_off
f 20/49/13 18/50/13 17/51/13 19/52/13
f 23/53/14 21/54/14 22/55/14 24/56/14
f 17/57/15 18/58/15 22/59/15 21/60/15
f 19/61/16 17/62/16 21/63/16 23/64/16
f 24/65/17 22/66/17 18/67/17 20/68/17
o screen_front
v 0.4375 1.3125 -0.0625
v 0.4375 1.3125 -0.5
v 0.4375 0.625 -0.0625
v 0.4375 0.625 -0.5
v -0.4375 1.3125 -0.0625
v -0.4375 1.3125 -0.5
v -0.4375 0.625 -0.0625
v -0.4375 0.625 -0.5
v -0.34375 1.21875 -0.5
v 0.34375 1.21875 -0.5
v -0.34375 0.71875 -0.5
v 0.34375 0.71875 -0.5
v -0.34375 1.21875 -0.4375
v 0.34375 1.21875 -0.4375
v -0.34375 0.71875 -0.4375
v 0.34375 0.71875 -0.4375
vt 0.7 0.8625
vt 0.7 1
vt 0.6125 1
vt 0.6125 0.8625
vt 0.25 0.23750000000000004
vt 0.25 0.375
vt 0.1625 0.375
vt 0.1625 0.23750000000000004
vt 0.6 0.4125
vt 0.6 0.5
vt 0.425 0.5
vt 0.425 0.4125
vt 0.3625 0.38749999999999996
vt 0.3625 0.475
vt 0.1875 0.475
vt 0.1875 0.38749999999999996
vt 0.575 0.7125
vt 0.575 0.85
vt 0.4 0.85
vt 0.4 0.7125
vt 0.675 0.30000000000000004
vt 0.675 0.4
vt 0.5375 0.4
vt 0.5375 0.30000000000000004
vt 0.15625 0.55625
vt 0.15625 0.45625000000000004
vt 0.175 0.4375
vt 0.175 0.575
vt 0.01875 0.55625
vt 0.15625 0.55625
vt 0.175 0.575
vt 0 0.575
vt 0.01875 0.45625000000000004
vt 0.01875 0.55625
vt 0 0.575
vt 0 0.4375
vt 0.15625 0.45625000000000004
vt 0.01875 0.45625000000000004
vt 0 0.4375
vt 0.175 0.4375
vt 0.1125 0.3125
vt 0.1125 0.21250000000000002
vt 0.125 0.21250000000000002
vt 0.125 0.3125
vt 0.8875 0.8125
vt 0.75 0.8125
vt 0.75 0.8
vt 0.8875 0.8
vt 0.15 0.21250000000000002
vt 0.15 0.3125
vt 0.1375 0.3125
vt 0.1375 0.21250000000000002
vt 0.75 0.775
vt 0.8875 0.775
vt 0.8875 0.7875
vt 0.75 0.7875
vn 1 0 0
vn -1 0 0
vn 0 1 0
vn 0 -1 0
vn 0 0 1
vn 0 0 -1
vn 0 0 -1
vn 0 0 -1
vn 0 0 -1
vn 0 0 -1
vn 1 0 0
vn 0 -1 0
vn -1 0 0
vn 0 1 0
usemtl terminal_off
f 28/69/18 26/70/18 25/71/18 27/72/18
f 31/73/19 29/74/19 30/75/19 32/76/19
f 25/77/20 26/78/20 30/79/20 29/80/20
f 28/81/21 27/82/21 31/83/21 32/84/21
f 27/85/22 25/86/22 29/87/22 31/88/22
f 39/89/23 37/90/23 38/91/23 40/92/23
f 33/93/24 35/94/24 32/95/24 30/96/24
f 34/97/25 33/98/25 30/99/25 26/100/25
f 36/101/26 34/102/26 26/103/26 28/104/26
f 35/105/27 36/106/27 28/107/27 32/108/27
f 37/109/28 39/110/28 35/111/28 33/112/28
f 38/113/29 37/114/29 33/115/29 34/116/29
f 40/117/30 38/118/30 34/119/30 36/120/30
f 39/121/31 40/122/31 36/123/31 35/124/31
o screen_back
v 0.375 1.125 0.4375
v 0.375 1.125 -0.0625
v 0.375 0.625 0.4375
v 0.375 0.625 -0.0625
v -0.375 1.125 0.4375
v -0.375 1.125 -0.0625
v -0.375 0.625 0.4375
v -0.375 0.625 -0.0625
vt 0.3625 0.275
vt 0.3625 0.375
vt 0.2625 0.375
vt 0.2625 0.275
vt 0.1 0.21250000000000002
vt 0.1 0.3125
vt 0 0.3125
vt 0 0.21250000000000002
vt 0.15 0.32499999999999996
vt 0.15 0.42500000000000004
vt 0 0.42500000000000004
vt 0 0.32499999999999996
vt 0.525 0.30000000000000004
vt 0.525 0.4
vt 0.375 0.4
vt 0.375 0.30000000000000004
vn 1 0 0
vn -1 0 0
vn 0 1 0
vn 0 0 1
usemtl terminal_off
f 44/125/32 42/126/32 41/127/32 43/128/32
f 47/129/33 45/130/33 46/131/33 48/132/33
f 41/133/34 42/134/34 46/135/34 45/136/34
f 43/137/35 41/138/35 45/139/35 47/140/35
o keyboard
v 0.46875 0.5372621298570349 -0.16586287014296502
v 0.46875 0.5814563036811942 -0.21005704396712424
v 0.46875 0.25 -0.453125
v 0.46875 0.29419417382415924 -0.49731917382415924
v -0.46875 0.5372621298570349 -0.16586287014296502
v -0.46875 0.5814563036811942 -0.21005704396712424
v -0.46875 0.25 -0.453125
v -0.46875 0.29419417382415924 -0.49731917382415924
vt 0.2 0.48750000000000004
vt 0.2 0.575
vt 0.1875 0.575
vt 0.1875 0.48750000000000004
vt 0.575 0.19999999999999996
vt 0.575 0.2875
vt 0.5625 0.2875
vt 0.5625 0.19999999999999996
vt 0.9375 0.85
vt 0.9375 0.8625
vt 0.75 0.8625
vt 0.75 0.85
vt 0.9375 0.825
vt 0.9375 0.8375
vt 0.75 0.8375
vt 0.75 0.825
vt 0.6125 0.6125
vt 0.6125 0.7
vt 0.425 0.7
vt 0.425 0.6125
vt 0.6125 0.5125
vt 0.6125 0.6
vt 0.425 0.6
vt 0.425 0.5125
vn 1 0 0
vn -1 0 0
vn 0 0.7071067811865475 0.7071067811865476
vn 0 -0.7071067811865475 -0.7071067811865476
vn 0 -0.7071067811865476 0.7071067811865475
vn 0 0.7071067811865476 -0.7071067811865475
usemtl terminal_off
f 52/141/36 50/142/36 49/143/36 51/144/36
f 55/145/37 53/146/37 54/147/37 56/148/37
f 49/149/38 50/150/38 54/151/38 53/152/38
f 52/153/39 51/154/39 55/155/39 56/156/39
f 51/157/40 49/158/40 53/159/40 55/160/40
f 56/161/41 54/162/41 50/163/41 52/164/41