# Made in Blockbench 4.8.3
mtllib bullet.mtl

o sphere
v 5.735208226698831e-18 0.12500000000000006 -0.3544518021631541
v 0.016746824526945165 0.18750000000000006 -0.3209581531092636
v 0.02900635094610966 0.23325317547305485 -0.22945180216315425
v 0.03349364905389034 0.25 -0.10445180216315435
v 0.04575317547305481 0.1707531754730549 -0.3209581531092636
v 0.07924682452694516 0.2042468245269452 -0.22945180216315425
v 0.09150635094610965 0.21650635094610965 -0.10445180216315436
v 0.06249999999999998 0.1417468245269452 -0.3209581531092636
v 0.10825317547305482 0.1540063509461097 -0.22945180216315428
v 0.125 0.15849364905389035 -0.10445180216315436
v 0.06249999999999998 0.10825317547305491 -0.3209581531092637
v 0.10825317547305482 0.09599364905389039 -0.22945180216315428
v 0.125 0.09150635094610966 -0.10445180216315439
v 0.04575317547305482 0.07924682452694526 -0.3209581531092637
v 0.07924682452694516 0.04575317547305489 -0.2294518021631543
v 0.09150635094610966 0.03349364905389036 -0.10445180216315439
v 0.01674682452694518 0.06250000000000011 -0.3209581531092637
v 0.029006350946109687 0.01674682452694524 -0.2294518021631543
v 0.03349364905389037 6.482632256846852e-17 -0.1044518021631544
v -0.01674682452694513 0.06250000000000006 -0.3209581531092637
v -0.029006350946109608 0.01674682452694524 -0.2294518021631543
v -0.033493649053890275 9.31517133721069e-18 -0.1044518021631544
v -0.045753175473054804 0.07924682452694526 -0.3209581531092637
v -0.07924682452694515 0.04575317547305483 -0.2294518021631543
v -0.09150635094610965 0.03349364905389036 -0.10445180216315439
v -0.06249999999999997 0.10825317547305491 -0.3209581531092637
v -0.10825317547305482 0.09599364905389039 -0.22945180216315428
v -0.12499999999999994 0.09150635094610972 -0.10445180216315439
v -0.06249999999999997 0.1417468245269452 -0.3209581531092636
v -0.10825317547305482 0.15400635094610965 -0.22945180216315428
v -0.125 0.1584936490538903 -0.10445180216315436
v -0.04575317547305482 0.17075317547305485 -0.3209581531092636
v -0.07924682452694518 0.2042468245269452 -0.22945180216315425
v -0.09150635094610965 0.21650635094610965 -0.10445180216315436
v -0.016746824526945155 0.18750000000000006 -0.3209581531092636
v -0.029006350946109646 0.23325317547305485 -0.22945180216315425
v -0.0334936490538903 0.25 -0.10445180216315435
v -0.033493649053890275 -8.782934331749055e-17 0.3330481978368458
v -0.09150635094610965 0.03349364905389026 0.3330481978368458
v -0.12499999999999994 0.09150635094610962 0.3330481978368458
v -0.125 0.15849364905389018 0.33304819783684586
v -0.09150635094610965 0.21650635094610954 0.33304819783684586
v -0.0334936490538903 0.2499999999999999 0.33304819783684586
v 0.03349364905389034 0.2499999999999999 0.33304819783684586
v 0.09150635094610965 0.21650635094610954 0.33304819783684586
v 0.125 0.15849364905389024 0.33304819783684586
v 0.125 0.09150635094610957 0.3330481978368458
v 0.09150635094610966 0.03349364905389026 0.3330481978368458
v 0.03349364905389037 -3.2318192086232723e-17 0.3330481978368458
vt 0.36774687500000003 0.5876355247069482
vt 0.38272207651100093 0.5951252846341699
vt 0.3593756989032552 0.6230888147381786
vt 0.23573307687786843 0.9972093990385713
vt 0.233253125 0.9457498589851314
vt 0.2621860140932037 0.9478115252488306
vt 0.2524344795670933 0.9983994882263434
vt 0.233253125 0.9457498589851314
vt 0.235496875 0.8826936089851315
vt 0.2689059145713162 0.8850742315895623
vt 0.2621860140932037 0.9478115252488306
vt 0.38272207651100093 0.5951252846341699
vt 0.39276711071194004 0.6085251021764944
vt 0.35937374973158337 0.6230911493924722
vt 0.34131001539605227 0.9983980377515389
vt 0.33156076284084096 0.9478064750632833
vt 0.36049687105096506 0.9457460189141225
vt 0.35801459407730346 0.9972085532634044
vt 0.33156076284084096 0.9478064750632833
vt 0.32484708474492086 0.8850686269102147
vt 0.358253125 0.8826898798941039
vt 0.36049687105096506 0.9457460189141225
vt 0.39276711071194004 0.6085251021764944
vt 0.3957555728193711 0.625
vt 0.35937440807668697 0.623090862225036
vt 0.37547618617356976 1
vt 0.3609027104727414 0.9505849392409005
vt 0.3895030178916143 0.9457491399679296
vt 0.39198560732745047 0.9972085528437213
vt 0.360496875 0.9457461298941039
vt 0.358253125 0.8826898798941039
vt 0.391746875 0.8826898798941039
vt 0.389503125 0.9457461298941039
vt 0.4509846840435201 0.6104374308658307
vt 0.461028071140541 0.5970363787472461
vt 0.4843754603671366 0.625
vt 0.39198560732745047 0.9972085528437213
vt 0.3895030178916143 0.9457491399679296
vt 0.4184391297254316 0.9478095452269609
vt 0.4086901881006302 0.9983980079534002
vt 0.3895030178916143 0.9457491399679296
vt 0.391746875 0.8826898798941039
vt 0.4251529194385457 0.8850685681587853
vt 0.4184391297254316 0.9478095452269609
vt 0.461028071140541 0.5970363787472461
vt 0.47600312499999997 0.5895463236093448
vt 0.484375 0.6249994486093448
vt 0.028815557088349313 0.9984025896140368
vt 0.01906397864515496 0.9478114751917273
vt 0.047996875 0.9457499108385492
vt 0.04551696396932968 0.9972125592537344
vt 0.01906397864515496 0.9478114751917273
vt 0.01234407704360814 0.8850710407660822
vt 0.045753125 0.8826905358385492
vt 0.047996875 0.9457499108385492
vt 0.47600312499999997 0.5895463236093448
vt 0.49274687500000003 0.5895463236093448
vt 0.484375 0.6249994486093448
vt 0.06297331216303517 1
vt 0.04840255189220521 0.9505841384881522
vt 0.077003125 0.9457499108385492
vt 0.07948288668485853 0.997209460057469
vt 0.047996875 0.9457499108385492
vt 0.045753125 0.8826905358385492
vt 0.079246875 0.8826905358385492
vt 0.077003125 0.9457499108385492
vt 0.49274687500000003 0.5895463236093448
vt 0.507721928859459 0.5970363787472461
vt 0.484375 0.6249994486093448
vt 0.07948303603067033 0.9972125592537344
vt 0.077003125 0.9457499108385492
vt 0.10593602135484503 0.9478114751917273
vt 0.09618444291165071 0.9984025896140368
vt 0.077003125 0.9457499108385492
vt 0.079246875 0.8826905358385492
vt 0.11265592295639185 0.8850710407660822
vt 0.10593602135484503 0.9478114751917273
vt 0.507721928859459 0.5970363787472461
vt 0.5177653159564799 0.6104374308658307
vt 0.4843745396328634 0.625
vt 0.028809811899369854 0.623401254928049
vt 0.019060870274568417 0.5728127922016096
vt 0.04799698210838572 0.5707523869425783
vt 0.04551439267254953 0.6222117998183702
vt 0.019060870274568417 0.5728127922016096
vt 0.012347080561454275 0.510071815133434
vt 0.045753125000000006 0.5076931268687526
vt 0.04799698210838572 0.5707523869425783
vt 0.3229944271806288 0.625
vt 0.32598288928805996 0.6085251021764944
vt 0.35937559192331303 0.623090862225036
vt 0.06297581022240806 0.625
vt 0.04840277812041774 0.5755848084170214
vt 0.07700312894903494 0.5707492658887712
vt 0.07948525643440232 0.6222087010486571
vt 0.04799687500000001 0.5707493768687526
vt 0.045753125000000006 0.5076931268687526
vt 0.079246875 0.5076931268687526
vt 0.077003125 0.5707493768687526
vt 0.32598288928805996 0.6085251021764944
vt 0.33602792348899907 0.5951252846341699
vt 0.35937625026841663 0.6230911493924722
vt 0.07948540592269651 0.6222118002380532
vt 0.07700312894903494 0.5707492658887712
vt 0.10593923715915901 0.572809722037932
vt 0.09618998460394773 0.6234012847261877
vt 0.07700312894903494 0.5707492658887712
vt 0.079246875 0.5076931268687526
vt 0.11265291525507914 0.5100718738848635
vt 0.10593923715915901 0.572809722037932
vt 0.33602792348899907 0.5951252846341699
vt 0.35100312499999997 0.5876355247069482
vt 0.3593743010967448 0.6230888147381786
vt 0.1850655204329067 0.9983994882263434
vt 0.1753139859067963 0.9478115252488306
vt 0.204246875 0.9457498589851314
vt 0.20176692312213157 0.9972093990385713
vt 0.1753139859067963 0.9478115252488306
vt 0.16859408542868376 0.8850742315895623
vt 0.202003125 0.8826936089851315
vt 0.204246875 0.9457498589851314
vt 0.35100312499999997 0.5876355247069482
vt 0.36774687500000003 0.5876355247069482
vt 0.359375 0.6230917747069482
vt 0.2192235126699139 1
vt 0.20465256975956814 0.9505841923416042
vt 0.233253125 0.9457498589851314
vt 0.23573307687786843 0.9972093990385713
vt 0.204246875 0.9457498589851314
vt 0.202003125 0.8826936089851315
vt 0.235496875 0.8826936089851315
vt 0.233253125 0.9457498589851314
vt 0.012262500000000003 0.28894312686875256
vt 0.045753125000000006 0.28894312686875256
vt 0.045753125000000006 0.5076931268687526
vt 0.012262500000000003 0.5076931268687526
vt 0.045753125000000006 0.28894312686875256
vt 0.079246875 0.28894312686875256
vt 0.079246875 0.5076931268687526
vt 0.045753125000000006 0.5076931268687526
vt 0.079246875 0.28894312686875256
vt 0.11273749999999999 0.28894312686875256
vt 0.11273749999999999 0.5076931268687526
vt 0.079246875 0.5076931268687526
vt 0.168509375 0.6639436089851315
vt 0.202003125 0.6639436089851315
vt 0.202003125 0.8826936089851315
vt 0.168509375 0.8826936089851315
vt 0.202003125 0.6639436089851315
vt 0.235496875 0.6639436089851315
vt 0.235496875 0.8826936089851315
vt 0.202003125 0.8826936089851315
vt 0.235496875 0.6639436089851315
vt 0.26899062500000004 0.6639436089851315
vt 0.26899062500000004 0.8826936089851315
vt 0.235496875 0.8826936089851315
vt 0.3247625 0.6639398798941039
vt 0.358253125 0.6639398798941039
vt 0.358253125 0.8826898798941039
vt 0.3247625 0.8826898798941039
vt 0.358253125 0.6639398798941039
vt 0.391746875 0.6639398798941039
vt 0.391746875 0.8826898798941039
vt 0.358253125 0.8826898798941039
vt 0.391746875 0.6639398798941039
vt 0.4252375 0.6639398798941039
vt 0.4252375 0.8826898798941039
vt 0.391746875 0.8826898798941039
vt 0.012259374999999996 0.6639405358385492
vt 0.045753125 0.6639405358385492
vt 0.045753125 0.8826905358385492
vt 0.012259374999999996 0.8826905358385492
vt 0.045753125 0.6639405358385492
vt 0.079246875 0.6639405358385492
vt 0.079246875 0.8826905358385492
vt 0.045753125 0.8826905358385492
vt 0.264503125 0.5167468749999999
vt 0.264503125 0.6082531250000001
vt 0.172996875 0.6082531250000001
vt 0.172996875 0.5167468749999999
vt 0.172996875 0.6082531250000001
vt 0.264503125 0.6082531250000001
vt 0.235496875 0.625
vt 0.202003125 0.625
vt 0.172996875 0.6082531250000001
vt 0.15625 0.5792468749999999
vt 0.15625 0.5457531250000001
vt 0.172996875 0.5167468749999999
vt 0.172996875 0.5167468749999999
vt 0.202003125 0.5
vt 0.235496875 0.5
vt 0.264503125 0.5167468749999999
vt 0.264503125 0.5167468749999999
vt 0.28125 0.5457531250000001
vt 0.28125 0.5792468749999999
vt 0.264503125 0.6082531250000001
vt 0.079246875 0.6639405358385492
vt 0.11274062500000001 0.6639405358385492
vt 0.11274062500000001 0.8826905358385492
vt 0.079246875 0.8826905358385492
vn 0.23617374524157358 0.4090649261722336 -0.8814124166553781
vn 0.44721359549995754 0.7745966692414832 -0.44721359549995876
vn 0.4955722198350786 0.8583562635740486 -0.13278817609610816
vn 0.40906492617223345 0.2361737452415734 -0.8814124166553778
vn 0.7745966692414828 0.4472135954999579 -0.4472135954999591
vn 0.8583562635740486 0.49557221983507876 -0.13278817609610805
vn 0.4723474904831467 1.957128718322605e-16 -0.8814124166553781
vn 0.8944271909999154 9.930136612989124e-17 -0.44721359549995937
vn 0.9911444396701569 2.9484898099975834e-17 -0.1327881760961082
vn 0.4090649261722335 -0.2361737452415732 -0.881412416655378
vn 0.7745966692414828 -0.44721359549995765 -0.44721359549995937
vn 0.8583562635740487 -0.49557221983507854 -0.13278817609610843
vn 0.2361737452415734 -0.40906492617223345 -0.8814124166553782
vn 0.44721359549995776 -0.7745966692414828 -0.4472135954999595
vn 0.4955722198350781 -0.858356263574049 -0.13278817609610843
vn 7.828514873290445e-16 -0.47234749048314645 -0.8814124166553781
vn 0 -0.8944271909999151 -0.4472135954999594
vn 8.213433059208552e-16 -0.9911444396701569 -0.1327881760961082
vn -0.23617374524157364 -0.40906492617223306 -0.8814124166553781
vn -0.44721359549995665 -0.7745966692414834 -0.4472135954999591
vn -0.4955722198350782 -0.8583562635740487 -0.13278817609610855
vn -0.40906492617223345 -0.23617374524157322 -0.881412416655378
vn -0.7745966692414828 -0.4472135954999573 -0.4472135954999594
vn -0.8583562635740493 -0.49557221983507777 -0.13278817609610813
vn -0.4723474904831467 1.957128718322605e-16 -0.8814124166553781
vn -0.8944271909999154 9.930136612989123e-17 -0.4472135954999593
vn -0.9911444396701568 -7.918584078208802e-16 -0.1327881760961078
vn -0.40906492617223345 0.23617374524157345 -0.881412416655378
vn -0.7745966692414832 0.4472135954999573 -0.447213595499959
vn -0.8583562635740488 0.4955722198350785 -0.13278817609610818
vn -0.23617374524157367 0.40906492617223345 -0.881412416655378
vn -0.44721359549995743 0.7745966692414831 -0.44721359549995904
vn -0.49557221983507843 0.8583562635740487 -0.13278817609610793
vn 0 0.4723474904831468 -0.8814124166553781
vn 0 0.8944271909999156 -0.44721359549995854
vn 0 0.9911444396701569 -0.13278817609610818
vn -0.866025403784439 -0.4999999999999993 -1.1102230246251549e-16
vn -1 -8.286817471267765e-16 -1.8400431114934978e-31
vn -0.8660254037844388 0.5 1.1102230246251565e-16
vn -0.5000000000000001 0.8660254037844387 1.922962686383564e-16
vn 0 1 2.220446049250313e-16
vn 0.5000000000000002 0.8660254037844386 1.9229626863835638e-16
vn 0.8660254037844385 0.5000000000000003 1.1102230246251573e-16
vn 1 0 0
vn 0.8660254037844387 -0.5000000000000002 -1.110223024625157e-16
vn 0.49999999999999967 -0.8660254037844388 -1.9229626863835643e-16
vn 8.286817471267758e-16 -1 -2.220446049250313e-16
vn 0 -2.220446049250313e-16 1
vn 0 -2.220446049250313e-16 1
vn 0 -2.220446049250313e-16 1
vn 0 -2.220446049250313e-16 1
vn 0 -2.220446049250313e-16 1
vn -0.4999999999999999 -0.8660254037844387 -1.922962686383564e-16
usemtl m_b6ff6ca8-9401-2c5f-418b-ed173fff578b
f 2/1/1 5/2/1 1/3/1
f 2/4/2 3/5/2 6/6/2 5/7/2
f 3/8/3 4/9/3 7/10/3 6/11/3
f 5/12/4 8/13/4 1/14/4
f 5/15/5 6/16/5 9/17/5 8/18/5
f 6/19/6 7/20/6 10/21/6 9/22/6
f 8/23/7 11/24/7 1/25/7
f 8/26/8 9/27/8 12/28/8 11/29/8
f 9/30/9 10/31/9 13/32/9 12/33/9
f 11/34/10 14/35/10 1/36/10
f 11/37/11 12/38/11 15/39/11 14/40/11
f 12/41/12 13/42/12 16/43/12 15/44/12
f 14/45/13 17/46/13 1/47/13
f 14/48/14 15/49/14 18/50/14 17/51/14
f 15/52/15 16/53/15 19/54/15 18/55/15
f 17/56/16 20/57/16 1/58/16
f 17/59/17 18/60/17 21/61/17 20/62/17
f 18/63/18 19/64/18 22/65/18 21/66/18
f 20/67/19 23/68/19 1/69/19
f 20/70/20 21/71/20 24/72/20 23/73/20
f 21/74/21 22/75/21 25/76/21 24/77/21
f 23/78/22 26/79/22 1/80/22
f 23/81/23 24/82/23 27/83/23 26/84/23
f 24/85/24 25/86/24 28/87/24 27/88/24
f 26/89/25 29/90/25 1/91/25
f 26/92/26 27/93/26 30/94/26 29/95/26
f 27/96/27 28/97/27 31/98/27 30/99/27
f 29/100/28 32/101/28 1/102/28
f 29/103/29 30/104/29 33/105/29 32/106/29
f 30/107/30 31/108/30 34/109/30 33/110/30
f 32/111/31 35/112/31 1/113/31
f 32/114/32 33/115/32 36/116/32 35/117/32
f 33/118/33 34/119/33 37/120/33 36/121/33
f 35/122/34 2/123/34 1/124/34
f 35/125/35 36/126/35 3/127/35 2/128/35
f 36/129/36 37/130/36 4/131/36 3/132/36
f 39/133/37 40/134/37 28/135/37 25/136/37
f 40/137/38 41/138/38 31/139/38 28/140/38
f 41/141/39 42/142/39 34/143/39 31/144/39
f 42/145/40 43/146/40 37/147/40 34/148/40
f 43/149/41 44/150/41 4/151/41 37/152/41
f 44/153/42 45/154/42 7/155/42 4/156/42
f 45/157/43 46/158/43 10/159/43 7/160/43
f 46/161/44 47/162/44 13/163/44 10/164/44
f 47/165/45 48/166/45 16/167/45 13/168/45
f 48/169/46 49/170/46 19/171/46 16/172/46
f 49/173/47 38/174/47 22/175/47 19/176/47
f 48/177/48 45/178/48 42/179/48 39/180/48
f 42/181/49 45/182/49 44/183/49 43/184/49
f 42/185/50 41/186/50 40/187/50 39/188/50
f 39/189/51 38/190/51 49/191/51 48/192/51
f 48/193/52 47/194/52 46/195/52 45/196/52
f 38/197/53 39/198/53 25/199/53 22/200/53