# Made in Blockbench 5.1.4
mtllib rose.mtl

o base
v -0.15467960838455727 0.4375 0.15467960838455724
v 0.15467960838455727 0.4375 -0.15467960838455724
v -0.15467960838455727 0 0.15467960838455724
v 0.15467960838455727 0 -0.15467960838455724
v -0.15467960838455727 0.4375 0.15467960838455724
v 0.15467960838455727 0.4375 -0.15467960838455724
v -0.15467960838455727 0 0.15467960838455724
v 0.15467960838455727 0 -0.15467960838455724
v 0.15467960838455724 0.4375 0.15467960838455727
v 0.15467960838455724 0.4375 0.15467960838455727
v 0.15467960838455724 0 0.15467960838455727
v 0.15467960838455724 0 0.15467960838455727
v -0.15467960838455724 0.4375 -0.15467960838455727
v -0.15467960838455724 0.4375 -0.15467960838455727
v -0.15467960838455724 0 -0.15467960838455727
v -0.15467960838455724 0 -0.15467960838455727
vt 0.4375 0.5625
vt 0.4375 1
vt 0 1
vt 0 0.5625
vt 0 0.5625
vt 0 1
vt 0.4375 1
vt 0.4375 0.5625
vt 0.875 0.5625
vt 0.875 1
vt 0.4375 1
vt 0.4375 0.5625
vt 0.4375 0.5625
vt 0.4375 1
vt 0.875 1
vt 0.875 0.5625
vn 0.7071067811865475 0 0.7071067811865476
vn -0.7071067811865475 0 -0.7071067811865476
vn -0.7071067811865476 0 0.7071067811865475
vn 0.7071067811865476 0 -0.7071067811865475
usemtl red
f 4/1/1 2/2/1 1/3/1 3/4/1
f 7/5/2 5/6/2 6/7/2 8/8/2
f 11/9/3 9/10/3 13/11/3 15/12/3
f 16/13/4 14/14/4 10/15/4 12/16/4
o head
v 0.14158521219218761 0.6875 0.12315546131525978
v 0.0459143541009152 0.6875 -0.10781442181256187
v 0.14158521219218761 0.4375 0.12315546131525978
v 0.0459143541009152 0.4375 -0.10781442181256187
v 0.14158521219218761 0.6875 0.12315546131525978
v 0.0459143541009152 0.6875 -0.10781442181256187
v 0.14158521219218761 0.4375 0.12315546131525978
v 0.0459143541009152 0.4375 -0.10781442181256187
v -0.04591476825970808 0.6875 0.11065519639339322
v -0.14158562635098051 0.6875 -0.12031468673442847
v -0.04591476825970808 0.4375 0.11065519639339322
v -0.14158562635098051 0.4375 -0.12031468673442847
v -0.04591476825970808 0.6875 0.11065519639339322
v -0.14158562635098051 0.6875 -0.12031468673442847
v -0.04591476825970808 0.4375 0.11065519639339322
v -0.14158562635098051 0.4375 -0.12031468673442847
v 0.1217352752463742 0.6875 -0.1401648628573871
v 0.1217352752463742 0.6875 -0.1401648628573871
v 0.1217352752463742 0.4375 -0.1401648628573871
v 0.1217352752463742 0.4375 -0.1401648628573871
v -0.10923460788144748 0.6875 -0.04449400476611467
v -0.10923460788144748 0.6875 -0.04449400476611467
v -0.10923460788144748 0.4375 -0.04449400476611467
v -0.10923460788144748 0.4375 -0.04449400476611467
v 0.031249989646239918 0.71875 0.03267054376533084
v 0.03124978027173743 0.71875 -0.02982940113429417
v 0.031249989646239918 0.46875 0.03267054376533084
v 0.03124978027173743 0.46875 -0.02982940113429417
v -0.03124995525338509 0.71875 0.032670753139833336
v -0.03125016462788758 0.71875 -0.029829191759791675
v -0.03124995525338509 0.46875 0.032670753139833336
v -0.03125016462788758 0.46875 -0.029829191759791675
v -0.03125016462788758 0.46875 -0.029829191759791675
v -0.03124995525338509 0.46875 0.032670753139833336
v -0.03125016462788758 0.71875 -0.029829191759791675
v -0.03124995525338509 0.71875 0.032670753139833336
v 0.03124978027173743 0.46875 -0.02982940113429417
v 0.031249989646239918 0.46875 0.03267054376533084
v 0.03124978027173743 0.71875 -0.02982940113429417
v 0.031249989646239918 0.71875 0.03267054376533084
v 0.10923501032450764 0.6875 0.04733511759450861
v 0.10923501032450764 0.6875 0.04733511759450861
v 0.10923501032450764 0.4375 0.04733511759450861
v 0.10923501032450764 0.4375 0.04733511759450861
v -0.12173487280331405 0.6875 0.14300597568578105
v -0.12173487280331405 0.6875 0.14300597568578105
v -0.12173487280331405 0.4375 0.14300597568578105
v -0.12173487280331405 0.4375 0.14300597568578105
v 0.15625031550370375 0.5700825 0.2246281421462047
v 0.15625031550370375 0.5700825 0.2246281421462047
v 0.15624994305224227 0.4375 0.09204539931171082
v 0.15624994305224227 0.4375 0.09204539931171082
v -0.15624988734871176 0.5700825 0.22462803416930152
v -0.15624988734871176 0.5700825 0.22462803416930152
v -0.1562502598001732 0.4375 0.09204529133480766
v -0.1562502598001732 0.4375 0.09204529133480766
v 0.15624975907912636 0.5700825 -0.22803683997409543
v 0.15624975907912636 0.5700825 -0.22803683997409543
v 0.15624989235344258 0.4375 -0.09545467456430942
v 0.15624989235344258 0.4375 -0.09545467456430942
v -0.15624986634858132 0.5700825 -0.22803718712814383
v -0.15624986634858132 0.5700825 -0.22803718712814383
v -0.15625007132182767 0.4375 -0.09545420511650476
v -0.15625007132182767 0.4375 -0.09545420511650476
v 0.09374999815261725 0.4375 0.09204560868621332
v 0.0937499474538176 0.4375 -0.09545446518980694
v 0.09374999815261725 0.4375 0.09204560868621332
v 0.0937499474538176 0.4375 -0.09545446518980694
v -0.09375007572340299 0.4375 0.09204565938501298
v -0.09375012642220265 0.4375 -0.09545441449100726
v -0.09375007572340299 0.4375 0.09204565938501298
v -0.09375012642220265 0.4375 -0.09545441449100726
v 0.22633237293690578 0.5700825 0.15454542031152207
v 0.22633248091380895 0.5700825 -0.1579547825408934
v 0.09375020752711975 0.4375 0.15454555358583832
v 0.09374973807931511 0.4375 -0.15795441008943195
v 0.22633237293690578 0.5700825 0.15454542031152207
v 0.22633248091380895 0.5700825 -0.1579547825408934
v 0.09375020752711975 0.4375 0.15454555358583832
v 0.09374973807931511 0.4375 -0.15795441008943195
v -0.2263328483605396 0.5700825 0.15454539931139166
v -0.22633250120649118 0.5700825 -0.15795422611631604
v -0.0937498663489005 0.4375 0.15454560428463798
v -0.09374975837199732 0.4375 -0.15795459856777752
v -0.2263328483605396 0.5700825 0.15454539931139166
v -0.22633250120649118 0.5700825 -0.15795422611631604
v -0.0937498663489005 0.4375 0.15454560428463798
v -0.09374975837199732 0.4375 -0.15795459856777752
vt 0.25 0
vt 0.25 0.25
vt 0.5 0.25
vt 0.5 0
vt 0.5 0
vt 0.5 0.25
vt 0.25 0.25
vt 0.25 0
vt 1 0
vt 1 0.25
vt 0.75 0.25
vt 0.75 0
vt 0.75 0
vt 0.75 0.25
vt 1 0.25
vt 1 0
vt 0.25 0
vt 0.25 0.25
vt 0 0.25
vt 0 0
vt 0 0
vt 0 0.25
vt 0.25 0.25
vt 0.25 0
vt 1 0.75
vt 1 1
vt 0.9375 1
vt 0.9375 0.75
vt 1 0.25
vt 1 0.5
vt 0.9375 0.5
vt 0.9375 0.25
vt 1 0.5
vt 1 0.75
vt 0.9375 0.75
vt 0.9375 0.5
vt 0.9375 0.75
vt 0.9375 1
vt 0.875 1
vt 0.875 0.75
vt 0.9375 0.5
vt 0.9375 0.25
vt 1 0.25
vt 1 0.5
vt 0.9375 1
vt 0.9375 0.75
vt 1 0.75
vt 1 1
vt 0.875 1
vt 0.875 0.75
vt 0.9375 0.75
vt 0.9375 1
vt 0.9375 0.75
vt 0.9375 0.5
vt 1 0.5
vt 1 0.75
vt 0.5 0
vt 0.5 0.25
vt 0.75 0.25
vt 0.75 0
vt 0.75 0
vt 0.75 0.25
vt 0.5 0.25
vt 0.5 0
vt 0.375 0.5625
vt 0.5625 0.5625
vt 0.5625 0.25
vt 0.375 0.25
vt 0.375 0.25
vt 0.5625 0.25
vt 0.5625 0.5625
vt 0.375 0.5625
vt 0 0.25
vt 0.1875 0.25
vt 0.1875 0.5625
vt 0 0.5625
vt 0 0.5625
vt 0.1875 0.5625
vt 0.1875 0.25
vt 0 0.25
vt 0.75 0.5625
vt 0.75 0.375
vt 0.9375 0.375
vt 0.9375 0.5625
vt 0.75 0.375
vt 0.75 0.5625
vt 0.9375 0.5625
vt 0.9375 0.375
vt 0.1875 0.5625
vt 0.375 0.5625
vt 0.375 0.25
vt 0.1875 0.25
vt 0.1875 0.25
vt 0.375 0.25
vt 0.375 0.5625
vt 0.1875 0.5625
vt 0.5625 0.25
vt 0.75 0.25
vt 0.75 0.5625
vt 0.5625 0.5625
vt 0.5625 0.5625
vt 0.75 0.5625
vt 0.75 0.25
vt 0.5625 0.25
vn 0.9238795325112867 0 -0.3826834323650897
vn -0.9238795325112867 0 0.3826834323650897
vn 0.9238795325112867 0 -0.3826834323650897
vn -0.9238795325112867 0 0.3826834323650897
vn 0.3826834323650897 0 0.9238795325112867
vn -0.3826834323650897 0 -0.9238795325112867
vn 0.9999999999943889 0 -0.0000033499949932402914
vn -0.9999999999943889 0 0.0000033499949932402914
vn 0.0000033499949932958026 0 0.9999999999943889
vn -0.0000033499949932958026 0 -0.9999999999943889
vn 0.9999999999943889 0 -0.0000033499949932402914
vn -0.9999999999943889 0 0.0000033499949932402914
vn 0.0000033499949932958026 0 0.9999999999943889
vn -0.0000033499949932958026 0 -0.9999999999943889
vn 0.3826834323650897 0 0.9238795325112867
vn -0.3826834323650897 0 -0.9238795325112867
vn -2.443234591031907e-7 -0.707107428744049 0.7071061336284109
vn 2.443234591587018e-7 0.707107428744049 -0.7071061336284108
vn -7.855218743246797e-7 0.7071058889435308 0.7071076734280022
vn 7.855194552319755e-7 -0.7071080665480108 -0.7071054958223113
vn 0 1 0
vn 0 -1 0
vn 0.7071061336284109 -0.7071074287440489 2.443234590476795e-7
vn -0.7071076734279272 0.7071058889439997 -2.443239911498196e-7
vn 0.7071061336289741 0.7071074287430916 7.855201637207989e-7
vn -0.7071054958223113 -0.7071080665480111 -7.855194552597313e-7
usemtl red
f 20/17/5 18/18/5 17/19/5 19/20/5
f 23/21/6 21/22/6 22/23/6 24/24/6
f 28/25/7 26/26/7 25/27/7 27/28/7
f 31/29/8 29/30/8 30/31/8 32/32/8
f 35/33/9 33/34/9 37/35/9 39/36/9
f 40/37/10 38/38/10 34/39/10 36/40/10
f 44/41/11 42/42/11 41/43/11 43/44/11
f 47/45/12 45/46/12 46/47/12 48/48/12
f 43/49/13 41/50/13 45/51/13 47/52/13
f 48/53/14 46/54/14 42/55/14 44/56/14
f 52/57/15 50/58/15 49/59/15 51/60/15
f 55/61/16 53/62/16 54/63/16 56/64/16
f 51/65/17 49/66/17 53/67/17 55/68/17
f 56/69/18 54/70/18 50/71/18 52/72/18
f 59/73/19 57/74/19 61/75/19 63/76/19
f 64/77/20 62/78/20 58/79/20 60/80/20
f 67/81/21 65/82/21 69/83/21 71/84/21
f 72/85/22 70/86/22 66/87/22 68/88/22
f 75/89/23 73/90/23 77/91/23 79/92/23
f 80/93/24 78/94/24 74/95/24 76/96/24
f 81/97/25 82/98/25 86/99/25 85/100/25
f 84/101/26 83/102/26 87/103/26 88/104/26
f 92/105/27 90/106/27 89/107/27 91/108/27
f 95/109/28 93/110/28 94/111/28 96/112/28
f 100/113/29 98/114/29 97/115/29 99/116/29
f 103/117/30 101/118/30 102/119/30 104/120/30