# Blender 3.6.5
# www.blender.org
mtllib strawberry.mtl
o hair
v 0.437500 0.750000 -0.500000
v -0.437500 0.687500 -0.500000
v 0.437500 0.875000 0.166667
v -0.500000 0.750000 0.166667
v 0.437500 0.875000 -0.104167
v -0.375000 0.843750 -0.104167
v 0.104167 1.000000 0.166667
v 0.166667 0.875000 0.437500
v -0.166667 1.000000 0.166667
v -0.166667 0.812500 0.562500
v 0.166667 1.000000 -0.229167
v -0.166667 1.000000 -0.166667
v 0.229167 0.812500 -0.437500
v -0.166667 0.875000 -0.312500
v 0.031250 1.156250 0.031250
v 0.031250 1.156250 -0.031250
v -0.031250 1.156250 0.031250
v -0.031250 1.156250 -0.031250
v 0.031250 0.968750 0.031250
v 0.031250 0.968750 -0.031250
v -0.031250 0.968750 -0.031250
v -0.031250 0.968750 0.031250
v 0.375000 0.625000 0.437500
v -0.312500 0.812500 0.312500
vn -0.5774 0.5774 0.5774
vn 0.5774 0.5774 0.5774
vn 0.5774 0.5774 -0.5774
vn -0.5774 0.5774 -0.5774
vn 0.7071 -0.0000 0.7071
vn 0.7071 -0.0000 -0.7071
vn -0.7071 -0.0000 -0.7071
vn -0.7071 -0.0000 0.7071
vn 0.4526 0.8470 0.2789
vn 0.2735 0.8347 0.4779
vn 0.6092 0.5077 0.6092
vn 0.1521 0.9665 0.2066
vn -0.6139 0.7849 -0.0839
vn -0.5921 0.7895 0.1613
vn -0.3039 0.9304 0.2050
vn -0.2929 0.9181 -0.2670
vn -0.4693 0.8017 -0.3703
vn -0.0921 0.7507 -0.6541
vn 0.1986 0.9117 -0.3597
vn 0.2096 0.8472 -0.4882
vn 0.4225 0.8908 -0.1670
vn 0.1921 0.9358 -0.2955
vn -0.2321 0.8791 0.4164
vn -0.5714 0.7324 0.3702
vt 0.000000 0.750000
vt 0.020833 0.750000
vt 0.020833 0.770833
vt 0.000000 0.770833
vt 0.375000 0.895833
vt 0.375000 0.833333
vt 0.395833 0.833333
vt 0.395833 0.895833
vt 0.375000 0.812500
vt 0.375000 0.750000
vt 0.395833 0.750000
vt 0.395833 0.812500
vt 0.395833 1.000000
vt 0.395833 0.937500
vt 0.416667 0.937500
vt 0.416667 1.000000
vt 0.437500 0.458333
vt 0.437500 0.395833
vt 0.458333 0.395833
vt 0.458333 0.458333
vt 0.498167 0.586501
vt 0.384328 0.499689
vt 0.472618 0.494458
vt 0.361844 0.618054
vt 0.384142 0.499690
vt 0.498167 0.586502
vt 0.738480 0.910069
vt 0.828759 0.861110
vt 0.828759 1.000000
vt 0.717647 1.000000
vt 0.936300 0.266404
vt 0.948863 0.397442
vt 0.858480 0.416666
vt 0.860073 0.352661
vt 0.747046 0.398070
vt 0.728812 0.304187
vt 0.858480 0.416667
vt 0.655303 0.399037
vt 0.660187 0.272864
vt 0.747062 0.398153
vt 0.499267 0.596195
vt 0.481428 0.685911
vt 0.382679 0.729167
vt 0.361846 0.618055
vt 0.384218 0.500269
vt 0.361844 0.618054
vt 0.271566 0.597221
vt 0.274801 0.451258
vt 0.828759 0.999910
vt 0.881573 0.923471
vt 0.969853 0.962387
vt 0.361846 0.618054
vt 0.271566 0.708333
s 1
usemtl m_e807d875-3f4d-6996-3afa-f12f700fe768
f 17/1/1 15/2/2 16/3/3 18/4/4
f 15/5/2 19/6/5 20/7/6 16/8/3
f 16/9/3 20/10/6 21/11/7 18/12/4
f 18/13/4 21/14/7 22/15/8 17/16/1
f 17/17/1 22/18/8 19/19/5 15/20/2
f 3/21/9 8/22/10 23/23/11
f 7/24/12 8/25/10 3/26/9
f 6/27/13 4/28/14 9/29/15
f 6/27/13 9/29/15 12/30/16
f 2/31/17 6/32/13 12/33/16
f 2/31/17 12/33/16 14/34/18
f 11/35/19 13/36/20 14/34/18
f 11/35/19 14/34/18 12/37/16
f 5/38/21 1/39/22 13/36/20
f 5/38/21 13/36/20 11/40/19
f 3/41/9 5/42/21 11/43/19
f 3/41/9 11/43/19 7/44/12
f 8/45/10 7/46/12 9/47/15
f 8/45/10 9/47/15 10/48/23
f 9/49/15 24/50/24 10/51/23
f 24/50/24 9/49/15 4/28/14
f 7/52/12 11/43/19 12/53/16
f 7/52/12 12/53/16 9/47/15
o left_eye
v -0.218750 0.640625 -0.459375
v -0.193630 0.546994 -0.464827
v -0.150120 0.572082 -0.463366
v -0.125000 0.615537 -0.460836
v -0.125000 0.665713 -0.457914
v -0.150120 0.709168 -0.455384
v -0.193630 0.734256 -0.453923
v -0.243870 0.734256 -0.453923
v -0.287380 0.709168 -0.455384
v -0.312500 0.665713 -0.457914
v -0.312500 0.615537 -0.460836
v -0.287380 0.572082 -0.463366
v -0.243870 0.546994 -0.464827
v -0.187500 0.671875 -0.453125
v -0.154006 0.546994 -0.458577
v -0.095994 0.580456 -0.457116
v -0.062500 0.638413 -0.454586
v -0.062500 0.705337 -0.451664
v -0.095994 0.763294 -0.449134
v -0.154006 0.796756 -0.447673
v -0.220994 0.796756 -0.447673
v -0.279006 0.763294 -0.449134
v -0.312500 0.705337 -0.451664
v -0.312500 0.638413 -0.454586
v -0.279006 0.580456 -0.457116
v -0.220994 0.546994 -0.458577
vn -0.0000 0.0581 -0.9983
vn -0.0000 0.0436 -0.9990
vt 0.375000 0.210360
vt 0.383373 0.195850
vt 0.406250 0.218737
vt 0.375000 0.227115
vt 0.383373 0.241623
vt 0.397877 0.250000
vt 0.414623 0.250000
vt 0.429127 0.241623
vt 0.437500 0.227115
vt 0.437500 0.210360
vt 0.429127 0.195850
vt 0.414623 0.187473
vt 0.397877 0.187473
vt 0.708333 0.780502
vt 0.719498 0.761165
vt 0.750000 0.791667
vt 0.708333 0.802831
vt 0.719498 0.822169
vt 0.738835 0.833333
vt 0.761165 0.833333
vt 0.780502 0.822169
vt 0.791667 0.802831
vt 0.791667 0.780502
vt 0.780502 0.761165
vt 0.761165 0.750000
vt 0.738835 0.750000
s 1
usemtl m_e807d875-3f4d-6996-3afa-f12f700fe768
f 28/54/25 27/55/25 25/56/25
f 29/57/25 28/54/25 25/56/25
f 30/58/25 29/57/25 25/56/25
f 31/59/25 30/58/25 25/56/25
f 32/60/25 31/59/25 25/56/25
f 33/61/25 32/60/25 25/56/25
f 34/62/25 33/61/25 25/56/25
f 35/63/25 34/62/25 25/56/25
f 36/64/25 35/63/25 25/56/25
f 37/65/25 36/64/25 25/56/25
f 26/66/25 37/65/25 25/56/25
f 27/55/25 26/66/25 25/56/25
f 41/67/26 40/68/26 38/69/26
f 42/70/26 41/67/26 38/69/26
f 43/71/26 42/70/26 38/69/26
f 44/72/26 43/71/26 38/69/26
f 45/73/26 44/72/26 38/69/26
f 46/74/26 45/73/26 38/69/26
f 47/75/26 46/74/26 38/69/26
f 48/76/26 47/75/26 38/69/26
f 49/77/26 48/76/26 38/69/26
f 50/78/26 49/77/26 38/69/26
f 39/79/26 50/78/26 38/69/26
f 40/68/26 39/79/26 38/69/26
o right_eye
v 0.187500 0.671875 -0.453125
v 0.154006 0.546994 -0.458577
v 0.095994 0.580456 -0.457116
v 0.062500 0.638413 -0.454586
v 0.062500 0.705337 -0.451664
v 0.095994 0.763294 -0.449134
v 0.154006 0.796756 -0.447673
v 0.220994 0.796756 -0.447673
v 0.279006 0.763294 -0.449134
v 0.312500 0.705337 -0.451664
v 0.312500 0.638413 -0.454586
v 0.279006 0.580456 -0.457116
v 0.220994 0.546994 -0.458577
v 0.218750 0.640625 -0.459375
v 0.193630 0.546994 -0.464827
v 0.150120 0.572082 -0.463366
v 0.125000 0.615537 -0.460836
v 0.125000 0.665713 -0.457914
v 0.150120 0.709168 -0.455384
v 0.193630 0.734256 -0.453923
v 0.243870 0.734256 -0.453923
v 0.287380 0.709168 -0.455384
v 0.312500 0.665713 -0.457914
v 0.312500 0.615537 -0.460836
v 0.287380 0.572082 -0.463366
v 0.243870 0.546994 -0.464827
vn -0.0000 0.0436 -0.9990
vn -0.0000 0.0581 -0.9983
vt 0.363835 0.927831
vt 0.375000 0.947169
vt 0.333333 0.958333
vt 0.375000 0.969498
vt 0.363835 0.988835
vt 0.344498 1.000000
vt 0.322169 1.000000
vt 0.302831 0.988835
vt 0.291667 0.969498
vt 0.291667 0.947169
vt 0.302831 0.927831
vt 0.322169 0.916667
vt 0.344498 0.916667
vt 0.054127 0.945850
vt 0.062500 0.960360
vt 0.031250 0.968737
vt 0.062500 0.977115
vt 0.054127 0.991623
vt 0.039623 1.000000
vt 0.022877 1.000000
vt 0.008373 0.991623
vt 0.000000 0.977115
vt 0.000000 0.960360
vt 0.008373 0.945850
vt 0.022877 0.937473
vt 0.039623 0.937473
s 1
usemtl m_e807d875-3f4d-6996-3afa-f12f700fe768
f 53/80/27 54/81/27 51/82/27
f 54/81/27 55/83/27 51/82/27
f 55/83/27 56/84/27 51/82/27
f 56/84/27 57/85/27 51/82/27
f 57/85/27 58/86/27 51/82/27
f 58/86/27 59/87/27 51/82/27
f 59/87/27 60/88/27 51/82/27
f 60/88/27 61/89/27 51/82/27
f 61/89/27 62/90/27 51/82/27
f 62/90/27 63/91/27 51/82/27
f 63/91/27 52/92/27 51/82/27
f 52/92/27 53/80/27 51/82/27
f 66/93/28 67/94/28 64/95/28
f 67/94/28 68/96/28 64/95/28
f 68/96/28 69/97/28 64/95/28
f 69/97/28 70/98/28 64/95/28
f 70/98/28 71/99/28 64/95/28
f 71/99/28 72/100/28 64/95/28
f 72/100/28 73/101/28 64/95/28
f 73/101/28 74/102/28 64/95/28
f 74/102/28 75/103/28 64/95/28
f 75/103/28 76/104/28 64/95/28
f 76/104/28 65/105/28 64/95/28
f 65/105/28 66/93/28 64/95/28
o sphere
v 0.000000 0.000000 0.000000
v 0.000000 1.000000 -0.000000
v 0.066987 0.933013 0.250000
v 0.116025 0.750000 0.433013
v 0.117228 0.500000 0.437500
v 0.082532 0.250000 0.308013
v 0.050240 0.066987 0.187500
v 0.183013 0.933013 0.183013
v 0.316987 0.750000 0.316987
v 0.320272 0.500000 0.320272
v 0.225481 0.250000 0.225481
v 0.137260 0.066987 0.137260
v 0.250000 0.933013 0.066987
v 0.433013 0.750000 0.116025
v 0.437500 0.500000 0.117228
v 0.308013 0.250000 0.082532
v 0.187500 0.066987 0.050240
v 0.250000 0.933013 -0.066987
v 0.433013 0.750000 -0.116025
v 0.437500 0.500000 -0.117228
v 0.308013 0.250000 -0.082532
v 0.187500 0.066987 -0.050240
v 0.183013 0.933013 -0.183013
v 0.316987 0.750000 -0.316987
v 0.320272 0.500000 -0.320272
v 0.225481 0.250000 -0.225481
v 0.137260 0.066987 -0.137260
v 0.066987 0.933013 -0.250000
v 0.116025 0.750000 -0.433013
v 0.117228 0.500000 -0.437500
v 0.082532 0.250000 -0.308013
v 0.050240 0.066987 -0.187500
v -0.066987 0.933013 -0.250000
v -0.116025 0.750000 -0.433013
v -0.117228 0.500000 -0.437500
v -0.082532 0.250000 -0.308013
v -0.050240 0.066987 -0.187500
v -0.183013 0.933013 -0.183013
v -0.316987 0.750000 -0.316987
v -0.320272 0.500000 -0.320272
v -0.225481 0.250000 -0.225481
v -0.137260 0.066987 -0.137260
v -0.250000 0.933013 -0.066987
v -0.433013 0.750000 -0.116025
v -0.437500 0.500000 -0.117228
v -0.308013 0.250000 -0.082532
v -0.187500 0.066987 -0.050240
v -0.250000 0.933013 0.066987
v -0.433013 0.750000 0.116025
v -0.437500 0.500000 0.117228
v -0.308013 0.250000 0.082532
v -0.187500 0.066987 0.050240
v -0.183013 0.933013 0.183013
v -0.316987 0.750000 0.316987
v -0.320272 0.500000 0.320272
v -0.225481 0.250000 0.225481
v -0.137260 0.066987 0.137260
v -0.066987 0.933013 0.250000
v -0.116025 0.750000 0.433013
v -0.117228 0.500000 0.437500
v -0.082532 0.250000 0.308013
v -0.050240 0.066987 0.187500
vn 0.1345 0.8544 0.5019
vn 0.3675 0.8544 0.3675
vn -0.0000 1.0000 -0.0000
vn 0.2396 0.3778 0.8943
vn 0.6547 0.3778 0.6547
vn 0.2521 -0.2256 0.9410
vn 0.6889 -0.2256 0.6889
vn 0.2219 -0.5148 0.8281
vn 0.6062 -0.5148 0.6062
vn 0.1651 -0.7700 0.6163
vn 0.4512 -0.7700 0.4512
vn -0.0000 -1.0000 -0.0000
vn 0.5019 0.8544 0.1345
vn 0.8943 0.3778 0.2396
vn 0.9410 -0.2256 0.2521
vn 0.8281 -0.5148 0.2219
vn 0.6163 -0.7700 0.1651
vn 0.5019 0.8544 -0.1345
vn 0.8943 0.3778 -0.2396
vn 0.9410 -0.2256 -0.2521
vn 0.8281 -0.5148 -0.2219
vn 0.6163 -0.7700 -0.1651
vn 0.3675 0.8544 -0.3675
vn 0.6547 0.3778 -0.6547
vn 0.6889 -0.2256 -0.6889
vn 0.6062 -0.5148 -0.6062
vn 0.4512 -0.7700 -0.4512
vn 0.1345 0.8544 -0.5019
vn 0.2396 0.3778 -0.8943
vn 0.2521 -0.2256 -0.9410
vn 0.2219 -0.5148 -0.8281
vn 0.1651 -0.7700 -0.6163
vn -0.1345 0.8544 -0.5019
vn -0.2396 0.3778 -0.8943
vn -0.2521 -0.2256 -0.9410
vn -0.2219 -0.5148 -0.8281
vn -0.1651 -0.7700 -0.6163
vn -0.3675 0.8544 -0.3675
vn -0.6547 0.3778 -0.6547
vn -0.6889 -0.2256 -0.6889
vn -0.6062 -0.5148 -0.6062
vn -0.4512 -0.7700 -0.4512
vn -0.5019 0.8544 -0.1345
vn -0.8943 0.3778 -0.2396
vn -0.9410 -0.2256 -0.2521
vn -0.8281 -0.5148 -0.2219
vn -0.6163 -0.7700 -0.1651
vn -0.5019 0.8544 0.1345
vn -0.8943 0.3778 0.2396
vn -0.9410 -0.2256 0.2521
vn -0.8281 -0.5148 0.2219
vn -0.6163 -0.7700 0.1651
vn -0.3675 0.8544 0.3675
vn -0.6547 0.3778 0.6547
vn -0.6889 -0.2256 0.6889
vn -0.6062 -0.5148 0.6062
vn -0.4512 -0.7700 0.4512
vn -0.1345 0.8544 0.5019
vn -0.2396 0.3778 0.8943
vn -0.2521 -0.2256 0.9410
vn -0.2219 -0.5148 0.8281
vn -0.1651 -0.7700 0.6163
vt 0.199189 0.825623
vt 0.238240 0.847289
vt 0.176860 0.911896
vt 0.215535 0.739350
vt 0.287524 0.767645
vt 0.240752 0.841959
vt 0.163675 0.707591
vt 0.164075 0.624245
vt 0.242221 0.624995
vt 0.241021 0.708333
vt 0.176540 0.530512
vt 0.231558 0.531041
vt 0.188005 0.457575
vt 0.221495 0.457897
vt 0.827478 0.243754
vt 0.797996 0.259643
vt 0.781250 0.193274
vt 0.261876 0.885179
vt 0.344173 0.820312
vt 0.273459 0.872367
vt 0.529812 0.708333
vt 0.528612 0.624995
vt 0.606758 0.624245
vt 0.607158 0.707591
vt 0.539275 0.531041
vt 0.594293 0.530512
vt 0.549338 0.457897
vt 0.582828 0.457575
vt 0.845893 0.215779
vt 0.264163 0.929779
vt 0.290171 0.270833
vt 0.273825 0.187500
vt 0.351175 0.187500
vt 0.334829 0.270833
vt 0.684908 0.624245
vt 0.684508 0.707591
vt 0.618323 0.530397
vt 0.673344 0.530397
vt 0.629088 0.457353
vt 0.662579 0.457353
vt 0.848832 0.182416
vt 0.244525 0.969888
vt 0.351318 0.416667
vt 0.280603 0.364612
vt 0.337253 0.311945
vt 0.384024 0.386259
vt 0.763055 0.624995
vt 0.761855 0.708333
vt 0.697373 0.530512
vt 0.752391 0.531041
vt 0.708838 0.457575
vt 0.742328 0.457897
vt 0.835591 0.151653
vt 0.207894 0.995433
vt 0.409242 0.283650
vt 0.425588 0.369923
vt 0.446479 1.000000
vt 0.445279 0.916662
vt 0.523425 0.915912
vt 0.523825 0.999258
vt 0.455942 0.822707
vt 0.510960 0.822179
vt 0.466005 0.749564
vt 0.499495 0.749242
vt 0.809340 0.130855
vt 0.190249 1.000000
vt 0.145825 0.995433
vt 0.486592 0.283650
vt 0.470246 0.369923
vt 0.601575 0.915912
vt 0.601175 0.999258
vt 0.534990 0.822064
vt 0.590010 0.822064
vt 0.545754 0.749020
vt 0.579246 0.749020
vt 0.776364 0.125000
vt 0.109195 0.969888
vt 0.558581 0.311945
vt 0.511809 0.386259
vt 0.679721 0.916662
vt 0.678521 1.000000
vt 0.614040 0.822179
vt 0.669058 0.822707
vt 0.625505 0.749242
vt 0.658995 0.749564
vt 0.726909 0.151653
vt 0.753160 0.130855
vt 0.089557 0.929779
vt 0.615230 0.364612
vt 0.544516 0.416667
vt 0.008979 0.416667
vt 0.007779 0.333329
vt 0.085925 0.332578
vt 0.086325 0.415924
vt 0.018442 0.239374
vt 0.073460 0.238846
vt 0.028505 0.166230
vt 0.061995 0.165909
vt 0.713668 0.182416
vt 0.091843 0.885179
vt 0.561004 0.270833
vt 0.544658 0.187500
vt 0.622008 0.187500
vt 0.605663 0.270833
vt 0.164075 0.332578
vt 0.163675 0.415924
vt 0.097490 0.238730
vt 0.152510 0.238730
vt 0.108254 0.165687
vt 0.141746 0.165687
vt 0.716607 0.215779
vt 0.115480 0.847289
vt 0.009993 0.853386
vt 0.050933 0.787758
vt 0.242221 0.333329
vt 0.241021 0.416667
vt 0.176540 0.238846
vt 0.231558 0.239374
vt 0.188005 0.165909
vt 0.221495 0.166230
vt 0.735022 0.243754
vt 0.154531 0.825623
vt 0.059332 0.779779
vt 0.126969 0.742253
vt 0.008979 0.708333
vt 0.007779 0.624995
vt 0.085925 0.624245
vt 0.086325 0.707591
vt 0.018442 0.531041
vt 0.073460 0.530512
vt 0.028505 0.457897
vt 0.061995 0.457575
vt 0.764504 0.259643
vt 0.138185 0.739350
vt 0.097490 0.530397
vt 0.152510 0.530397
vt 0.108254 0.457353
vt 0.141746 0.457353
s 1
usemtl m_e807d875-3f4d-6996-3afa-f12f700fe768
f 79/106/29 84/107/30 78/108/31
f 79/106/29 80/109/32 85/110/33 84/111/30
f 80/112/32 81/113/34 86/114/35 85/115/33
f 81/113/34 82/116/36 87/117/37 86/114/35
f 82/116/36 83/118/38 88/119/39 87/117/37
f 88/120/39 83/121/38 77/122/40
f 84/107/30 89/123/41 78/108/31
f 84/111/30 85/110/33 90/124/42 89/125/41
f 85/126/33 86/127/35 91/128/43 90/129/42
f 86/127/35 87/130/37 92/131/44 91/128/43
f 87/130/37 88/132/39 93/133/45 92/131/44
f 93/134/45 88/120/39 77/122/40
f 89/123/41 94/135/46 78/108/31
f 89/136/41 90/137/42 95/138/47 94/139/46
f 90/129/42 91/128/43 96/140/48 95/141/47
f 91/128/43 92/142/44 97/143/49 96/140/48
f 92/142/44 93/144/45 98/145/50 97/143/49
f 98/146/50 93/134/45 77/122/40
f 94/135/46 99/147/51 78/108/31
f 94/148/46 95/149/47 100/150/52 99/151/51
f 95/141/47 96/140/48 101/152/53 100/153/52
f 96/140/48 97/154/49 102/155/54 101/152/53
f 97/154/49 98/156/50 103/157/55 102/155/54
f 103/158/55 98/146/50 77/122/40
f 99/147/51 104/159/56 78/108/31
f 99/151/51 100/150/52 105/160/57 104/161/56
f 100/162/52 101/163/53 106/164/58 105/165/57
f 101/163/53 102/166/54 107/167/59 106/164/58
f 102/166/54 103/168/55 108/169/60 107/167/59
f 108/170/60 103/158/55 77/122/40
f 104/171/56 109/172/61 78/108/31
f 104/161/56 105/160/57 110/173/62 109/174/61
f 105/165/57 106/164/58 111/175/63 110/176/62
f 106/164/58 107/177/59 112/178/64 111/175/63
f 107/177/59 108/179/60 113/180/65 112/178/64
f 113/181/65 108/170/60 77/122/40
f 109/172/61 114/182/66 78/108/31
f 109/174/61 110/173/62 115/183/67 114/184/66
f 110/176/62 111/175/63 116/185/68 115/186/67
f 111/175/63 112/187/64 117/188/69 116/185/68
f 112/187/64 113/189/65 118/190/70 117/188/69
f 118/191/70 113/192/65 77/122/40
f 114/182/66 119/193/71 78/108/31
f 114/184/66 115/183/67 120/194/72 119/195/71
f 115/196/67 116/197/68 121/198/73 120/199/72
f 116/197/68 117/200/69 122/201/74 121/198/73
f 117/200/69 118/202/70 123/203/75 122/201/74
f 123/204/75 118/191/70 77/122/40
f 119/193/71 124/205/76 78/108/31
f 119/206/71 120/207/72 125/208/77 124/209/76
f 120/199/72 121/198/73 126/210/78 125/211/77
f 121/198/73 122/212/74 127/213/79 126/210/78
f 122/212/74 123/214/75 128/215/80 127/213/79
f 128/216/80 123/204/75 77/122/40
f 124/205/76 129/217/81 78/108/31
f 124/205/76 125/218/77 130/219/82 129/217/81
f 125/211/77 126/210/78 131/220/83 130/221/82
f 126/210/78 127/222/79 132/223/84 131/220/83
f 127/222/79 128/224/80 133/225/85 132/223/84
f 133/226/85 128/216/80 77/122/40
f 129/217/81 134/227/86 78/108/31
f 129/217/81 130/228/82 135/229/87 134/227/86
f 130/230/82 131/231/83 136/232/88 135/233/87
f 131/231/83 132/234/84 137/235/89 136/232/88
f 132/234/84 133/236/85 138/237/90 137/235/89
f 138/238/90 133/226/85 77/122/40
f 134/227/86 79/106/29 78/108/31
f 134/227/86 135/239/87 80/109/32 79/106/29
f 135/233/87 136/232/88 81/113/34 80/112/32
f 136/232/88 137/240/89 82/241/36 81/113/34
f 137/240/89 138/242/90 83/243/38 82/241/36
f 83/121/38 138/238/90 77/122/40
