# Made in Blockbench 4.8.3
mtllib ramen.mtl

o bowl
v 0.13397459621556132 0.4375 0.49999999999999994
v 0.11602540378443864 0.1875000000000001 0.43301270189221935
v 0.06698729810778065 0.004487298107780646 0.24999999999999994
v 0.3660254037844386 0.4375 0.36602540378443865
v 0.31698729810778065 0.1875000000000001 0.3169872981077807
v 0.18301270189221924 0.004487298107780646 0.18301270189221927
v 0.49999999999999994 0.4375 0.13397459621556132
v 0.43301270189221935 0.1875000000000001 0.11602540378443864
v 0.24999999999999994 0.004487298107780646 0.06698729810778065
v 0.49999999999999994 0.4375 -0.13397459621556138
v 0.43301270189221935 0.1875000000000001 -0.1160254037844387
v 0.24999999999999994 0.004487298107780646 -0.06698729810778067
v 0.36602540378443865 0.4375 -0.3660254037844386
v 0.3169872981077807 0.1875000000000001 -0.31698729810778065
v 0.18301270189221927 0.004487298107780646 -0.18301270189221924
v 0.1339745962155615 0.4375 -0.4999999999999999
v 0.11602540378443876 0.1875000000000001 -0.4330127018922193
v 0.06698729810778072 0.004487298107780646 -0.2499999999999999
v -0.13397459621556113 0.4375 -0.5
v -0.11602540378443847 0.1875000000000001 -0.4330127018922194
v -0.06698729810778055 0.004487298107780646 -0.24999999999999997
v -0.3660254037844386 0.4375 -0.3660254037844387
v -0.31698729810778065 0.1875000000000001 -0.31698729810778076
v -0.18301270189221924 0.004487298107780646 -0.1830127018922193
v -0.49999999999999994 0.4375 -0.13397459621556126
v -0.43301270189221935 0.1875000000000001 -0.1160254037844386
v -0.24999999999999994 0.004487298107780646 -0.06698729810778062
v -0.5 0.4375 0.1339745962155611
v -0.4330127018922194 0.1875000000000001 0.11602540378443844
v -0.24999999999999997 0.004487298107780646 0.06698729810778054
v -0.3660254037844387 0.4375 0.36602540378443854
v -0.31698729810778076 0.1875000000000001 0.3169872981077806
v -0.1830127018922193 0.004487298107780646 0.18301270189221922
v -0.1339745962155613 0.4375 0.49999999999999994
v -0.11602540378443861 0.1875000000000001 0.43301270189221935
v -0.06698729810778063 0.004487298107780646 0.24999999999999994
v 0.11722777168861614 0.4375 0.4375
v 0.3202722283113838 0.4375 0.3202722283113838
v 0.4375 0.4375 0.11722777168861614
v 0.4375 0.4375 -0.1172277716886162
v 0.3202722283113838 0.4375 -0.3202722283113838
v 0.1172277716886163 0.4375 -0.4374999999999999
v -0.11722777168861599 0.4375 -0.4375
v -0.3202722283113838 0.4375 -0.3202722283113839
v -0.4374999999999999 0.4375 -0.11722777168861612
v -0.4375 0.4375 0.11722777168861595
v -0.3202722283113839 0.4375 0.3202722283113838
v -0.11722777168861613 0.4375 0.4375
v 0.1015222283113838 0.3794642857142858 0.37888611415569196
v 0.27736388584430804 0.3794642857142858 0.27736388584430804
v 0.37888611415569196 0.3794642857142858 0.1015222283113838
v 0.37888611415569196 0.3794642857142858 -0.10152222831138386
v 0.27736388584430804 0.3794642857142858 -0.27736388584430804
v 0.10152222831138391 0.3794642857142858 -0.37888611415569196
v -0.10152222831138366 0.3794642857142858 -0.37888611415569196
v -0.27736388584430804 0.3794642857142858 -0.27736388584430816
v -0.37888611415569196 0.3794642857142858 -0.10152222831138377
v -0.37888611415569196 0.3794642857142858 0.10152222831138363
v -0.27736388584430816 0.3794642857142858 0.27736388584430804
v -0.10152222831138379 0.3794642857142858 0.37888611415569196
vt 0.18007499999999999 0.638474414771866
vt 0.17409166666666667 0.5522014981051993
vt 0.25070113465527466 0.5415238619200483
vt 0.26853656840141144 0.626144862452059
vt 0.17409166666666667 0.5522014981051993
vt 0.17837162502088272 0.4644981094932368
vt 0.2226024092215885 0.45833333333333337
vt 0.25070113465527466 0.5415238619200483
vt 0.5439634315985885 0.438644862452059
vt 0.5617988653447252 0.3540238619200483
vt 0.6384083333333332 0.36470149810519925
vt 0.632425 0.45097441477186595
vt 0.5617988653447252 0.3540238619200483
vt 0.5898975907784114 0.27083333333333337
vt 0.6341283749791171 0.2769981094932368
vt 0.6384083333333332 0.36470149810519925
vt 0.632425 0.45097441477186595
vt 0.6384083333333332 0.36470149810519925
vt 0.7157583333333333 0.36470149810519925
vt 0.7217416666666666 0.45097441477186595
vt 0.6384083333333332 0.36470149810519925
vt 0.6547541666666666 0.27842858143853255
vt 0.6994125 0.27842858143853255
vt 0.7157583333333333 0.36470149810519925
vt 0.7217416666666666 0.45097441477186595
vt 0.7157583333333333 0.36470149810519925
vt 0.7923678013219414 0.3540238619200483
vt 0.810203235068078 0.438644862452059
vt 0.7157583333333333 0.36470149810519925
vt 0.7200382916875494 0.2769981094932368
vt 0.7642690758882551 0.27083333333333337
vt 0.7923678013219414 0.3540238619200483
vt 0.3564634315985885 0.9803115291187257
vt 0.3742988653447253 0.8956905285867149
vt 0.4509083333333333 0.9063681647718658
vt 0.444925 0.9926410814385325
vt 0.3742988653447253 0.8956905285867149
vt 0.4023975907784115 0.8125
vt 0.44662837497911717 0.8186647761599034
vt 0.4509083333333333 0.9063681647718658
vt 0.444925 0.9926410814385325
vt 0.4509083333333333 0.9063681647718658
vt 0.5282583333333333 0.9063681647718658
vt 0.5342416666666666 0.9926410814385325
vt 0.4509083333333333 0.9063681647718658
vt 0.46725416666666664 0.8200952481051992
vt 0.5119125 0.8200952481051992
vt 0.5282583333333333 0.9063681647718658
vt 0.5342416666666666 0.9926410814385325
vt 0.5282583333333333 0.9063681647718658
vt 0.6048678013219413 0.8956905285867149
vt 0.6227032350680781 0.9803115291187257
vt 0.5282583333333333 0.9063681647718658
vt 0.5325382916875494 0.8186647761599034
vt 0.5767690758882551 0.8125
vt 0.6048678013219413 0.8956905285867149
vt 0.002296764931921898 0.41781152911872566
vt 0.020132198678058634 0.33319052858671494
vt 0.09674166666666667 0.3438681647718659
vt 0.09075833333333333 0.4301410814385326
vt 0.020132198678058634 0.33319052858671494
vt 0.0482309241117448 0.25
vt 0.09246170831245051 0.2561647761599034
vt 0.09674166666666663 0.3438681647718659
vt 0.09075833333333333 0.4301410814385326
vt 0.09674166666666667 0.3438681647718659
vt 0.17409166666666667 0.3438681647718659
vt 0.18007499999999999 0.4301410814385326
vt 0.09674166666666667 0.3438681647718659
vt 0.11308749999999998 0.2575952481051992
vt 0.15774583333333334 0.2575952481051992
vt 0.17409166666666667 0.3438681647718659
vt 0.18007499999999999 0.4301410814385326
vt 0.17409166666666667 0.3438681647718659
vt 0.25070113465527466 0.33319052858671494
vt 0.26853656840141144 0.41781152911872566
vt 0.17409166666666667 0.3438681647718659
vt 0.17837162502088272 0.2561647761599034
vt 0.2226024092215885 0.25
vt 0.25070113465527466 0.33319052858671494
vt 0.002296764931921898 0.626144862452059
vt 0.020132198678058634 0.5415238619200483
vt 0.09674166666666667 0.5522014981051993
vt 0.09075833333333333 0.638474414771866
vt 0.020132198678058634 0.5415238619200483
vt 0.0482309241117448 0.45833333333333337
vt 0.09246170831245051 0.4644981094932368
vt 0.09674166666666663 0.5522014981051993
vt 0.09075833333333333 0.638474414771866
vt 0.09674166666666667 0.5522014981051993
vt 0.17409166666666667 0.5522014981051993
vt 0.18007499999999999 0.638474414771866
vt 0.09674166666666667 0.5522014981051993
vt 0.11308749999999998 0.46592858143853255
vt 0.15774583333333334 0.46592858143853255
vt 0.17409166666666667 0.5522014981051993
vt 0.05990833333333334 0.9400916666666667
vt 0.12759166666666666 0.9791666666666666
vt 0.12200833333333333 1
vt 0.044658333333333335 0.9553416666666666
vt 0.020833333333333332 0.8724083333333333
vt 0.05990833333333334 0.9400916666666667
vt 0.044658333333333335 0.9553416666666666
vt 0 0.8779916666666667
vt 0.020833333333333332 0.7942583333333333
vt 0.020833333333333332 0.8724083333333333
vt 0 0.8779916666666667
vt 0 0.788675
vt 0.020833333333333332 0.7942583333333333
vt 0 0.788675
vt 0.0446583333333333 0.711325
vt 0.0599083333333333 0.726575
vt 0.1275916666666666 0.6875
vt 0.0599083333333333 0.726575
vt 0.0446583333333333 0.711325
vt 0.12200833333333329 0.6666666666666667
vt 0.20574166666666663 0.6875
vt 0.1275916666666666 0.6875
vt 0.12200833333333329 0.6666666666666667
vt 0.21132499999999993 0.6666666666666667
vt 0.2734249999999999 0.726575
vt 0.20574166666666663 0.6875
vt 0.21132499999999993 0.6666666666666667
vt 0.28867499999999996 0.711325
vt 0.3125 0.7942583333333334
vt 0.27342500000000003 0.7265750000000001
vt 0.288675 0.711325
vt 0.3333333333333333 0.788675
vt 0.3125 0.8724083333333335
vt 0.3125 0.7942583333333334
vt 0.3333333333333333 0.788675
vt 0.3333333333333333 0.8779916666666667
vt 0.27342500000000003 0.9400916666666667
vt 0.3125 0.8724083333333335
vt 0.3333333333333333 0.8779916666666667
vt 0.288675 0.9553416666666668
vt 0.20574166666666666 0.9791666666666666
vt 0.27342500000000003 0.9400916666666667
vt 0.288675 0.9553416666666668
vt 0.21132499999999999 1
vt 0.12759166666666666 0.9791666666666666
vt 0.20574166666666666 0.9791666666666666
vt 0.21132499999999999 1
vt 0.12200833333333333 1
vt 0.6636240528702948 0.6351402999805663
vt 0.726575 0.6600041666666667
vt 0.7213416666666667 0.6875
vt 0.6486558771834883 0.6587911423562856
vt 0.6142084920043587 0.5888895058747774
vt 0.6636240528702948 0.6351402999805663
vt 0.6486558771834883 0.6587911423562856
vt 0.5915986092937137 0.6053880461824258
vt 0.3619916666666666 0.7291666666666667
vt 0.42967500000000003 0.7291666666666667
vt 0.4349083333333333 0.75
vt 0.35675833333333334 0.75
vt 0.8155426137963718 0.7601402999805663
vt 0.864958174662308 0.7138895058747774
vt 0.887568057372953 0.7303880461824258
vt 0.8305107894831784 0.7837911423562856
vt 0.7525916666666667 0.7850041666666667
vt 0.8155426137963718 0.7601402999805663
vt 0.8305107894831784 0.7837911423562856
vt 0.757825 0.8125
vt 0.6849083333333332 0.7850041666666667
vt 0.7525916666666667 0.7850041666666667
vt 0.757825 0.8125
vt 0.679675 0.8125
vt 0.6219573862036281 0.7601402999805663
vt 0.6849083333333332 0.7850041666666667
vt 0.679675 0.8125
vt 0.6069892105168215 0.7837911423562856
vt 0.5725418253376919 0.7138895058747774
vt 0.6219573862036281 0.7601402999805663
vt 0.6069892105168215 0.7837911423562856
vt 0.549931942627047 0.7303880461824258
vt 0.3619916666666666 0.7708333333333334
vt 0.42967500000000003 0.7708333333333334
vt 0.4349083333333333 0.7916666666666667
vt 0.35675833333333334 0.7916666666666667
vt 0.8572092804630385 0.6351402999805663
vt 0.9066248413289746 0.5888895058747774
vt 0.9292347240396196 0.6053880461824258
vt 0.872177456149845 0.6587911423562856
vt 0.7942583333333333 0.6600041666666667
vt 0.8572092804630385 0.6351402999805663
vt 0.872177456149845 0.6587911423562856
vt 0.7994916666666666 0.6875
vt 0.726575 0.6600041666666667
vt 0.7942583333333333 0.6600041666666667
vt 0.7994916666666666 0.6875
vt 0.7213416666666667 0.6875
vt 0.08333333333333333 0.8110041666666666
vt 0.10566249999999999 0.7723291666666667
vt 0.1443375 0.75
vt 0.08333333333333333 0.8556625
vt 0.14433749999999998 0.9166666666666666
vt 0.10566249999999999 0.8943375
vt 0.08333333333333333 0.8556625
vt 0.1889958333333333 0.9166666666666666
vt 0.25 0.8556625
vt 0.22767083333333332 0.8943375
vt 0.1889958333333333 0.9166666666666666
vt 0.25 0.8110041666666667
vt 0.1889958333333333 0.75
vt 0.22767083333333332 0.7723291666666667
vt 0.25 0.8110041666666666
vt 0.1443375 0.75
vt 0.1889958333333333 0.9166666666666666
vt 0.08333333333333333 0.8556625
vt 0.1443375 0.75
vt 0.25 0.8110041666666666
vt 0.3932416666666666 0.7083333333333334
vt 0.3346291666666666 0.6744916666666667
vt 0.3007875 0.6158791666666668
vt 0.3007875 0.5481958333333334
vt 0.3007875 0.5481958333333334
vt 0.33462916666666664 0.48958333333333337
vt 0.3932416666666666 0.4557416666666667
vt 0.46092500000000003 0.4557416666666667
vt 0.46092500000000003 0.4557416666666667
vt 0.5195375 0.48958333333333337
vt 0.5533791666666666 0.5481958333333333
vt 0.5533791666666666 0.6158791666666668
vt 0.5533791666666666 0.6158791666666668
vt 0.5195375 0.6744916666666667
vt 0.46092500000000003 0.7083333333333334
vt 0.3932416666666666 0.7083333333333334
vt 0.3932416666666666 0.7083333333333334
vt 0.3007875 0.5481958333333334
vt 0.46092500000000003 0.4557416666666667
vt 0.5533791666666666 0.6158791666666668
vn 0.4829629131445343 -0.2588190451025206 0.836516303737808
vn 0.3535533905932741 -0.7071067811865475 0.6123724356957946
vn 0.8365163037378078 -0.2588190451025208 0.48296291314453427
vn 0.6123724356957945 -0.7071067811865475 0.353553390593274
vn 0.9659258262890683 -0.2588190451025205 0
vn 0.7071067811865476 -0.7071067811865475 0
vn 0.8365163037378078 -0.2588190451025205 -0.4829629131445343
vn 0.6123724356957945 -0.7071067811865474 -0.3535533905932741
vn 0.4829629131445343 -0.2588190451025208 -0.8365163037378078
vn 0.3535533905932739 -0.7071067811865475 -0.6123724356957947
vn 4.621371947209864e-16 -0.25881904510252063 -0.9659258262890684
vn 4.0022255066204975e-16 -0.7071067811865476 -0.7071067811865476
vn -0.48296291314453405 -0.2588190451025206 -0.8365163037378083
vn -0.3535533905932737 -0.7071067811865474 -0.6123724356957947
vn -0.8365163037378079 -0.25881904510252074 -0.4829629131445341
vn -0.6123724356957946 -0.7071067811865476 -0.3535533905932739
vn -0.9659258262890684 -0.25881904510252063 -2.310685973604934e-16
vn -0.7071067811865477 -0.7071067811865474 -2.00111275331025e-16
vn -0.836516303737808 -0.2588190451025205 0.482962913144534
vn -0.6123724356957948 -0.7071067811865475 0.3535533905932738
vn -0.48296291314453427 -0.2588190451025208 0.8365163037378079
vn -0.353553390593274 -0.7071067811865475 0.6123724356957946
vn 0 -0.2588190451025206 0.9659258262890684
vn 0 -0.7071067811865474 0.7071067811865477
vn 0 1 0
vn 0 1 0
vn 0 1 0
vn 0 1 0
vn 0 1 0
vn 0 1 0
vn 0 1 0
vn 0 1 0
vn 0 1 0
vn 0 1 0
vn 0 1 0
vn 0 1 0
vn -0.351796688617173 0.7106028141739718 -0.6093297386194306
vn -0.6093297386194301 0.7106028141739724 -0.3517966886171726
vn -0.7035933772343453 0.7106028141739718 0
vn -0.6093297386194306 0.7106028141739718 0.35179668861717306
vn -0.3517966886171728 0.7106028141739724 0.60932973861943
vn 0 0.7106028141739712 0.703593377234346
vn 0.3517966886171725 0.7106028141739718 0.609329738619431
vn 0.6093297386194302 0.7106028141739723 0.35179668861717245
vn 0.703593377234346 0.7106028141739712 0
vn 0.6093297386194311 0.7106028141739716 -0.3517966886171725
vn 0.3517966886171725 0.7106028141739723 -0.6093297386194302
vn 0 0.7106028141739719 -0.7035933772343453
vn 0 -1 0
vn 0 -1 0
vn 0 -1 0
vn 0 -1 0
vn 0 -1 0
vn 0 1 0
vn 0 1 0
vn 0 1 0
vn 0 1 0
vn 0 1 0
usemtl m_fceee58b-f997-c16e-b198-707514b57e2d
f 1/1/1 2/2/1 5/3/1 4/4/1
f 2/5/2 3/6/2 6/7/2 5/8/2
f 4/9/3 5/10/3 8/11/3 7/12/3
f 5/13/4 6/14/4 9/15/4 8/16/4
f 7/17/5 8/18/5 11/19/5 10/20/5
f 8/21/6 9/22/6 12/23/6 11/24/6
f 10/25/7 11/26/7 14/27/7 13/28/7
f 11/29/8 12/30/8 15/31/8 14/32/8
f 13/33/9 14/34/9 17/35/9 16/36/9
f 14/37/10 15/38/10 18/39/10 17/40/10
f 16/41/11 17/42/11 20/43/11 19/44/11
f 17/45/12 18/46/12 21/47/12 20/48/12
f 19/49/13 20/50/13 23/51/13 22/52/13
f 20/53/14 21/54/14 24/55/14 23/56/14
f 22/57/15 23/58/15 26/59/15 25/60/15
f 23/61/16 24/62/16 27/63/16 26/64/16
f 25/65/17 26/66/17 29/67/17 28/68/17
f 26/69/18 27/70/18 30/71/18 29/72/18
f 28/73/19 29/74/19 32/75/19 31/76/19
f 29/77/20 30/78/20 33/79/20 32/80/20
f 31/81/21 32/82/21 35/83/21 34/84/21
f 32/85/22 33/86/22 36/87/22 35/88/22
f 34/89/23 35/90/23 2/91/23 1/92/23
f 35/93/24 36/94/24 3/95/24 2/96/24
f 44/97/25 43/98/25 19/99/25 22/100/25
f 45/101/26 44/102/26 22/103/26 25/104/26
f 46/105/27 45/106/27 25/107/27 28/108/27
f 46/109/28 28/110/28 31/111/28 47/112/28
f 48/113/29 47/114/29 31/115/29 34/116/29
f 37/117/30 48/118/30 34/119/30 1/120/30
f 38/121/31 37/122/31 1/123/31 4/124/31
f 39/125/32 38/126/32 4/127/32 7/128/32
f 40/129/33 39/130/33 7/131/33 10/132/33
f 41/133/34 40/134/34 10/135/34 13/136/34
f 42/137/35 41/138/35 13/139/35 16/140/35
f 43/141/36 42/142/36 16/143/36 19/144/36
f 50/145/37 49/146/37 37/147/37 38/148/37
f 51/149/38 50/150/38 38/151/38 39/152/38
f 52/153/39 51/154/39 39/155/39 40/156/39
f 53/157/40 52/158/40 40/159/40 41/160/40
f 54/161/41 53/162/41 41/163/41 42/164/41
f 55/165/42 54/166/42 42/167/42 43/168/42
f 56/169/43 55/170/43 43/171/43 44/172/43
f 57/173/44 56/174/44 44/175/44 45/176/44
f 58/177/45 57/178/45 45/179/45 46/180/45
f 59/181/46 58/182/46 46/183/46 47/184/46
f 60/185/47 59/186/47 47/187/47 48/188/47
f 49/189/48 60/190/48 48/191/48 37/192/48
f 27/193/49 24/194/49 21/195/49 30/196/49
f 36/197/50 33/198/50 30/199/50 3/200/50
f 9/201/51 6/202/51 3/203/51 12/204/51
f 18/205/52 15/206/52 12/207/52 21/208/52
f 3/209/53 30/210/53 21/211/53 12/212/53
f 55/213/54 56/214/54 57/215/54 58/216/54
f 58/217/55 59/218/55 60/219/55 49/220/55
f 49/221/56 50/222/56 51/223/56 52/224/56
f 52/225/57 53/226/57 54/227/57 55/228/57
f 55/229/58 58/230/58 49/231/58 52/232/58
o hashi
v -0.39105340849362347 0.8014275689740336 -0.2731134023926075
v -0.3803652790146963 0.7925972245733557 -0.3011196767968746
v -0.3094654529103561 0.3407432806589086 -0.09672351605178137
v -0.29877732343142893 0.3319129362582307 -0.12472979045604846
v -0.41997267656857107 0.7930870637417693 -0.2815202095439515
v -0.4092845470896439 0.7842567193410914 -0.30952648394821863
v -0.3383847209853037 0.3324027754266443 -0.10513032320312538
v -0.32769659150637653 0.32357243102596644 -0.13313659760739247
v -0.44850348092341175 0.806529881792677 -0.08054824065901749
v -0.4398434038809162 0.8067663849841095 -0.11057339064795985
v -0.31926794438410055 0.3246820947166962 -0.04706860228915746
v -0.310607867341605 0.3249185979081286 -0.07709375227809981
v -0.47742274899835935 0.7981893765604128 -0.0889550478103615
v -0.4687626719558638 0.7984258797518452 -0.11898019779930386
v -0.34818721245904816 0.3163415894844319 -0.05547540944050147
v -0.3395271354165526 0.31657809267586434 -0.08550055942944383
vt 0.31250000000000006 0.25
vt 0.2916666666666667 0.25
vt 0.2916666666666667 0.08333333333333326
vt 0.31250000000000006 0.08333333333333326
vt 0.3541666666666667 0.08333333333333326
vt 0.3541666666666667 0.25
vt 0.3333333333333333 0.25
vt 0.3333333333333333 0.08333333333333326
vt 0.2916666666666667 0
vt 0.31250000000000006 0
vt 0.31250000000000006 0.02083333333333326
vt 0.2916666666666667 0.02083333333333326
vt 0.3958333333333333 0.08333333333333326
vt 0.3958333333333333 0.25
vt 0.37500000000000006 0.25
vt 0.37500000000000006 0.08333333333333326
vt 0.43749999999999994 0.25
vt 0.4166666666666667 0.25
vt 0.4166666666666667 0.08333333333333326
vt 0.43749999999999994 0.08333333333333326
vt 0.4791666666666669 0.25
vt 0.4583333333333335 0.25
vt 0.4583549735576111 0.08333333333333326
vt 0.4791666666666669 0.08333333333333326
vt 0.2916666666666667 0.04166666666666674
vt 0.4583333333333335 0.04166666666666674
vt 0.4583333333333335 0.0625
vt 0.2916666666666667 0.0625
vt 0.3333333333333333 0
vt 0.3541666666666667 0
vt 0.3541666666666667 0.02083333333333326
vt 0.3333333333333333 0.02083333333333326
vt 0.5625 0.08333333333333359
vt 0.5625 0.25000000000000033
vt 0.541666666666667 0.25000000000000033
vt 0.541666666666667 0.08333333333333359
vt 0.5208333333333335 0.25
vt 0.49999999999999994 0.25
vt 0.49999999999999994 0.08333333333333326
vt 0.5208333333333335 0.08333333333333326
vn 0.9254165783983235 0.2668961674324566 0.26901782884300796
vn -0.9254165783983235 -0.2668961674324566 -0.26901782884300796
vn -0.1631759111665348 0.92136857663025 -0.35277977268165234
vn -0.3420201433256687 0.28257102082169233 0.8962007809365464
vn 0.3420201433256687 -0.28257102082169233 -0.8962007809365464
vn 0.9254165783983235 0.2668961674324566 0.26901782884300796
vn -0.9254165783983235 -0.2668961674324566 -0.26901782884300796
vn -0.25847107307862294 0.9636955741519616 -0.06695927673971817
vn -0.27712246535985724 -0.00756810212583525 0.9608047996461548
vn 0.27712246535985724 0.00756810212583525 -0.9608047996461548
usemtl m_fceee58b-f997-c16e-b198-707514b57e2d
f 62/233/59 61/234/59 63/235/59 64/236/59
f 67/237/60 65/238/60 66/239/60 68/240/60
f 65/241/61 61/242/61 62/243/61 66/244/61
f 63/245/62 61/246/62 65/247/62 67/248/62
f 66/249/63 62/250/63 64/251/63 68/252/63
f 70/253/64 69/254/64 71/255/64 72/256/64
f 75/257/65 73/258/65 74/259/65 76/260/65
f 73/261/66 69/262/66 70/263/66 74/264/66
f 71/265/67 69/266/67 73/267/67 75/268/67
f 74/269/68 70/270/68 72/271/68 76/272/68