# Blender 3.6.5
# www.blender.org
mtllib potato.mtl
o cuboid
v -0.118750 0.064583 0.233333
v 0.047917 0.064583 0.233333
v -0.118750 -0.070833 0.233333
v 0.047917 -0.070833 0.233333
v -0.098438 0.088281 -0.000000
v 0.126563 0.088281 -0.000000
v -0.098438 -0.094531 0.000000
v 0.126563 -0.094531 0.000000
v -0.118750 0.064583 -0.233333
v 0.047917 0.064583 -0.233333
v -0.118750 -0.070833 -0.233333
v 0.047917 -0.070833 -0.233333
v -0.056250 -0.003125 0.300000
v -0.009375 0.118750 0.150000
v -0.009375 -0.125000 0.150000
v -0.159375 -0.003125 0.150000
v 0.140625 -0.003125 0.150000
v -0.056250 -0.003125 -0.300000
v -0.009375 0.118750 -0.150000
v -0.009375 -0.125000 -0.150000
v -0.159375 -0.003125 -0.150000
v 0.140625 -0.003125 -0.150000
v -0.044531 0.088281 0.262500
v -0.157031 -0.003125 0.262500
v -0.044531 -0.094531 0.262500
v 0.067969 -0.003125 0.262500
v -0.121875 0.088281 0.150000
v 0.103125 0.088281 0.150000
v 0.014062 0.118750 -0.000000
v -0.121875 -0.094531 0.150000
v 0.014062 -0.125000 0.000000
v 0.103125 -0.094531 0.150000
v -0.135937 -0.003125 0.000000
v 0.164062 -0.003125 0.000000
v -0.157031 -0.003125 -0.262500
v -0.044531 0.088281 -0.262500
v 0.067969 -0.003125 -0.262500
v -0.044531 -0.094531 -0.262500
v -0.121875 0.088281 -0.150000
v 0.103125 0.088281 -0.150000
v -0.121875 -0.094531 -0.150000
v 0.103125 -0.094531 -0.150000
vn 0.5997 -0.0000 0.8003
vn 0.4785 0.6127 0.6291
vn -0.0366 0.7506 0.6598
vn -0.0642 -0.0000 0.9979
vn -0.6054 0.6756 0.4208
vn -0.8138 -0.0000 0.5811
vn -0.6054 -0.6756 0.4208
vn -0.0366 -0.7506 0.6598
vn 0.4785 -0.6127 0.6291
vn 0.0258 0.9997 -0.0000
vn -0.6357 0.7720 -0.0000
vn -0.6564 0.7539 0.0273
vn 0.0111 0.9875 0.1571
vn 0.6325 0.7172 0.2925
vn 0.6848 0.7287 -0.0000
vn 0.6325 -0.7172 0.2925
vn 0.0111 -0.9875 0.1571
vn -0.6564 -0.7539 0.0273
vn -0.6357 -0.7720 -0.0000
vn 0.0258 -0.9997 -0.0000
vn 0.6848 -0.7287 -0.0000
vn -0.9994 -0.0000 -0.0338
vn -1.0000 -0.0000 -0.0000
vn 1.0000 -0.0000 -0.0000
vn 0.9337 -0.0000 0.3581
vn -0.0366 -0.7506 -0.6598
vn -0.6054 -0.6756 -0.4208
vn -0.8138 -0.0000 -0.5811
vn -0.0642 -0.0000 -0.9979
vn -0.6054 0.6756 -0.4208
vn -0.0366 0.7506 -0.6598
vn 0.4785 0.6127 -0.6291
vn 0.5997 -0.0000 -0.8003
vn 0.4785 -0.6127 -0.6291
vn -0.6564 0.7539 -0.0273
vn 0.0111 0.9875 -0.1571
vn 0.6325 0.7172 -0.2925
vn 0.6325 -0.7172 -0.2925
vn 0.0111 -0.9875 -0.1571
vn -0.6564 -0.7539 -0.0273
vn -0.9994 -0.0000 0.0338
vn 0.9337 -0.0000 -0.3581
vt 0.357092 0.326657
vt 0.352091 0.390129
vt 0.271950 0.412343
vt 0.250000 0.333504
vt 0.734375 0.484375
vt 0.666828 0.468769
vt 0.645050 0.406250
vt 0.733196 0.406250
vt 0.359375 0.906250
vt 0.293357 0.885427
vt 0.276773 0.812500
vt 0.358097 0.812500
vt 0.459450 0.447031
vt 0.539591 0.469247
vt 0.544592 0.532717
vt 0.437500 0.525872
vt 0.191387 0.700833
vt 0.205860 0.604791
vt 0.332376 0.604791
vt 0.317904 0.700833
vt 0.404164 0.612902
vt 0.416785 0.681070
vt 0.318051 0.699859
vt 0.271949 0.412343
vt 0.424965 0.435057
vt 0.342255 0.484375
vt 0.303431 0.796875
vt 0.176915 0.796875
vt 0.612466 0.424323
vt 0.539590 0.469246
vt 0.529758 0.375000
vt 0.244910 0.834558
vt 0.232289 0.902726
vt 0.160501 0.910836
vt 0.146175 0.815766
vt 0.033985 0.910836
vt 0.019512 0.814794
vt 0.146029 0.814794
vt 0.005040 0.718750
vt 0.131555 0.718750
vt 0.160500 0.910836
vt 0.276210 0.956232
vt 0.188870 0.986505
vt 0.448085 0.559395
vt 0.404164 0.612902
vt 0.360745 0.529122
vt 0.126516 0.703125
vt 0.000000 0.703125
vt 0.004823 0.625000
vt 0.131341 0.625000
vt 0.301698 1.000000
vt 0.296875 0.921875
vt 0.423391 0.921875
vt 0.428216 1.000000
vt 0.830173 0.308433
vt 0.825348 0.390625
vt 0.698833 0.390625
vt 0.703656 0.308433
vt 0.613421 0.384793
vt 0.593750 0.324239
vt 0.703595 0.309477
vt 0.562500 0.566386
vt 0.582171 0.505832
vt 0.667583 0.500000
vt 0.672345 0.581148
vt 0.794098 0.500000
vt 0.798923 0.582192
vt 0.672406 0.582192
vt 0.250000 0.203125
vt 0.317547 0.218731
vt 0.339325 0.284441
vt 0.251179 0.284441
vt 0.484375 0.271238
vt 0.550395 0.292062
vt 0.566979 0.359375
vt 0.485653 0.359375
vt 0.603050 0.677968
vt 0.522909 0.655754
vt 0.517908 0.592282
vt 0.625000 0.599129
vt 0.446739 0.386279
vt 0.386911 0.364504
vt 0.386911 0.281341
vt 0.468750 0.281250
vt 0.380090 0.884195
vt 0.392711 0.816027
vt 0.464499 0.807916
vt 0.478824 0.902984
vt 0.591015 0.807916
vt 0.605488 0.903958
vt 0.478971 0.903958
vt 0.619960 1.000000
vt 0.493444 1.000000
vt 0.450034 0.700682
vt 0.522909 0.655754
vt 0.532744 0.750000
vt 0.130941 0.582711
vt 0.004425 0.582711
vt 0.018897 0.486667
vt 0.145414 0.486667
vt 0.033370 0.390625
vt 0.159886 0.390625
vt 0.231674 0.398735
vt 0.244296 0.466903
vt 0.145561 0.485695
vt 0.245575 0.478842
vt 0.211901 0.554882
vt 0.145291 0.487488
vt 0.107859 0.281250
vt 0.234375 0.281250
vt 0.229552 0.363442
vt 0.103034 0.363442
vt 0.776427 0.609375
vt 0.781250 0.687500
vt 0.654734 0.687500
vt 0.649909 0.609375
vt 0.464499 0.807916
vt 0.348790 0.762520
vt 0.436130 0.732247
vt 0.010738 0.358820
vt 0.036881 0.294722
vt 0.103124 0.361924
vt 0.875000 0.886739
vt 0.855329 0.947293
vt 0.769917 0.953125
vt 0.765155 0.871977
vt 0.643402 0.953125
vt 0.638577 0.870933
vt 0.765094 0.870933
vt 0.622952 0.785317
vt 0.627777 0.703125
vt 0.754292 0.703125
vt 0.749469 0.785317
vt 0.839704 0.708957
vt 0.859375 0.769511
vt 0.749530 0.784273
s 1
usemtl m_947ead89-60cf-10a0-2418-c056aabe99ff
f 26/1/1 2/2/2 23/3/3 13/4/4
f 23/5/3 1/6/5 24/7/6 13/8/4
f 24/9/6 3/10/7 25/11/8 13/12/4
f 25/13/8 4/14/9 26/15/1 13/16/4
f 29/17/10 5/18/11 27/19/12 14/20/13
f 27/19/12 1/21/5 23/22/3 14/23/13
f 23/24/3 2/2/2 28/25/14 14/26/13
f 28/27/14 6/28/15 29/17/10 14/20/13
f 32/29/16 4/30/9 25/13/8 15/31/17
f 25/32/8 3/33/7 30/34/18 15/35/17
f 30/34/18 7/36/19 31/37/20 15/38/17
f 31/37/20 8/39/21 32/40/16 15/38/17
f 30/41/18 3/33/7 24/42/6 16/43/22
f 24/44/6 1/45/5 27/19/12 16/46/22
f 27/47/12 5/48/11 33/49/23 16/50/22
f 33/51/23 7/52/19 30/53/18 16/54/22
f 34/55/24 6/56/15 28/57/14 17/58/25
f 28/57/14 2/59/2 26/60/1 17/61/25
f 26/62/1 4/63/9 32/64/16 17/65/25
f 32/64/16 8/66/21 34/67/24 17/68/25
f 38/69/26 11/70/27 35/71/28 18/72/29
f 35/73/28 9/74/30 36/75/31 18/76/29
f 36/77/31 10/78/32 37/79/33 18/80/29
f 37/81/33 12/82/34 38/83/26 18/84/29
f 36/85/31 9/86/30 39/87/35 19/88/36
f 39/87/35 5/89/11 29/90/10 19/91/36
f 29/90/10 6/92/15 40/93/37 19/91/36
f 40/94/37 10/95/32 36/77/31 19/96/36
f 42/97/38 8/98/21 31/99/20 20/100/39
f 31/99/20 7/101/19 41/102/40 20/100/39
f 41/102/40 11/103/27 38/104/26 20/105/39
f 38/106/26 12/107/34 42/97/38 20/108/39
f 41/109/40 7/110/19 33/111/23 21/112/41
f 33/113/23 5/114/11 39/115/35 21/116/41
f 39/117/35 9/86/30 35/118/28 21/119/41
f 35/120/28 11/121/27 41/109/40 21/122/41
f 37/123/33 10/124/32 40/125/37 22/126/42
f 40/125/37 6/127/15 34/128/24 22/129/42
f 34/130/24 8/131/21 42/132/38 22/133/42
f 42/132/38 12/134/34 37/135/33 22/136/42
