# Blender 4.0.1
# www.blender.org
mtllib cart.mtl
o bottom
v 0.520000 0.040625 0.520000
v 0.520000 0.040625 -0.520000
v -0.520000 0.040625 0.520000
v -0.520000 0.040625 -0.520000
v 0.731250 0.040625 -0.000000
v -0.731250 0.040625 -0.000000
v 0.000000 0.040625 0.731250
v 0.000000 0.040625 -0.731250
v -0.731250 0.000000 0.000000
v 0.000000 0.000000 0.731250
v -0.520000 0.000000 0.520000
v 0.520000 0.000000 0.520000
v 0.731250 0.000000 0.000000
v 0.000000 -0.000000 -0.731250
v 0.520000 -0.000000 -0.520000
v -0.520000 -0.000000 -0.520000
v 0.768888 0.000000 0.000000
v 0.546464 -0.000000 -0.546464
v 0.546464 0.040625 -0.546464
v 0.768888 0.040625 -0.000000
v 0.000000 -0.000000 -0.768888
v 0.000000 0.040625 -0.768888
v -0.546464 -0.000000 -0.546464
v -0.546464 0.040625 -0.546464
v -0.768888 0.000000 0.000000
v -0.768888 0.040625 -0.000000
v -0.546464 0.000000 0.546464
v -0.546464 0.040625 0.546464
v 0.000000 0.000000 0.768888
v 0.000000 0.040625 0.768888
v 0.546464 0.000000 0.546464
v 0.546464 0.040625 0.546464
vn -0.5496 -0.6292 0.5496
vn -0.0000 -0.6313 0.7756
vn -0.0000 0.6313 0.7756
vn -0.5496 0.6292 0.5496
vn -0.7756 -0.6313 -0.0000
vn -0.7756 0.6313 -0.0000
vn 0.5496 -0.6292 0.5496
vn 0.5496 0.6292 0.5496
vn 0.7756 -0.6313 -0.0000
vn 0.7756 0.6313 -0.0000
vn 0.5496 -0.6292 -0.5496
vn -0.0000 -0.6313 -0.7756
vn -0.0000 0.6313 -0.7756
vn 0.5496 0.6292 -0.5496
vn -0.5496 -0.6292 -0.5496
vn -0.5496 0.6292 -0.5496
vn -0.0000 -1.0000 -0.0000
vn -0.0000 1.0000 -0.0000
vt 0.125000 0.308824
vt 0.235294 0.308824
vt 0.235294 0.316176
vt 0.125000 0.316176
vt 0.477941 0.705882
vt 0.588235 0.705882
vt 0.588235 0.713235
vt 0.477941 0.713235
vt 0.683824 0.808824
vt 0.794118 0.808824
vt 0.794118 0.816176
vt 0.683824 0.816176
vt 0.477941 0.691176
vt 0.588235 0.691176
vt 0.588235 0.698529
vt 0.477941 0.698529
vt 0.125000 0.294118
vt 0.235294 0.294118
vt 0.235294 0.301471
vt 0.125000 0.301471
vt 0.477941 0.595588
vt 0.588235 0.595588
vt 0.588235 0.602941
vt 0.477941 0.602941
vt 0.705882 0.426471
vt 0.816176 0.426471
vt 0.816176 0.433824
vt 0.705882 0.433824
vt 0.492647 0.772059
vt 0.602941 0.772059
vt 0.602941 0.779412
vt 0.492647 0.779412
vt 0.238613 0.760846
vt 0.278871 0.859754
vt 0.272059 0.859754
vt 0.233824 0.765636
vt 0.484754 0.647599
vt 0.444496 0.746507
vt 0.439706 0.741717
vt 0.477941 0.647599
vt 0.139706 0.720588
vt 0.139706 0.727401
vt 0.345588 0.786765
vt 0.345588 0.779952
vt 0.040799 0.760846
vt 0.045588 0.765636
vt 0.246681 0.746507
vt 0.251471 0.741717
vt 0.000540 0.859754
vt 0.007353 0.859754
vt 0.206423 0.647599
vt 0.213235 0.647599
vt 0.040799 0.958661
vt 0.045588 0.953871
vt 0.246681 0.548692
vt 0.251471 0.553482
vt 0.139706 0.998919
vt 0.139706 0.992107
vt 0.345588 0.508434
vt 0.345588 0.515246
vt 0.238613 0.958661
vt 0.233824 0.953871
vt 0.444496 0.548692
vt 0.439706 0.553482
s 1
usemtl m_9e93a939-0691-c244-eab7-41c4c42e477f
f 27/1/1 29/2/2 30/3/3 28/4/4
f 25/5/5 27/6/1 28/7/4 26/8/6
f 29/9/2 31/10/7 32/11/8 30/12/3
f 31/13/7 17/14/9 20/15/10 32/16/8
f 18/17/11 21/18/12 22/19/13 19/20/14
f 17/21/9 18/22/11 19/23/14 20/24/10
f 21/25/12 23/26/15 24/27/16 22/28/13
f 23/29/15 25/30/5 26/31/6 24/32/16
f 18/33/11 17/34/9 13/35/17 15/36/17
f 20/37/10 19/38/14 2/39/18 5/40/18
f 21/41/12 18/33/11 15/36/17 14/42/17
f 19/38/14 22/43/13 8/44/18 2/39/18
f 23/45/15 21/41/12 14/42/17 16/46/17
f 22/43/13 24/47/16 4/48/18 8/44/18
f 25/49/5 23/45/15 16/46/17 9/50/17
f 24/47/16 26/51/6 6/52/18 4/48/18
f 27/53/1 25/49/5 9/50/17 11/54/17
f 26/51/6 28/55/4 3/56/18 6/52/18
f 29/57/2 27/53/1 11/54/17 10/58/17
f 28/55/4 30/59/3 7/60/18 3/56/18
f 31/61/7 29/57/2 10/58/17 12/62/17
f 30/59/3 32/63/8 1/64/18 7/60/18
f 17/34/9 31/61/7 12/62/17 13/35/17
f 32/63/8 20/37/10 5/40/18 1/64/18
f 15/36/17 13/35/17 12/62/17 10/58/17
f 10/58/17 11/54/17 9/50/17 16/46/17
f 16/46/17 14/42/17 15/36/17 10/58/17
o handle
v 0.345313 0.902448 -0.510534
v 0.345313 0.922760 -0.545716
v 0.345313 0.867266 -0.530846
v 0.345313 0.887578 -0.566029
v -0.345313 0.902448 -0.510534
v -0.345313 0.922760 -0.545716
v -0.345313 0.867266 -0.530846
v -0.345313 0.887578 -0.566029
v 0.264062 0.867266 -0.530846
v 0.264062 0.887578 -0.566029
v 0.264062 0.726536 -0.612096
v 0.264062 0.746849 -0.647279
v 0.223438 0.867266 -0.530846
v 0.223438 0.887578 -0.566029
v 0.223438 0.726536 -0.612096
v 0.223438 0.746849 -0.647279
v -0.223438 0.867266 -0.530846
v -0.223438 0.887578 -0.566029
v -0.223438 0.726536 -0.612096
v -0.223438 0.746849 -0.647279
v -0.264062 0.867266 -0.530846
v -0.264062 0.887578 -0.566029
v -0.264062 0.726536 -0.612096
v -0.264062 0.746849 -0.647279
vn 0.5774 0.7887 -0.2113
vn 0.5773 0.2113 0.7887
vn 0.5774 -0.7887 0.2113
vn 0.5773 -0.2113 -0.7887
vn -0.5774 -0.7887 0.2113
vn -0.5774 0.2113 0.7887
vn -0.5774 0.7887 -0.2113
vn -0.5773 -0.2113 -0.7887
vn 0.7071 0.3536 -0.6124
vn 0.7071 -0.3536 0.6124
vn -0.7071 -0.3536 0.6124
vn -0.7071 0.3536 -0.6124
vt 0.036765 0.985294
vt 0.029412 0.985294
vt 0.029412 0.977941
vt 0.036765 0.977941
vt 0.051471 0.977941
vt 0.051471 0.985294
vt 0.044118 0.985294
vt 0.044118 0.977941
vt 0.000000 0.595588
vt 0.125000 0.595588
vt 0.125000 0.602941
vt 0.000000 0.602941
vt 0.595588 0.786765
vt 0.595588 0.794118
vt 0.470588 0.794118
vt 0.470588 0.786765
vt 0.610294 0.941176
vt 0.610294 0.948529
vt 0.485294 0.948529
vt 0.485294 0.941176
vt 0.367647 0.389706
vt 0.242647 0.389706
vt 0.242647 0.382353
vt 0.367647 0.382353
vt 0.007353 0.985294
vt 0.000000 0.985294
vt 0.000000 0.955882
vt 0.007353 0.955882
vt 0.022059 0.955882
vt 0.022059 0.985294
vt 0.014706 0.985294
vt 0.014706 0.955882
vt 0.007353 0.919118
vt 0.007353 0.948529
vt 0.000000 0.948529
vt 0.000000 0.919118
vt 0.007353 0.816176
vt 0.000000 0.816176
vt 0.000000 0.786765
vt 0.007353 0.786765
vt 0.007353 0.779412
vt 0.000000 0.779412
vt 0.000000 0.750000
vt 0.007353 0.750000
vt 0.022059 0.750000
vt 0.022059 0.779412
vt 0.014706 0.779412
vt 0.014706 0.750000
vt 0.264706 0.955882
vt 0.264706 0.985294
vt 0.257353 0.985294
vt 0.257353 0.955882
vt 0.213235 0.735294
vt 0.205882 0.735294
vt 0.205882 0.705882
vt 0.213235 0.705882
s 1
usemtl m_9e93a939-0691-c244-eab7-41c4c42e477f
f 34/65/19 33/66/20 35/67/21 36/68/22
f 39/69/23 37/70/24 38/71/25 40/72/26
f 37/73/24 33/74/20 34/75/19 38/76/25
f 36/77/22 35/78/21 39/79/23 40/80/26
f 35/81/21 33/82/20 37/83/24 39/84/23
f 38/85/25 34/86/19 36/87/22 40/88/26
f 42/89/27 41/90/28 43/91/28 44/92/27
f 47/93/29 45/94/29 46/95/30 48/96/30
f 43/97/28 41/98/28 45/99/29 47/100/29
f 46/101/30 42/102/27 44/103/27 48/104/30
f 50/105/27 49/106/28 51/107/28 52/108/27
f 55/109/29 53/110/29 54/111/30 56/112/30
f 51/113/28 49/114/28 53/115/29 55/116/29
f 54/117/30 50/118/27 52/119/27 56/120/30
o inner
v 0.507619 0.731250 0.507619
v 0.507619 0.731250 -0.507619
v 0.507619 0.040625 0.507619
v 0.507619 0.040625 -0.507619
v -0.507619 0.731250 0.507619
v -0.507619 0.731250 -0.507619
v -0.507619 0.040625 0.507619
v -0.507619 0.040625 -0.507619
v 0.713839 0.040625 -0.000000
v 0.713839 0.731250 -0.000000
v -0.713839 0.040625 -0.000000
v -0.713839 0.731250 -0.000000
v 0.000000 0.731250 0.713839
v 0.000000 0.040625 0.713839
v 0.000000 0.040625 -0.713839
v 0.000000 0.731250 -0.713839
v 0.832812 0.385938 -0.000000
v 0.592222 0.385937 -0.592222
v 0.000000 0.385937 -0.832812
v -0.592222 0.385937 -0.592222
v -0.832812 0.385938 -0.000000
v -0.592222 0.385938 0.592222
v 0.000000 0.385938 0.832812
v 0.592222 0.385938 0.592222
vn -1.0000 -0.0000 -0.0000
vn -0.7071 -0.0000 0.7071
vn -0.4681 0.7495 0.4681
vn -0.6604 0.7510 -0.0000
vn 0.7071 -0.0000 0.7071
vn 1.0000 -0.0000 -0.0000
vn 0.6604 0.7510 -0.0000
vn 0.4681 0.7495 0.4681
vn 0.7071 -0.0000 -0.7071
vn -0.0000 -0.0000 -1.0000
vn -0.0000 0.7510 -0.6604
vn 0.4681 0.7495 -0.4681
vn -0.0000 -0.0000 1.0000
vn -0.0000 0.7510 0.6604
vn -0.7071 -0.0000 -0.7071
vn -0.4681 0.7495 -0.4681
vn -0.9455 -0.3257 -0.0000
vn -0.6681 -0.3274 0.6681
vn -0.0000 -0.3257 0.9455
vn 0.6681 -0.3274 0.6681
vn 0.9455 -0.3257 -0.0000
vn 0.6681 -0.3274 -0.6681
vn -0.0000 -0.3257 -0.9455
vn -0.6681 -0.3274 -0.6681
vt 0.373050 0.669687
vt 0.257353 0.669687
vt 0.265776 0.604080
vt 0.364946 0.604080
vt 0.397059 0.934393
vt 0.281362 0.934393
vt 0.289466 0.868786
vt 0.388635 0.868786
vt 0.556874 0.227371
vt 0.441176 0.227371
vt 0.449281 0.161765
vt 0.548450 0.161765
vt 0.117647 0.257922
vt 0.001950 0.257922
vt 0.010374 0.192315
vt 0.109543 0.192315
vt 0.580882 0.868216
vt 0.465185 0.868216
vt 0.473290 0.802610
vt 0.572459 0.802610
vt 0.593638 0.456451
vt 0.477941 0.456451
vt 0.486365 0.390845
vt 0.585534 0.390845
vt 0.808824 0.934393
vt 0.693126 0.934393
vt 0.701550 0.868786
vt 0.800719 0.868786
vt 0.821579 0.506783
vt 0.705882 0.506783
vt 0.713987 0.441176
vt 0.813156 0.441176
vt 0.364946 0.735294
vt 0.265776 0.735294
vt 0.813156 0.572390
vt 0.713987 0.572390
vt 0.109543 0.323529
vt 0.010374 0.323529
vt 0.388635 1.000000
vt 0.289466 1.000000
vt 0.585534 0.522059
vt 0.486365 0.522059
vt 0.548450 0.292979
vt 0.449281 0.292979
vt 0.800719 1.000000
vt 0.701550 1.000000
vt 0.572459 0.933824
vt 0.473290 0.933824
vt 0.038638 0.550910
vt 0.001313 0.459034
vt 0.038638 0.367157
vt 0.130515 0.329832
vt 0.222391 0.367157
vt 0.259716 0.459034
vt 0.222391 0.550910
vt 0.130515 0.588235
s 1
usemtl m_9e93a939-0691-c244-eab7-41c4c42e477f
f 73/121/31 74/122/32 60/123/33 65/124/34
f 76/125/35 77/126/36 67/127/37 64/128/38
f 78/129/39 79/130/40 70/131/41 63/132/42
f 75/133/43 76/134/35 64/135/38 71/136/44
f 80/137/45 73/138/31 65/139/34 59/140/46
f 77/141/36 78/142/39 63/143/42 67/144/37
f 79/145/40 80/146/45 59/147/46 70/148/41
f 74/149/32 75/150/43 71/151/44 60/152/33
f 74/122/32 73/121/31 66/153/47 58/154/48
f 75/150/43 74/149/32 58/155/48 72/156/49
f 76/134/35 75/133/43 72/157/49 62/158/50
f 77/126/36 76/125/35 62/159/50 68/160/51
f 78/142/39 77/141/36 68/161/51 61/162/52
f 79/130/40 78/129/39 61/163/52 69/164/53
f 80/146/45 79/145/40 69/165/53 57/166/54
f 73/138/31 80/137/45 57/167/54 66/168/47
f 64/169/38 67/170/37 63/171/42 70/172/41
f 70/172/41 59/173/46 65/174/34 60/175/33
f 60/175/33 71/176/44 64/169/38 70/172/41
o outer
v 0.520000 0.731250 0.520000
v 0.520000 0.731250 -0.520000
v 0.520000 0.040625 0.520000
v 0.520000 0.040625 -0.520000
v -0.520000 0.731250 0.520000
v -0.520000 0.731250 -0.520000
v -0.520000 0.040625 0.520000
v -0.520000 0.040625 -0.520000
v 0.731250 0.040625 -0.000000
v 0.731250 0.731250 -0.000000
v -0.731250 0.040625 -0.000000
v -0.731250 0.731250 -0.000000
v 0.000000 0.731250 0.731250
v 0.000000 0.040625 0.731250
v 0.000000 0.040625 -0.731250
v 0.000000 0.731250 -0.731250
v 0.853125 0.385938 -0.000000
v 0.606667 0.385937 -0.606667
v 0.000000 0.385937 -0.853125
v -0.606667 0.385937 -0.606667
v -0.853125 0.385938 -0.000000
v -0.606667 0.385938 0.606667
v 0.000000 0.385938 0.853125
v 0.606667 0.385938 0.606667
vn 0.6664 -0.3345 -0.6664
vn 0.7071 -0.0000 -0.7071
vn 1.0000 -0.0000 -0.0000
vn 0.9430 -0.3328 -0.0000
vn -0.9430 -0.3328 -0.0000
vn -1.0000 -0.0000 -0.0000
vn -0.7071 -0.0000 -0.7071
vn -0.6664 -0.3345 -0.6664
vn -0.0000 -0.3328 0.9430
vn -0.0000 -0.0000 1.0000
vn -0.7071 -0.0000 0.7071
vn -0.6664 -0.3345 0.6664
vn -0.0000 -0.0000 -1.0000
vn -0.0000 -0.3328 -0.9430
vn 0.7071 -0.0000 0.7071
vn 0.6664 -0.3345 0.6664
vn 0.9430 0.3328 -0.0000
vn 0.6664 0.3345 -0.6664
vn -0.0000 0.3328 -0.9430
vn -0.6664 0.3345 -0.6664
vn -0.9430 0.3328 -0.0000
vn -0.6664 0.3345 0.6664
vn -0.0000 0.3328 0.9430
vn 0.6664 0.3345 0.6664
vt 0.808419 0.345588
vt 0.817049 0.411765
vt 0.698529 0.411765
vt 0.706832 0.345588
vt 0.113021 0.647059
vt 0.121324 0.713235
vt 0.002804 0.713235
vt 0.011434 0.647059
vt 0.904335 0.588235
vt 0.912637 0.654412
vt 0.794118 0.654412
vt 0.802747 0.588235
vt 0.928871 0.933824
vt 0.937500 1.000000
vt 0.818981 1.000000
vt 0.827283 0.933824
vt 0.385080 0.433824
vt 0.393382 0.500000
vt 0.274863 0.500000
vt 0.283493 0.433824
vt 0.234890 0.154412
vt 0.243519 0.220588
vt 0.125000 0.220588
vt 0.133302 0.154412
vt 0.936224 0.389706
vt 0.944853 0.455882
vt 0.826334 0.455882
vt 0.834636 0.389706
vt 0.911687 0.794118
vt 0.919990 0.860294
vt 0.801471 0.860294
vt 0.810100 0.794118
vt 0.295067 0.860294
vt 0.286765 0.794118
vt 0.405284 0.794118
vt 0.396654 0.860294
vt 0.008629 0.183824
vt 0.000000 0.117647
vt 0.118519 0.117647
vt 0.110217 0.183824
vt 0.569930 0.191176
vt 0.561628 0.125000
vt 0.680147 0.125000
vt 0.671518 0.191176
vt 0.261434 0.220588
vt 0.252804 0.154412
vt 0.371324 0.154412
vt 0.363021 0.220588
vt 0.684773 0.801471
vt 0.676471 0.735294
vt 0.794990 0.735294
vt 0.786360 0.801471
vt 0.832159 0.191176
vt 0.823529 0.125000
vt 0.942049 0.125000
vt 0.933746 0.191176
vt 0.702283 0.191176
vt 0.693981 0.125000
vt 0.812500 0.125000
vt 0.803871 0.191176
vt 0.805551 0.727941
vt 0.796922 0.661765
vt 0.915441 0.661765
vt 0.907139 0.727941
s 1
usemtl m_9e93a939-0691-c244-eab7-41c4c42e477f
f 84/177/55 98/178/56 97/179/57 89/180/58
f 91/181/59 101/182/60 100/183/61 88/184/62
f 94/185/63 103/186/64 102/187/65 87/188/66
f 88/189/62 100/190/61 99/191/67 95/192/68
f 89/193/58 97/194/57 104/195/69 83/196/70
f 87/197/66 102/198/65 101/199/60 91/200/59
f 83/201/70 104/202/69 103/203/64 94/204/63
f 95/205/68 99/206/67 98/207/56 84/208/55
f 90/209/71 97/210/57 98/211/56 82/212/72
f 82/213/72 98/214/56 99/215/67 96/216/73
f 96/217/73 99/218/67 100/219/61 86/220/74
f 86/221/74 100/222/61 101/223/60 92/224/75
f 92/225/75 101/226/60 102/227/65 85/228/76
f 85/229/76 102/230/65 103/231/64 93/232/77
f 93/233/77 103/234/64 104/235/69 81/236/78
f 81/237/78 104/238/69 97/239/57 90/240/71
o seat
v 0.528125 0.162500 0.203125
v 0.528125 0.162500 -0.487500
v 0.528125 0.000000 0.203125
v 0.528125 -0.000000 -0.487500
v -0.528125 0.162500 0.203125
v -0.528125 0.162500 -0.487500
v -0.528125 0.000000 0.203125
v -0.528125 -0.000000 -0.487500
v 0.528125 0.841245 0.520045
v 0.528125 0.876416 0.361396
v 0.528125 0.048005 0.344187
v 0.528125 0.083176 0.185539
v -0.528125 0.841245 0.520045
v -0.528125 0.876416 0.361396
v -0.528125 0.048005 0.344187
v -0.528125 0.083176 0.185539
vn 0.5774 0.5774 -0.5774
vn 0.7071 0.7071 -0.0000
vn 1.0000 -0.0000 -0.0000
vn 0.7071 -0.0000 -0.7071
vn -1.0000 -0.0000 -0.0000
vn -0.7071 0.7071 -0.0000
vn -0.5774 0.5774 -0.5774
vn -0.7071 -0.0000 -0.7071
vn 0.5774 0.6886 -0.4387
vn 0.5774 0.4387 0.6886
vn 0.7071 -0.1530 0.6903
vn 0.7071 0.1530 -0.6903
vn -0.7071 -0.1530 0.6903
vn -0.5774 0.4387 0.6886
vn -0.5774 0.6886 -0.4387
vn -0.7071 0.1530 -0.6903
vt 0.389706 0.426471
vt 0.257353 0.426471
vt 0.257353 0.397059
vt 0.389706 0.397059
vt 0.625000 0.352941
vt 0.625000 0.382353
vt 0.492647 0.382353
vt 0.492647 0.352941
vt 0.661765 0.198529
vt 0.852941 0.198529
vt 0.852941 0.330882
vt 0.661765 0.330882
vt 0.191176 0.639706
vt 0.000000 0.639706
vt 0.000000 0.610294
vt 0.191176 0.610294
vt 0.411765 0.742647
vt 0.382353 0.742647
vt 0.382353 0.595588
vt 0.411765 0.595588
vt 0.264706 0.558824
vt 0.411765 0.558824
vt 0.411765 0.588235
vt 0.264706 0.588235
vt 0.801471 0.757353
vt 0.992647 0.757353
vt 0.992647 0.786765
vt 0.801471 0.786765
vt 0.786765 0.580882
vt 0.786765 0.727941
vt 0.595588 0.727941
vt 0.595588 0.580882
vt 0.433824 0.375000
vt 0.242647 0.375000
vt 0.242647 0.227941
vt 0.433824 0.227941
s 1
usemtl m_9e93a939-0691-c244-eab7-41c4c42e477f
f 106/241/79 105/242/80 107/243/81 108/244/82
f 111/245/83 109/246/84 110/247/85 112/248/86
f 109/249/84 105/250/80 106/251/79 110/252/85
f 110/253/85 106/254/79 108/255/82 112/256/86
f 114/257/87 113/258/88 115/259/89 116/260/90
f 119/261/91 117/262/92 118/263/93 120/264/94
f 117/265/92 113/266/88 114/267/87 118/268/93
f 115/269/89 113/270/88 117/271/92 119/272/91
f 118/273/93 114/274/87 116/275/90 120/276/94
o top
v 0.768888 0.731250 -0.000000
v 0.546464 0.731250 0.546464
v 0.491111 0.731250 0.491111
v 0.690625 0.731250 -0.000000
v 0.000000 0.731250 0.768888
v 0.000000 0.731250 0.690625
v -0.546464 0.731250 0.546464
v -0.491111 0.731250 0.491111
v -0.768888 0.731250 -0.000000
v -0.690625 0.731250 -0.000000
v -0.546464 0.731250 -0.546464
v -0.491111 0.731250 -0.491111
v 0.000000 0.731250 -0.768888
v 0.000000 0.731250 -0.690625
v 0.546464 0.731250 -0.546464
v 0.491111 0.731250 -0.491111
v 0.000000 0.771875 -0.768888
v 0.546464 0.771875 -0.546464
v -0.546464 0.771875 -0.546464
v -0.768888 0.771875 -0.000000
v -0.546464 0.771875 0.546464
v 0.000000 0.771875 0.768888
v 0.546464 0.771875 0.546464
v 0.768888 0.771875 -0.000000
v 0.000000 0.771875 -0.690625
v 0.491111 0.771875 -0.491111
v -0.491111 0.771875 -0.491111
v -0.690625 0.771875 -0.000000
v -0.491111 0.771875 0.491111
v 0.000000 0.771875 0.690625
v 0.491111 0.771875 0.491111
v 0.690625 0.771875 -0.000000
vn -0.5496 -0.6292 0.5496
vn -0.0000 -0.6313 0.7756
vn -0.0000 0.6313 0.7756
vn -0.5496 0.6292 0.5496
vn -0.7756 -0.6313 -0.0000
vn -0.7756 0.6313 -0.0000
vn 0.5496 -0.6292 0.5496
vn 0.5496 0.6292 0.5496
vn 0.7756 -0.6313 -0.0000
vn 0.7756 0.6313 -0.0000
vn 0.5496 -0.6292 -0.5496
vn -0.0000 -0.6313 -0.7756
vn -0.0000 0.6313 -0.7756
vn 0.5496 0.6292 -0.5496
vn -0.5496 -0.6292 -0.5496
vn -0.5496 0.6292 -0.5496
vn -0.4186 0.8060 0.4186
vn -0.5968 0.8024 -0.0000
vn -0.0000 0.8024 0.5968
vn 0.4186 0.8060 0.4186
vn 0.5968 0.8024 -0.0000
vn 0.4186 0.8060 -0.4186
vn -0.0000 0.8024 -0.5968
vn -0.4186 0.8060 -0.4186
vn 0.5968 -0.8024 -0.0000
vn 0.4186 -0.8060 -0.4186
vn 0.4186 -0.8060 0.4186
vn -0.0000 -0.8024 0.5968
vn -0.4186 -0.8060 0.4186
vn -0.5968 -0.8024 -0.0000
vn -0.4186 -0.8060 -0.4186
vn -0.0000 -0.8024 -0.5968
vt 0.808824 0.742647
vt 0.919118 0.742647
vt 0.919118 0.750000
vt 0.808824 0.750000
vt 0.125000 0.279412
vt 0.235294 0.279412
vt 0.235294 0.286765
vt 0.125000 0.286765
vt 0.816176 0.919118
vt 0.926471 0.919118
vt 0.926471 0.926471
vt 0.816176 0.926471
vt 0.125000 0.264706
vt 0.235294 0.264706
vt 0.235294 0.272059
vt 0.125000 0.272059
vt 0.816176 0.904412
vt 0.926471 0.904412
vt 0.926471 0.911765
vt 0.816176 0.911765
vt 0.125000 0.250000
vt 0.235294 0.250000
vt 0.235294 0.257353
vt 0.125000 0.257353
vt 0.816176 0.889706
vt 0.926471 0.889706
vt 0.926471 0.897059
vt 0.816176 0.897059
vt 0.125000 0.235294
vt 0.235294 0.235294
vt 0.235294 0.242647
vt 0.125000 0.242647
vt 0.690636 0.860835
vt 0.650378 0.959742
vt 0.640360 0.949724
vt 0.676471 0.860835
vt 0.551471 1.000000
vt 0.551471 0.985835
vt 0.452563 0.959742
vt 0.462582 0.949724
vt 0.412305 0.860835
vt 0.426471 0.860835
vt 0.452563 0.761927
vt 0.462582 0.771946
vt 0.551471 0.721669
vt 0.551471 0.735835
vt 0.650378 0.761927
vt 0.640360 0.771946
vt 0.095588 0.992647
vt 0.095588 1.000000
vt 0.000000 1.000000
vt 0.000000 0.992647
vt 0.279412 0.992647
vt 0.279412 1.000000
vt 0.183824 1.000000
vt 0.183824 0.992647
vt 0.580882 0.676471
vt 0.580882 0.683824
vt 0.485294 0.683824
vt 0.485294 0.676471
vt 0.580882 0.610294
vt 0.580882 0.617647
vt 0.485294 0.617647
vt 0.485294 0.610294
vt 0.095588 0.720588
vt 0.095588 0.727941
vt 0.000000 0.727941
vt 0.000000 0.720588
vt 0.500000 0.992647
vt 0.500000 1.000000
vt 0.404412 1.000000
vt 0.404412 0.992647
vt 0.588235 0.661765
vt 0.588235 0.669118
vt 0.492647 0.669118
vt 0.492647 0.661765
vt 0.588235 0.647059
vt 0.588235 0.654412
vt 0.492647 0.654412
vt 0.492647 0.647059
vt 0.657731 0.341729
vt 0.697989 0.440636
vt 0.683824 0.440636
vt 0.647713 0.351747
vt 0.558824 0.301471
vt 0.558824 0.315636
vt 0.459916 0.341729
vt 0.469935 0.351747
vt 0.419658 0.440636
vt 0.433824 0.440636
vt 0.459916 0.539543
vt 0.469935 0.529525
vt 0.558824 0.579801
vt 0.558824 0.565636
vt 0.657731 0.539543
vt 0.647713 0.529525
s 1
usemtl m_9e93a939-0691-c244-eab7-41c4c42e477f
f 127/277/95 125/278/96 142/279/97 141/280/98
f 129/281/99 127/282/95 141/283/98 140/284/100
f 125/285/96 122/286/101 143/287/102 142/288/97
f 122/289/101 121/290/103 144/291/104 143/292/102
f 135/293/105 133/294/106 137/295/107 138/296/108
f 121/297/103 135/298/105 138/299/108 144/300/104
f 133/301/106 131/302/109 139/303/110 137/304/107
f 131/305/109 129/306/99 140/307/100 139/308/110
f 144/309/104 138/310/108 146/311/111 152/312/112
f 138/310/108 137/313/107 145/314/113 146/311/111
f 137/313/107 139/315/110 147/316/114 145/314/113
f 139/315/110 140/317/100 148/318/115 147/316/114
f 140/317/100 141/319/98 149/320/116 148/318/115
f 141/319/98 142/321/97 150/322/117 149/320/116
f 142/321/97 143/323/102 151/324/118 150/322/117
f 143/323/102 144/309/104 152/312/112 151/324/118
f 130/325/119 148/326/115 149/327/116 128/328/120
f 132/329/121 147/330/114 148/331/115 130/332/119
f 134/333/122 145/334/113 147/335/114 132/336/121
f 136/337/123 146/338/111 145/339/113 134/340/122
f 124/341/124 152/342/112 146/343/111 136/344/123
f 123/345/125 151/346/118 152/347/112 124/348/124
f 126/349/126 150/350/117 151/351/118 123/352/125
f 128/353/120 149/354/116 150/355/117 126/356/126
f 135/357/105 121/358/103 124/359/124 136/360/123
f 133/361/106 135/357/105 136/360/123 134/362/122
f 131/363/109 133/361/106 134/362/122 132/364/121
f 129/365/99 131/363/109 132/364/121 130/366/119
f 127/367/95 129/365/99 130/366/119 128/368/120
f 125/369/96 127/367/95 128/368/120 126/370/126
f 122/371/101 125/369/96 126/370/126 123/372/125
f 121/358/103 122/371/101 123/372/125 124/359/124
