# Blender 3.6.5
# www.blender.org
mtllib torii_gate.mtl
o left_pillar
v -1.399519 1.000000 0.875000
v -1.399519 4.000000 0.875000
v -1.225481 1.000000 0.774519
v -1.225481 4.000000 0.774519
v -1.125000 1.000000 0.600481
v -1.125000 4.000000 0.600481
v -1.125000 1.000000 0.399519
v -1.125000 4.000000 0.399519
v -1.225481 1.000000 0.225481
v -1.225481 4.000000 0.225481
v -1.399519 1.000000 0.125000
v -1.399519 4.000000 0.125000
v -1.600481 1.000000 0.125000
v -1.600481 4.000000 0.125000
v -1.774519 1.000000 0.225481
v -1.774519 4.000000 0.225481
v -1.875000 1.000000 0.399519
v -1.875000 4.000000 0.399519
v -1.875000 1.000000 0.600481
v -1.875000 4.000000 0.600481
v -1.774519 1.000000 0.774519
v -1.774519 4.000000 0.774519
v -1.600481 1.000000 0.875000
v -1.600481 4.000000 0.875000
v -1.366025 0.000000 1.000000
v -1.366025 1.000000 1.000000
v -1.133975 0.000000 0.866025
v -1.133975 1.000000 0.866025
v -1.000000 0.000000 0.633975
v -1.000000 1.000000 0.633975
v -1.000000 0.000000 0.366025
v -1.000000 1.000000 0.366025
v -1.133975 0.000000 0.133975
v -1.133975 1.000000 0.133975
v -1.366025 0.000000 0.000000
v -1.366025 1.000000 -0.000000
v -1.633975 0.000000 0.000000
v -1.633975 1.000000 -0.000000
v -1.866025 0.000000 0.133975
v -1.866025 1.000000 0.133975
v -2.000000 0.000000 0.366025
v -2.000000 1.000000 0.366025
v -2.000000 0.000000 0.633975
v -2.000000 1.000000 0.633975
v -1.866025 0.000000 0.866025
v -1.866025 1.000000 0.866025
v -1.633975 0.000000 1.000000
v -1.633975 1.000000 1.000000
vn 0.2588 -0.0000 0.9659
vn 0.7071 -0.0000 0.7071
vn 0.9659 -0.0000 0.2588
vn 0.9659 -0.0000 -0.2588
vn 0.7071 -0.0000 -0.7071
vn 0.2588 -0.0000 -0.9659
vn -0.2588 -0.0000 -0.9659
vn -0.7071 -0.0000 -0.7071
vn -0.9659 -0.0000 -0.2588
vn -0.9659 -0.0000 0.2588
vn -0.7071 -0.0000 0.7071
vn -0.2588 -0.0000 0.9659
vn 0.1960 -0.6532 0.7314
vn 0.5354 -0.6532 0.5354
vn 0.5354 0.6532 0.5354
vn 0.1960 0.6532 0.7314
vn 0.7314 -0.6532 0.1960
vn 0.7314 0.6532 0.1960
vn 0.7314 -0.6532 -0.1960
vn 0.7314 0.6532 -0.1960
vn 0.5354 -0.6532 -0.5354
vn 0.5354 0.6532 -0.5354
vn 0.1960 -0.6532 -0.7314
vn 0.1960 0.6532 -0.7314
vn -0.1960 -0.6532 -0.7314
vn -0.1960 0.6532 -0.7314
vn -0.5354 -0.6532 -0.5354
vn -0.5354 0.6532 -0.5354
vn -0.7314 -0.6532 -0.1960
vn -0.7314 0.6532 -0.1960
vn -0.7314 -0.6532 0.1960
vn -0.7314 0.6532 0.1960
vn -0.5354 -0.6532 0.5354
vn -0.5354 0.6532 0.5354
vn -0.1960 -0.6532 0.7314
vn -0.1960 0.6532 0.7314
vt 0.378165 0.369792
vt 0.394912 0.369792
vt 0.394912 0.619792
vt 0.378165 0.619792
vt 0.172796 0.369792
vt 0.189543 0.369792
vt 0.189543 0.619792
vt 0.172796 0.619792
vt 0.206290 0.369792
vt 0.206290 0.619792
vt 0.223037 0.369792
vt 0.223037 0.619792
vt 0.401963 0.369792
vt 0.418710 0.369792
vt 0.418710 0.619792
vt 0.401963 0.619792
vt 0.435457 0.369792
vt 0.435457 0.619792
vt 0.452204 0.369792
vt 0.452204 0.619792
vt 0.058213 0.369792
vt 0.074960 0.369792
vt 0.074960 0.619792
vt 0.058213 0.619792
vt 0.091707 0.369792
vt 0.091707 0.619792
vt 0.108454 0.369792
vt 0.108454 0.619792
vt 0.344671 0.369792
vt 0.361418 0.369792
vt 0.361418 0.619792
vt 0.344671 0.619792
vt 0.503352 0.312500
vt 0.525681 0.312500
vt 0.525681 0.395833
vt 0.503352 0.395833
vt 0.073277 0.281250
vt 0.095606 0.281250
vt 0.095606 0.364583
vt 0.073277 0.364583
vt 0.117935 0.281250
vt 0.117935 0.364583
vt 0.140265 0.281250
vt 0.140265 0.364583
vt 0.609735 0.703125
vt 0.632065 0.703125
vt 0.632065 0.786458
vt 0.609735 0.786458
vt 0.654394 0.703125
vt 0.654394 0.786458
vt 0.676723 0.703125
vt 0.676723 0.786458
vt 0.146194 0.281250
vt 0.168523 0.281250
vt 0.168523 0.364583
vt 0.146194 0.364583
vt 0.190852 0.281250
vt 0.190852 0.364583
vt 0.213181 0.281250
vt 0.213181 0.364583
vt 0.458694 0.312500
vt 0.481023 0.312500
vt 0.481023 0.395833
vt 0.458694 0.395833
vt 0.526042 0.665919
vt 0.537206 0.646581
vt 0.556544 0.635417
vt 0.526042 0.688248
vt 0.556544 0.718750
vt 0.537206 0.707585
vt 0.578873 0.718750
vt 0.609375 0.688248
vt 0.598210 0.707585
vt 0.609375 0.665919
vt 0.578873 0.635417
vt 0.598210 0.646581
vt 0.635417 0.844498
vt 0.624252 0.863835
vt 0.604915 0.875000
vt 0.635417 0.822169
vt 0.604915 0.791667
vt 0.624252 0.802831
vt 0.582585 0.791667
vt 0.552083 0.822169
vt 0.563248 0.802831
vt 0.552083 0.844498
vt 0.582585 0.875000
vt 0.563248 0.863835
s 1
usemtl m_39a80c82-4475-e014-9d35-fd16bb072309
f 1/1/1 3/2/2 4/3/2 2/4/1
f 3/5/2 5/6/3 6/7/3 4/8/2
f 5/6/3 7/9/4 8/10/4 6/7/3
f 7/9/4 9/11/5 10/12/5 8/10/4
f 9/13/5 11/14/6 12/15/6 10/16/5
f 11/14/6 13/17/7 14/18/7 12/15/6
f 13/17/7 15/19/8 16/20/8 14/18/7
f 15/21/8 17/22/9 18/23/9 16/24/8
f 17/22/9 19/25/10 20/26/10 18/23/9
f 19/25/10 21/27/11 22/28/11 20/26/10
f 21/29/11 23/30/12 24/31/12 22/32/11
f 23/30/12 1/1/1 2/4/1 24/31/12
f 25/33/13 27/34/14 28/35/15 26/36/16
f 27/37/14 29/38/17 30/39/18 28/40/15
f 29/38/17 31/41/19 32/42/20 30/39/18
f 31/41/19 33/43/21 34/44/22 32/42/20
f 33/45/21 35/46/23 36/47/24 34/48/22
f 35/46/23 37/49/25 38/50/26 36/47/24
f 37/49/25 39/51/27 40/52/28 38/50/26
f 39/53/27 41/54/29 42/55/30 40/56/28
f 41/54/29 43/57/31 44/58/32 42/55/30
f 43/57/31 45/59/33 46/60/34 44/58/32
f 45/61/33 47/62/35 48/63/36 46/64/34
f 47/62/35 25/33/13 26/36/16 48/63/36
f 41/65/29 39/66/27 37/67/25 43/68/31
f 47/69/35 45/70/33 43/68/31 25/71/13
f 29/72/17 27/73/14 25/71/13 31/74/19
f 35/75/23 33/76/21 31/74/19 37/67/25
f 25/71/13 43/68/31 37/67/25 31/74/19
f 32/77/20 34/78/22 36/79/24 30/80/18
f 26/81/16 28/82/15 30/80/18 48/83/36
f 44/84/32 46/85/34 48/83/36 42/86/30
f 38/87/26 40/88/28 42/86/30 36/79/24
f 48/83/36 30/80/18 36/79/24 42/86/30
o right_pillar
v 2.600481 1.000000 0.875000
v 2.600481 4.000000 0.875000
v 2.774519 1.000000 0.774519
v 2.774519 4.000000 0.774519
v 2.875000 1.000000 0.600481
v 2.875000 4.000000 0.600481
v 2.875000 1.000000 0.399519
v 2.875000 4.000000 0.399519
v 2.774519 1.000000 0.225481
v 2.774519 4.000000 0.225481
v 2.600481 1.000000 0.125000
v 2.600481 4.000000 0.125000
v 2.399519 1.000000 0.125000
v 2.399519 4.000000 0.125000
v 2.225481 1.000000 0.225481
v 2.225481 4.000000 0.225481
v 2.125000 1.000000 0.399519
v 2.125000 4.000000 0.399519
v 2.125000 1.000000 0.600481
v 2.125000 4.000000 0.600481
v 2.225481 1.000000 0.774519
v 2.225481 4.000000 0.774519
v 2.399519 1.000000 0.875000
v 2.399519 4.000000 0.875000
v 2.633975 0.000000 1.000000
v 2.633975 1.000000 1.000000
v 2.866025 0.000000 0.866025
v 2.866025 1.000000 0.866025
v 3.000000 0.000000 0.633975
v 3.000000 1.000000 0.633975
v 3.000000 0.000000 0.366025
v 3.000000 1.000000 0.366025
v 2.866025 0.000000 0.133975
v 2.866025 1.000000 0.133975
v 2.633975 0.000000 0.000000
v 2.633975 1.000000 -0.000000
v 2.366025 0.000000 0.000000
v 2.366025 1.000000 -0.000000
v 2.133975 0.000000 0.133975
v 2.133975 1.000000 0.133975
v 2.000000 0.000000 0.366025
v 2.000000 1.000000 0.366025
v 2.000000 0.000000 0.633975
v 2.000000 1.000000 0.633975
v 2.133975 0.000000 0.866025
v 2.133975 1.000000 0.866025
v 2.366025 0.000000 1.000000
v 2.366025 1.000000 1.000000
vn 0.2588 -0.0000 0.9659
vn 0.7071 -0.0000 0.7071
vn 0.9659 -0.0000 0.2588
vn 0.9659 -0.0000 -0.2588
vn 0.7071 -0.0000 -0.7071
vn 0.2588 -0.0000 -0.9659
vn -0.2588 -0.0000 -0.9659
vn -0.7071 -0.0000 -0.7071
vn -0.9659 -0.0000 -0.2588
vn -0.9659 -0.0000 0.2588
vn -0.7071 -0.0000 0.7071
vn -0.2588 -0.0000 0.9659
vn 0.1960 -0.6532 0.7314
vn 0.5354 -0.6532 0.5354
vn 0.5354 0.6532 0.5354
vn 0.1960 0.6532 0.7314
vn 0.7314 -0.6532 0.1960
vn 0.7314 0.6532 0.1960
vn 0.7314 -0.6532 -0.1960
vn 0.7314 0.6532 -0.1960
vn 0.5354 -0.6532 -0.5354
vn 0.5354 0.6532 -0.5354
vn 0.1960 -0.6532 -0.7314
vn 0.1960 0.6532 -0.7314
vn -0.1960 -0.6532 -0.7314
vn -0.1960 0.6532 -0.7314
vn -0.5354 -0.6532 -0.5354
vn -0.5354 0.6532 -0.5354
vn -0.7314 -0.6532 -0.1960
vn -0.7314 0.6532 -0.1960
vn -0.7314 -0.6532 0.1960
vn -0.7314 0.6532 0.1960
vn -0.5354 -0.6532 0.5354
vn -0.5354 0.6532 0.5354
vn -0.1960 -0.6532 0.7314
vn -0.1960 0.6532 0.7314
vt 0.263582 0.369792
vt 0.280329 0.369792
vt 0.280329 0.619792
vt 0.263582 0.619792
vt 0.000921 0.369792
vt 0.017668 0.369792
vt 0.017668 0.619792
vt 0.000921 0.619792
vt 0.034415 0.369792
vt 0.034415 0.619792
vt 0.051162 0.369792
vt 0.051162 0.619792
vt 0.287380 0.369792
vt 0.304127 0.369792
vt 0.304127 0.619792
vt 0.287380 0.619792
vt 0.320873 0.369792
vt 0.320873 0.619792
vt 0.337620 0.369792
vt 0.337620 0.619792
vt 0.115505 0.369792
vt 0.132252 0.369792
vt 0.132252 0.619792
vt 0.115505 0.619792
vt 0.148998 0.369792
vt 0.148998 0.619792
vt 0.165745 0.369792
vt 0.165745 0.619792
vt 0.230088 0.369792
vt 0.246835 0.369792
vt 0.246835 0.619792
vt 0.230088 0.619792
vt 0.617935 0.484375
vt 0.640265 0.484375
vt 0.640265 0.567708
vt 0.617935 0.567708
vt 0.620152 0.916667
vt 0.642481 0.916667
vt 0.642481 1.000000
vt 0.620152 1.000000
vt 0.664810 0.916667
vt 0.664810 1.000000
vt 0.687140 0.916667
vt 0.687140 1.000000
vt 0.588902 0.333333
vt 0.611231 0.333333
vt 0.611231 0.416667
vt 0.588902 0.416667
vt 0.633560 0.333333
vt 0.633560 0.416667
vt 0.655890 0.333333
vt 0.655890 0.416667
vt 0.000360 0.281250
vt 0.022690 0.281250
vt 0.022690 0.364583
vt 0.000360 0.364583
vt 0.045019 0.281250
vt 0.045019 0.364583
vt 0.067348 0.281250
vt 0.067348 0.364583
vt 0.573277 0.484375
vt 0.595606 0.484375
vt 0.595606 0.567708
vt 0.573277 0.567708
vt 0.458333 0.514877
vt 0.469498 0.495540
vt 0.488835 0.484375
vt 0.458333 0.537206
vt 0.488835 0.567708
vt 0.469498 0.556544
vt 0.511165 0.567708
vt 0.541667 0.537206
vt 0.530502 0.556544
vt 0.541667 0.514877
vt 0.511165 0.484375
vt 0.530502 0.495540
vt 0.588542 0.453873
vt 0.577377 0.473210
vt 0.558040 0.484375
vt 0.588542 0.431544
vt 0.558040 0.401042
vt 0.577377 0.412206
vt 0.535710 0.401042
vt 0.505208 0.431544
vt 0.516373 0.412206
vt 0.505208 0.453873
vt 0.535710 0.484375
vt 0.516373 0.473210
s 1
usemtl m_39a80c82-4475-e014-9d35-fd16bb072309
f 49/89/37 51/90/38 52/91/38 50/92/37
f 51/93/38 53/94/39 54/95/39 52/96/38
f 53/94/39 55/97/40 56/98/40 54/95/39
f 55/97/40 57/99/41 58/100/41 56/98/40
f 57/101/41 59/102/42 60/103/42 58/104/41
f 59/102/42 61/105/43 62/106/43 60/103/42
f 61/105/43 63/107/44 64/108/44 62/106/43
f 63/109/44 65/110/45 66/111/45 64/112/44
f 65/110/45 67/113/46 68/114/46 66/111/45
f 67/113/46 69/115/47 70/116/47 68/114/46
f 69/117/47 71/118/48 72/119/48 70/120/47
f 71/118/48 49/89/37 50/92/37 72/119/48
f 73/121/49 75/122/50 76/123/51 74/124/52
f 75/125/50 77/126/53 78/127/54 76/128/51
f 77/126/53 79/129/55 80/130/56 78/127/54
f 79/129/55 81/131/57 82/132/58 80/130/56
f 81/133/57 83/134/59 84/135/60 82/136/58
f 83/134/59 85/137/61 86/138/62 84/135/60
f 85/137/61 87/139/63 88/140/64 86/138/62
f 87/141/63 89/142/65 90/143/66 88/144/64
f 89/142/65 91/145/67 92/146/68 90/143/66
f 91/145/67 93/147/69 94/148/70 92/146/68
f 93/149/69 95/150/71 96/151/72 94/152/70
f 95/150/71 73/121/49 74/124/52 96/151/72
f 89/153/65 87/154/63 85/155/61 91/156/67
f 95/157/71 93/158/69 91/156/67 73/159/49
f 77/160/53 75/161/50 73/159/49 79/162/55
f 83/163/59 81/164/57 79/162/55 85/155/61
f 73/159/49 91/156/67 85/155/61 79/162/55
f 80/165/56 82/166/58 84/167/60 78/168/54
f 74/169/52 76/170/51 78/168/54 96/171/72
f 92/172/68 94/173/70 96/171/72 90/174/66
f 86/175/62 88/176/64 90/174/66 84/167/60
f 96/171/72 78/168/54 84/167/60 90/174/66
o top
v 3.625000 3.250000 0.625000
v 3.625000 3.250000 0.375000
v 3.625000 2.750000 0.625000
v 3.625000 2.750000 0.375000
v -2.625000 3.250000 0.625000
v -2.625000 3.250000 0.375000
v -2.625000 2.750000 0.625000
v -2.625000 2.750000 0.375000
v 0.875000 4.000000 0.625000
v 0.875000 4.000000 0.375000
v 0.875000 3.250000 0.625000
v 0.875000 3.250000 0.375000
v 0.125000 4.000000 0.625000
v 0.125000 4.000000 0.375000
v 0.125000 3.250000 0.625000
v 0.125000 3.250000 0.375000
v 3.812500 4.500000 0.875000
v 3.812500 4.500000 0.125000
v 3.625000 4.000000 0.875000
v 3.625000 4.000000 0.125000
v -2.812500 4.500000 0.875000
v -2.812500 4.500000 0.125000
v -2.625000 4.000000 0.875000
v -2.625000 4.000000 0.125000
v 4.062500 4.375000 1.125000
v 4.062500 4.375000 -0.125000
v -3.062500 4.375000 1.125000
v -3.062500 4.375000 -0.125000
v 4.187500 4.687500 0.500000
v -3.187500 4.687500 0.500000
vn 0.5774 0.5774 -0.5774
vn 0.5774 0.5774 0.5774
vn 0.5774 -0.5774 0.5774
vn 0.5774 -0.5774 -0.5774
vn -0.5774 -0.5774 0.5774
vn -0.5774 0.5774 0.5774
vn -0.5774 0.5774 -0.5774
vn -0.5774 -0.5774 -0.5774
vn 0.7071 -0.0000 -0.7071
vn 0.7071 -0.0000 0.7071
vn -0.7071 -0.0000 0.7071
vn -0.7071 -0.0000 -0.7071
vn 0.6805 0.4716 -0.5608
vn 0.6805 0.4716 0.5608
vn 0.4563 -0.6584 0.5986
vn 0.4563 -0.6584 -0.5986
vn -0.4563 -0.6584 0.5986
vn -0.6805 0.4716 0.5608
vn -0.6805 0.4716 -0.5608
vn -0.4563 -0.6584 -0.5986
vn -0.0000 0.8944 -0.4472
vn -0.0000 1.0000 -0.0000
vn -0.0000 0.8944 0.4472
vt 0.567708 0.567708
vt 0.546875 0.567708
vt 0.546875 0.526042
vt 0.567708 0.526042
vt 0.578125 0.744792
vt 0.578125 0.786458
vt 0.557292 0.786458
vt 0.557292 0.744792
vt 0.458333 0.598958
vt 0.979167 0.598958
vt 0.979167 0.619792
vt 0.458333 0.619792
vt 0.979167 0.572917
vt 0.979167 0.593750
vt 0.458333 0.593750
vt 0.458333 0.572917
vt 0.520833 0.671875
vt 0.520833 0.713542
vt 0.000000 0.713542
vt 0.000000 0.671875
vt 0.520833 0.666667
vt 0.000000 0.666667
vt 0.000000 0.625000
vt 0.520833 0.625000
vt 0.479167 0.479167
vt 0.458333 0.479167
vt 0.458333 0.416667
vt 0.479167 0.416667
vt 0.546875 0.812500
vt 0.546875 0.875000
vt 0.526042 0.875000
vt 0.526042 0.812500
vt 0.677083 0.635417
vt 0.677083 0.697917
vt 0.614583 0.697917
vt 0.614583 0.635417
vt 0.281250 0.364583
vt 0.218750 0.364583
vt 0.218750 0.302083
vt 0.281250 0.302083
vt 0.656250 0.479167
vt 0.593750 0.479167
vt 0.593750 0.432292
vt 0.656250 0.432292
vt 0.697917 0.864583
vt 0.697917 0.911458
vt 0.635417 0.911458
vt 0.635417 0.864583
vt 0.520833 0.812500
vt 0.520833 0.875000
vt 0.000000 0.875000
vt 0.000000 0.812500
vt 0.536458 0.765625
vt 0.552083 0.807292
vt 0.000000 0.807292
vt 0.015625 0.765625
vt 0.552083 0.760417
vt 0.000000 0.760417
vt 0.015625 0.718750
vt 0.536458 0.718750
vt 0.604167 0.942708
vt 0.614583 1.000000
vt 0.000000 1.000000
vt 0.010417 0.942708
vt 0.604167 0.880208
vt 0.614583 0.937500
vt 0.000000 0.937500
vt 0.010417 0.880208
vt 0.000000 0.208333
vt 0.552083 0.208333
vt 0.552083 0.270833
vt 0.000000 0.270833
s 1
usemtl m_39a80c82-4475-e014-9d35-fd16bb072309
f 98/177/73 97/178/74 99/179/75 100/180/76
f 103/181/77 101/182/78 102/183/79 104/184/80
f 101/185/78 97/186/74 98/187/73 102/188/79
f 100/189/76 99/190/75 103/191/77 104/192/80
f 99/193/75 97/194/74 101/195/78 103/196/77
f 102/197/79 98/198/73 100/199/76 104/200/80
f 106/201/81 105/202/82 107/203/82 108/204/81
f 111/205/83 109/206/83 110/207/84 112/208/84
f 107/209/82 105/210/82 109/211/83 111/212/83
f 110/213/84 106/214/81 108/215/81 112/216/84
f 114/217/85 113/218/86 115/219/87 116/220/88
f 119/221/89 117/222/90 118/223/91 120/224/92
f 116/225/88 115/226/87 119/227/89 120/228/92
f 115/229/87 113/230/86 117/231/90 119/232/89
f 118/233/91 114/234/85 116/235/88 120/236/92
f 124/237/93 126/238/94 125/239/94 122/240/93
f 121/241/95 125/242/94 126/243/94 123/244/95
f 117/245/90 113/246/86 114/247/85 118/248/91
