# Blender 3.6.5
# www.blender.org
mtllib pickle.mtl
o body
v 0.000000 0.000000 0.000000
v 0.133975 0.437500 0.500000
v 0.116025 0.187500 0.433013
v 0.066987 0.051362 0.250000
v 0.366025 0.437500 0.366025
v 0.316987 0.187500 0.316987
v 0.183013 0.051362 0.183013
v 0.500000 0.437500 0.133975
v 0.433013 0.187500 0.116025
v 0.250000 0.051362 0.066987
v 0.500000 0.437500 -0.133975
v 0.433013 0.187500 -0.116025
v 0.250000 0.051362 -0.066987
v 0.366025 0.437500 -0.366025
v 0.316987 0.187500 -0.316987
v 0.183013 0.051362 -0.183013
v 0.133975 0.437500 -0.500000
v 0.116025 0.187500 -0.433013
v 0.066987 0.051362 -0.250000
v -0.133975 0.437500 -0.500000
v -0.116025 0.187500 -0.433013
v -0.066987 0.051362 -0.250000
v -0.366025 0.437500 -0.366025
v -0.316987 0.187500 -0.316987
v -0.183013 0.051362 -0.183013
v -0.500000 0.437500 -0.133975
v -0.433013 0.187500 -0.116025
v -0.250000 0.051362 -0.066987
v -0.500000 0.437500 0.133975
v -0.433013 0.187500 0.116025
v -0.250000 0.051362 0.066987
v -0.366025 0.437500 0.366025
v -0.316987 0.187500 0.316987
v -0.183013 0.051362 0.183013
v -0.133975 0.437500 0.500000
v -0.116025 0.187500 0.433013
v -0.066987 0.051362 0.250000
v 0.133975 1.500000 0.500000
v 0.366025 1.500000 0.366025
v 0.500000 1.500000 0.133974
v 0.500000 1.500000 -0.133975
v 0.366025 1.500000 -0.366026
v 0.133975 1.500000 -0.500000
v -0.133975 1.500000 -0.500000
v -0.366025 1.500000 -0.366026
v -0.500000 1.500000 -0.133975
v -0.500000 1.500000 0.133974
v -0.366025 1.500000 0.366025
v -0.133975 1.500000 0.500000
v 0.000000 1.937500 -0.000000
v 0.066987 1.886138 0.250000
v 0.116025 1.750000 0.433013
v 0.183013 1.886138 0.183013
v 0.316987 1.750000 0.316987
v 0.250000 1.886138 0.066987
v 0.433013 1.750000 0.116025
v 0.250000 1.886138 -0.066987
v 0.433013 1.750000 -0.116026
v 0.183013 1.886138 -0.183013
v 0.316987 1.750000 -0.316987
v 0.066987 1.886138 -0.250000
v 0.116025 1.750000 -0.433013
v -0.066987 1.886138 -0.250000
v -0.116025 1.750000 -0.433013
v -0.183013 1.886138 -0.183013
v -0.316987 1.750000 -0.316987
v -0.250000 1.886138 -0.066987
v -0.433013 1.750000 -0.116026
v -0.250000 1.886138 0.066987
v -0.433013 1.750000 0.116025
v -0.183013 1.886138 0.183013
v -0.316987 1.750000 0.316987
v -0.066987 1.886138 0.250000
v -0.116025 1.750000 0.433013
vn 0.2566 -0.1320 0.9575
vn 0.2165 -0.5478 0.8081
vn 0.5916 -0.5478 0.5916
vn 0.7009 -0.1320 0.7009
vn 0.1105 -0.9043 0.4124
vn 0.3019 -0.9043 0.3019
vn -0.0000 -1.0000 -0.0000
vn 0.8081 -0.5478 0.2165
vn 0.9575 -0.1320 0.2566
vn 0.4124 -0.9043 0.1105
vn 0.8081 -0.5478 -0.2165
vn 0.9575 -0.1320 -0.2566
vn 0.4124 -0.9043 -0.1105
vn 0.5916 -0.5478 -0.5916
vn 0.7009 -0.1320 -0.7009
vn 0.3019 -0.9043 -0.3019
vn 0.2165 -0.5478 -0.8081
vn 0.2566 -0.1320 -0.9575
vn 0.1105 -0.9043 -0.4124
vn -0.2165 -0.5478 -0.8081
vn -0.2566 -0.1320 -0.9575
vn -0.1105 -0.9043 -0.4124
vn -0.5916 -0.5478 -0.5916
vn -0.7009 -0.1320 -0.7009
vn -0.3019 -0.9043 -0.3019
vn -0.8081 -0.5478 -0.2165
vn -0.9575 -0.1320 -0.2566
vn -0.4124 -0.9043 -0.1105
vn -0.8081 -0.5478 0.2165
vn -0.9575 -0.1320 0.2566
vn -0.4124 -0.9043 0.1105
vn -0.5916 -0.5478 0.5916
vn -0.7009 -0.1320 0.7009
vn -0.3019 -0.9043 0.3019
vn -0.2165 -0.5478 0.8081
vn -0.2566 -0.1320 0.9575
vn -0.1105 -0.9043 0.4124
vn 0.1105 0.9043 0.4124
vn 0.3019 0.9043 0.3019
vn -0.0000 1.0000 -0.0000
vn 0.2165 0.5478 0.8081
vn 0.5916 0.5478 0.5916
vn 0.2566 0.1320 0.9575
vn 0.7009 0.1320 0.7009
vn 0.4124 0.9043 0.1105
vn 0.8081 0.5478 0.2165
vn 0.9575 0.1320 0.2566
vn 0.4124 0.9043 -0.1105
vn 0.8081 0.5478 -0.2165
vn 0.9575 0.1320 -0.2566
vn 0.3019 0.9043 -0.3019
vn 0.5916 0.5478 -0.5916
vn 0.7009 0.1320 -0.7009
vn 0.1105 0.9043 -0.4124
vn 0.2165 0.5478 -0.8081
vn 0.2566 0.1320 -0.9575
vn -0.1105 0.9043 -0.4124
vn -0.2165 0.5478 -0.8081
vn -0.2566 0.1320 -0.9575
vn -0.3019 0.9043 -0.3019
vn -0.5916 0.5478 -0.5916
vn -0.7009 0.1320 -0.7009
vn -0.4124 0.9043 -0.1105
vn -0.8081 0.5478 -0.2165
vn -0.9575 0.1320 -0.2566
vn -0.4124 0.9043 0.1105
vn -0.8081 0.5478 0.2165
vn -0.9575 0.1320 0.2566
vn -0.3019 0.9043 0.3019
vn -0.5916 0.5478 0.5916
vn -0.7009 0.1320 0.7009
vn -0.1105 0.9043 0.4124
vn -0.2165 0.5478 0.8081
vn -0.2566 0.1320 0.9575
vt 0.135056 0.669670
vt 0.139544 0.604966
vt 0.197556 0.604966
vt 0.202044 0.669670
vt 0.612286 0.998146
vt 0.594960 0.942452
vt 0.624137 0.926003
vt 0.662820 0.969656
vt 0.578213 0.878648
vt 0.219831 0.669670
vt 0.224319 0.604966
vt 0.282331 0.604966
vt 0.286819 0.669670
vt 0.666581 0.966009
vt 0.641474 0.897346
vt 0.696609 0.916373
vt 0.291306 0.604966
vt 0.349319 0.604966
vt 0.353806 0.669670
vt 0.698094 0.911350
vt 0.642502 0.863868
vt 0.699875 0.853365
vt 0.358294 0.604966
vt 0.416306 0.604966
vt 0.420794 0.669670
vt 0.698702 0.848261
vt 0.626957 0.834200
vt 0.671776 0.796875
vt 0.219831 0.247795
vt 0.224319 0.183091
vt 0.282331 0.183091
vt 0.286819 0.247795
vt 0.441545 0.546947
vt 0.476156 0.500000
vt 0.506691 0.513765
vt 0.494431 0.570789
vt 0.598845 0.815991
vt 0.291306 0.183091
vt 0.349319 0.183091
vt 0.353806 0.247795
vt 0.540184 0.513765
vt 0.552444 0.570789
vt 0.565414 0.813935
vt 0.358294 0.183091
vt 0.416306 0.183091
vt 0.420794 0.247795
vt 0.570719 0.500000
vt 0.605330 0.546947
vt 0.529470 0.834200
vt 0.557582 0.815991
vt 0.001081 0.247795
vt 0.005569 0.183091
vt 0.063581 0.183091
vt 0.068069 0.247795
vt 0.447886 0.819173
vt 0.502968 0.838354
vt 0.498848 0.871593
vt 0.440750 0.876745
vt 0.513925 0.863868
vt 0.072556 0.183091
vt 0.130569 0.183091
vt 0.135056 0.247795
vt 0.508753 0.903589
vt 0.457905 0.932163
vt 0.514953 0.897346
vt 0.139544 0.183091
vt 0.197556 0.183091
vt 0.202044 0.247795
vt 0.530932 0.928687
vt 0.496320 0.975634
vt 0.532290 0.926003
vt 0.001081 0.669670
vt 0.005569 0.604966
vt 0.063581 0.604966
vt 0.068069 0.669670
vt 0.561467 0.942452
vt 0.549207 0.999476
vt 0.072556 0.604966
vt 0.130569 0.604966
vt 0.607220 0.999476
vt 0.579158 0.651298
vt 0.608335 0.667747
vt 0.562412 0.715102
vt 0.591418 0.594274
vt 0.644305 0.618116
vt 0.609693 0.665063
vt 0.139544 1.000000
vt 0.135056 0.935295
vt 0.202044 0.935295
vt 0.197556 1.000000
vt 0.625672 0.696404
vt 0.682720 0.661587
vt 0.631872 0.690161
vt 0.224319 1.000000
vt 0.219831 0.935295
vt 0.286819 0.935295
vt 0.282331 1.000000
vt 0.626700 0.729882
vt 0.699875 0.717005
vt 0.641777 0.722157
vt 0.291306 1.000000
vt 0.353806 0.935295
vt 0.349319 1.000000
vt 0.611155 0.759550
vt 0.692739 0.774577
vt 0.637657 0.755396
vt 0.358294 1.000000
vt 0.420794 0.935295
vt 0.416306 1.000000
vt 0.583043 0.777759
vt 0.476156 0.484375
vt 0.441545 0.437428
vt 0.494431 0.413586
vt 0.506691 0.470610
vt 0.224319 0.578125
vt 0.219831 0.513420
vt 0.286819 0.513420
vt 0.282331 0.578125
vt 0.575211 0.779815
vt 0.541780 0.777759
vt 0.552444 0.413586
vt 0.540184 0.470610
vt 0.291306 0.578125
vt 0.353806 0.513420
vt 0.349319 0.578125
vt 0.513668 0.759550
vt 0.605330 0.437428
vt 0.570719 0.484375
vt 0.358294 0.578125
vt 0.420794 0.513420
vt 0.416306 0.578125
vt 0.498123 0.729882
vt 0.468849 0.796875
vt 0.441923 0.745489
vt 0.005569 0.578125
vt 0.001081 0.513420
vt 0.068069 0.513420
vt 0.063581 0.578125
vt 0.499151 0.696404
vt 0.440750 0.740385
vt 0.442531 0.682400
vt 0.072556 0.578125
vt 0.135056 0.513420
vt 0.130569 0.578125
vt 0.516488 0.667747
vt 0.444016 0.677377
vt 0.474044 0.627741
vt 0.139544 0.578125
vt 0.202044 0.513420
vt 0.197556 0.578125
vt 0.545665 0.651298
vt 0.477805 0.624094
vt 0.528339 0.595604
vt 0.005569 1.000000
vt 0.001081 0.935295
vt 0.068069 0.935295
vt 0.063581 1.000000
vt 0.533405 0.594274
vt 0.072556 1.000000
vt 0.130569 1.000000
s 1
usemtl m_ea1531d0-b886-4a07-9740-a361db4976c9
f 2/1/1 3/2/2 6/3/3 5/4/4
f 3/5/2 4/6/5 7/7/6 6/8/3
f 7/7/6 4/6/5 1/9/7
f 5/10/4 6/11/3 9/12/8 8/13/9
f 6/14/3 7/7/6 10/15/10 9/16/8
f 10/15/10 7/7/6 1/9/7
f 8/13/9 9/17/8 12/18/11 11/19/12
f 9/20/8 10/15/10 13/21/13 12/22/11
f 13/21/13 10/15/10 1/9/7
f 11/19/12 12/23/11 15/24/14 14/25/15
f 12/26/11 13/21/13 16/27/16 15/28/14
f 16/27/16 13/21/13 1/9/7
f 14/29/15 15/30/14 18/31/17 17/32/18
f 15/33/14 16/34/16 19/35/19 18/36/17
f 19/37/19 16/27/16 1/9/7
f 17/32/18 18/38/17 21/39/20 20/40/21
f 18/36/17 19/35/19 22/41/22 21/42/20
f 22/43/22 19/37/19 1/9/7
f 20/40/21 21/44/20 24/45/23 23/46/24
f 21/42/20 22/41/22 25/47/25 24/48/23
f 25/49/25 22/50/22 1/9/7
f 23/51/24 24/52/23 27/53/26 26/54/27
f 24/55/23 25/56/25 28/57/28 27/58/26
f 28/59/28 25/49/25 1/9/7
f 26/54/27 27/60/26 30/61/29 29/62/30
f 27/58/26 28/57/28 31/63/31 30/64/29
f 31/65/31 28/59/28 1/9/7
f 29/62/30 30/66/29 33/67/32 32/68/33
f 30/64/29 31/63/31 34/69/34 33/70/32
f 34/71/34 31/65/31 1/9/7
f 32/72/33 33/73/32 36/74/35 35/75/36
f 33/70/32 34/69/34 37/76/37 36/77/35
f 37/76/37 34/71/34 1/9/7
f 35/75/36 36/78/35 3/79/2 2/1/1
f 36/77/35 37/76/37 4/6/5 3/80/2
f 4/6/5 37/76/37 1/9/7
f 51/81/38 53/82/39 50/83/40
f 51/81/38 52/84/41 54/85/42 53/86/39
f 52/87/41 38/88/43 39/89/44 54/90/42
f 53/82/39 55/91/45 50/83/40
f 53/86/39 54/85/42 56/92/46 55/93/45
f 54/94/42 39/95/44 40/96/47 56/97/46
f 55/91/45 57/98/48 50/83/40
f 55/93/45 56/92/46 58/99/49 57/100/48
f 56/101/46 40/96/47 41/102/50 58/103/49
f 57/98/48 59/104/51 50/83/40
f 57/100/48 58/99/49 60/105/52 59/106/51
f 58/107/49 41/102/50 42/108/53 60/109/52
f 59/104/51 61/110/54 50/83/40
f 59/111/51 60/112/52 62/113/55 61/114/54
f 60/115/52 42/116/53 43/117/56 62/118/55
f 61/119/54 63/120/57 50/83/40
f 61/114/54 62/113/55 64/121/58 63/122/57
f 62/123/55 43/117/56 44/124/59 64/125/58
f 63/120/57 65/126/60 50/83/40
f 63/122/57 64/121/58 66/127/61 65/128/60
f 64/129/58 44/124/59 45/130/62 66/131/61
f 65/126/60 67/132/63 50/83/40
f 65/126/60 66/133/61 68/134/64 67/132/63
f 66/135/61 45/136/62 46/137/65 68/138/64
f 67/132/63 69/139/66 50/83/40
f 67/132/63 68/140/64 70/141/67 69/139/66
f 68/142/64 46/137/65 47/143/68 70/144/67
f 69/139/66 71/145/69 50/83/40
f 69/139/66 70/146/67 72/147/70 71/145/69
f 70/148/67 47/143/68 48/149/71 72/150/70
f 71/145/69 73/151/72 50/83/40
f 71/145/69 72/152/70 74/153/73 73/151/72
f 72/154/70 48/155/71 49/156/74 74/157/73
f 73/151/72 51/81/38 50/83/40
f 73/151/72 74/158/73 52/84/41 51/81/38
f 74/159/73 49/156/74 38/88/43 52/160/41
f 2/1/1 38/88/43 49/156/74 35/75/36
f 5/4/4 39/89/44 38/88/43 2/1/1
f 8/13/9 40/96/47 39/95/44 5/10/4
f 11/19/12 41/102/50 40/96/47 8/13/9
f 14/25/15 42/108/53 41/102/50 11/19/12
f 17/32/18 43/117/56 42/116/53 14/29/15
f 20/40/21 44/124/59 43/117/56 17/32/18
f 23/46/24 45/130/62 44/124/59 20/40/21
f 26/54/27 46/137/65 45/136/62 23/51/24
f 29/62/30 47/143/68 46/137/65 26/54/27
f 32/68/33 48/149/71 47/143/68 29/62/30
f 35/75/36 49/156/74 48/155/71 32/72/33
o hair
v -0.015625 2.187500 0.062500
v -0.015625 2.187500 -0.000000
v 0.046875 1.875000 -0.000000
v 0.046875 1.875000 -0.062500
v -0.078125 2.187500 0.062500
v -0.078125 2.187500 -0.000000
v -0.015625 1.875000 -0.000000
v -0.015625 1.875000 -0.062500
v -0.015625 2.062500 0.062500
v -0.015625 2.062500 -0.000000
v -0.078125 2.062500 -0.000000
v -0.078125 2.062500 0.062500
vn 0.6396 0.4264 -0.6396
vn 0.6859 0.2430 -0.6859
vn 0.6365 -0.0445 0.7700
vn 0.8260 0.0899 0.5565
vn -0.6396 -0.4264 0.6396
vn -0.6928 -0.2000 0.6928
vn -0.7700 -0.0445 -0.6365
vn -0.5565 0.0899 -0.8260
vn -0.5774 0.5774 0.5774
vn 0.5774 0.5774 0.5774
vn 0.5774 0.5774 -0.5774
vn -0.5774 0.5774 -0.5774
vt 0.546875 0.309964
vt 0.531250 0.359375
vt 0.515625 0.359375
vt 0.531250 0.309964
vt 0.687500 0.544341
vt 0.703125 0.593750
vt 0.687500 0.593750
vt 0.671875 0.544341
vt 0.437500 0.984375
vt 0.453125 0.984375
vt 0.453125 1.000000
vt 0.437500 1.000000
vt 0.656250 0.497464
vt 0.640625 0.546875
vt 0.625000 0.546875
vt 0.640625 0.497464
vt 0.671875 0.278716
vt 0.687500 0.328125
vt 0.671875 0.328125
vt 0.656250 0.278716
vt 0.515625 0.390625
vt 0.531250 0.390625
vt 0.671875 0.359375
vt 0.687500 0.359375
vt 0.687500 0.625000
vt 0.703125 0.625000
vt 0.625000 0.578125
vt 0.640625 0.578125
s 1
usemtl m_ea1531d0-b886-4a07-9740-a361db4976c9
f 78/161/75 84/162/76 83/163/77 77/164/78
f 81/165/79 86/166/80 85/167/81 82/168/82
f 79/169/83 75/170/84 76/171/85 80/172/86
f 77/173/78 83/174/77 86/175/80 81/176/79
f 82/177/82 85/178/81 84/179/76 78/180/75
f 75/181/84 83/163/77 84/162/76 76/182/85
f 76/183/85 84/179/76 85/178/81 80/184/86
f 80/185/86 85/167/81 86/166/80 79/186/83
f 79/187/83 86/175/80 83/174/77 75/188/84
o left_eye
v -0.218750 1.468750 -0.506250
v -0.193630 1.375119 -0.511703
v -0.150120 1.400207 -0.510242
v -0.125000 1.443662 -0.507711
v -0.125000 1.493838 -0.504789
v -0.150120 1.537293 -0.502259
v -0.193630 1.562381 -0.500798
v -0.243870 1.562381 -0.500798
v -0.287380 1.537293 -0.502259
v -0.312500 1.493838 -0.504789
v -0.312500 1.443662 -0.507711
v -0.287380 1.400207 -0.510242
v -0.243870 1.375119 -0.511703
v -0.187500 1.500000 -0.500000
v -0.154006 1.375119 -0.505453
v -0.095994 1.408581 -0.503992
v -0.062500 1.466538 -0.501461
v -0.062500 1.533462 -0.498539
v -0.095994 1.591419 -0.496009
v -0.154006 1.624881 -0.494548
v -0.220994 1.624881 -0.494548
v -0.279006 1.591419 -0.496009
v -0.312500 1.533462 -0.498539
v -0.312500 1.466538 -0.501461
v -0.279006 1.408581 -0.503992
v -0.220994 1.375119 -0.505453
vn -0.0000 0.0581 -0.9983
vn -0.0000 0.0436 -0.9990
vt 0.562500 0.298395
vt 0.568780 0.287513
vt 0.585938 0.304678
vt 0.562500 0.310961
vt 0.568780 0.321842
vt 0.579658 0.328125
vt 0.592217 0.328125
vt 0.603095 0.321842
vt 0.609375 0.310961
vt 0.609375 0.298395
vt 0.603095 0.287513
vt 0.592217 0.281230
vt 0.579658 0.281230
vt 0.437500 0.351002
vt 0.445873 0.336498
vt 0.468750 0.359375
vt 0.437500 0.367748
vt 0.445873 0.382252
vt 0.460377 0.390625
vt 0.477123 0.390625
vt 0.491627 0.382252
vt 0.500000 0.367748
vt 0.500000 0.351002
vt 0.491627 0.336498
vt 0.477123 0.328125
vt 0.460377 0.328125
s 1
usemtl m_ea1531d0-b886-4a07-9740-a361db4976c9
f 90/189/87 89/190/87 87/191/87
f 91/192/87 90/189/87 87/191/87
f 92/193/87 91/192/87 87/191/87
f 93/194/87 92/193/87 87/191/87
f 94/195/87 93/194/87 87/191/87
f 95/196/87 94/195/87 87/191/87
f 96/197/87 95/196/87 87/191/87
f 97/198/87 96/197/87 87/191/87
f 98/199/87 97/198/87 87/191/87
f 99/200/87 98/199/87 87/191/87
f 88/201/87 99/200/87 87/191/87
f 89/190/87 88/201/87 87/191/87
f 103/202/88 102/203/88 100/204/88
f 104/205/88 103/202/88 100/204/88
f 105/206/88 104/205/88 100/204/88
f 106/207/88 105/206/88 100/204/88
f 107/208/88 106/207/88 100/204/88
f 108/209/88 107/208/88 100/204/88
f 109/210/88 108/209/88 100/204/88
f 110/211/88 109/210/88 100/204/88
f 111/212/88 110/211/88 100/204/88
f 112/213/88 111/212/88 100/204/88
f 101/214/88 112/213/88 100/204/88
f 102/203/88 101/214/88 100/204/88
o right_eye
v 0.187500 1.500000 -0.500000
v 0.154006 1.375119 -0.505453
v 0.095994 1.408581 -0.503992
v 0.062500 1.466538 -0.501461
v 0.062500 1.533462 -0.498539
v 0.095994 1.591419 -0.496009
v 0.154006 1.624881 -0.494548
v 0.220994 1.624881 -0.494548
v 0.279006 1.591419 -0.496009
v 0.312500 1.533462 -0.498539
v 0.312500 1.466538 -0.501461
v 0.279006 1.408581 -0.503992
v 0.220994 1.375119 -0.505453
v 0.218750 1.468750 -0.506250
v 0.193630 1.375119 -0.511703
v 0.150120 1.400207 -0.510242
v 0.125000 1.443662 -0.507711
v 0.125000 1.493838 -0.504789
v 0.150120 1.537293 -0.502259
v 0.193630 1.562381 -0.500798
v 0.243870 1.562381 -0.500798
v 0.287380 1.537293 -0.502259
v 0.312500 1.493838 -0.504789
v 0.312500 1.443662 -0.507711
v 0.287380 1.400207 -0.510242
v 0.243870 1.375119 -0.511703
vn -0.0000 0.0436 -0.9990
vn -0.0000 0.0581 -0.9983
vt 0.647877 0.352123
vt 0.656250 0.366627
vt 0.625000 0.375000
vt 0.656250 0.383373
vt 0.647877 0.397877
vt 0.633373 0.406250
vt 0.616627 0.406250
vt 0.602123 0.397877
vt 0.593750 0.383373
vt 0.593750 0.366627
vt 0.602123 0.352123
vt 0.616627 0.343750
vt 0.633373 0.343750
vt 0.696845 0.428138
vt 0.703125 0.439020
vt 0.679688 0.445303
vt 0.703125 0.451586
vt 0.696845 0.462467
vt 0.685967 0.468750
vt 0.673408 0.468750
vt 0.662530 0.462467
vt 0.656250 0.451586
vt 0.656250 0.439020
vt 0.662530 0.428138
vt 0.673408 0.421855
vt 0.685967 0.421855
s 1
usemtl m_ea1531d0-b886-4a07-9740-a361db4976c9
f 115/215/89 116/216/89 113/217/89
f 116/216/89 117/218/89 113/217/89
f 117/218/89 118/219/89 113/217/89
f 118/219/89 119/220/89 113/217/89
f 119/220/89 120/221/89 113/217/89
f 120/221/89 121/222/89 113/217/89
f 121/222/89 122/223/89 113/217/89
f 122/223/89 123/224/89 113/217/89
f 123/224/89 124/225/89 113/217/89
f 124/225/89 125/226/89 113/217/89
f 125/226/89 114/227/89 113/217/89
f 114/227/89 115/215/89 113/217/89
f 128/228/90 129/229/90 126/230/90
f 129/229/90 130/231/90 126/230/90
f 130/231/90 131/232/90 126/230/90
f 131/232/90 132/233/90 126/230/90
f 132/233/90 133/234/90 126/230/90
f 133/234/90 134/235/90 126/230/90
f 134/235/90 135/236/90 126/230/90
f 135/236/90 136/237/90 126/230/90
f 136/237/90 137/238/90 126/230/90
f 137/238/90 138/239/90 126/230/90
f 138/239/90 127/240/90 126/230/90
f 127/240/90 128/228/90 126/230/90
