# Cinnamon model exporter

mtllib deer_tree.mtl
v 0.96671 1.973294 -1.293748
v 0.96671 3.973294 -1.293746
v 0.96671 3.973294 -3.293746
v 0.96671 1.973294 -3.293748
v 1.96671 1.973294 -2.293746
v -0.03329 1.973294 -2.293746
v -0.03329 3.973294 -2.293746
v 1.96671 3.973294 -2.293748
v -2.10465 2.495236 -2.149096
v -2.10465 4.495234 -2.149096
v -2.10465 4.495236 -4.149096
v -2.10465 2.495236 -4.149096
v -1.10465 2.495236 -3.149096
v -3.10465 2.495236 -3.149096
v -3.10465 4.495234 -3.149096
v -1.10465 4.495236 -3.149096
v -0.868912 2.278474 0.151022
v -1.557768 3.858222 -0.863808
v -1.339576 2.851926 -2.57838
v -0.650722 1.272176 -1.563552
v 0.172636 2.125956 -0.793394
v -1.69227 1.424696 -0.61914
v -2.381124 3.004444 -1.633968
v -0.51622 3.705704 -1.80822
v -1.635172 3.64957 -1.171078
v -0.42919 4.342068 -2.608458
v -1.46576 3.312404 -3.974222
v -2.671742 2.619906 -2.536844
v -1.547004 2.350482 -1.722978
v -2.759908 3.918996 -1.984944
v -1.553926 4.611494 -3.422322
v -0.341024 3.04298 -3.160356
v 1.16053 2.710866 0.444368
v 2.263644 4.242598 -0.21664
v 1.63885 3.887146 -2.082998
v 0.535736 2.355412 -1.421988
v 2.39969 2.299006 -0.819314
v 0.39969 2.299006 -0.819314
v 0.39969 4.299006 -0.819314
v 2.39969 4.299006 -0.819314
v 1.720382 2.610042 2.573888
v 3.011874 3.816046 1.637084
v 2.46659 3.034214 -0.121154
v 1.175096 1.82821 0.815648
v 2.466316 2.06513 2.361246
v 0.898302 3.208062 1.876438
v 1.720654 3.579124 0.091486
v 3.288668 2.436192 0.576296
v 2.686672 3.319056 3.005748
v 4.347912 4.428728 3.100144
v 4.42632 4.481292 1.102374
v 2.76508 3.37162 1.007976
v 3.281332 2.513794 2.006784
v 2.170418 4.176884 2.006942
v 3.831658 5.286554 2.101336
v 4.942574 3.623466 2.10118
v 5.38073 4.081096 2.935176
v 6.005278 5.600586 1.794524
v 4.97515 4.862488 0.247254
v 4.350598 3.342998 1.387906
v 5.663908 3.176706 1.885468
v 4.06742 4.247388 2.437614
v 4.691968 5.766878 1.29696
v 6.288456 4.696196 0.744814
v 3.358104 4.44482 1.415454
v 1.691598 3.441832 1.881036
v 0.814298 4.128476 0.220054
v 2.480804 5.131466 -0.24553
v 2.770638 4.020154 2.026276
v 1.746362 5.57412 1.294124
v 1.401766 4.553144 -0.39077
v 2.426042 2.999176 0.341384
v 0.80466 4.333734 0.838178
v 2.4659 5.443408 0.932578
v 2.544308 5.49597 -1.065194
v 0.883068 4.3863 -1.159592
v 1.39932 3.528472 -0.160784
v 0.288406 5.191564 -0.160626
v 1.949646 6.301232 -0.06623
v 3.06056 4.638144 -0.066388
v 1.742862 4.843258 1.33644
v 1.857656 6.29286 2.709566
v 2.468606 7.576788 1.303056
v 2.35381 6.127186 -0.070072
v 2.998802 5.23513 0.817744
v 1.097864 5.735316 0.448624
v 1.212662 7.184916 1.82175
v 3.1136 6.684732 2.190872
v -0.82761 2.23352 -0.504714
v 0.833632 3.343192 -0.410318
v 0.91204 3.395756 -2.408088
v -0.7492 2.286084 -2.502486
v -0.232948 1.428258 -1.503678
v -1.343864 3.091348 -1.50352
v 0.317378 4.201018 -1.409124
v 1.428292 2.53793 -1.409282
v -1.599562 3.219528 3.267532
v -0.970574 2.005872 1.807594
v -1.794578 3.216918 0.445836
v -2.423564 4.430572 1.905774
v -2.866752 3.310168 2.646234
v -1.156374 4.339932 2.527072
v -0.527388 3.126276 1.067134
v -2.237766 2.096514 1.186296
v -2.695724 5.879514 3.274522
v -1.49324 4.805316 2.09125
v -3.063004 3.733626 1.4689
v -4.26549 4.807824 2.652172
v -3.330714 4.692214 3.707078
v -3.630502 5.995124 2.219614
v -2.428016 4.920928 1.036342
v -2.128228 3.618016 2.523808
v -2.036572 5.156892 -0.708212
v -1.085032 3.417618 -0.444588
v -2.409774 2.511944 -1.638244
v -3.361316 4.251218 -1.901866
v -3.277654 4.507412 -0.513568
v -2.120232 4.900702 -2.096508
v -1.168692 3.161426 -1.832886
v -2.326114 2.768136 -0.249948
v -3.515152 6.312178 -0.994638
v -1.96517 5.60431 0.052492
v -1.747192 4.121918 -1.272272
v -3.297176 4.829784 -2.319402
v -4.028666 5.000578 -1.121174
v -2.783662 6.141384 -2.192866
v -1.233678 5.433516 -1.145738
v -2.478682 4.292712 -0.074044
v -1.916684 7.784604 -1.472266
v -1.323838 5.92796 -1.023474
v -3.116762 5.225002 -1.563174
v -3.70961 7.081646 -2.011966
v -3.142524 7.554296 -0.805724
v -2.483768 7.311954 -2.678508
v -1.890922 5.45531 -2.229716
v -2.549678 5.697654 -0.356934
v 2.50114 6.433952 -1.322036
v 3.093986 4.577312 -0.873246
v 1.301062 3.874352 -1.412946
v 0.708216 5.730996 -1.861738
v 1.2753 6.203648 -0.655494
v 1.934056 5.961302 -2.528276
v 2.526902 4.10466 -2.079486
v 1.868148 4.347002 -0.206706
v 0.88503 6.835924 -3.25124
v 2.54236 7.241594 -2.20784
v 2.06695 5.809 -0.895716
v 0.409618 5.40333 -1.93912
v 0.14056 6.787292 -2.049826
v 1.154088 5.451962 -3.140536
v 2.81142 5.857632 -2.097132
v 1.797892 7.192962 -1.006422
v 1.31776 5.835768 -0.393986
v 1.91061 3.979126 0.054804
v 0.117684 3.276168 -0.484896
v -0.475164 5.132812 -0.933688
v 0.091922 5.605462 0.272554
v 0.750678 5.363118 -1.600228
v 1.343524 3.506474 -1.151438
v 0.684768 3.748818 0.721344
v -0.088442 6.038664 -0.268478
v 0.504406 4.182024 0.180312
v -1.28852 3.479064 -0.35939
v -1.881366 5.335708 -0.80818
v -1.31428 5.80836 0.398062
v -0.655526 5.566014 -1.47472
v -0.06268 3.709372 -1.02593
v -0.721436 3.951714 0.84685
v 1.18971 3.197384 2.457696
v 0.487804 1.563426 1.542544
v -1.119782 2.590462 0.941816
v -0.41787 4.224422 1.85697
v -0.094444 3.44852 2.994236
v 0.866286 3.973284 1.32043
v 0.164376 2.339328 0.405278
v -0.796354 1.814564 2.079082
v 1.799836 4.233308 3.454762
v 1.097926 2.59935 2.539608
v -0.509658 3.626386 1.93888
v 0.192252 5.260346 2.854034
v 0.515682 4.484446 3.9913
v 1.47641 5.009208 2.317496
v 0.774498 3.375252 1.402342
v -0.18623 2.850486 3.076144
v -1.202542 4.611436 2.57058
v -0.651436 2.692898 2.446094
v -1.111966 2.686894 0.499848
v -1.663072 4.605432 0.624334
v -2.366106 4.325954 1.819172
v -0.499508 4.890914 1.375746
v 0.051598 2.972376 1.251256
v -1.815 2.407418 1.694684
v -2.80177 6.232654 0.768608
v -2.236684 4.315032 0.827048
v -3.10064 4.006286 -0.950102
v -3.665724 5.923904 -1.00854
v -4.09023 5.83984 0.337836
v -2.377262 6.316718 -0.577768
v -1.812178 4.399096 -0.519328
v -3.525146 3.92222 0.396276
v 2.84778 5.724798 4.549306
v 2.145874 4.09084 3.634152
v 0.53829 5.117878 3.033426
v 1.240198 6.751836 3.94858
v 1.563626 5.975934 5.085844
v 2.524354 6.500698 3.41204
v 1.822446 4.866742 2.496886
v 0.861716 4.341978 4.170692
v 3.6839 2.237726 1.246896
v 4.679874 3.90906 1.710234
v 4.170702 4.701584 -0.054034
v 3.174726 3.030252 -0.517372
v 4.258286 2.253678 -0.04532
v 2.600342 3.014302 0.774846
v 3.596316 4.685636 1.238184
v 5.25426 3.92501 0.418016
v 0.509508 3.921824 1.435196
v 0.624304 5.371426 2.808322
v 1.235252 6.655352 1.401812
v 1.120456 5.20575 0.028684
v 1.76545 4.313694 0.9165
v -0.135488 4.81388 0.54738
v -0.02069 6.263482 1.920506
v 1.880246 5.763296 2.289628
v -2.308768 4.394712 1.531384
v -1.66407 2.502042 1.484852
v -2.038276 2.422838 -0.478232
v -2.682976 4.315508 -0.4317
v -3.423818 4.034356 0.73967
v -1.567928 4.675862 0.360014
v -0.923228 2.783194 0.313482
v -2.779118 2.141686 0.693138
v -4.240492 4.921824 -0.439804
v -4.125696 6.371426 0.933324
v -3.514746 7.655352 -0.473188
v -3.629544 6.20575 -1.846316
v -2.98455 5.313694 -0.9585
v -4.885488 5.81388 -1.32762
v -4.77069 7.263482 0.045506
v -2.869752 6.763296 0.414628
vt 1 0
vt 0 0
vt 1 1
vt 0 1
vn -1 0 0
vn 0 0 -1
vn -0.932452 -0.35063 0.087126
vn 0.109095 -0.503148 -0.857286
vn -0.606452 0.784258 -0.130983
vn -0.518284 -0.514832 -0.682883
vn -0.773429 0.61795 0.141228
vn -0.713217 0.695394 -0.088029
vn -0.465046 -0.799378 -0.380431
vn -0.555458 0.831545 0.000079
vn 0.039203 0.026282 -0.998886
vn -0.798244 0.535341 0.276073
vn -0.515064 -0.36905 -0.773635
vn 0.336564 -0.794124 -0.506055
vn -0.841444 -0.368375 0.395313
vn -0.555459 0.831544 0.000078
vn -0.950469 0.250093 -0.184562
vn 0.305474 0.641964 -0.703255
vn 0.855189 0.514881 -0.059581
vn -0.412003 0.605523 -0.680879
vn -0.149893 0.651456 -0.743732
vn -0.784881 -0.535846 -0.311175
vn 0.578713 0.196644 -0.791468
vn -0.662372 -0.452838 -0.596826
vn 0.622504 0.570403 -0.535845
vn 0.108988 -0.741196 -0.662382
vn 0.329378 -0.121173 -0.936391
vn -0.896462 -0.351478 -0.26985
vn 0.329378 -0.121172 -0.936391
vn -0.896462 -0.351479 -0.26985
vn 0.506764 -0.667666 -0.545355
vn -0.237705 -0.716297 0.656061
vn 0.329377 -0.121171 -0.936391
vn 0.329378 -0.121171 -0.936391
vn -0.896462 -0.351478 -0.269849
vn 0.480364 0.262383 -0.836902
vn -0.803791 0.513519 -0.300363
vn 0.480365 0.262382 -0.836902
vn -0.803791 0.51352 -0.300363
vn 0.9333 0.282479 -0.221713
vn -0.230265 -0.003 -0.973123
vn 0.856484 0.238438 -0.457801
vn -0.431978 -0.154375 -0.888574
vn 0.480365 0.262383 -0.836902
vn -0.803792 0.513518 -0.300363
vn -0.828972 0.380312 0.410083
vn -0.254586 0.396263 -0.882135
vn -0.950469 0.250093 -0.184561
vn 0.305474 0.641963 -0.703256
vn 0.927946 0.320752 -0.189828
vn -0.187104 -0.039602 -0.981542
vn 1 0 0
vn 0.000001 0.000001 1
vn 0 0 1
vn 0.932453 0.350629 -0.087127
vn -0.109096 0.503147 0.857287
vn 0.606451 -0.784258 0.130983
vn 0.518285 0.514832 0.682883
vn 0.77343 -0.617949 -0.141228
vn 0.713216 -0.695395 0.088028
vn 0.465046 0.799378 0.380431
vn 0.555458 -0.831545 -0.000079
vn -0.039204 -0.026281 0.998886
vn 0.798243 -0.535343 -0.276073
vn 0.515064 0.36905 0.773635
vn -0.336565 0.794124 0.506055
vn 0.841444 0.368374 -0.395313
vn 0.555457 -0.831545 -0.000079
vn -0.039203 -0.026282 0.998886
vn 0.950469 -0.250093 0.18456
vn -0.305474 -0.641964 0.703255
vn 0.555458 -0.831545 -0.000078
vn -0.855189 -0.51488 0.059581
vn 0.412003 -0.605524 0.680878
vn 0.149893 -0.651456 0.743732
vn 0.784881 0.535846 0.311175
vn -0.578711 -0.196645 0.791469
vn 0.662372 0.452837 0.596827
vn -0.622503 -0.570402 0.535847
vn -0.108989 0.741197 0.662381
vn -0.329377 0.121172 0.936391
vn 0.896462 0.351479 0.26985
vn -0.329378 0.121172 0.93639
vn 0.896462 0.351478 0.26985
vn -0.506765 0.667665 0.545355
vn 0.237705 0.716297 -0.656061
vn -0.329378 0.121172 0.936391
vn -0.329378 0.121171 0.936391
vn 0.896462 0.351477 0.269851
vn -0.480365 -0.262381 0.836902
vn 0.803791 -0.513519 0.300364
vn -0.480365 -0.262382 0.836902
vn 0.803791 -0.513519 0.300363
vn -0.9333 -0.282479 0.221713
vn 0.230266 0.003002 0.973123
vn -0.856484 -0.238438 0.457801
vn 0.431978 0.154375 0.888574
vn -0.480365 -0.262383 0.836902
vn 0.828971 -0.380312 -0.410084
vn 0.254587 -0.396263 0.882135
vn -0.305475 -0.641964 0.703255
vn -0.927945 -0.320753 0.189829
vn 0.187103 0.039601 0.981542
g leaves
usemtl leaves
f 1/3/1 2/1/1 3/2/1 4/4/1
f 5/3/2 6/1/2 7/2/2 8/4/2
f 9/3/1 10/1/1 11/2/1 12/4/1
f 13/3/2 14/1/2 15/2/2 16/4/2
f 17/3/3 18/1/3 19/2/3 20/4/3
f 21/3/4 22/1/4 23/2/4 24/4/4
f 25/3/5 26/1/5 27/2/5 28/4/5
f 29/3/6 30/1/6 31/2/6 32/4/6
f 33/3/7 34/1/7 35/2/7 36/4/7
f 37/3/2 38/1/2 39/2/2 40/4/2
f 41/3/8 42/1/8 43/2/8 44/4/8
f 45/3/9 46/1/9 47/2/9 48/4/9
f 49/3/10 50/1/10 51/2/10 52/4/10
f 53/3/11 54/1/11 55/2/11 56/4/11
f 57/3/12 58/1/12 59/2/12 60/4/12
f 61/3/13 62/1/13 63/2/13 64/4/13
f 65/3/14 66/1/14 67/2/14 68/4/14
f 69/3/15 70/1/15 71/2/15 72/4/15
f 73/3/16 74/1/16 75/2/16 76/4/16
f 77/3/11 78/1/11 79/2/11 80/4/11
f 81/3/17 82/1/17 83/2/17 84/4/17
f 85/3/18 86/1/18 87/2/18 88/4/18
f 89/3/10 90/1/10 91/2/10 92/4/10
f 93/3/11 94/1/11 95/2/11 96/4/11
f 97/3/19 98/1/19 99/2/19 100/4/19
f 101/3/20 102/1/20 103/2/20 104/4/20
f 105/3/21 106/1/21 107/2/21 108/4/21
f 109/3/22 110/1/22 111/2/22 112/4/22
f 113/3/23 114/1/23 115/2/23 116/4/23
f 117/3/24 118/1/24 119/2/24 120/4/24
f 121/3/25 122/1/25 123/2/25 124/4/25
f 125/3/26 126/1/26 127/2/26 128/4/26
f 129/3/27 130/1/27 131/2/27 132/4/27
f 133/3/28 134/1/28 135/2/28 136/4/28
f 137/3/29 138/1/29 139/2/29 140/4/29
f 141/3/30 142/1/30 143/2/30 144/4/30
f 145/3/31 146/1/31 147/2/31 148/4/31
f 149/3/32 150/1/32 151/2/32 152/4/32
f 153/3/33 154/1/33 155/2/33 156/4/33
f 157/3/28 158/1/28 159/2/28 160/4/28
f 161/3/34 162/1/34 163/2/34 164/4/34
f 165/3/35 166/1/35 167/2/35 168/4/35
f 169/3/36 170/1/36 171/2/36 172/4/36
f 173/3/37 174/1/37 175/2/37 176/4/37
f 177/3/38 178/1/38 179/2/38 180/4/38
f 181/3/39 182/1/39 183/2/39 184/4/39
f 185/3/40 186/1/40 187/2/40 188/4/40
f 189/3/41 190/1/41 191/2/41 192/4/41
f 193/3/42 194/1/42 195/2/42 196/4/42
f 197/3/43 198/1/43 199/2/43 200/4/43
f 201/3/44 202/1/44 203/2/44 204/4/44
f 205/3/45 206/1/45 207/2/45 208/4/45
f 209/3/46 210/1/46 211/2/46 212/4/46
f 213/3/47 214/1/47 215/2/47 216/4/47
f 217/3/48 218/1/48 219/2/48 220/4/48
f 221/3/49 222/1/49 223/2/49 224/4/49
f 225/3/50 226/1/50 227/2/50 228/4/50
f 229/3/51 230/1/51 231/2/51 232/4/51
f 1/3/52 4/4/52 3/2/52 2/1/52
f 5/3/53 8/4/53 7/2/53 6/1/53
f 9/3/52 12/4/52 11/2/52 10/1/52
f 13/3/54 16/4/54 15/2/54 14/1/54
f 17/3/55 20/4/55 19/2/55 18/1/55
f 21/3/56 24/4/56 23/2/56 22/1/56
f 25/3/57 28/4/57 27/2/57 26/1/57
f 29/3/58 32/4/58 31/2/58 30/1/58
f 33/3/59 36/4/59 35/2/59 34/1/59
f 37/3/54 40/4/54 39/2/54 38/1/54
f 41/3/60 44/4/60 43/2/60 42/1/60
f 45/3/61 48/4/61 47/2/61 46/1/61
f 49/3/62 52/4/62 51/2/62 50/1/62
f 53/3/63 56/4/63 55/2/63 54/1/63
f 57/3/64 60/4/64 59/2/64 58/1/64
f 61/3/65 64/4/65 63/2/65 62/1/65
f 65/3/66 68/4/66 67/2/66 66/1/66
f 69/3/67 72/4/67 71/2/67 70/1/67
f 73/3/68 76/4/68 75/2/68 74/1/68
f 77/3/69 80/4/69 79/2/69 78/1/69
f 81/3/70 84/4/70 83/2/70 82/1/70
f 85/3/71 88/4/71 87/2/71 86/1/71
f 89/3/72 92/4/72 91/2/72 90/1/72
f 93/3/69 96/4/69 95/2/69 94/1/69
f 97/3/73 100/4/73 99/2/73 98/1/73
f 101/3/74 104/4/74 103/2/74 102/1/74
f 105/3/75 108/4/75 107/2/75 106/1/75
f 109/3/76 112/4/76 111/2/76 110/1/76
f 113/3/77 116/4/77 115/2/77 114/1/77
f 117/3/78 120/4/78 119/2/78 118/1/78
f 121/3/79 124/4/79 123/2/79 122/1/79
f 125/3/80 128/4/80 127/2/80 126/1/80
f 129/3/81 132/4/81 131/2/81 130/1/81
f 133/3/82 136/4/82 135/2/82 134/1/82
f 137/3/83 140/4/83 139/2/83 138/1/83
f 141/3/84 144/4/84 143/2/84 142/1/84
f 145/3/85 148/4/85 147/2/85 146/1/85
f 149/3/86 152/4/86 151/2/86 150/1/86
f 153/3/87 156/4/87 155/2/87 154/1/87
f 157/3/84 160/4/84 159/2/84 158/1/84
f 161/3/88 164/4/88 163/2/88 162/1/88
f 165/3/89 168/4/89 167/2/89 166/1/89
f 169/3/90 172/4/90 171/2/90 170/1/90
f 173/3/91 176/4/91 175/2/91 174/1/91
f 177/3/92 180/4/92 179/2/92 178/1/92
f 181/3/93 184/4/93 183/2/93 182/1/93
f 185/3/94 188/4/94 187/2/94 186/1/94
f 189/3/95 192/4/95 191/2/95 190/1/95
f 193/3/96 196/4/96 195/2/96 194/1/96
f 197/3/97 200/4/97 199/2/97 198/1/97
f 201/3/98 204/4/98 203/2/98 202/1/98
f 205/3/93 208/4/93 207/2/93 206/1/93
f 209/3/99 212/4/99 211/2/99 210/1/99
f 213/3/100 216/4/100 215/2/100 214/1/100
f 217/3/70 220/4/70 219/2/70 218/1/70
f 221/3/101 224/4/101 223/2/101 222/1/101
f 225/3/102 228/4/102 227/2/102 226/1/102
f 229/3/103 232/4/103 231/2/103 230/1/103
f 233/3/48 234/1/48 235/2/48 236/4/48
f 237/3/49 238/1/49 239/2/49 240/4/49
f 233/3/70 236/4/70 235/2/70 234/1/70
f 237/3/101 240/4/101 239/2/101 238/1/101
