# Cinnamon model exporter

mtllib deer_tree.mtl
v 0.159756 0.000088 0.129764
v -0.085672 1.125048 0.132192
v -0.20111 0.000684 0.045446
v -0.715786 2.250544 -0.130366
v -0.572372 2.252788 -0.410106
v -1.159336 2.42238 -1.038316
v -1.268374 2.42321 -0.856076
v 0.043122 1.341326 -0.15744
v 0.225862 1.409968 0.101208
v 0.015418 -0.000568 -0.210328
v -0.678036 1.99598 -0.27942
v -2.693546 4.851136 -1.212796
v -3.081222 5.952198 -1.24903
v -2.901644 5.466546 -1.16527
v -3.516462 6.64302 -1.170172
v -3.646756 6.953396 -1.146282
v -3.657 6.931312 -1.11177
v 0.08851 2.02035 -0.649574
v -0.00701 1.256446 -0.107966
v 0.002922 1.414702 0.132444
v 0.316754 1.942322 -0.489286
v 0.219512 1.89676 -0.80456
v 0.369684 1.899394 -0.717872
v 0.168038 1.231748 -0.008868
v 0.908442 3.875448 -0.249972
v 0.920652 3.586888 -0.129154
v 0.938328 4.378952 -0.320234
v 0.8367 3.807074 -0.129446
v 0.629936 5.9503 -1.18121
v 0.714164 5.251534 -0.977922
v 0.651974 5.464632 -0.943602
v 0.019488 1.345214 -0.18223
v 0.78583 2.113508 0.141632
v 0.103022 1.185672 0.097558
v 0.60261 2.270364 0.128564
v 0.55723 2.21936 0.360736
v -0.134504 1.373134 0.110772
v 0.695416 2.028434 0.34369
v 1.748712 2.839262 1.065984
v 3.333298 3.85942 0.971808
v 1.807778 2.738202 1.05248
v 1.880926 2.787262 1.225548
v 1.755864 2.84254 1.209978
v 3.461322 4.10596 1.02525
v 4.567102 4.19653 0.934046
v 4.587678 4.155082 0.85641
v 5.118166 4.471694 1.262866
v 5.094502 4.382318 1.169548
v 4.833372 4.170092 0.944878
v 5.683374 5.401586 2.300792
v -0.097498 1.369776 -0.144024
v -0.142692 2.24913 0.536342
v 0.178084 1.32483 0.039944
v -0.476894 2.278986 0.53394
v -0.33456 2.361064 0.476058
v -0.360182 2.129128 0.705146
v -0.073968 1.18989 0.135338
v 0.328592 3.196948 1.914456
v 0.574078 3.487124 1.98625
v 1.040876 4.545084 2.734716
v 0.545436 3.218586 2.01776
v 0.906268 4.598846 2.711638
v 0.934768 4.52366 2.837108
v 1.861182 5.663094 3.779988
v -1.190128 2.96157 0.147062
v -0.515366 2.207348 -0.29984
v -0.664762 2.100264 -0.273816
v -1.829204 3.648662 0.541668
v -1.57075 3.298018 0.472672
v -0.555634 2.12081 -0.181674
v -1.778852 3.913466 0.594054
v -1.701482 4.135762 0.854
v -1.798828 5.120728 1.533628
v 0.275362 1.926466 -0.626006
v 0.525624 2.258682 -1.60061
v 0.311708 2.067748 -0.587046
v 0.159906 2.0349 -0.629574
v 0.47745 2.282686 -1.78204
v 0.434814 2.356554 -1.70424
v 1.006338 2.571276 -2.1323
v 1.077404 2.73351 -2.239454
v 1.089412 2.675582 -2.279508
v 2.251374 3.880144 -2.673532
v 1.007658 2.887018 -0.318922
v 0.720062 2.064466 0.209536
v 0.591384 2.183984 0.272232
v 1.178192 3.075906 -0.31216
v 1.893532 6.497084 -1.596362
v 1.24465 3.268944 -0.59189
v 1.984626 6.556314 -1.637284
v 1.819272 6.718194 -1.830966
v -1.685846 3.19223 1.35752
v -0.233472 2.357888 0.562382
v -0.335102 2.195364 0.579784
v -1.577676 3.08194 1.440324
v -0.222134 2.246258 0.720726
v -1.47252 3.12558 1.354372
v -2.378948 4.32221 1.864012
v -2.407656 4.25669 1.928712
v -2.776516 4.599478 2.01729
v -3.417352 5.699548 2.697448
v -1.156978 2.378134 -0.987444
v -1.622836 2.598504 -1.692388
v -1.26949 2.409612 -0.907164
v -1.833132 2.679784 -1.82671
v -1.690796 2.511644 -1.710806
v -2.300002 3.314882 -2.697188
v -2.532532 3.443862 -2.933758
v -2.561572 3.948292 -4.197676
v -2.55335 3.512216 -2.988126
v 0.791504 3.809052 -0.14665
v 1.928056 5.92803 1.834002
v 0.851476 3.89621 -0.287128
v 0.958356 3.796894 -0.222548
v 1.465092 5.06158 0.893614
v 2.007528 5.87823 1.670282
v 1.740384 2.793896 1.127234
v 2.308872 3.65298 2.38248
v 1.829406 2.830188 1.071956
v 2.307106 4.043974 2.56566
v 2.171882 3.545532 2.27217
v -2.780784 4.962216 0.154754
v -1.751506 3.710124 0.611936
v -1.740646 3.700248 0.563324
v -2.636892 4.704776 0.152526
v -3.70894 6.376152 -0.419176
v -3.79211 6.337184 -0.430266
v -4.248664 6.946952 -0.692336
v 0.515348 2.3088 -1.762326
v -0.20534 3.327326 -3.023556
v 0.48421 2.349534 -1.713274
v -0.21783 3.321634 -2.901168
v -0.209048 3.293194 -2.958096
v 0.44936 2.27082 -1.749462
v 4.797442 4.141608 1.023446
v 5.853878 4.191722 0.26171
v 4.763772 4.264496 0.973852
v 4.7721 4.200636 0.98475
v 5.831984 4.141336 0.311278
v -1.306354 2.255378 -1.022336
v -4.15066 7.603202 -1.160084
v -4.152974 7.601994 -1.165114
v -4.148422 7.604188 -1.16488
v 3.43614 3.970446 1.099686
v 0.732578 2.171896 0.351754
v -3.35749 5.681396 2.547626
v -1.240104 2.302866 -0.956286
v 1.816546 2.739188 1.132666
v -1.72277 3.700674 0.520796
v -3.308434 5.872866 -0.152368
v -4.008884 6.56214 -0.559494
v 0.96671 1.973294 -1.293748
v 0.96671 3.973294 -1.293746
v 0.96671 3.973294 -3.293746
v 0.96671 1.973294 -3.293748
v 1.96671 1.973294 -2.293746
v -0.03329 1.973294 -2.293746
v -0.03329 3.973294 -2.293746
v 1.96671 3.973294 -2.293748
v -2.10465 2.495236 -2.149096
v -2.10465 4.495234 -2.149096
v -2.10465 4.495236 -4.149096
v -2.10465 2.495236 -4.149096
v -1.10465 2.495236 -3.149096
v -3.10465 2.495236 -3.149096
v -3.10465 4.495234 -3.149096
v -1.10465 4.495236 -3.149096
v -0.868912 2.278474 0.151022
v -1.557768 3.858222 -0.863808
v -1.339576 2.851926 -2.57838
v -0.650722 1.272176 -1.563552
v 0.172636 2.125956 -0.793394
v -1.69227 1.424696 -0.61914
v -2.381124 3.004444 -1.633968
v -0.51622 3.705704 -1.80822
v -1.635172 3.64957 -1.171078
v -0.42919 4.342068 -2.608458
v -1.46576 3.312404 -3.974222
v -2.671742 2.619906 -2.536844
v -1.547004 2.350482 -1.722978
v -2.759908 3.918996 -1.984944
v -1.553926 4.611494 -3.422322
v -0.341024 3.04298 -3.160356
v 1.16053 2.710866 0.444368
v 2.263644 4.242598 -0.21664
v 1.63885 3.887146 -2.082998
v 0.535736 2.355412 -1.421988
v 2.39969 2.299006 -0.819314
v 0.39969 2.299006 -0.819314
v 0.39969 4.299006 -0.819314
v 2.39969 4.299006 -0.819314
v 1.720382 2.610042 2.573888
v 3.011874 3.816046 1.637084
v 2.46659 3.034214 -0.121154
v 1.175096 1.82821 0.815648
v 2.466316 2.06513 2.361246
v 0.898302 3.208062 1.876438
v 1.720654 3.579124 0.091486
v 3.288668 2.436192 0.576296
v 2.686672 3.319056 3.005748
v 4.347912 4.428728 3.100144
v 4.42632 4.481292 1.102374
v 2.76508 3.37162 1.007976
v 3.281332 2.513794 2.006784
v 2.170418 4.176884 2.006942
v 3.831658 5.286554 2.101336
v 4.942574 3.623466 2.10118
v 5.38073 4.081096 2.935176
v 6.005278 5.600586 1.794524
v 4.97515 4.862488 0.247254
v 4.350598 3.342998 1.387906
v 5.663908 3.176706 1.885468
v 4.06742 4.247388 2.437614
v 4.691968 5.766878 1.29696
v 6.288456 4.696196 0.744814
v 3.358104 4.44482 1.415454
v 1.691598 3.441832 1.881036
v 0.814298 4.128476 0.220054
v 2.480804 5.131466 -0.24553
v 2.770638 4.020154 2.026276
v 1.746362 5.57412 1.294124
v 1.401766 4.553144 -0.39077
v 2.426042 2.999176 0.341384
v 0.80466 4.333734 0.838178
v 2.4659 5.443408 0.932578
v 2.544308 5.49597 -1.065194
v 0.883068 4.3863 -1.159592
v 1.39932 3.528472 -0.160784
v 0.288406 5.191564 -0.160626
v 1.949646 6.301232 -0.06623
v 3.06056 4.638144 -0.066388
v 1.742862 4.843258 1.33644
v 1.857656 6.29286 2.709566
v 2.468606 7.576788 1.303056
v 2.35381 6.127186 -0.070072
v 2.998802 5.23513 0.817744
v 1.097864 5.735316 0.448624
v 1.212662 7.184916 1.82175
v 3.1136 6.684732 2.190872
v -0.82761 2.23352 -0.504714
v 0.833632 3.343192 -0.410318
v 0.91204 3.395756 -2.408088
v -0.7492 2.286084 -2.502486
v -0.232948 1.428258 -1.503678
v -1.343864 3.091348 -1.50352
v 0.317378 4.201018 -1.409124
v 1.428292 2.53793 -1.409282
v -1.599562 3.219528 3.267532
v -0.970574 2.005872 1.807594
v -1.794578 3.216918 0.445836
v -2.423564 4.430572 1.905774
v -2.866752 3.310168 2.646234
v -1.156374 4.339932 2.527072
v -0.527388 3.126276 1.067134
v -2.237766 2.096514 1.186296
v -2.695724 5.879514 3.274522
v -1.49324 4.805316 2.09125
v -3.063004 3.733626 1.4689
v -4.26549 4.807824 2.652172
v -3.330714 4.692214 3.707078
v -3.630502 5.995124 2.219614
v -2.428016 4.920928 1.036342
v -2.128228 3.618016 2.523808
v -2.036572 5.156892 -0.708212
v -1.085032 3.417618 -0.444588
v -2.409774 2.511944 -1.638244
v -3.361316 4.251218 -1.901866
v -3.277654 4.507412 -0.513568
v -2.120232 4.900702 -2.096508
v -1.168692 3.161426 -1.832886
v -2.326114 2.768136 -0.249948
v -3.515152 6.312178 -0.994638
v -1.96517 5.60431 0.052492
v -1.747192 4.121918 -1.272272
v -3.297176 4.829784 -2.319402
v -4.028666 5.000578 -1.121174
v -2.783662 6.141384 -2.192866
v -1.233678 5.433516 -1.145738
v -2.478682 4.292712 -0.074044
v -1.916684 7.784604 -1.472266
v -1.323838 5.92796 -1.023474
v -3.116762 5.225002 -1.563174
v -3.70961 7.081646 -2.011966
v -3.142524 7.554296 -0.805724
v -2.483768 7.311954 -2.678508
v -1.890922 5.45531 -2.229716
v -2.549678 5.697654 -0.356934
v 2.50114 6.433952 -1.322036
v 3.093986 4.577312 -0.873246
v 1.301062 3.874352 -1.412946
v 0.708216 5.730996 -1.861738
v 1.2753 6.203648 -0.655494
v 1.934056 5.961302 -2.528276
v 2.526902 4.10466 -2.079486
v 1.868148 4.347002 -0.206706
v 0.88503 6.835924 -3.25124
v 2.54236 7.241594 -2.20784
v 2.06695 5.809 -0.895716
v 0.409618 5.40333 -1.93912
v 0.14056 6.787292 -2.049826
v 1.154088 5.451962 -3.140536
v 2.81142 5.857632 -2.097132
v 1.797892 7.192962 -1.006422
v 1.31776 5.835768 -0.393986
v 1.91061 3.979126 0.054804
v 0.117684 3.276168 -0.484896
v -0.475164 5.132812 -0.933688
v 0.091922 5.605462 0.272554
v 0.750678 5.363118 -1.600228
v 1.343524 3.506474 -1.151438
v 0.684768 3.748818 0.721344
v -0.088442 6.038664 -0.268478
v 0.504406 4.182024 0.180312
v -1.28852 3.479064 -0.35939
v -1.881366 5.335708 -0.80818
v -1.31428 5.80836 0.398062
v -0.655526 5.566014 -1.47472
v -0.06268 3.709372 -1.02593
v -0.721436 3.951714 0.84685
v 1.18971 3.197384 2.457696
v 0.487804 1.563426 1.542544
v -1.119782 2.590462 0.941816
v -0.41787 4.224422 1.85697
v -0.094444 3.44852 2.994236
v 0.866286 3.973284 1.32043
v 0.164376 2.339328 0.405278
v -0.796354 1.814564 2.079082
v 1.799836 4.233308 3.454762
v 1.097926 2.59935 2.539608
v -0.509658 3.626386 1.93888
v 0.192252 5.260346 2.854034
v 0.515682 4.484446 3.9913
v 1.47641 5.009208 2.317496
v 0.774498 3.375252 1.402342
v -0.18623 2.850486 3.076144
v -1.202542 4.611436 2.57058
v -0.651436 2.692898 2.446094
v -1.111966 2.686894 0.499848
v -1.663072 4.605432 0.624334
v -2.366106 4.325954 1.819172
v -0.499508 4.890914 1.375746
v 0.051598 2.972376 1.251256
v -1.815 2.407418 1.694684
v -2.80177 6.232654 0.768608
v -2.236684 4.315032 0.827048
v -3.10064 4.006286 -0.950102
v -3.665724 5.923904 -1.00854
v -4.09023 5.83984 0.337836
v -2.377262 6.316718 -0.577768
v -1.812178 4.399096 -0.519328
v -3.525146 3.92222 0.396276
v 2.84778 5.724798 4.549306
v 2.145874 4.09084 3.634152
v 0.53829 5.117878 3.033426
v 1.240198 6.751836 3.94858
v 1.563626 5.975934 5.085844
v 2.524354 6.500698 3.41204
v 1.822446 4.866742 2.496886
v 0.861716 4.341978 4.170692
v 3.6839 2.237726 1.246896
v 4.679874 3.90906 1.710234
v 4.170702 4.701584 -0.054034
v 3.174726 3.030252 -0.517372
v 4.258286 2.253678 -0.04532
v 2.600342 3.014302 0.774846
v 3.596316 4.685636 1.238184
v 5.25426 3.92501 0.418016
v 0.509508 3.921824 1.435196
v 0.624304 5.371426 2.808322
v 1.235252 6.655352 1.401812
v 1.120456 5.20575 0.028684
v 1.76545 4.313694 0.9165
v -0.135488 4.81388 0.54738
v -0.02069 6.263482 1.920506
v 1.880246 5.763296 2.289628
v -2.308768 4.394712 1.531384
v -1.66407 2.502042 1.484852
v -2.038276 2.422838 -0.478232
v -2.682976 4.315508 -0.4317
v -3.423818 4.034356 0.73967
v -1.567928 4.675862 0.360014
v -0.923228 2.783194 0.313482
v -2.779118 2.141686 0.693138
v -4.240492 4.921824 -0.439804
v -4.125696 6.371426 0.933324
v -3.514746 7.655352 -0.473188
v -3.629544 6.20575 -1.846316
v -2.98455 5.313694 -0.9585
v -4.885488 5.81388 -1.32762
v -4.77069 7.263482 0.045506
v -2.869752 6.763296 0.414628
vt 1 0
vt 0.5 1
vt 0 0
vt 1 1
vt 0 1
vn -0.227303 -0.051689 0.972451
vn 0.177255 0.9792 0.098728
vn 0.174676 0.97953 0.100051
vn 0.815965 0.005938 -0.578071
vn -0.937468 0.121417 -0.326209
vn 0.729303 0.325688 -0.601701
vn 0.590105 0.746054 0.308513
vn -0.192786 -0.380868 -0.904308
vn 0.137894 0.015962 -0.990318
vn -0.395324 -0.202861 0.89586
vn -0.459138 -0.190216 -0.867762
vn 0.782533 0.392413 0.483377
vn -0.174143 0.00269 -0.984717
vn -0.994126 0.104605 -0.027789
vn -0.148145 0.789678 0.595367
vn 0.35156 -0.729388 -0.586855
vn -0.828687 -0.251056 -0.500249
vn -0.522782 0.393911 -0.755998
vn 0.881074 -0.384006 0.276132
vn 0.501447 0.192309 0.843545
vn 0.934623 -0.102978 -0.340404
vn -0.465114 0.353431 0.811637
vn -0.651548 -0.424558 -0.628678
vn -0.914049 -0.210961 -0.346425
vn 0.710177 -0.49904 -0.496597
vn 0.223288 0.181022 -0.957796
vn -0.772519 0.634887 -0.011522
vn -0.138236 -0.186885 0.972607
vn 0.798278 -0.592581 0.107703
vn -0.104838 0.071272 -0.991932
vn -0.408203 -0.911968 0.041036
vn -0.466943 0.65058 0.598924
vn -0.11126 0.864126 -0.490824
vn -0.134075 0.858989 -0.494128
vn 0.256964 0.535493 -0.804498
vn 0.051297 -0.755074 0.65363
vn 0.147777 0.69528 -0.703383
vn -0.115309 0.770224 -0.627262
vn 0.527267 0.536746 -0.658705
vn -0.521801 0.359218 -0.773748
vn -0.879232 -0.412504 0.238309
vn 0.659873 -0.164707 0.733102
vn -0.846428 -0.053986 0.52976
vn 0.514178 0.509959 -0.689611
vn 0.917342 -0.141505 -0.372103
vn 0.321931 0.448016 -0.834052
vn 0.6396 -0.536461 0.550565
vn -0.844348 0.352832 0.403219
vn -0.332567 0.242489 -0.911372
vn -0.246576 0.299913 -0.921549
vn -0.392773 -0.681759 0.617199
vn 0.763426 0.368806 0.530249
vn 0.772499 0.385751 0.504422
vn -0.309185 0.240796 -0.920012
vn 0.761151 0.363329 -0.537253
vn -0.914887 0.238415 -0.325792
vn 0.111238 -0.55693 0.823076
vn 0.64286 0.477049 -0.599295
vn 0.94753 -0.284146 0.146452
vn -0.244233 0.961032 0.129492
vn 0.362084 -0.906748 -0.216109
vn -0.928104 -0.217177 -0.302419
vn 0.486622 0.32297 0.81172
vn 0.102231 -0.837967 -0.53606
vn 0.69757 -0.708298 -0.108213
vn -0.610469 -0.265883 -0.746079
vn -0.722068 0.642744 0.255927
vn -0.468474 0.394656 0.790429
vn 0.97692 -0.187168 0.102933
vn -0.690783 -0.084591 -0.718097
vn 0.536741 -0.363028 -0.761656
vn -0.76874 0.325777 0.550371
vn -0.13869 0.698406 0.702135
vn -0.403867 0.15603 -0.901413
vn -0.247585 -0.830813 0.49845
vn 0.560319 0.221678 0.798061
vn 0.745271 0.273798 0.607952
vn 0.063962 0.551501 -0.831719
vn 0.322262 0.943105 0.081855
vn 0.309391 0.946804 0.088537
vn 0.69273 -0.417269 -0.588228
vn -0.818874 -0.435384 0.374014
vn 0.638421 -0.354658 -0.683108
vn 0.414824 -0.563088 -0.71474
vn -0.784952 -0.615461 0.071122
vn 0.327178 0.889661 0.318523
vn -0.859365 0.508793 -0.0512
vn 0.68843 0.316512 -0.652598
vn -0.876501 0.481252 -0.011902
vn 0.535419 -0.699859 0.472782
vn 0.825594 0.14942 -0.544122
vn -0.517923 0.796944 -0.310863
vn 0.802641 0.256017 -0.538724
vn -0.948528 0.076358 0.307349
vn 0.764629 0.643219 0.040143
vn -0.742323 -0.419432 0.522526
vn 0.254268 -0.162989 -0.953301
vn -0.854358 -0.479269 0.200934
vn 0.233742 -0.230025 -0.944697
vn -0.234025 0.230695 0.944464
vn 0.805085 0.592863 0.018737
vn -0.989913 -0.094648 -0.105425
vn -0.883538 -0.459029 0.093022
vn 0.511888 0.438397 0.738768
vn 0.532738 0.209405 0.819963
vn 0.500237 0.48698 0.71597
vn -0.446472 -0.616701 -0.648339
vn 0.919364 -0.051008 -0.390088
vn -0.762486 0.04119 -0.645692
vn 0.084247 0.016229 0.996313
vn -0.830875 -0.367744 0.417626
vn -0.073787 0.187201 0.979546
vn -0.444549 -0.611646 -0.65442
vn -0.762495 -0.407379 0.502636
vn -0.786186 -0.335938 0.518708
vn 0.534849 -0.547547 -0.643529
vn 0.539295 -0.536844 -0.648814
vn 0.768942 0.44601 0.458043
vn 0.374028 0.290221 0.880838
vn -0.765876 -0.356669 0.534996
vn -0.588148 -0.258071 0.766473
vn -0.015718 -0.08152 -0.996548
vn -0.665157 -0.445629 0.59915
vn -0.739304 -0.493126 0.458538
vn -0.876653 -0.457513 0.14887
vn 0.760782 0.372922 0.531169
vn 0.663068 0.525511 0.533085
vn 0.704008 0.555338 0.442688
vn 0.276906 0.188764 -0.942174
vn 0.047468 0.008047 -0.99884
vn 0.429924 0.436332 -0.79043
vn 0.473293 0.382648 -0.793457
vn 0.770367 0.238544 0.591296
vn 0.240978 -0.752305 -0.613162
vn 0.971307 -0.045452 0.233446
vn -0.574218 0.002125 0.818699
vn -0.859891 0.436925 -0.263977
vn 0.497842 0.068972 -0.864521
vn -0.280778 -0.105789 0.953925
vn 0.892246 -0.14175 -0.428724
vn -0.98119 -0.15265 -0.118171
vn 0.841164 -0.123401 -0.526512
vn 0.375582 0.420986 0.825656
vn -0.947645 -0.243237 -0.206895
vn -0.696596 0.580642 -0.421437
vn -0.105062 -0.201761 0.973783
vn -0.501487 0.860368 0.090987
vn -0.462853 0.88643 0.00281
vn -0.403306 -0.366749 0.838355
vn -0.311338 -0.472071 0.824753
vn 0.57422 -0.814187 -0.08586
vn 0.53057 -0.84749 0.015992
vn 0.241073 -0.820431 0.518437
vn 0.120922 -0.978016 -0.16989
vn 0.591352 -0.806129 -0.021422
vn -0.269778 0.335724 -0.902502
vn -0.316119 0.501204 0.80552
vn 0.604375 -0.774576 0.18645
vn -0.154239 0.285154 -0.94599
vn 0.033447 0.476387 0.878599
vn 0.01816 0.530204 0.847676
vn 0.119319 0.701748 -0.702362
vn -0.09692 -0.67735 0.729249
vn -0.551829 0.806035 -0.213992
vn -0.759845 0.649537 -0.027145
vn -0.944601 -0.306382 -0.117723
vn 0.486585 -0.339957 0.804776
vn 0.522005 0.538566 -0.661406
vn -0.279659 -0.635072 0.720051
vn 0.598732 -0.768715 0.224941
vn 0.929773 -0.13916 -0.340818
vn 0.336386 0.499554 -0.798305
vn -0.486931 0.574678 -0.657756
vn -0.356305 -0.418263 0.835525
vn -0.92468 0.19511 0.326954
vn 0.529036 -0.753358 0.390607
vn -0.80785 -0.588251 -0.036601
vn 0.693745 0.093739 0.714094
vn -0.366452 -0.432233 0.823946
vn -0.706938 0.277261 -0.650665
vn -0.70789 0.296522 -0.641066
vn -0.641803 -0.694094 -0.326072
vn 0.461783 0.810353 0.360671
vn 0.156773 0.782922 0.602042
vn 0.354518 -0.910103 -0.214544
vn 0.939125 -0.308802 0.150617
vn 0.827555 -0.534344 -0.172134
vn -0.612003 0.360022 -0.704157
vn -0.341093 0.61753 0.70874
vn -0.325641 0.658676 0.67831
vn -0.227657 -0.468741 -0.853496
vn 0.220225 0.302103 0.927489
vn -0.754209 -0.64419 0.127229
vn -0.327047 -0.55042 0.768165
vn 0.654294 0.639356 0.403886
vn 0.264115 0.865459 -0.425705
vn -0.643447 -0.74916 -0.157277
vn 0.599135 0.116469 0.792132
vn 0.13494 0.473023 -0.870655
vn -0.118697 0.344595 -0.931217
vn 0.778294 0.234259 0.582564
vn -0.45053 -0.644447 0.617827
vn -0.891582 -0.32335 -0.317059
vn -0.914099 -0.383401 -0.132013
vn 0.47836 -0.730227 -0.487791
vn -0.829919 -0.405019 0.38366
vn -0.094274 0.779492 0.619278
vn -0.118306 0.770887 0.625889
vn -0.695683 0.305313 0.650237
vn -0.140135 -0.920704 -0.364233
vn -0.255018 0.695259 -0.671997
vn -0.494707 -0.629184 0.599494
vn 0.948333 -0.257592 -0.18523
vn 0.236733 -0.826374 0.510943
vn -0.367159 -0.395976 0.841663
vn -0.655482 -0.700368 -0.282538
vn 0.703198 0.695068 0.149646
vn 0.051663 0.345893 0.93685
vn 0.817475 0.490392 -0.302076
vn -0.491995 0.008528 0.870556
vn 0.284573 -0.256419 -0.923725
vn -0.253582 0.287787 0.923512
vn -0.557404 -0.061502 0.82796
vn 0.380905 -0.080627 -0.921092
vn 0.254392 -0.676179 -0.691423
vn -0.828389 0.114693 0.548286
vn -0.781246 -0.614753 -0.108319
vn 0.494013 0.49114 0.717449
vn -0.320983 -0.832206 -0.452109
vn -1 0 0
vn 0 0 -1
vn -0.932452 -0.35063 0.087126
vn 0.109095 -0.503148 -0.857286
vn -0.606452 0.784258 -0.130983
vn -0.518284 -0.514832 -0.682883
vn -0.773429 0.61795 0.141228
vn -0.713217 0.695394 -0.088029
vn -0.465046 -0.799378 -0.380431
vn -0.555458 0.831545 0.000079
vn 0.039203 0.026282 -0.998886
vn -0.798244 0.535341 0.276073
vn -0.515064 -0.36905 -0.773635
vn 0.336564 -0.794124 -0.506055
vn -0.841444 -0.368375 0.395313
vn -0.555459 0.831544 0.000078
vn 0.039203 0.026282 -0.998886
vn -0.950469 0.250093 -0.184562
vn 0.305474 0.641964 -0.703255
vn -0.555458 0.831545 0.000079
vn 0.039203 0.026282 -0.998886
vn 0.855189 0.514881 -0.059581
vn -0.412003 0.605523 -0.680879
vn -0.149893 0.651456 -0.743732
vn -0.784881 -0.535846 -0.311175
vn 0.578713 0.196644 -0.791468
vn -0.662372 -0.452838 -0.596826
vn 0.622504 0.570403 -0.535845
vn 0.108988 -0.741196 -0.662382
vn 0.329378 -0.121173 -0.936391
vn -0.896462 -0.351478 -0.26985
vn 0.329378 -0.121172 -0.936391
vn -0.896462 -0.351479 -0.26985
vn 0.506764 -0.667666 -0.545355
vn -0.237705 -0.716297 0.656061
vn 0.329377 -0.121171 -0.936391
vn -0.896462 -0.351478 -0.26985
vn 0.329378 -0.121171 -0.936391
vn -0.896462 -0.351478 -0.269849
vn 0.480364 0.262383 -0.836902
vn -0.803791 0.513519 -0.300363
vn 0.480365 0.262382 -0.836902
vn -0.803791 0.51352 -0.300363
vn 0.9333 0.282479 -0.221713
vn -0.230265 -0.003 -0.973123
vn 0.856484 0.238438 -0.457801
vn -0.431978 -0.154375 -0.888574
vn 0.480365 0.262383 -0.836902
vn -0.803792 0.513518 -0.300363
vn -0.828972 0.380312 0.410083
vn -0.254586 0.396263 -0.882135
vn -0.950469 0.250093 -0.184561
vn 0.305474 0.641963 -0.703256
vn 0.927946 0.320752 -0.189828
vn -0.187104 -0.039602 -0.981542
vn 1 0 0
vn 0.000001 0.000001 1
vn 0 0 1
vn 0.932453 0.350629 -0.087127
vn -0.109096 0.503147 0.857287
vn 0.606451 -0.784258 0.130983
vn 0.518285 0.514832 0.682883
vn 0.77343 -0.617949 -0.141228
vn 0.713216 -0.695395 0.088028
vn 0.465046 0.799378 0.380431
vn 0.555458 -0.831545 -0.000079
vn -0.039204 -0.026281 0.998886
vn 0.798243 -0.535343 -0.276073
vn 0.515064 0.36905 0.773635
vn -0.336565 0.794124 0.506055
vn 0.841444 0.368374 -0.395313
vn 0.555457 -0.831545 -0.000079
vn -0.039203 -0.026282 0.998886
vn 0.950469 -0.250093 0.18456
vn -0.305474 -0.641964 0.703255
vn 0.555458 -0.831545 -0.000078
vn -0.855189 -0.51488 0.059581
vn 0.412003 -0.605524 0.680878
vn 0.149893 -0.651456 0.743732
vn 0.784881 0.535846 0.311175
vn -0.578711 -0.196645 0.791469
vn 0.662372 0.452837 0.596827
vn -0.622503 -0.570402 0.535847
vn -0.108989 0.741197 0.662381
vn -0.329377 0.121172 0.936391
vn 0.896462 0.351479 0.26985
vn -0.329378 0.121172 0.93639
vn 0.896462 0.351478 0.26985
vn -0.506765 0.667665 0.545355
vn 0.237705 0.716297 -0.656061
vn -0.329378 0.121172 0.936391
vn 0.896462 0.351478 0.26985
vn -0.329378 0.121171 0.936391
vn 0.896462 0.351477 0.269851
vn -0.480365 -0.262381 0.836902
vn 0.803791 -0.513519 0.300364
vn -0.480365 -0.262382 0.836902
vn 0.803791 -0.513519 0.300363
vn -0.9333 -0.282479 0.221713
vn 0.230266 0.003002 0.973123
vn -0.856484 -0.238438 0.457801
vn 0.431978 0.154375 0.888574
vn -0.480365 -0.262383 0.836902
vn 0.803791 -0.513519 0.300363
vn 0.828971 -0.380312 -0.410084
vn 0.254587 -0.396263 0.882135
vn 0.950469 -0.250093 0.18456
vn -0.305475 -0.641964 0.703255
vn -0.927945 -0.320753 0.189829
vn 0.187103 0.039601 0.981542
vn -0.950469 0.250093 -0.184561
vn 0.950469 -0.250093 0.18456
vn -0.305475 -0.641964 0.703255
g tree
usemtl tree
f 1/1/1 2/2/1 3/3/1 
f 4/1/2 5/2/2 6/3/2 
f 4/1/3 6/2/3 7/3/3 
f 8/1/4 9/2/4 10/3/4 
f 2/1/5 8/2/5 3/3/5 
f 5/1/6 9/2/6 8/3/6 
f 5/1/7 4/2/7 9/3/7 
f 11/1/8 5/2/8 8/3/8 
f 12/1/9 13/2/9 6/3/9 
f 14/1/10 15/2/10 12/3/10 
f 15/1/11 13/2/11 12/3/11 
f 16/1/12 17/2/12 13/3/12 
f 15/1/13 16/2/13 13/3/13 
f 18/1/14 19/2/14 20/3/14 
f 21/1/15 18/2/15 20/3/15 
f 22/1/16 23/2/16 24/3/16 
f 18/1/17 22/2/17 19/3/17 
f 25/1/18 22/2/18 18/3/18 
f 23/1/19 26/2/19 21/3/19 
f 27/1/20 28/2/20 26/3/20 
f 25/1/21 27/2/21 26/3/21 
f 29/1/22 28/2/22 27/3/22 
f 30/1/23 25/2/23 28/3/23 
f 31/1/24 29/2/24 30/3/24 
f 32/1/25 33/2/25 34/3/25 
f 35/1/26 33/2/26 32/3/26 
f 36/1/27 35/2/27 37/3/27 
f 38/1/28 36/2/28 34/3/28 
f 33/1/29 38/2/29 34/3/29 
f 39/1/30 40/2/30 41/3/30 
f 39/1/31 42/2/31 43/3/31 
f 42/1/32 44/2/32 39/3/32 
f 45/1/33 46/2/33 44/3/33 
f 45/1/34 47/2/34 46/3/34 
f 46/1/35 48/2/35 49/3/35 
f 50/1/36 49/2/36 48/3/36 
f 47/1/37 50/2/37 48/3/37 
f 49/1/38 50/2/38 47/3/38 
f 51/1/39 52/2/39 53/3/39 
f 54/1/40 55/2/40 51/3/40 
f 56/1/41 54/2/41 57/3/41 
f 52/1/42 56/2/42 53/3/42 
f 58/1/43 54/2/43 56/3/43 
f 55/1/44 59/2/44 52/3/44 
f 59/1/45 60/2/45 61/3/45 
f 62/1/46 60/2/46 59/3/46 
f 60/1/47 63/2/47 61/3/47 
f 63/1/48 64/2/48 62/3/48 
f 65/1/49 66/2/49 67/3/49 
f 67/1/50 68/2/50 65/3/50 
f 69/1/51 67/2/51 70/3/51 
f 65/1/52 70/2/52 66/3/52 
f 65/1/53 69/2/53 70/3/53 
f 68/1/54 71/2/54 65/3/54 
f 72/1/55 69/2/55 71/3/55 
f 68/1/56 73/2/56 71/3/56 
f 72/1/57 73/2/57 68/3/57 
f 71/1/58 73/2/58 72/3/58 
f 74/1/59 75/2/59 76/3/59 
f 75/1/60 77/2/60 76/3/60 
f 78/1/61 75/2/61 74/3/61 
f 79/1/62 78/2/62 77/3/62 
f 80/1/63 81/2/63 79/3/63 
f 82/1/64 80/2/64 78/3/64 
f 83/1/65 80/2/65 82/3/65 
f 84/1/66 85/2/66 86/3/66 
f 87/1/67 84/2/67 86/3/67 
f 88/1/68 84/2/68 87/3/68 
f 89/1/69 90/2/69 87/3/69 
f 88/1/70 89/2/70 84/3/70 
f 89/1/71 91/2/71 90/3/71 
f 88/1/72 91/2/72 89/3/72 
f 90/1/73 91/2/73 88/3/73 
f 92/1/74 93/2/74 94/3/74 
f 95/1/75 94/2/75 96/3/75 
f 97/1/76 95/2/76 96/3/76 
f 98/1/77 99/2/77 95/3/77 
f 100/1/78 101/2/78 98/3/78 
f 102/1/79 103/2/79 104/3/79 
f 103/1/80 105/2/80 104/3/80 
f 106/1/81 103/2/81 102/3/81 
f 105/1/82 106/2/82 104/3/82 
f 106/1/83 107/2/83 103/3/83 
f 108/1/84 107/2/84 106/3/84 
f 105/1/85 108/2/85 106/3/85 
f 109/1/86 110/2/86 107/3/86 
f 111/1/87 112/2/87 113/3/87 
f 112/1/88 114/2/88 113/3/88 
f 112/1/89 115/2/89 111/3/89 
f 114/1/90 116/2/90 112/3/90 
f 112/1/91 114/2/91 115/3/91 
f 117/1/92 118/2/92 119/3/92 
f 120/1/93 118/2/93 117/3/93 
f 121/1/94 120/2/94 117/3/94 
f 122/1/95 123/2/95 124/3/95 
f 122/1/96 125/2/96 123/3/96 
f 126/1/97 124/2/97 125/3/97 
f 122/1/98 126/2/98 125/3/98 
f 122/1/99 127/2/99 126/3/99 
f 126/1/100 128/2/100 127/3/100 
f 129/1/101 130/2/101 131/3/101 
f 132/1/102 130/2/102 133/3/102 
f 134/1/103 132/2/103 133/3/103 
f 135/1/104 136/2/104 137/3/104 
f 138/1/105 139/2/105 137/3/105 
f 139/1/106 136/2/106 137/3/106 
f 139/1/107 135/2/107 138/3/107 
f 10/1/108 9/2/108 1/3/108 
f 3/1/109 8/2/109 10/3/109 
f 1/1/110 9/2/110 2/3/110 
f 2/1/111 4/2/111 11/3/111 
f 9/1/112 4/2/112 2/3/112 
f 2/1/113 11/2/113 8/3/113 
f 4/1/114 140/2/114 11/3/114 
f 4/1/115 7/2/115 140/3/115 
f 5/1/116 11/2/116 140/3/116 
f 5/1/117 140/2/117 6/3/117 
f 7/1/118 6/2/118 13/3/118 
f 7/1/119 13/2/119 14/3/119 
f 7/1/120 14/2/120 140/3/120 
f 14/1/121 12/2/121 140/3/121 
f 140/1/122 12/2/122 6/3/122 
f 15/1/123 17/2/123 141/3/123 
f 15/1/124 141/2/124 142/3/124 
f 14/1/125 17/2/125 15/3/125 
f 13/1/126 17/2/126 14/3/126 
f 141/1/127 17/2/127 16/3/127 
f 141/1/128 16/2/128 143/3/128 
f 16/1/129 15/2/129 142/3/129 
f 16/1/130 142/2/130 143/3/130 
f 33/1/131 35/2/131 39/3/131 
f 33/1/132 39/2/132 41/3/132 
f 24/1/133 21/2/133 20/3/133 
f 19/1/134 22/2/134 24/3/134 
f 24/1/135 23/2/135 21/3/135 
f 21/1/136 28/2/136 18/3/136 
f 28/1/137 25/2/137 18/3/137 
f 22/1/138 25/2/138 23/3/138 
f 21/1/139 26/2/139 28/3/139 
f 25/1/140 26/2/140 23/3/140 
f 29/1/141 30/2/141 28/3/141 
f 27/1/142 25/2/142 29/3/142 
f 31/1/143 25/2/143 29/3/143 
f 31/1/144 30/2/144 25/3/144 
f 37/1/145 35/2/145 32/3/145 
f 34/1/146 36/2/146 37/3/146 
f 39/1/147 35/2/147 36/3/147 
f 39/1/148 36/2/148 43/3/148 
f 43/1/149 36/2/149 38/3/149 
f 43/1/150 38/2/150 42/3/150 
f 38/1/151 33/2/151 41/3/151 
f 38/1/152 41/2/152 42/3/152 
f 144/1/153 40/2/153 46/3/153 
f 144/1/154 46/2/154 49/3/154 
f 41/1/155 40/2/155 42/3/155 
f 39/1/156 44/2/156 40/3/156 
f 144/1/157 44/2/157 42/3/157 
f 40/1/158 144/2/158 42/3/158 
f 44/1/159 46/2/159 40/3/159 
f 144/1/160 45/2/160 44/3/160 
f 144/1/161 49/2/161 45/3/161 
f 46/1/162 47/2/162 48/3/162 
f 49/1/163 47/2/163 45/3/163 
f 55/1/164 54/2/164 58/3/164 
f 55/1/165 58/2/165 59/3/165 
f 57/1/166 54/2/166 51/3/166 
f 53/1/167 56/2/167 57/3/167 
f 51/1/168 55/2/168 52/3/168 
f 56/1/169 61/2/169 58/3/169 
f 52/1/170 61/2/170 56/3/170 
f 52/1/171 59/2/171 61/3/171 
f 60/1/172 62/2/172 64/3/172 
f 58/1/173 62/2/173 59/3/173 
f 61/1/174 63/2/174 58/3/174 
f 63/1/175 62/2/175 58/3/175 
f 60/1/176 64/2/176 63/3/176 
f 69/1/177 68/2/177 67/3/177 
f 65/1/178 71/2/178 69/3/178 
f 72/1/179 68/2/179 69/3/179 
f 82/1/180 78/2/180 79/3/180 
f 82/1/181 79/2/181 81/3/181 
f 77/1/182 78/2/182 74/3/182 
f 75/1/183 79/2/183 77/3/183 
f 75/1/184 80/2/184 79/3/184 
f 78/1/185 80/2/185 75/3/185 
f 145/1/186 85/2/186 89/3/186 
f 145/1/187 89/2/187 87/3/187 
f 81/1/188 83/2/188 82/3/188 
f 80/1/189 83/2/189 81/3/189 
f 145/1/190 87/2/190 86/3/190 
f 84/1/191 89/2/191 85/3/191 
f 90/1/192 88/2/192 87/3/192 
f 100/1/193 92/2/193 95/3/193 
f 100/1/194 95/2/194 99/3/194 
f 93/1/195 97/2/195 96/3/195 
f 93/1/196 92/2/196 97/3/196 
f 95/1/197 92/2/197 94/3/197 
f 97/1/198 98/2/198 95/3/198 
f 92/1/199 98/2/199 97/3/199 
f 100/1/200 98/2/200 92/3/200 
f 98/1/201 101/2/201 99/3/201 
f 99/1/202 101/2/202 100/3/202 
f 100/1/203 101/2/203 146/3/203 
f 108/1/204 110/2/204 109/3/204 
f 147/1/205 106/2/205 102/3/205 
f 104/1/206 106/2/206 147/3/206 
f 103/1/207 107/2/207 105/3/207 
f 107/1/208 110/2/208 105/3/208 
f 105/1/209 110/2/209 108/3/209 
f 108/1/210 109/2/210 107/3/210 
f 115/1/211 114/2/211 111/3/211 
f 148/1/212 121/2/212 117/3/212 
f 119/1/213 118/2/213 148/3/213 
f 148/1/214 118/2/214 121/3/214 
f 118/1/215 120/2/215 121/3/215 
f 125/1/216 149/2/216 124/3/216 
f 125/1/217 123/2/217 149/3/217 
f 124/1/218 150/2/218 122/3/218 
f 126/1/219 150/2/219 124/3/219 
f 150/1/220 127/2/220 122/3/220 
f 151/1/221 150/2/221 127/3/221 
f 150/1/222 126/2/222 151/3/222 
f 151/1/223 127/2/223 128/3/223 
f 128/1/224 126/2/224 151/3/224 
f 134/1/225 130/2/225 129/3/225 
f 131/1/226 133/2/226 134/3/226 
f 134/1/227 132/2/227 130/3/227 
f 135/1/228 139/2/228 136/3/228 
f 130/1/229 131/2/229 133/3/229 
g leaves
usemtl leaves
f 152/4/230 153/1/230 154/3/230 155/5/230 
f 156/4/231 157/1/231 158/3/231 159/5/231 
f 160/4/230 161/1/230 162/3/230 163/5/230 
f 164/4/231 165/1/231 166/3/231 167/5/231 
f 168/4/232 169/1/232 170/3/232 171/5/232 
f 172/4/233 173/1/233 174/3/233 175/5/233 
f 176/4/234 177/1/234 178/3/234 179/5/234 
f 180/4/235 181/1/235 182/3/235 183/5/235 
f 184/4/236 185/1/236 186/3/236 187/5/236 
f 188/4/231 189/1/231 190/3/231 191/5/231 
f 192/4/237 193/1/237 194/3/237 195/5/237 
f 196/4/238 197/1/238 198/3/238 199/5/238 
f 200/4/239 201/1/239 202/3/239 203/5/239 
f 204/4/240 205/1/240 206/3/240 207/5/240 
f 208/4/241 209/1/241 210/3/241 211/5/241 
f 212/4/242 213/1/242 214/3/242 215/5/242 
f 216/4/243 217/1/243 218/3/243 219/5/243 
f 220/4/244 221/1/244 222/3/244 223/5/244 
f 224/4/245 225/1/245 226/3/245 227/5/245 
f 228/4/246 229/1/246 230/3/246 231/5/246 
f 232/4/247 233/1/247 234/3/247 235/5/247 
f 236/4/248 237/1/248 238/3/248 239/5/248 
f 240/4/249 241/1/249 242/3/249 243/5/249 
f 244/4/250 245/1/250 246/3/250 247/5/250 
f 248/4/251 249/1/251 250/3/251 251/5/251 
f 252/4/252 253/1/252 254/3/252 255/5/252 
f 256/4/253 257/1/253 258/3/253 259/5/253 
f 260/4/254 261/1/254 262/3/254 263/5/254 
f 264/4/255 265/1/255 266/3/255 267/5/255 
f 268/4/256 269/1/256 270/3/256 271/5/256 
f 272/4/257 273/1/257 274/3/257 275/5/257 
f 276/4/258 277/1/258 278/3/258 279/5/258 
f 280/4/259 281/1/259 282/3/259 283/5/259 
f 284/4/260 285/1/260 286/3/260 287/5/260 
f 288/4/261 289/1/261 290/3/261 291/5/261 
f 292/4/262 293/1/262 294/3/262 295/5/262 
f 296/4/263 297/1/263 298/3/263 299/5/263 
f 300/4/264 301/1/264 302/3/264 303/5/264 
f 304/4/265 305/1/265 306/3/265 307/5/265 
f 308/4/266 309/1/266 310/3/266 311/5/266 
f 312/4/267 313/1/267 314/3/267 315/5/267 
f 316/4/268 317/1/268 318/3/268 319/5/268 
f 320/4/269 321/1/269 322/3/269 323/5/269 
f 324/4/270 325/1/270 326/3/270 327/5/270 
f 328/4/271 329/1/271 330/3/271 331/5/271 
f 332/4/272 333/1/272 334/3/272 335/5/272 
f 336/4/273 337/1/273 338/3/273 339/5/273 
f 340/4/274 341/1/274 342/3/274 343/5/274 
f 344/4/275 345/1/275 346/3/275 347/5/275 
f 348/4/276 349/1/276 350/3/276 351/5/276 
f 352/4/277 353/1/277 354/3/277 355/5/277 
f 356/4/278 357/1/278 358/3/278 359/5/278 
f 360/4/279 361/1/279 362/3/279 363/5/279 
f 364/4/280 365/1/280 366/3/280 367/5/280 
f 368/4/281 369/1/281 370/3/281 371/5/281 
f 372/4/282 373/1/282 374/3/282 375/5/282 
f 376/4/283 377/1/283 378/3/283 379/5/283 
f 380/4/284 381/1/284 382/3/284 383/5/284 
f 152/4/285 155/5/285 154/3/285 153/1/285 
f 156/4/286 159/5/286 158/3/286 157/1/286 
f 160/4/285 163/5/285 162/3/285 161/1/285 
f 164/4/287 167/5/287 166/3/287 165/1/287 
f 168/4/288 171/5/288 170/3/288 169/1/288 
f 172/4/289 175/5/289 174/3/289 173/1/289 
f 176/4/290 179/5/290 178/3/290 177/1/290 
f 180/4/291 183/5/291 182/3/291 181/1/291 
f 184/4/292 187/5/292 186/3/292 185/1/292 
f 188/4/287 191/5/287 190/3/287 189/1/287 
f 192/4/293 195/5/293 194/3/293 193/1/293 
f 196/4/294 199/5/294 198/3/294 197/1/294 
f 200/4/295 203/5/295 202/3/295 201/1/295 
f 204/4/296 207/5/296 206/3/296 205/1/296 
f 208/4/297 211/5/297 210/3/297 209/1/297 
f 212/4/298 215/5/298 214/3/298 213/1/298 
f 216/4/299 219/5/299 218/3/299 217/1/299 
f 220/4/300 223/5/300 222/3/300 221/1/300 
f 224/4/301 227/5/301 226/3/301 225/1/301 
f 228/4/302 231/5/302 230/3/302 229/1/302 
f 232/4/303 235/5/303 234/3/303 233/1/303 
f 236/4/304 239/5/304 238/3/304 237/1/304 
f 240/4/305 243/5/305 242/3/305 241/1/305 
f 244/4/302 247/5/302 246/3/302 245/1/302 
f 248/4/306 251/5/306 250/3/306 249/1/306 
f 252/4/307 255/5/307 254/3/307 253/1/307 
f 256/4/308 259/5/308 258/3/308 257/1/308 
f 260/4/309 263/5/309 262/3/309 261/1/309 
f 264/4/310 267/5/310 266/3/310 265/1/310 
f 268/4/311 271/5/311 270/3/311 269/1/311 
f 272/4/312 275/5/312 274/3/312 273/1/312 
f 276/4/313 279/5/313 278/3/313 277/1/313 
f 280/4/314 283/5/314 282/3/314 281/1/314 
f 284/4/315 287/5/315 286/3/315 285/1/315 
f 288/4/316 291/5/316 290/3/316 289/1/316 
f 292/4/317 295/5/317 294/3/317 293/1/317 
f 296/4/318 299/5/318 298/3/318 297/1/318 
f 300/4/319 303/5/319 302/3/319 301/1/319 
f 304/4/320 307/5/320 306/3/320 305/1/320 
f 308/4/321 311/5/321 310/3/321 309/1/321 
f 312/4/322 315/5/322 314/3/322 313/1/322 
f 316/4/323 319/5/323 318/3/323 317/1/323 
f 320/4/324 323/5/324 322/3/324 321/1/324 
f 324/4/325 327/5/325 326/3/325 325/1/325 
f 328/4/326 331/5/326 330/3/326 329/1/326 
f 332/4/327 335/5/327 334/3/327 333/1/327 
f 336/4/328 339/5/328 338/3/328 337/1/328 
f 340/4/329 343/5/329 342/3/329 341/1/329 
f 344/4/330 347/5/330 346/3/330 345/1/330 
f 348/4/331 351/5/331 350/3/331 349/1/331 
f 352/4/332 355/5/332 354/3/332 353/1/332 
f 356/4/333 359/5/333 358/3/333 357/1/333 
f 360/4/334 363/5/334 362/3/334 361/1/334 
f 364/4/335 367/5/335 366/3/335 365/1/335 
f 368/4/336 371/5/336 370/3/336 369/1/336 
f 372/4/337 375/5/337 374/3/337 373/1/337 
f 376/4/338 379/5/338 378/3/338 377/1/338 
f 380/4/339 383/5/339 382/3/339 381/1/339 
f 384/4/340 385/1/340 386/3/340 387/5/340 
f 388/4/282 389/1/282 390/3/282 391/5/282 
f 384/4/341 387/5/341 386/3/341 385/1/341 
f 388/4/342 391/5/342 390/3/342 389/1/342 
