# Cinnamon model exporter

v 0.1875 1.78125 -0.1875
v 0.1875 1.78125 0.125
v 0.1875 0 0.125
v 0.1875 0 -0.1875
v -0.125 0 0.125
v -0.125 1.78125 0.125
v -0.125 1.78125 -0.1875
v -0.125 0 -0.1875
v 0.6875 4.125 -0.6875
v 0.6875 4.125 0.6875
v 0.6875 1.75 0.6875
v 0.6875 1.75 -0.6875
v -0.6875 1.75 0.6875
v -0.6875 4.125 0.6875
v -0.6875 4.125 -0.6875
v -0.6875 1.75 -0.6875
g mesh
f 1 2 3 4 
f 5 6 7 8 
f 6 2 1 7 
f 4 3 5 8 
f 3 2 6 5 
f 7 1 4 8 
g mesh
f 9 10 11 12 
f 13 14 15 16 
f 14 10 9 15 
f 12 11 13 16 
f 11 10 14 13 
f 15 9 12 16 
