# Blender 3.6.5
# www.blender.org
mtllib tree.mtl
o circle
v 0.500000 4.750000 0.500000
v 1.437822 3.000000 4.000000
v 3.062178 3.000000 3.062178
v 4.000000 3.000000 1.437822
v 4.000000 3.000000 -0.437822
v 3.062178 3.000000 -2.062178
v 1.437822 3.000000 -3.000000
v -0.437822 3.000000 -3.000000
v -2.062178 3.000000 -2.062178
v -3.000000 3.000000 -0.437822
v -3.000000 3.000000 1.437822
v -2.062178 3.000000 3.062178
v -0.437822 3.000000 4.000000
vn 0.3075 0.9005 0.3075
vn 0.4201 0.9005 0.1126
vn -0.0000 1.0000 -0.0000
vn 0.4201 0.9005 -0.1126
vn 0.3075 0.9005 -0.3075
vn 0.1126 0.9005 -0.4201
vn -0.1126 0.9005 -0.4201
vn -0.3075 0.9005 -0.3075
vn -0.4201 0.9005 -0.1126
vn -0.4201 0.9005 0.1126
vn -0.3075 0.9005 0.3075
vn -0.1126 0.9005 0.4201
vn 0.1126 0.9005 0.4201
vt 0.240525 0.879730
vt 0.279985 0.933862
vt 0.147321 0.989120
vt 0.290621 1.000000
vt 0.233408 0.703671
vt 0.272867 0.649539
vt 0.366071 0.758929
vt 0.332578 0.619174
vt 0.399565 0.619174
vt 0.459275 0.649539
vt 0.498735 0.703671
vt 0.004022 1.000000
vt 0.014658 0.933862
vt 0.054117 0.879730
vt 0.113828 0.849366
vt 0.180815 0.849366
s 1
usemtl m_5819bb6b-5cb4-8960-dab9-5753e446a454
f 3/1/1 4/2/2 1/3/3
f 4/2/2 5/4/4 1/3/3
f 5/5/4 6/6/5 1/7/3
f 6/6/5 7/8/6 1/7/3
f 7/8/6 8/9/7 1/7/3
f 8/9/7 9/10/8 1/7/3
f 9/10/8 10/11/9 1/7/3
f 10/12/9 11/13/10 1/3/3
f 11/13/10 12/14/11 1/3/3
f 12/14/11 13/15/12 1/3/3
f 13/15/12 2/16/13 1/3/3
f 2/16/13 3/1/1 1/3/3
o circle.001
v 0.500000 5.750000 0.500000
v 1.370835 4.000000 3.750000
v 2.879165 4.000000 2.879165
v 3.750000 4.000000 1.370834
v 3.750000 4.000000 -0.370835
v 2.879165 4.000000 -1.879166
v 1.370835 4.000000 -2.750000
v -0.370835 4.000000 -2.750000
v -1.879165 4.000000 -1.879166
v -2.750000 4.000000 -0.370835
v -2.750000 4.000000 1.370834
v -1.879165 4.000000 2.879165
v -0.370835 4.000000 3.750000
vn 0.3263 0.8872 0.3263
vn 0.4457 0.8872 0.1194
vn -0.0000 1.0000 -0.0000
vn 0.4457 0.8872 -0.1194
vn 0.3263 0.8872 -0.3263
vn 0.1194 0.8872 -0.4457
vn -0.1194 0.8872 -0.4457
vn -0.3263 0.8872 -0.3263
vn -0.4457 0.8872 -0.1194
vn -0.4457 0.8872 0.1194
vn -0.3263 0.8872 0.3263
vn -0.1194 0.8872 0.4457
vn 0.1194 0.8872 0.4457
vt 0.225137 0.728356
vt 0.262486 0.778097
vt 0.138393 0.832383
vt 0.273664 0.839286
vt 0.268764 0.883214
vt 0.306113 0.833473
vt 0.392857 0.937500
vt 0.361756 0.805671
vt 0.423958 0.805671
vt 0.479601 0.833473
vt 0.516950 0.883214
vt 0.003121 0.839286
vt 0.014300 0.778097
vt 0.051649 0.728356
vt 0.107292 0.700554
vt 0.169494 0.700554
s 1
usemtl m_5819bb6b-5cb4-8960-dab9-5753e446a454
f 16/17/14 17/18/15 14/19/16
f 17/18/15 18/20/17 14/19/16
f 18/21/17 19/22/18 14/23/16
f 19/22/18 20/24/19 14/23/16
f 20/24/19 21/25/20 14/23/16
f 21/25/20 22/26/21 14/23/16
f 22/26/21 23/27/22 14/23/16
f 23/28/22 24/29/23 14/19/16
f 24/29/23 25/30/24 14/19/16
f 25/30/24 26/31/25 14/19/16
f 26/31/25 15/32/26 14/19/16
f 15/32/26 16/17/14 14/19/16
o circle.002
v 0.500000 6.750000 0.499999
v 1.236860 5.000000 3.250000
v 2.513140 5.000000 2.513139
v 3.250000 5.000000 1.236860
v 3.250000 5.000000 -0.236861
v 2.513140 5.000000 -1.513140
v 1.236860 5.000000 -2.250000
v -0.236860 5.000000 -2.250000
v -1.513140 5.000000 -1.513140
v -2.250000 5.000000 -0.236861
v -2.250000 5.000000 1.236860
v -1.513140 5.000000 2.513139
v -0.236860 5.000000 3.250000
vn 0.3703 0.8519 0.3703
vn 0.5058 0.8519 0.1355
vn -0.0000 1.0000 -0.0000
vn 0.5058 0.8519 -0.1355
vn 0.3703 0.8519 -0.3703
vn 0.1355 0.8519 -0.5058
vn -0.1355 0.8519 -0.5058
vn -0.3703 0.8519 -0.3703
vn -0.5058 0.8519 -0.1355
vn -0.5058 0.8519 0.1355
vn -0.3703 0.8519 0.3703
vn -0.1355 0.8519 0.5058
vn 0.1355 0.8519 0.5058
vt 0.194366 0.575867
vt 0.227523 0.616742
vt 0.120536 0.669643
vt 0.239875 0.667904
vt 0.366227 0.572099
vt 0.399384 0.531224
vt 0.473214 0.625000
vt 0.446898 0.508586
vt 0.499530 0.508586
vt 0.547045 0.531224
vt 0.580202 0.572099
vt 0.001197 0.667904
vt 0.013548 0.616742
vt 0.046705 0.575867
vt 0.094220 0.553229
vt 0.146852 0.553229
s 1
usemtl m_5819bb6b-5cb4-8960-dab9-5753e446a454
f 29/33/27 30/34/28 27/35/29
f 30/34/28 31/36/30 27/35/29
f 31/37/30 32/38/31 27/39/29
f 32/38/31 33/40/32 27/39/29
f 33/40/32 34/41/33 27/39/29
f 34/41/33 35/42/34 27/39/29
f 35/42/34 36/43/35 27/39/29
f 36/44/35 37/45/36 27/35/29
f 37/45/36 38/46/37 27/35/29
f 38/46/37 39/47/38 27/35/29
f 39/47/38 28/48/39 27/35/29
f 28/48/39 29/33/27 27/35/29
o circle.003
v 0.500000 7.750000 0.499999
v 1.169873 5.750000 3.000000
v 2.330127 5.750000 2.330127
v 3.000000 5.750000 1.169873
v 3.000000 5.750000 -0.169873
v 2.330127 5.750000 -1.330127
v 1.169873 5.750000 -2.000000
v -0.169873 5.750000 -2.000000
v -1.330127 5.750000 -1.330127
v -2.000000 5.750000 -0.169873
v -2.000000 5.750000 1.169873
v -1.330127 5.750000 2.330127
v -0.169873 5.750000 3.000000
vn 0.4324 0.7913 0.4324
vn 0.5906 0.7913 0.1583
vn -0.0000 1.0000 -0.0000
vn 0.5906 0.7913 -0.1583
vn 0.4324 0.7913 -0.4324
vn 0.1583 0.7913 -0.5906
vn -0.1583 0.7913 -0.5906
vn -0.4324 0.7913 -0.4324
vn -0.5906 0.7913 -0.1583
vn -0.5906 0.7913 0.1583
vn -0.4324 0.7913 0.4324
vn -0.1583 0.7913 0.5906
vn 0.1583 0.7913 0.5906
vt 0.331151 0.494128
vt 0.363618 0.529276
vt 0.263393 0.589286
vt 0.583726 0.312625
vt 0.630560 0.302826
vt 0.630560 0.419643
vt 0.439954 0.779276
vt 0.472420 0.744128
vt 0.540179 0.839286
vt 0.516254 0.724945
vt 0.564103 0.724945
vt 0.607937 0.744128
vt 0.640404 0.779276
vt 0.333726 0.294768
vt 0.380560 0.284969
vt 0.380560 0.401786
vt 0.163168 0.529276
vt 0.195634 0.494128
vt 0.239469 0.474945
vt 0.287317 0.474945
s 1
usemtl m_5819bb6b-5cb4-8960-dab9-5753e446a454
f 42/49/40 43/50/41 40/51/42
f 43/52/41 44/53/43 40/54/42
f 44/55/43 45/56/44 40/57/42
f 45/56/44 46/58/45 40/57/42
f 46/58/45 47/59/46 40/57/42
f 47/59/46 48/60/47 40/57/42
f 48/60/47 49/61/48 40/57/42
f 49/62/48 50/63/49 40/64/42
f 50/65/49 51/66/50 40/51/42
f 51/66/50 52/67/51 40/51/42
f 52/67/51 41/68/52 40/51/42
f 41/68/52 42/49/40 40/51/42
o circle.004
v 0.500000 8.500000 0.499999
v 1.102886 6.500000 2.750000
v 2.147114 6.500000 2.147114
v 2.750000 6.500000 1.102885
v 2.750000 6.500000 -0.102886
v 2.147114 6.500000 -1.147115
v 1.102886 6.500000 -1.750000
v -0.102886 6.500000 -1.750000
v -1.147114 6.500000 -1.147115
v -1.750000 6.500000 -0.102886
v -1.750000 6.500000 1.102885
v -1.147114 6.500000 2.147114
v -0.102886 6.500000 2.750000
vn 0.4606 0.7587 0.4606
vn 0.6292 0.7587 0.1686
vn -0.0000 1.0000 -0.0000
vn 0.6292 0.7587 -0.1686
vn 0.4606 0.7587 -0.4606
vn 0.1686 0.7587 -0.6292
vn -0.1686 0.7587 -0.6292
vn -0.4606 0.7587 -0.4606
vn -0.6292 0.7587 -0.1686
vn -0.6292 0.7587 0.1686
vn -0.4606 0.7587 0.4606
vn -0.1686 0.7587 0.6292
vn 0.1686 0.7587 0.6292
vt 0.155023 0.444783
vt 0.185314 0.475390
vt 0.093750 0.535714
vt 0.527995 0.300593
vt 0.570219 0.292137
vt 0.570219 0.401786
vt 0.484329 0.939676
vt 0.514620 0.909068
vt 0.575893 1.000000
vt 0.554362 0.892486
vt 0.597424 0.892486
vt 0.637166 0.909068
vt 0.667457 0.939676
vt 0.233352 0.264878
vt 0.275576 0.256422
vt 0.275576 0.366071
vt 0.002186 0.475390
vt 0.032477 0.444783
vt 0.072219 0.428200
vt 0.115281 0.428200
s 1
usemtl m_5819bb6b-5cb4-8960-dab9-5753e446a454
f 55/69/53 56/70/54 53/71/55
f 56/72/54 57/73/56 53/74/55
f 57/75/56 58/76/57 53/77/55
f 58/76/57 59/78/58 53/77/55
f 59/78/58 60/79/59 53/77/55
f 60/79/59 61/80/60 53/77/55
f 61/80/60 62/81/61 53/77/55
f 62/82/61 63/83/62 53/84/55
f 63/85/62 64/86/63 53/71/55
f 64/86/63 65/87/64 53/71/55
f 65/87/64 54/88/65 53/71/55
f 54/88/65 55/69/53 53/71/55
o circle.005
v 0.500000 9.250000 0.499999
v 1.035898 7.250000 2.500000
v 1.964102 7.250000 1.964101
v 2.500000 7.250000 1.035898
v 2.500000 7.250000 -0.035899
v 1.964102 7.250000 -0.964102
v 1.035898 7.250000 -1.500001
v -0.035898 7.250000 -1.500001
v -0.964102 7.250000 -0.964102
v -1.500000 7.250000 -0.035899
v -1.500000 7.250000 1.035898
v -0.964102 7.250000 1.964101
v -0.035898 7.250000 2.500000
vn 0.4913 0.7193 0.4913
vn 0.6711 0.7193 0.1798
vn -0.0000 1.0000 -0.0000
vn 0.6711 0.7193 -0.1798
vn 0.4913 0.7193 -0.4913
vn 0.1798 0.7193 -0.6711
vn -0.1798 0.7193 -0.6711
vn -0.4913 0.7193 -0.4913
vn -0.6711 0.7193 -0.1798
vn -0.6711 0.7193 0.1798
vn -0.4913 0.7193 0.4913
vn -0.1798 0.7193 0.6711
vn 0.1798 0.7193 0.6711
vt 0.621729 0.430844
vt 0.649763 0.456907
vt 0.566964 0.517857
vt 0.637445 0.270384
vt 0.675055 0.263258
vt 0.675055 0.366071
vt 0.493094 0.653336
vt 0.521128 0.627272
vt 0.575893 0.714286
vt 0.556754 0.613270
vt 0.595032 0.613270
vt 0.630658 0.627272
vt 0.658692 0.653336
vt 0.646374 0.395384
vt 0.683983 0.388258
vt 0.683983 0.491071
vt 0.484165 0.456907
vt 0.512199 0.430844
vt 0.547825 0.416841
vt 0.586104 0.416841
s 1
usemtl m_5819bb6b-5cb4-8960-dab9-5753e446a454
f 68/89/66 69/90/67 66/91/68
f 69/92/67 70/93/69 66/94/68
f 70/95/69 71/96/70 66/97/68
f 71/96/70 72/98/71 66/97/68
f 72/98/71 73/99/72 66/97/68
f 73/99/72 74/100/73 66/97/68
f 74/100/73 75/101/74 66/97/68
f 75/102/74 76/103/75 66/104/68
f 76/105/75 77/106/76 66/91/68
f 77/106/76 78/107/77 66/91/68
f 78/107/77 67/108/78 66/91/68
f 67/108/78 68/89/66 66/91/68
o circle.006
v 0.500000 10.000000 0.499999
v 0.968911 8.000000 2.249999
v 1.781089 8.000000 1.781088
v 2.250000 8.000000 0.968911
v 2.250000 8.000000 0.031088
v 1.781089 8.000000 -0.781089
v 0.968911 8.000000 -1.250001
v 0.031089 8.000000 -1.250001
v -0.781089 8.000000 -0.781089
v -1.250000 8.000000 0.031088
v -1.250000 8.000000 0.968911
v -0.781089 8.000000 1.781088
v 0.031089 8.000000 2.249999
vn 0.5241 0.6714 0.5241
vn 0.7159 0.6714 0.1918
vn -0.0000 1.0000 -0.0000
vn 0.7159 0.6714 -0.1918
vn 0.5241 0.6714 -0.5241
vn 0.1918 0.6714 -0.7159
vn -0.1918 0.6714 -0.7159
vn -0.5241 0.6714 -0.5241
vn -0.7159 0.6714 -0.1918
vn -0.7159 0.6714 0.1918
vn -0.5241 0.6714 0.5241
vn -0.1918 0.6714 0.7159
vn 0.1918 0.6714 0.7159
vt 0.436610 0.425478
vt 0.462257 0.447018
vt 0.388393 0.508929
vt 0.394223 0.311227
vt 0.427206 0.305407
vt 0.427206 0.401786
vt 0.144886 0.402375
vt 0.170533 0.380835
vt 0.218750 0.464286
vt 0.202004 0.369373
vt 0.235496 0.369373
vt 0.266967 0.380835
vt 0.292614 0.402375
vt 0.653151 0.588013
vt 0.686135 0.582193
vt 0.686135 0.678571
vt 0.314528 0.447018
vt 0.340176 0.425478
vt 0.371646 0.414016
vt 0.405139 0.414016
s 1
usemtl m_5819bb6b-5cb4-8960-dab9-5753e446a454
f 81/109/79 82/110/80 79/111/81
f 82/112/80 83/113/82 79/114/81
f 83/115/82 84/116/83 79/117/81
f 84/116/83 85/118/84 79/117/81
f 85/118/84 86/119/85 79/117/81
f 86/119/85 87/120/86 79/117/81
f 87/120/86 88/121/87 79/117/81
f 88/122/87 89/123/88 79/124/81
f 89/125/88 90/126/89 79/111/81
f 90/126/89 91/127/90 79/111/81
f 91/127/90 80/128/91 79/111/81
f 80/128/91 81/109/79 79/111/81
o circle.007
v 0.500000 10.750000 0.499999
v 0.834936 9.000000 1.749999
v 1.415064 9.000000 1.415063
v 1.750000 9.000000 0.834936
v 1.750000 9.000000 0.165063
v 1.415064 9.000000 -0.415064
v 0.834936 9.000000 -0.750001
v 0.165064 9.000000 -0.750001
v -0.415064 9.000000 -0.415064
v -0.750000 9.000000 0.165063
v -0.750000 9.000000 0.834936
v -0.415064 9.000000 1.415063
v 0.165064 9.000000 1.749999
vn 0.5685 0.5946 0.5685
vn 0.7766 0.5946 0.2081
vn -0.0000 1.0000 -0.0000
vn 0.7766 0.5946 -0.2081
vn 0.5685 0.5946 -0.5685
vn 0.2081 0.5946 -0.7766
vn -0.2081 0.5946 -0.7766
vn -0.5685 0.5946 -0.5685
vn -0.7766 0.5946 -0.2081
vn -0.7766 0.5946 0.2081
vn -0.5685 0.5946 0.5685
vn -0.2081 0.5946 0.7766
vn 0.2081 0.5946 0.7766
vt 0.625962 0.707254
vt 0.648753 0.699979
vt 0.660714 0.776786
vt 0.672676 0.699979
vt 0.695466 0.707254
vt 0.617034 0.823326
vt 0.639824 0.816051
vt 0.651786 0.892857
vt 0.663747 0.816051
vt 0.686538 0.823326
vt 0.143820 0.287612
vt 0.166610 0.280337
vt 0.178571 0.357143
vt 0.190533 0.280337
vt 0.213323 0.287612
vt 0.590248 0.537612
vt 0.613038 0.530337
vt 0.625000 0.607143
vt 0.636962 0.530337
vt 0.659752 0.537612
s 1
usemtl m_5819bb6b-5cb4-8960-dab9-5753e446a454
f 94/129/92 95/130/93 92/131/94
f 95/130/93 96/132/95 92/131/94
f 96/132/95 97/133/96 92/131/94
f 97/134/96 98/135/97 92/136/94
f 98/135/97 99/137/98 92/136/94
f 99/137/98 100/138/99 92/136/94
f 100/139/99 101/140/100 92/141/94
f 101/140/100 102/142/101 92/141/94
f 102/142/101 103/143/102 92/141/94
f 103/144/102 104/145/103 92/146/94
f 104/145/103 93/147/104 92/146/94
f 93/147/104 94/148/92 92/146/94
o cube
v 0.750000 10.000000 0.749999
v 0.750000 10.000000 0.249999
v 1.000000 0.000000 1.000000
v 1.000000 0.000000 0.000000
v 0.250000 10.000000 0.749999
v 0.250000 10.000000 0.249999
v 0.000000 0.000000 1.000000
v 0.000000 0.000000 0.000000
v 0.875000 10.000000 0.499999
v 1.250000 0.000000 0.500000
v -0.250000 0.000000 0.500000
v 0.125000 10.000000 0.499999
v 0.500000 10.000000 0.874999
v 0.500000 0.000000 1.250000
v 0.500000 -0.000000 -0.250000
v 0.500000 10.000000 0.124999
v 0.500000 10.250000 0.499999
vn 0.5497 -0.6291 0.5497
vn 0.7964 -0.6048 -0.0000
vn 0.8980 0.4400 -0.0000
vn 0.6345 0.4414 0.6345
vn -0.6345 0.4414 0.6345
vn -0.8980 0.4400 -0.0000
vn -0.7964 -0.6048 -0.0000
vn -0.5497 -0.6291 0.5497
vn -0.0000 -0.6048 0.7964
vn -0.0000 0.4400 0.8980
vn -0.6345 0.4414 -0.6345
vn -0.0000 0.4400 -0.8980
vn -0.0000 -0.6048 -0.7964
vn -0.5497 -0.6291 -0.5497
vn 0.6345 0.4414 -0.6345
vn 0.5497 -0.6291 -0.5497
vn -0.0000 1.0000 -0.0000
vt 0.006821 0.071429
vt 0.026786 0.071429
vt 0.020796 0.428571
vt 0.010814 0.428571
vt 0.480257 0.428571
vt 0.470275 0.428571
vt 0.464286 0.071429
vt 0.484250 0.071429
vt 0.071429 0.053571
vt 0.091393 0.053571
vt 0.085404 0.410714
vt 0.075421 0.410714
vt 0.129936 0.410714
vt 0.119954 0.410714
vt 0.113964 0.053571
vt 0.133929 0.053571
vt 0.051686 0.419643
vt 0.041704 0.419643
vt 0.035714 0.062500
vt 0.055679 0.062500
vt 0.301464 0.062500
vt 0.321429 0.062500
vt 0.315439 0.419643
vt 0.305457 0.419643
vt 0.451364 0.410714
vt 0.441382 0.410714
vt 0.435393 0.053571
vt 0.455357 0.053571
vt 0.500000 0.053571
vt 0.519964 0.053571
vt 0.513975 0.410714
vt 0.503993 0.410714
vt 0.258929 0.856111
vt 0.246284 0.866071
vt 0.250277 0.851131
vt 0.012644 0.901786
vt 0.000000 0.891825
vt 0.008651 0.886846
vt 0.018633 0.886846
vt 0.014142 0.875000
vt 0.008152 0.860060
vt 0.018134 0.860060
vt 0.026786 0.865040
vt 0.048358 0.866071
vt 0.035714 0.856111
vt 0.044366 0.851131
vt 0.054348 0.851131
vt 0.240295 0.851131
vt 0.348214 0.955357
vt 0.357143 0.973214
vt 0.348214 0.991071
vt 0.330357 1.000000
vt 0.312500 0.991071
vt 0.303571 0.973214
vt 0.312500 0.955357
vt 0.330357 0.946429
s 1
usemtl m_5819bb6b-5cb4-8960-dab9-5753e446a454
f 107/149/105 114/150/106 113/151/107 105/152/108
f 109/153/109 116/154/110 115/155/111 111/156/112
f 111/157/112 118/158/113 117/159/114 109/160/109
f 110/161/115 120/162/116 119/163/117 112/164/118
f 106/165/119 113/166/107 114/167/106 108/168/120
f 112/169/118 115/170/111 116/171/110 110/172/115
f 105/173/108 117/174/114 118/175/113 107/176/105
f 108/177/120 119/178/117 120/179/116 106/180/119
f 116/181/110 121/182/121 110/183/115
f 121/184/121 116/185/110 109/186/109
f 121/184/121 109/186/109 117/187/114
f 121/188/121 117/189/114 105/190/108
f 121/188/121 105/190/108 113/191/107
f 121/192/121 113/193/107 106/194/119
f 121/192/121 106/194/119 120/195/116
f 121/182/121 120/196/116 110/183/115
f 108/197/120 114/198/106 107/199/105 118/200/113
f 118/200/113 111/201/112 115/202/111 112/203/118
f 112/203/118 119/204/117 108/197/120 118/200/113
