# Made in Blockbench 4.8.3
mtllib curve_maker.pbr

o cube
v 0.3125 0.375 -0.1875
v 0.3125 0.375 -0.3125
v 0.3125 -0.25 -0.1875
v 0.3125 -0.25 -0.3125
v -0.3125 0.375 -0.1875
v -0.3125 0.375 -0.3125
v -0.3125 -0.25 -0.1875
v -0.3125 -0.25 -0.3125
vt 0.5416666666666666 0.5833333333333333
vt 0.5416666666666666 1
vt 0.4583333333333333 1
vt 0.4583333333333333 0.5833333333333333
vt 0.5416666666666666 0.125
vt 0.5416666666666666 0.5416666666666667
vt 0.4583333333333333 0.5416666666666667
vt 0.4583333333333333 0.125
vt 1 0.9166666666666666
vt 1 1
vt 0.5833333333333334 1
vt 0.5833333333333334 0.9166666666666666
vt 1 0.7916666666666666
vt 1 0.875
vt 0.5833333333333334 0.875
vt 0.5833333333333334 0.7916666666666666
vt 0.4166666666666667 0.5833333333333333
vt 0.4166666666666667 1
vt 0 1
vt 0 0.5833333333333333
vt 0.4166666666666667 0.125
vt 0.4166666666666667 0.5416666666666667
vt 0 0.5416666666666667
vt 0 0.125
vn 1 0 0
vn -1 0 0
vn 0 1 0
vn 0 -1 0
vn 0 0 1
vn 0 0 -1
usemtl m_b2b68331-24b7-07b8-2f33-6127ff114795
f 4/1/1 2/2/1 1/3/1 3/4/1
f 7/5/2 5/6/2 6/7/2 8/8/2
f 1/9/3 2/10/3 6/11/3 5/12/3
f 4/13/4 3/14/4 7/15/4 8/16/4
f 3/17/5 1/18/5 5/19/5 7/20/5
f 8/21/6 6/22/6 2/23/6 4/24/6