# Cinnamon model exporter

mtllib bench.mtl
v 1 0.546875 -0.21875
v 1 0.546875 -0.34375
v 1 0.515625 -0.21875
v 1 0.515625 -0.34375
v -1 0.546875 -0.21875
v -1 0.546875 -0.34375
v -1 0.515625 -0.21875
v -1 0.515625 -0.34375
v 1 0.546875 -0.375
v 1 0.546875 -0.5
v 1 0.515625 -0.375
v 1 0.515625 -0.5
v -1 0.546875 -0.375
v -1 0.546875 -0.5
v -1 0.515625 -0.375
v -1 0.515625 -0.5
v 1 0.546875 0.25
v 1 0.546875 0.125
v 1 0.515625 0.25
v 1 0.515625 0.125
v -1 0.546875 0.25
v -1 0.546875 0.125
v -1 0.515625 0.25
v -1 0.515625 0.125
v 1 0.546875 0.09375
v 1 0.546875 -0.03125
v 1 0.515625 0.09375
v 1 0.515625 -0.03125
v -1 0.546875 0.09375
v -1 0.546875 -0.03125
v -1 0.515625 0.09375
v -1 0.515625 -0.03125
v 1 0.546875 -0.0625
v 1 0.546875 -0.1875
v 1 0.515625 -0.0625
v 1 0.515625 -0.1875
v -1 0.546875 -0.0625
v -1 0.546875 -0.1875
v -1 0.515625 -0.0625
v -1 0.515625 -0.1875
v 0.895833 0.515625 -0.390625
v 0.895833 0.421875 -0.390625
v -0.895833 0.515625 -0.390625
v -0.895833 0.421875 -0.390625
v 1 0.421875 -0.484375
v -1 0.421875 -0.484375
v 1 0.515625 -0.484375
v -1 0.515625 -0.484375
v 1 0.515625 0.34375
v 0.895833 0.515625 0.34375
v 0.895833 0.421875 0.34375
v 1 0.421875 0.34375
v -1 0.421875 0.34375
v -0.895833 0.515625 0.34375
v -0.895833 0.421875 0.34375
v -1 0.515625 0.34375
v -1 1.008927 0.420882
v -1 1.124412 0.468718
v -1 0.996968 0.449754
v -1 1.112453 0.497589
v 1 1.008927 0.420882
v 1 1.124412 0.468718
v 1 0.996968 0.449754
v 1 1.112453 0.497589
v -1 1.153283 0.480677
v -1 1.268768 0.528512
v -1 1.141324 0.509548
v -1 1.256809 0.557383
v 1 1.153283 0.480677
v 1 1.268768 0.528512
v 1 1.141324 0.509548
v 1 1.256809 0.557383
v -1 0.575858 0.2415
v -1 0.691343 0.289335
v -1 0.563899 0.270371
v -1 0.679384 0.318206
v 1 0.575858 0.2415
v 1 0.691343 0.289335
v 1 0.563899 0.270371
v 1 0.679384 0.318206
v -1 0.720214 0.301294
v -1 0.835699 0.349129
v -1 0.708255 0.330165
v -1 0.82374 0.378001
v 1 0.720214 0.301294
v 1 0.835699 0.349129
v 1 0.708255 0.330165
v 1 0.82374 0.378001
v -1 0.86457 0.361088
v -1 0.980055 0.408924
v -1 0.852612 0.389959
v -1 0.968097 0.437795
v 1 0.86457 0.361088
v 1 0.980055 0.408924
v 1 0.852612 0.389959
v 1 0.968097 0.437795
v -0.895833 1.15576 0.515527
v -0.895833 1.119883 0.602141
v 0.895833 1.15576 0.515527
v 0.895833 1.119883 0.602141
v -1 1.206497 0.638018
v -1 1.242373 0.551404
v -1 0.506157 0.246453
v -0.895833 0.506157 0.246453
v -0.895833 0.47028 0.333067
v -1 0.47028 0.333067
v 1 0.47028 0.333067
v 1 0.506157 0.246453
v 1 1.206497 0.638018
v 1 1.242373 0.551404
v 0.895833 0.506157 0.246453
v 0.895833 0.47028 0.333067
v -1.09375 0.671875 0.395833
v -1 0.671875 0.395833
v -1.09375 0.671875 -0.145833
v -1 0.671875 -0.145833
v -1 0.765625 0.5
v -1 0.765625 -0.25
v -1.09375 0.765625 0.5
v -1.09375 0.765625 -0.25
v -1.09375 0 0.5
v -1.09375 0 0.395833
v -1 0 0.395833
v -1 0 0.5
v -1 0 -0.25
v -1.09375 0 -0.145833
v -1 0 -0.145833
v -1.09375 0 -0.25
v 1 0.671875 0.395833
v 1.09375 0.671875 0.395833
v 1 0.671875 -0.145833
v 1.09375 0.671875 -0.145833
v 1.09375 0.765625 0.5
v 1.09375 0.765625 -0.25
v 1 0.765625 0.5
v 1 0.765625 -0.25
v 1 0 0.5
v 1 0 0.395833
v 1.09375 0 0.395833
v 1.09375 0 0.5
v 1.09375 0 -0.25
v 1 0 -0.145833
v 1.09375 0 -0.145833
v 1 0 -0.25
vt 0.357143 0.642857
vt 0.339286 0.642857
vt 0.339286 0.633929
vt 0.357143 0.633929
vt 0.383929 0.633929
vt 0.383929 0.642857
vt 0.366071 0.642857
vt 0.366071 0.633929
vt 0.339286 0.866071
vt 0.625 0.866071
vt 0.625 0.883929
vt 0.339286 0.883929
vt 0.625 0.839286
vt 0.625 0.857143
vt 0.339286 0.857143
vt 0.339286 0.839286
vt 0.598214 0.366071
vt 0.598214 0.375
vt 0.3125 0.375
vt 0.3125 0.366071
vt 0.598214 0.357143
vt 0.3125 0.357143
vt 0.3125 0.348214
vt 0.598214 0.348214
vt 0.410714 0.642857
vt 0.392857 0.642857
vt 0.392857 0.633929
vt 0.410714 0.633929
vt 0.258929 0.508929
vt 0.258929 0.517857
vt 0.241071 0.517857
vt 0.241071 0.508929
vt 0.339286 0.8125
vt 0.625 0.8125
vt 0.625 0.830357
vt 0.339286 0.830357
vt 0.625 0.785714
vt 0.625 0.803571
vt 0.339286 0.803571
vt 0.339286 0.785714
vt 0.330357 0.330357
vt 0.330357 0.339286
vt 0.044643 0.339286
vt 0.044643 0.330357
vt 0.625 0.339286
vt 0.339286 0.339286
vt 0.339286 0.330357
vt 0.625 0.330357
vt 0.258929 0.5
vt 0.241071 0.5
vt 0.241071 0.491071
vt 0.258929 0.491071
vt 0.3125 0.491071
vt 0.3125 0.5
vt 0.294643 0.5
vt 0.294643 0.491071
vt 0.339286 0.758929
vt 0.625 0.758929
vt 0.625 0.776786
vt 0.339286 0.776786
vt 0.625 0.732143
vt 0.625 0.75
vt 0.339286 0.75
vt 0.339286 0.732143
vt 0.330357 0.3125
vt 0.330357 0.321429
vt 0.044643 0.321429
vt 0.044643 0.3125
vt 0.625 0.321429
vt 0.339286 0.321429
vt 0.339286 0.3125
vt 0.625 0.3125
vt 0.401786 0.5
vt 0.383929 0.5
vt 0.383929 0.491071
vt 0.401786 0.491071
vt 0.0625 0.464286
vt 0.0625 0.473214
vt 0.044643 0.473214
vt 0.044643 0.464286
vt 0.339286 0.705357
vt 0.625 0.705357
vt 0.625 0.723214
vt 0.339286 0.723214
vt 0.625 0.678571
vt 0.625 0.696429
vt 0.339286 0.696429
vt 0.339286 0.678571
vt 0.892857 0.392857
vt 0.892857 0.401786
vt 0.607143 0.401786
vt 0.607143 0.392857
vt 0.892857 0.383929
vt 0.607143 0.383929
vt 0.607143 0.375
vt 0.892857 0.375
vt 0.142857 0.473214
vt 0.125 0.473214
vt 0.125 0.464286
vt 0.142857 0.464286
vt 0.651786 0.714286
vt 0.651786 0.723214
vt 0.633929 0.723214
vt 0.633929 0.714286
vt 0.339286 0.651786
vt 0.625 0.651786
vt 0.625 0.669643
vt 0.339286 0.669643
vt 0.705357 0.625
vt 0.705357 0.642857
vt 0.419643 0.642857
vt 0.419643 0.625
vt 0.892857 0.357143
vt 0.892857 0.366071
vt 0.607143 0.366071
vt 0.607143 0.357143
vt 0.330357 0.303571
vt 0.044643 0.303571
vt 0.044643 0.294643
vt 0.330357 0.294643
vt 0.044643 0.607143
vt 0.0625 0.607143
vt 0.0625 0.625
vt 0.044643 0.625
vt 0.232143 0.571429
vt 0.214286 0.571429
vt 0.214286 0.553571
vt 0.232143 0.553571
vt 0.598214 0.401786
vt 0.339286 0.401786
vt 0.339286 0.383929
vt 0.598214 0.383929
vt 0.315476 0.772321
vt 0.059524 0.772321
vt 0.044643 0.758929
vt 0.330357 0.758929
vt 0.419643 0.598214
vt 0.705357 0.598214
vt 0.705357 0.616071
vt 0.419643 0.616071
vt 0.214286 0.580357
vt 0.232143 0.580357
vt 0.232143 0.696429
vt 0.214286 0.683036
vt 0.303571 0.866071
vt 0.303571 0.883929
vt 0.196429 0.883929
vt 0.196429 0.866071
vt 0.330357 0.877232
vt 0.315476 0.877232
vt 0.071429 0.883929
vt 0.071429 0.866071
vt 0.1875 0.866071
vt 0.1875 0.883929
vt 0.059524 0.877232
vt 0.044643 0.877232
vt 0.196429 0.857143
vt 0.196429 0.839286
vt 0.303571 0.839286
vt 0.303571 0.857143
vt 0.241071 0.580357
vt 0.258929 0.580357
vt 0.258929 0.683036
vt 0.241071 0.696429
vt 0.1875 0.839286
vt 0.1875 0.857143
vt 0.071429 0.857143
vt 0.071429 0.839286
vt 0.651786 0.705357
vt 0.633929 0.705357
vt 0.633929 0.696429
vt 0.651786 0.696429
vt 0.651786 0.678571
vt 0.651786 0.6875
vt 0.633929 0.6875
vt 0.633929 0.678571
vt 0.705357 0.589286
vt 0.419643 0.589286
vt 0.419643 0.571429
vt 0.705357 0.571429
vt 0.419643 0.5625
vt 0.419643 0.544643
vt 0.705357 0.544643
vt 0.705357 0.5625
vt 0.625 0.294643
vt 0.625 0.303571
vt 0.339286 0.303571
vt 0.339286 0.294643
vt 0.919643 0.883929
vt 0.633929 0.883929
vt 0.633929 0.875
vt 0.919643 0.875
vt 0.651786 0.669643
vt 0.633929 0.669643
vt 0.633929 0.660714
vt 0.651786 0.660714
vt 0.651786 0.446429
vt 0.651786 0.455357
vt 0.633929 0.455357
vt 0.633929 0.446429
vt 0.625 0.455357
vt 0.339286 0.455357
vt 0.339286 0.4375
vt 0.625 0.4375
vt 0.625 0.410714
vt 0.625 0.428571
vt 0.339286 0.428571
vt 0.339286 0.410714
vt 0.919643 0.732143
vt 0.919643 0.741071
vt 0.633929 0.741071
vt 0.633929 0.732143
vt 0.919643 0.758929
vt 0.633929 0.758929
vt 0.633929 0.75
vt 0.919643 0.75
vt 0.651786 0.4375
vt 0.633929 0.4375
vt 0.633929 0.428571
vt 0.651786 0.428571
vt 0.651786 0.410714
vt 0.651786 0.419643
vt 0.633929 0.419643
vt 0.633929 0.410714
vt 0.705357 0.535714
vt 0.419643 0.535714
vt 0.419643 0.517857
vt 0.705357 0.517857
vt 0.330357 0.4375
vt 0.330357 0.455357
vt 0.044643 0.455357
vt 0.044643 0.4375
vt 0.919643 0.857143
vt 0.919643 0.866071
vt 0.633929 0.866071
vt 0.633929 0.857143
vt 0.919643 0.8125
vt 0.633929 0.8125
vt 0.633929 0.803571
vt 0.919643 0.803571
vt 0.169643 0.285714
vt 0.151786 0.285714
vt 0.151786 0.276786
vt 0.169643 0.276786
vt 0.196429 0.276786
vt 0.196429 0.285714
vt 0.178571 0.285714
vt 0.178571 0.276786
vt 0.705357 0.508929
vt 0.419643 0.508929
vt 0.419643 0.491071
vt 0.705357 0.491071
vt 0.160714 0.482143
vt 0.160714 0.464286
vt 0.446429 0.464286
vt 0.446429 0.482143
vt 0.919643 0.785714
vt 0.919643 0.794643
vt 0.633929 0.794643
vt 0.633929 0.785714
vt 0.919643 0.848214
vt 0.633929 0.848214
vt 0.633929 0.839286
vt 0.919643 0.839286
vt 0.223214 0.285714
vt 0.205357 0.285714
vt 0.205357 0.276786
vt 0.223214 0.276786
vt 0.25 0.276786
vt 0.25 0.285714
vt 0.232143 0.285714
vt 0.232143 0.276786
vt 0.044643 0.410714
vt 0.330357 0.410714
vt 0.330357 0.428571
vt 0.044643 0.428571
vt 0.455357 0.482143
vt 0.455357 0.464286
vt 0.741071 0.464286
vt 0.741071 0.482143
vt 0.919643 0.767857
vt 0.919643 0.776786
vt 0.633929 0.776786
vt 0.633929 0.767857
vt 0.919643 0.830357
vt 0.633929 0.830357
vt 0.633929 0.821429
vt 0.919643 0.821429
vt 0.303571 0.375
vt 0.044643 0.375
vt 0.044643 0.357143
vt 0.303571 0.357143
vt 0.059524 0.734375
vt 0.315476 0.734375
vt 0.330357 0.747768
vt 0.044643 0.747768
vt 0.044643 0.383929
vt 0.330357 0.383929
vt 0.330357 0.401786
vt 0.044643 0.401786
vt 0.651786 0.348214
vt 0.633929 0.348214
vt 0.633929 0.234375
vt 0.651786 0.247768
vt 0.294643 0.8125
vt 0.294643 0.830357
vt 0.196429 0.830357
vt 0.196429 0.8125
vt 0.044643 0.633929
vt 0.059524 0.633929
vt 0.071429 0.830357
vt 0.071429 0.8125
vt 0.1875 0.8125
vt 0.1875 0.830357
vt 0.315476 0.633929
vt 0.330357 0.633929
vt 0.196429 0.803571
vt 0.196429 0.785714
vt 0.294643 0.785714
vt 0.294643 0.803571
vt 0.0625 0.285714
vt 0.044643 0.285714
vt 0.044643 0.185268
vt 0.0625 0.171875
vt 0.1875 0.785714
vt 0.1875 0.803571
vt 0.071429 0.803571
vt 0.071429 0.785714
vt 0.258929 0.553571
vt 0.258929 0.571429
vt 0.241071 0.571429
vt 0.241071 0.553571
vt 0.214286 0.544643
vt 0.214286 0.526786
vt 0.232143 0.526786
vt 0.232143 0.544643
vt 0.098214 0.696429
vt 0.098214 0.616071
vt 0.116071 0.616071
vt 0.116071 0.696429
vt 0.08631 0.709821
vt 0.16369 0.709821
vt 0.178571 0.723214
vt 0.071429 0.723214
vt 0.178571 0.491071
vt 0.178571 0.598214
vt 0.160714 0.598214
vt 0.160714 0.491071
vt 0.294643 0.723214
vt 0.1875 0.723214
vt 0.202381 0.709821
vt 0.279762 0.709821
vt 0.279762 0.613839
vt 0.294643 0.613839
vt 0.357143 0.5
vt 0.375 0.5
vt 0.375 0.598214
vt 0.357143 0.598214
vt 0.071429 0.613839
vt 0.08631 0.613839
vt 0.1875 0.491071
vt 0.205357 0.491071
vt 0.205357 0.598214
vt 0.1875 0.598214
vt 0.16369 0.613839
vt 0.178571 0.613839
vt 0.071429 0.1875
vt 0.089286 0.1875
vt 0.089286 0.285714
vt 0.071429 0.285714
vt 0.1875 0.613839
vt 0.202381 0.613839
vt 0.267857 0.491071
vt 0.285714 0.491071
vt 0.285714 0.598214
vt 0.267857 0.598214
vt 0.258929 0.526786
vt 0.258929 0.544643
vt 0.241071 0.544643
vt 0.241071 0.526786
vt 0.214286 0.517857
vt 0.214286 0.5
vt 0.232143 0.5
vt 0.232143 0.517857
vt 0.125 0.696429
vt 0.125 0.616071
vt 0.142857 0.616071
vt 0.142857 0.696429
vt 0.318453 0.611607
vt 0.395833 0.611607
vt 0.410714 0.625
vt 0.303571 0.625
vt 0.348214 0.491071
vt 0.348214 0.598214
vt 0.330357 0.598214
vt 0.330357 0.491071
vt 0.151786 0.598214
vt 0.044643 0.598214
vt 0.059524 0.584821
vt 0.136904 0.584821
vt 0.136904 0.488839
vt 0.151786 0.488839
vt 0.098214 0.1875
vt 0.116071 0.1875
vt 0.116071 0.285714
vt 0.098214 0.285714
vt 0.303571 0.515625
vt 0.318453 0.515625
vt 0.071429 0.464286
vt 0.089286 0.464286
vt 0.089286 0.571429
vt 0.071429 0.571429
vt 0.395833 0.515625
vt 0.410714 0.515625
vt 0.125 0.1875
vt 0.142857 0.1875
vt 0.142857 0.285714
vt 0.125 0.285714
vt 0.044643 0.488839
vt 0.059524 0.488839
vt 0.098214 0.464286
vt 0.116071 0.464286
vt 0.116071 0.571429
vt 0.098214 0.571429
vn 1 0 0
vn -1 0 0
vn 0 1 0
vn 0 -1 0
vn 0 0 1
vn 0 0 -1
vn 0 0.382683 -0.92388
vn 0 -0.382683 0.92388
vn 0 -0.92388 -0.382683
vn 0 0.92388 0.382683
g mesh
usemtl bench
f 2/1/1 1/2/1 3/3/1 4/4/1 
f 7/5/2 5/6/2 6/7/2 8/8/2 
f 5/9/3 1/10/3 2/11/3 6/12/3 
f 4/13/4 3/14/4 7/15/4 8/16/4 
f 3/17/5 1/18/5 5/19/5 7/20/5 
f 6/21/6 2/22/6 4/23/6 8/24/6 
f 10/25/1 9/26/1 11/27/1 12/28/1 
f 15/29/2 13/30/2 14/31/2 16/32/2 
f 13/33/3 9/34/3 10/35/3 14/36/3 
f 12/37/4 11/38/4 15/39/4 16/40/4 
f 11/41/5 9/42/5 13/43/5 15/44/5 
f 14/45/6 10/46/6 12/47/6 16/48/6 
f 18/49/1 17/50/1 19/51/1 20/52/1 
f 23/53/2 21/54/2 22/55/2 24/56/2 
f 21/57/3 17/58/3 18/59/3 22/60/3 
f 20/61/4 19/62/4 23/63/4 24/64/4 
f 19/65/5 17/66/5 21/67/5 23/68/5 
f 22/69/6 18/70/6 20/71/6 24/72/6 
f 26/73/1 25/74/1 27/75/1 28/76/1 
f 31/77/2 29/78/2 30/79/2 32/80/2 
f 29/81/3 25/82/3 26/83/3 30/84/3 
f 28/85/4 27/86/4 31/87/4 32/88/4 
f 27/89/5 25/90/5 29/91/5 31/92/5 
f 30/93/6 26/94/6 28/95/6 32/96/6 
f 34/97/1 33/98/1 35/99/1 36/100/1 
f 39/101/2 37/102/2 38/103/2 40/104/2 
f 37/105/3 33/106/3 34/107/3 38/108/3 
f 36/109/4 35/110/4 39/111/4 40/112/4 
f 35/113/5 33/114/5 37/115/5 39/116/5 
f 38/117/6 34/118/6 36/119/6 40/120/6 
g mesh
usemtl bench
f 53/121/5 55/122/5 54/123/5 56/124/5 
f 49/125/5 50/126/5 51/127/5 52/128/5 
f 41/129/5 43/130/5 44/131/5 42/132/5 
f 42/133/4 44/134/4 46/135/4 45/136/4 
f 45/137/6 46/138/6 48/139/6 47/140/6 
f 50/141/3 49/142/3 47/143/3 41/144/3 
f 51/145/2 50/146/2 41/147/2 42/148/2 
f 52/149/4 51/150/4 42/133/4 45/136/4 
f 49/151/1 52/152/1 45/153/1 47/154/1 
f 55/155/4 53/156/4 46/135/4 44/134/4 
f 54/157/1 55/158/1 44/159/1 43/160/1 
f 56/161/3 54/162/3 43/163/3 48/164/3 
f 53/165/2 56/166/2 48/167/2 46/168/2 
g mesh
usemtl bench
f 58/169/2 57/170/2 59/171/2 60/172/2 
f 63/173/1 61/174/1 62/175/1 64/176/1 
f 61/177/7 57/178/7 58/179/7 62/180/7 
f 60/181/8 59/182/8 63/183/8 64/184/8 
f 59/185/9 57/186/9 61/187/9 63/188/9 
f 62/189/10 58/190/10 60/191/10 64/192/10 
f 66/193/2 65/194/2 67/195/2 68/196/2 
f 71/197/1 69/198/1 70/199/1 72/200/1 
f 69/201/7 65/202/7 66/203/7 70/204/7 
f 68/205/8 67/206/8 71/207/8 72/208/8 
f 67/209/9 65/210/9 69/211/9 71/212/9 
f 70/213/10 66/214/10 68/215/10 72/216/10 
f 74/217/2 73/218/2 75/219/2 76/220/2 
f 79/221/1 77/222/1 78/223/1 80/224/1 
f 77/225/7 73/226/7 74/227/7 78/228/7 
f 76/229/8 75/230/8 79/231/8 80/232/8 
f 75/233/9 73/234/9 77/235/9 79/236/9 
f 78/237/10 74/238/10 76/239/10 80/240/10 
f 82/241/2 81/242/2 83/243/2 84/244/2 
f 87/245/1 85/246/1 86/247/1 88/248/1 
f 85/249/7 81/250/7 82/251/7 86/252/7 
f 84/253/8 83/254/8 87/255/8 88/256/8 
f 83/257/9 81/258/9 85/259/9 87/260/9 
f 86/261/10 82/262/10 84/263/10 88/264/10 
f 90/265/2 89/266/2 91/267/2 92/268/2 
f 95/269/1 93/270/1 94/271/1 96/272/1 
f 93/273/7 89/274/7 90/275/7 94/276/7 
f 92/277/8 91/278/8 95/279/8 96/280/8 
f 91/281/9 89/282/9 93/283/9 95/284/9 
f 94/285/10 90/286/10 92/287/10 96/288/10 
g mesh
usemtl bench
f 97/289/9 99/290/9 100/291/9 98/292/9 
f 98/293/8 100/294/8 109/295/8 101/296/8 
f 101/297/10 109/298/10 110/299/10 102/300/10 
f 104/301/7 103/302/7 102/303/7 97/304/7 
f 105/305/1 104/306/1 97/307/1 98/308/1 
f 106/309/8 105/310/8 98/293/8 101/296/8 
f 103/311/2 106/312/2 101/313/2 102/314/2 
f 112/315/8 107/316/8 109/295/8 100/294/8 
f 111/317/2 112/318/2 100/319/2 99/320/2 
f 108/321/7 111/322/7 99/323/7 110/324/7 
f 107/325/1 108/326/1 110/327/1 109/328/1 
g left-arm
usemtl bench
f 125/329/4 127/330/4 126/331/4 128/332/4 
f 121/333/4 122/334/4 123/335/4 124/336/4 
f 113/337/4 115/338/4 116/339/4 114/340/4 
f 114/341/1 116/342/1 118/343/1 117/344/1 
f 117/345/3 118/346/3 120/347/3 119/348/3 
f 119/349/2 120/350/2 115/351/2 113/352/2 
f 122/353/2 121/354/2 119/349/2 113/352/2 
f 123/355/6 122/356/6 113/357/6 114/358/6 
f 124/359/1 123/360/1 114/341/1 117/344/1 
f 121/361/5 124/362/5 117/363/5 119/364/5 
f 127/365/1 125/366/1 118/343/1 116/342/1 
f 126/367/5 127/368/5 116/369/5 115/370/5 
f 128/371/2 126/372/2 115/351/2 120/350/2 
f 125/373/6 128/374/6 120/375/6 118/376/6 
g right-arm
usemtl bench
f 141/377/4 143/378/4 142/379/4 144/380/4 
f 137/381/4 138/382/4 139/383/4 140/384/4 
f 129/385/4 131/386/4 132/387/4 130/388/4 
f 130/389/1 132/390/1 134/391/1 133/392/1 
f 133/393/3 134/394/3 136/395/3 135/396/3 
f 135/397/2 136/398/2 131/399/2 129/400/2 
f 138/401/2 137/402/2 135/397/2 129/400/2 
f 139/403/6 138/404/6 129/405/6 130/406/6 
f 140/407/1 139/408/1 130/389/1 133/392/1 
f 137/409/5 140/410/5 133/411/5 135/412/5 
f 143/413/1 141/414/1 134/391/1 132/390/1 
f 142/415/5 143/416/5 132/417/5 131/418/5 
f 144/419/2 142/420/2 131/399/2 136/398/2 
f 141/421/6 144/422/6 136/423/6 134/424/6 
