# Blender 5.2.0 LTS
# www.blender.org
o Cylinder
v -0.000000 -0.858994 -0.000000
v -0.000000 -0.404950 -0.409042
v 0.289236 -0.404950 -0.289236
v -0.000000 0.629002 0.000000
v 0.224809 0.629002 -0.542738
v -0.224809 0.629002 -0.542738
v -0.000000 0.500000 -0.799717
v 0.224809 0.629002 -0.542738
v 0.565485 0.500000 -0.565485
v -0.000000 -0.858994 -0.000000
v 0.289236 -0.404950 -0.289236
v 0.409042 -0.404950 0.000000
v -0.000000 0.629002 0.000000
v 0.542738 0.629002 -0.224809
v 0.224809 0.629002 -0.542738
v 0.565485 0.500000 -0.565485
v 0.542738 0.629002 -0.224809
v 0.799717 0.500000 0.000000
v -0.000000 -0.858994 -0.000000
v 0.409042 -0.404950 0.000000
v 0.289236 -0.404950 0.289236
v -0.000000 0.629002 0.000000
v 0.542738 0.629002 0.224809
v 0.542738 0.629002 -0.224809
v 0.799717 0.500000 0.000000
v 0.542738 0.629002 0.224809
v 0.565485 0.500000 0.565485
v -0.000000 -0.858994 -0.000000
v 0.289236 -0.404950 0.289236
v -0.000000 -0.404950 0.409042
v -0.000000 0.629002 0.000000
v 0.224809 0.629002 0.542738
v 0.542738 0.629002 0.224809
v 0.565485 0.500000 0.565485
v 0.224809 0.629002 0.542738
v -0.000000 0.500000 0.799717
v -0.000000 -0.858994 -0.000000
v -0.000000 -0.404950 0.409042
v -0.289236 -0.404950 0.289236
v -0.000000 0.629002 0.000000
v -0.224810 0.629002 0.542738
v 0.224809 0.629002 0.542738
v -0.000000 0.500000 0.799717
v -0.224810 0.629002 0.542738
v -0.565485 0.500000 0.565485
v -0.000000 -0.858994 -0.000000
v -0.289236 -0.404950 0.289236
v -0.409042 -0.404950 -0.000000
v -0.000000 0.629002 0.000000
v -0.542738 0.629002 0.224809
v -0.224810 0.629002 0.542738
v -0.565485 0.500000 0.565485
v -0.542738 0.629002 0.224809
v -0.799717 0.500000 -0.000000
v -0.000000 -0.858994 -0.000000
v -0.409042 -0.404950 -0.000000
v -0.289236 -0.404950 -0.289236
v -0.000000 0.629002 0.000000
v -0.542738 0.629002 -0.224809
v -0.542738 0.629002 0.224809
v -0.799717 0.500000 -0.000000
v -0.542738 0.629002 -0.224809
v -0.565485 0.500000 -0.565485
v -0.000000 -0.858994 -0.000000
v -0.289236 -0.404950 -0.289236
v -0.000000 -0.404950 -0.409042
v -0.000000 0.629002 0.000000
v -0.224809 0.629002 -0.542738
v -0.542738 0.629002 -0.224809
v -0.565485 0.500000 -0.565485
v -0.224809 0.629002 -0.542738
v -0.000000 0.500000 -0.799717
v -0.388033 0.230854 -0.936794
v 0.000000 0.255234 -1.000000
v -0.000000 -0.404950 -0.409042
v 0.000000 0.255234 -1.000000
v -0.388033 0.230854 -0.936794
v -0.388033 0.347005 -0.936794
v 0.000000 0.322624 -1.000000
v -0.000000 0.500000 -0.799717
v 0.000000 0.322624 -1.000000
v -0.388033 0.347005 -0.936794
v -0.936794 0.230854 -0.388033
v -0.707107 0.255234 -0.707107
v -0.289236 -0.404950 -0.289236
v -0.707107 0.255234 -0.707107
v -0.936794 0.230854 -0.388033
v -0.936794 0.347005 -0.388033
v -0.707107 0.322624 -0.707107
v -0.565485 0.500000 -0.565485
v -0.707107 0.322624 -0.707107
v -0.936794 0.347005 -0.388033
v -0.936794 0.230854 0.388033
v -1.000000 0.255234 -0.000000
v -0.409042 -0.404950 -0.000000
v -1.000000 0.255234 -0.000000
v -0.936794 0.230854 0.388033
v -0.936794 0.347005 0.388033
v -1.000000 0.322624 -0.000000
v -0.799717 0.500000 -0.000000
v -1.000000 0.322624 -0.000000
v -0.936794 0.347005 0.388033
v -0.388033 0.230854 0.936794
v -0.707107 0.255234 0.707107
v -0.289236 -0.404950 0.289236
v -0.707107 0.255234 0.707107
v -0.388033 0.230854 0.936794
v -0.388033 0.347005 0.936794
v -0.707107 0.322624 0.707107
v -0.565485 0.500000 0.565485
v -0.707107 0.322624 0.707107
v -0.388033 0.347005 0.936794
v 0.388033 0.230854 0.936794
v -0.000000 0.255234 1.000000
v -0.000000 -0.404950 0.409042
v -0.000000 0.255234 1.000000
v 0.388033 0.230854 0.936794
v 0.388033 0.347005 0.936794
v -0.000000 0.322624 1.000000
v -0.000000 0.500000 0.799717
v -0.000000 0.322624 1.000000
v 0.388033 0.347005 0.936794
v 0.936794 0.230854 0.388033
v 0.707107 0.255234 0.707107
v 0.289236 -0.404950 0.289236
v 0.707107 0.255234 0.707107
v 0.936794 0.230854 0.388033
v 0.936794 0.347005 0.388033
v 0.707107 0.322624 0.707107
v 0.565485 0.500000 0.565485
v 0.707107 0.322624 0.707107
v 0.936794 0.347005 0.388033
v 0.936794 0.230854 -0.388033
v 1.000000 0.255234 0.000000
v 0.409042 -0.404950 0.000000
v 1.000000 0.255234 0.000000
v 0.936794 0.230854 -0.388033
v 0.936794 0.347005 -0.388033
v 1.000000 0.322624 0.000000
v 0.799717 0.500000 0.000000
v 1.000000 0.322624 0.000000
v 0.936794 0.347005 -0.388033
v 0.388033 0.230854 -0.936794
v 0.707107 0.255234 -0.707107
v 0.289236 -0.404950 -0.289236
v 0.707107 0.255234 -0.707107
v 0.388033 0.230854 -0.936794
v 0.388033 0.347005 -0.936794
v 0.707107 0.322624 -0.707107
v 0.565485 0.500000 -0.565485
v 0.707107 0.322624 -0.707107
v 0.388033 0.347005 -0.936794
v 0.388033 0.347005 -0.936794
v 0.388033 0.230854 -0.936794
v 0.000000 0.255234 -1.000000
v 0.000000 0.322624 -1.000000
v 0.936794 0.347005 -0.388033
v 0.936794 0.230854 -0.388033
v 0.707107 0.255234 -0.707107
v 0.707107 0.322624 -0.707107
v 0.936794 0.347005 0.388033
v 0.936794 0.230854 0.388033
v 1.000000 0.255234 0.000000
v 1.000000 0.322624 0.000000
v 0.388033 0.347005 0.936794
v 0.388033 0.230854 0.936794
v 0.707107 0.255234 0.707107
v 0.707107 0.322624 0.707107
v -0.388033 0.347005 0.936794
v -0.388033 0.230854 0.936794
v -0.000000 0.255234 1.000000
v -0.000000 0.322624 1.000000
v -0.936794 0.347005 0.388033
v -0.936794 0.230854 0.388033
v -0.707107 0.255234 0.707107
v -0.707107 0.322624 0.707107
v -0.936794 0.347005 -0.388033
v -0.936794 0.230854 -0.388033
v -1.000000 0.255234 -0.000000
v -1.000000 0.322624 -0.000000
v -0.388033 0.347005 -0.936794
v -0.388033 0.230854 -0.936794
v -0.707107 0.255234 -0.707107
v -0.707107 0.322624 -0.707107
v -0.000000 -0.404950 -0.409042
v -0.289236 -0.404950 -0.289236
v -0.388033 0.230854 -0.936794
v -0.289236 -0.404950 -0.289236
v -0.707107 0.255234 -0.707107
v -0.388033 0.230854 -0.936794
v -0.388033 0.347005 -0.936794
v -0.707107 0.322624 -0.707107
v -0.565485 0.500000 -0.565485
v -0.565485 0.500000 -0.565485
v -0.000000 0.500000 -0.799717
v -0.388033 0.347005 -0.936794
v -0.289236 -0.404950 -0.289236
v -0.409042 -0.404950 -0.000000
v -0.936794 0.230854 -0.388033
v -0.409042 -0.404950 -0.000000
v -1.000000 0.255234 -0.000000
v -0.936794 0.230854 -0.388033
v -0.936794 0.347005 -0.388033
v -1.000000 0.322624 -0.000000
v -0.799717 0.500000 -0.000000
v -0.799717 0.500000 -0.000000
v -0.565485 0.500000 -0.565485
v -0.936794 0.347005 -0.388033
v -0.409042 -0.404950 -0.000000
v -0.289236 -0.404950 0.289236
v -0.936794 0.230854 0.388033
v -0.289236 -0.404950 0.289236
v -0.707107 0.255234 0.707107
v -0.936794 0.230854 0.388033
v -0.936794 0.347005 0.388033
v -0.707107 0.322624 0.707107
v -0.565485 0.500000 0.565485
v -0.565485 0.500000 0.565485
v -0.799717 0.500000 -0.000000
v -0.936794 0.347005 0.388033
v -0.289236 -0.404950 0.289236
v -0.000000 -0.404950 0.409042
v -0.388033 0.230854 0.936794
v -0.000000 -0.404950 0.409042
v -0.000000 0.255234 1.000000
v -0.388033 0.230854 0.936794
v -0.388033 0.347005 0.936794
v -0.000000 0.322624 1.000000
v -0.000000 0.500000 0.799717
v -0.000000 0.500000 0.799717
v -0.565485 0.500000 0.565485
v -0.388033 0.347005 0.936794
v -0.000000 -0.404950 0.409042
v 0.289236 -0.404950 0.289236
v 0.388033 0.230854 0.936794
v 0.289236 -0.404950 0.289236
v 0.707107 0.255234 0.707107
v 0.388033 0.230854 0.936794
v 0.388033 0.347005 0.936794
v 0.707107 0.322624 0.707107
v 0.565485 0.500000 0.565485
v 0.565485 0.500000 0.565485
v -0.000000 0.500000 0.799717
v 0.388033 0.347005 0.936794
v 0.289236 -0.404950 0.289236
v 0.409042 -0.404950 0.000000
v 0.936794 0.230854 0.388033
v 0.409042 -0.404950 0.000000
v 1.000000 0.255234 0.000000
v 0.936794 0.230854 0.388033
v 0.936794 0.347005 0.388033
v 1.000000 0.322624 0.000000
v 0.799717 0.500000 0.000000
v 0.799717 0.500000 0.000000
v 0.565485 0.500000 0.565485
v 0.936794 0.347005 0.388033
v 0.409042 -0.404950 0.000000
v 0.289236 -0.404950 -0.289236
v 0.936794 0.230854 -0.388033
v 0.289236 -0.404950 -0.289236
v 0.707107 0.255234 -0.707107
v 0.936794 0.230854 -0.388033
v 0.936794 0.347005 -0.388033
v 0.707107 0.322624 -0.707107
v 0.565485 0.500000 -0.565485
v 0.565485 0.500000 -0.565485
v 0.799717 0.500000 0.000000
v 0.936794 0.347005 -0.388033
v 0.289236 -0.404950 -0.289236
v -0.000000 -0.404950 -0.409042
v 0.388033 0.230854 -0.936794
v -0.000000 -0.404950 -0.409042
v 0.000000 0.255234 -1.000000
v 0.388033 0.230854 -0.936794
v 0.388033 0.347005 -0.936794
v 0.000000 0.322624 -1.000000
v -0.000000 0.500000 -0.799717
v -0.000000 0.500000 -0.799717
v 0.565485 0.500000 -0.565485
v 0.388033 0.347005 -0.936794
v -0.000000 0.500000 -0.799717
v -0.224809 0.629002 -0.542738
v 0.224809 0.629002 -0.542738
v 0.565485 0.500000 -0.565485
v 0.224809 0.629002 -0.542738
v 0.542738 0.629002 -0.224809
v 0.799717 0.500000 0.000000
v 0.542738 0.629002 -0.224809
v 0.542738 0.629002 0.224809
v 0.565485 0.500000 0.565485
v 0.542738 0.629002 0.224809
v 0.224809 0.629002 0.542738
v -0.000000 0.500000 0.799717
v 0.224809 0.629002 0.542738
v -0.224810 0.629002 0.542738
v -0.565485 0.500000 0.565485
v -0.224810 0.629002 0.542738
v -0.542738 0.629002 0.224809
v -0.799717 0.500000 -0.000000
v -0.542738 0.629002 0.224809
v -0.542738 0.629002 -0.224809
v -0.565485 0.500000 -0.565485
v -0.542738 0.629002 -0.224809
v -0.224809 0.629002 -0.542738
vn 0.2941 -0.6397 -0.7101
vn -0.0000 1.0000 -0.0000
vn 0.2482 0.7611 -0.5992
vn 0.7101 -0.6397 -0.2941
vn 0.5992 0.7611 -0.2482
vn 0.7101 -0.6397 0.2941
vn 0.5992 0.7611 0.2482
vn 0.2941 -0.6397 0.7101
vn 0.2482 0.7611 0.5992
vn -0.2941 -0.6397 0.7101
vn -0.2482 0.7611 0.5992
vn -0.7101 -0.6397 0.2941
vn -0.5992 0.7611 0.2482
vn -0.7101 -0.6397 -0.2941
vn -0.5992 0.7611 -0.2482
vn -0.2941 -0.6397 -0.7101
vn -0.2482 0.7611 -0.5992
vn -0.0792 -0.6649 -0.7428
vn -0.1608 -0.0000 -0.9870
vn -0.0608 0.7472 -0.6618
vn -0.5812 -0.6649 -0.4692
vn -0.8116 -0.0000 -0.5842
vn -0.5110 0.7472 -0.4249
vn -0.7428 -0.6649 0.0792
vn -0.9870 -0.0000 0.1608
vn -0.6618 0.7472 0.0608
vn -0.4692 -0.6649 0.5812
vn -0.5842 -0.0000 0.8116
vn -0.4249 0.7472 0.5110
vn 0.0792 -0.6649 0.7428
vn 0.1608 -0.0000 0.9870
vn 0.0608 0.7472 0.6618
vn 0.5812 -0.6649 0.4692
vn 0.8116 -0.0000 0.5842
vn 0.5110 0.7472 0.4249
vn 0.7428 -0.6649 -0.0792
vn 0.9870 -0.0000 -0.1608
vn 0.6618 0.7472 -0.0608
vn 0.4692 -0.6649 -0.5812
vn 0.5842 -0.0000 -0.8116
vn 0.4249 0.7472 -0.5110
vn 0.1608 -0.0000 -0.9870
vn 0.8116 -0.0000 -0.5842
vn 0.9870 -0.0000 0.1608
vn 0.5842 -0.0000 0.8116
vn -0.1608 -0.0000 0.9870
vn -0.8116 -0.0000 0.5842
vn -0.9870 -0.0000 -0.1608
vn -0.5842 -0.0000 -0.8116
vn -0.2705 -0.7073 -0.6531
vn -0.4692 -0.6649 -0.5812
vn -0.4249 0.7472 -0.5110
vn -0.1860 0.8740 -0.4490
vn -0.6531 -0.7073 -0.2705
vn -0.7428 -0.6649 -0.0792
vn -0.6618 0.7472 -0.0608
vn -0.4490 0.8740 -0.1860
vn -0.6531 -0.7073 0.2705
vn -0.5812 -0.6649 0.4692
vn -0.5110 0.7472 0.4249
vn -0.4490 0.8740 0.1860
vn -0.2705 -0.7073 0.6531
vn -0.0792 -0.6649 0.7428
vn -0.0608 0.7472 0.6618
vn -0.1860 0.8740 0.4490
vn 0.2705 -0.7073 0.6531
vn 0.4692 -0.6649 0.5812
vn 0.4249 0.7472 0.5110
vn 0.1860 0.8740 0.4490
vn 0.6531 -0.7073 0.2705
vn 0.7428 -0.6649 0.0792
vn 0.6618 0.7472 0.0608
vn 0.4490 0.8740 0.1860
vn 0.6531 -0.7073 -0.2705
vn 0.5812 -0.6649 -0.4692
vn 0.5110 0.7472 -0.4249
vn 0.4490 0.8740 -0.1860
vn 0.2705 -0.7073 -0.6531
vn 0.0792 -0.6649 -0.7428
vn 0.0608 0.7472 -0.6618
vn 0.1860 0.8740 -0.4490
vn -0.0000 0.8937 -0.4486
vn 0.3172 0.8937 -0.3172
vn 0.4486 0.8937 -0.0000
vn 0.3172 0.8937 0.3172
vn -0.0000 0.8937 0.4486
vn -0.3172 0.8937 0.3172
vn -0.4486 0.8937 -0.0000
vn -0.3172 0.8937 -0.3172
vt 0.750000 0.250000
vt 0.749989 1.164718
vt 1.396544 0.896544
vt 0.250000 0.250000
vt 0.419706 0.419706
vt 0.250000 0.490000
vt 1.000000 0.875000
vt 0.875000 1.000000
vt 0.875000 0.875000
vt 1.664694 0.250013
vt 0.490000 0.250000
vt 0.750000 1.000000
vt 0.750000 0.875000
vt 1.396549 -0.396548
vt 0.419706 0.080294
vt 0.625000 1.000000
vt 0.625000 0.875000
vt 0.749973 -0.664382
vt 0.250000 0.010000
vt 0.500000 1.000000
vt 0.500000 0.875000
vt 0.103438 -0.396561
vt 0.080294 0.080294
vt 0.375000 1.000000
vt 0.375000 0.875000
vt -0.164735 0.250013
vt 0.010000 0.250000
vt 0.250000 1.000000
vt 0.250000 0.875000
vt 0.103438 0.896560
vt 0.080294 0.419706
vt 0.125000 1.000000
vt 0.125000 0.875000
vt 0.000000 1.000000
vt 0.000000 0.875000
vt 0.062500 0.625000
vt 0.000000 0.625000
vt 0.000088 0.542123
vt 0.062500 0.750000
vt 0.000000 0.750000
vt 0.187500 0.625000
vt 0.125000 0.625000
vt 0.125000 0.542123
vt 0.187500 0.750000
vt 0.125000 0.750000
vt 0.312500 0.625000
vt 0.250000 0.625000
vt 0.250000 0.542123
vt 0.312500 0.750000
vt 0.250000 0.750000
vt 0.437500 0.625000
vt 0.375000 0.625000
vt 0.375000 0.542123
vt 0.437500 0.750000
vt 0.375000 0.750000
vt 0.562500 0.625000
vt 0.500000 0.625000
vt 0.500000 0.542123
vt 0.562500 0.750000
vt 0.500000 0.750000
vt 0.687500 0.625000
vt 0.625000 0.625000
vt 0.625000 0.542123
vt 0.687500 0.750000
vt 0.625000 0.750000
vt 0.812500 0.625000
vt 0.750000 0.625000
vt 0.750000 0.542123
vt 0.812500 0.750000
vt 0.750000 0.750000
vt 0.937500 0.625000
vt 0.875000 0.625000
vt 0.875000 0.542123
vt 0.937500 0.750000
vt 0.875000 0.750000
vt 1.000000 0.625000
vt 1.000000 0.750000
vt 0.999912 0.542123
vt 1.000000 1.000000
s 0
f 1/1/1 2/2/1 3/3/1
f 4/4/2 5/5/2 6/6/2
f 7/7/3 8/8/3 9/9/3
f 10/1/4 11/3/4 12/10/4
f 13/4/2 14/11/2 15/5/2
f 16/9/5 17/12/5 18/13/5
f 19/1/6 20/10/6 21/14/6
f 22/4/2 23/15/2 24/11/2
f 25/13/7 26/16/7 27/17/7
f 28/1/8 29/14/8 30/18/8
f 31/4/2 32/19/2 33/15/2
f 34/17/9 35/20/9 36/21/9
f 37/1/10 38/18/10 39/22/10
f 40/4/2 41/23/2 42/19/2
f 43/21/11 44/24/11 45/25/11
f 46/1/12 47/22/12 48/26/12
f 49/4/2 50/27/2 51/23/2
f 52/25/13 53/28/13 54/29/13
f 55/1/14 56/26/14 57/30/14
f 58/4/2 59/31/2 60/27/2
s 1
f 61/29/15 62/32/15 63/33/15
f 64/1/16 65/30/16 66/2/16
f 67/4/2 68/6/2 69/31/2
s 0
f 70/33/17 71/34/17 72/35/17
f 73/36/18 74/37/18 75/38/18
s 1
f 76/37/19 77/36/19 78/39/19
s 0
f 79/40/19 76/37/19 78/39/19
f 80/35/20 81/40/20 82/39/20
f 83/41/21 84/42/21 85/43/21
f 86/42/22 87/41/22 88/44/22
f 89/45/22 86/42/22 88/44/22
f 90/33/23 91/45/23 92/44/23
s 1
f 93/46/24 94/47/24 95/48/24
s 0
f 96/47/25 97/46/25 98/49/25
f 99/50/25 96/47/25 98/49/25
f 100/29/26 101/50/26 102/49/26
f 103/51/27 104/52/27 105/53/27
f 106/52/28 107/51/28 108/54/28
f 109/55/28 106/52/28 108/54/28
f 110/25/29 111/55/29 112/54/29
f 113/56/30 114/57/30 115/58/30
f 116/57/31 117/56/31 118/59/31
f 119/60/31 116/57/31 118/59/31
f 120/21/32 121/60/32 122/59/32
f 123/61/33 124/62/33 125/63/33
s 1
f 126/62/34 127/61/34 128/64/34
s 0
f 129/65/34 126/62/34 128/64/34
f 130/17/35 131/65/35 132/64/35
f 133/66/36 134/67/36 135/68/36
s 1
f 136/67/37 137/66/37 138/69/37
s 0
f 139/70/37 136/67/37 138/69/37
f 140/13/38 141/70/38 142/69/38
f 143/71/39 144/72/39 145/73/39
f 146/72/40 147/71/40 148/74/40
f 149/75/40 146/72/40 148/74/40
f 150/9/41 151/75/41 152/74/41
f 153/74/42 154/71/42 155/76/42
f 153/74/42 155/76/42 156/77/42
s 1
f 157/69/43 158/66/43 159/72/43
s 0
f 157/69/43 159/72/43 160/75/43
s 1
f 161/64/44 162/61/44 163/67/44
s 0
f 161/64/44 163/67/44 164/70/44
f 165/59/45 166/56/45 167/62/45
s 1
f 165/59/45 167/62/45 168/65/45
s 0
f 169/54/46 170/51/46 171/57/46
f 169/54/46 171/57/46 172/60/46
f 173/49/47 174/46/47 175/52/47
f 173/49/47 175/52/47 176/55/47
s 1
f 177/44/48 178/41/48 179/47/48
s 0
f 177/44/48 179/47/48 180/50/48
f 181/39/49 182/36/49 183/42/49
f 181/39/49 183/42/49 184/45/49
f 185/38/50 186/43/50 187/36/50
f 188/43/51 189/42/51 190/36/51
f 191/39/52 192/45/52 193/33/52
f 194/33/53 195/35/53 196/39/53
f 197/43/54 198/48/54 199/41/54
s 1
f 200/48/55 201/47/55 202/41/55
s 0
f 203/44/56 204/50/56 205/29/56
f 206/29/57 207/33/57 208/44/57
f 209/48/58 210/53/58 211/46/58
f 212/53/59 213/52/59 214/46/59
s 1
f 215/49/60 216/55/60 217/25/60
s 0
f 218/25/61 219/29/61 220/49/61
f 221/53/62 222/58/62 223/51/62
f 224/58/63 225/57/63 226/51/63
f 227/54/64 228/60/64 229/21/64
s 1
f 230/21/65 231/25/65 232/54/65
s 0
f 233/58/66 234/63/66 235/56/66
f 236/63/67 237/62/67 238/56/67
f 239/59/68 240/65/68 241/17/68
f 242/17/69 243/21/69 244/59/69
s 1
f 245/63/70 246/68/70 247/61/70
s 0
f 248/68/71 249/67/71 250/61/71
f 251/64/72 252/70/72 253/13/72
f 254/13/73 255/17/73 256/64/73
f 257/68/74 258/73/74 259/66/74
s 1
f 260/73/75 261/72/75 262/66/75
s 0
f 263/69/76 264/75/76 265/9/76
f 266/9/77 267/13/77 268/69/77
f 269/73/78 270/78/78 271/71/78
f 272/78/79 273/76/79 274/71/79
f 275/74/80 276/77/80 277/7/80
f 278/7/81 279/9/81 280/74/81
f 281/7/82 282/79/82 283/8/82
f 284/9/83 285/8/83 286/12/83
f 287/13/84 288/12/84 289/16/84
f 290/17/85 291/16/85 292/20/85
f 293/21/86 294/20/86 295/24/86
f 296/25/87 297/24/87 298/28/87
f 299/29/88 300/28/88 301/32/88
f 302/33/89 303/32/89 304/34/89
