# Blender 3.6.5
# www.blender.org
mtllib donut.mtl
o left_eye
v -0.218750 1.828125 -0.396875
v -0.193630 1.734494 -0.402328
v -0.150120 1.759582 -0.400867
v -0.125000 1.803037 -0.398336
v -0.125000 1.853213 -0.395414
v -0.150120 1.896668 -0.392884
v -0.193630 1.921756 -0.391423
v -0.243870 1.921756 -0.391423
v -0.287380 1.896668 -0.392884
v -0.312500 1.853213 -0.395414
v -0.312500 1.803037 -0.398336
v -0.287380 1.759582 -0.400867
v -0.243870 1.734494 -0.402328
v -0.187500 1.859375 -0.390625
v -0.154006 1.734494 -0.396078
v -0.095994 1.767956 -0.394617
v -0.062500 1.825913 -0.392086
v -0.062500 1.892837 -0.389164
v -0.095994 1.950794 -0.386634
v -0.154006 1.984256 -0.385173
v -0.220994 1.984256 -0.385173
v -0.279006 1.950794 -0.386634
v -0.312500 1.892837 -0.389164
v -0.312500 1.825913 -0.392086
v -0.279006 1.767956 -0.394617
v -0.220994 1.734494 -0.396078
vn -0.0000 0.0581 -0.9983
vn -0.0000 0.0436 -0.9990
vt 0.000000 0.688514
vt 0.004186 0.681259
vt 0.015625 0.692702
vt 0.000000 0.696891
vt 0.004186 0.704146
vt 0.011439 0.708333
vt 0.019811 0.708333
vt 0.027064 0.704146
vt 0.031250 0.696891
vt 0.031250 0.688514
vt 0.027064 0.681259
vt 0.019811 0.677071
vt 0.011439 0.677071
vt 0.239583 0.765251
vt 0.245166 0.755582
vt 0.260417 0.770833
vt 0.239583 0.776416
vt 0.245166 0.786084
vt 0.254834 0.791667
vt 0.265999 0.791667
vt 0.275668 0.786084
vt 0.281250 0.776416
vt 0.281250 0.765251
vt 0.275668 0.755582
vt 0.265999 0.750000
vt 0.254834 0.750000
s 1
usemtl m_d366a928-24b8-988a-49f9-14eeec1a41f4
f 4/1/1 3/2/1 1/3/1
f 5/4/1 4/1/1 1/3/1
f 6/5/1 5/4/1 1/3/1
f 7/6/1 6/5/1 1/3/1
f 8/7/1 7/6/1 1/3/1
f 9/8/1 8/7/1 1/3/1
f 10/9/1 9/8/1 1/3/1
f 11/10/1 10/9/1 1/3/1
f 12/11/1 11/10/1 1/3/1
f 13/12/1 12/11/1 1/3/1
f 2/13/1 13/12/1 1/3/1
f 3/2/1 2/13/1 1/3/1
f 17/14/2 16/15/2 14/16/2
f 18/17/2 17/14/2 14/16/2
f 19/18/2 18/17/2 14/16/2
f 20/19/2 19/18/2 14/16/2
f 21/20/2 20/19/2 14/16/2
f 22/21/2 21/20/2 14/16/2
f 23/22/2 22/21/2 14/16/2
f 24/23/2 23/22/2 14/16/2
f 25/24/2 24/23/2 14/16/2
f 26/25/2 25/24/2 14/16/2
f 15/26/2 26/25/2 14/16/2
f 16/15/2 15/26/2 14/16/2
o right_eye
v 0.187500 1.859375 -0.390625
v 0.154006 1.734494 -0.396078
v 0.095994 1.767956 -0.394617
v 0.062500 1.825913 -0.392086
v 0.062500 1.892837 -0.389164
v 0.095994 1.950794 -0.386634
v 0.154006 1.984256 -0.385173
v 0.220994 1.984256 -0.385173
v 0.279006 1.950794 -0.386634
v 0.312500 1.892837 -0.389164
v 0.312500 1.825913 -0.392086
v 0.279006 1.767956 -0.394617
v 0.220994 1.734494 -0.396078
v 0.218750 1.828125 -0.396875
v 0.193630 1.734494 -0.402328
v 0.150120 1.759582 -0.400867
v 0.125000 1.803037 -0.398336
v 0.125000 1.853213 -0.395414
v 0.150120 1.896668 -0.392884
v 0.193630 1.921756 -0.391423
v 0.243870 1.921756 -0.391423
v 0.287380 1.896668 -0.392884
v 0.312500 1.853213 -0.395414
v 0.312500 1.803037 -0.398336
v 0.287380 1.759582 -0.400867
v 0.243870 1.734494 -0.402328
vn -0.0000 0.0436 -0.9990
vn -0.0000 0.0581 -0.9983
vt 0.275668 0.870166
vt 0.281250 0.879834
vt 0.260417 0.885417
vt 0.281250 0.890999
vt 0.275668 0.900668
vt 0.265999 0.906250
vt 0.254834 0.906250
vt 0.245166 0.900668
vt 0.239583 0.890999
vt 0.239583 0.879834
vt 0.245166 0.870166
vt 0.254834 0.864583
vt 0.265999 0.864583
vt 0.027064 0.972926
vt 0.031250 0.980180
vt 0.015625 0.984369
vt 0.031250 0.988557
vt 0.027064 0.995812
vt 0.019811 1.000000
vt 0.011439 1.000000
vt 0.004186 0.995812
vt 0.000000 0.988557
vt 0.000000 0.980180
vt 0.004186 0.972926
vt 0.011439 0.968737
vt 0.019811 0.968737
s 1
usemtl m_d366a928-24b8-988a-49f9-14eeec1a41f4
f 29/27/3 30/28/3 27/29/3
f 30/28/3 31/30/3 27/29/3
f 31/30/3 32/31/3 27/29/3
f 32/31/3 33/32/3 27/29/3
f 33/32/3 34/33/3 27/29/3
f 34/33/3 35/34/3 27/29/3
f 35/34/3 36/35/3 27/29/3
f 36/35/3 37/36/3 27/29/3
f 37/36/3 38/37/3 27/29/3
f 38/37/3 39/38/3 27/29/3
f 39/38/3 28/39/3 27/29/3
f 28/39/3 29/27/3 27/29/3
f 42/40/4 43/41/4 40/42/4
f 43/41/4 44/43/4 40/42/4
f 44/43/4 45/44/4 40/42/4
f 45/44/4 46/45/4 40/42/4
f 46/45/4 47/46/4 40/42/4
f 47/46/4 48/47/4 40/42/4
f 48/47/4 49/48/4 40/42/4
f 49/48/4 50/49/4 40/42/4
f 50/49/4 51/50/4 40/42/4
f 51/50/4 52/51/4 40/42/4
f 52/51/4 41/52/4 40/42/4
f 41/52/4 42/40/4 40/42/4
o torus
v 0.200962 0.375000 0.388229
v 0.272013 0.109835 0.274519
v 0.301443 0.000000 0.000000
v 0.272013 0.109835 -0.274519
v 0.200962 0.375000 -0.388229
v 0.129911 0.640165 -0.274519
v 0.100481 0.750000 -0.000000
v 0.129911 0.640165 0.274519
v 0.549038 0.575962 0.388229
v 0.743152 0.381848 0.274519
v 0.823557 0.301443 -0.000000
v 0.743152 0.381848 -0.274519
v 0.549038 0.575962 -0.388229
v 0.354924 0.770076 -0.274519
v 0.274519 0.850481 -0.000000
v 0.354924 0.770076 0.274519
v 0.750000 0.924038 0.388229
v 1.015165 0.852987 0.274519
v 1.125000 0.823557 -0.000000
v 1.015165 0.852987 -0.274519
v 0.750000 0.924038 -0.388229
v 0.484835 0.995089 -0.274519
v 0.375000 1.024519 -0.000000
v 0.484835 0.995089 0.274519
v 0.750000 1.325962 0.388228
v 1.015165 1.397013 0.274519
v 1.125000 1.426443 -0.000000
v 1.015165 1.397013 -0.274519
v 0.750000 1.325962 -0.388229
v 0.484835 1.254911 -0.274519
v 0.375000 1.225481 -0.000000
v 0.484835 1.254911 0.274519
v 0.549038 1.674038 0.388228
v 0.743152 1.868152 0.274519
v 0.823557 1.948557 -0.000000
v 0.743152 1.868152 -0.274519
v 0.549038 1.674038 -0.388229
v 0.354924 1.479924 -0.274519
v 0.274519 1.399519 -0.000000
v 0.354924 1.479924 0.274519
v 0.200962 1.875000 0.388228
v 0.272013 2.140165 0.274519
v 0.301443 2.250000 -0.000000
v 0.272013 2.140165 -0.274519
v 0.200962 1.875000 -0.388229
v 0.129911 1.609835 -0.274519
v 0.100481 1.500000 -0.000000
v 0.129911 1.609835 0.274519
v -0.200962 1.875000 0.388228
v -0.272013 2.140165 0.274519
v -0.301443 2.250000 -0.000000
v -0.272013 2.140165 -0.274519
v -0.200962 1.875000 -0.388229
v -0.129911 1.609835 -0.274519
v -0.100481 1.500000 -0.000000
v -0.129911 1.609835 0.274519
v -0.549038 1.674038 0.388228
v -0.743152 1.868152 0.274519
v -0.823557 1.948557 -0.000000
v -0.743152 1.868152 -0.274519
v -0.549038 1.674038 -0.388229
v -0.354924 1.479924 -0.274519
v -0.274519 1.399519 -0.000000
v -0.354924 1.479924 0.274519
v -0.750000 1.325962 0.388228
v -1.015165 1.397013 0.274519
v -1.125000 1.426443 -0.000000
v -1.015165 1.397013 -0.274519
v -0.750000 1.325962 -0.388229
v -0.484835 1.254911 -0.274519
v -0.375000 1.225481 -0.000000
v -0.484835 1.254911 0.274519
v -0.750000 0.924038 0.388229
v -1.015165 0.852987 0.274519
v -1.125000 0.823557 -0.000000
v -1.015165 0.852987 -0.274519
v -0.750000 0.924038 -0.388229
v -0.484835 0.995089 -0.274519
v -0.375000 1.024519 -0.000000
v -0.484835 0.995089 0.274519
v -0.549038 0.575962 0.388229
v -0.743152 0.381848 0.274519
v -0.823557 0.301443 -0.000000
v -0.743152 0.381848 -0.274519
v -0.549038 0.575962 -0.388229
v -0.354924 0.770076 -0.274519
v -0.274519 0.850481 -0.000000
v -0.354924 0.770076 0.274519
v -0.200962 0.375000 0.388229
v -0.272013 0.109835 0.274519
v -0.301443 0.000000 0.000000
v -0.272013 0.109835 -0.274519
v -0.200962 0.375000 -0.388229
v -0.129911 0.640165 -0.274519
v -0.100481 0.750000 -0.000000
v -0.129911 0.640165 0.274519
vn 0.0164 -0.0614 0.9980
vn 0.1905 -0.7111 0.6768
vn 0.5206 -0.5206 0.6768
vn 0.0449 -0.0449 0.9980
vn 0.2588 -0.9659 -0.0000
vn 0.7071 -0.7071 -0.0000
vn 0.1905 -0.7111 -0.6768
vn 0.5206 -0.5206 -0.6768
vn 0.0164 -0.0614 -0.9980
vn 0.0449 -0.0449 -0.9980
vn -0.1740 0.6495 -0.7402
vn -0.4755 0.4755 -0.7402
vn -0.2588 0.9659 -0.0000
vn -0.7071 0.7071 -0.0000
vn -0.1740 0.6495 0.7402
vn -0.4755 0.4755 0.7402
vn 0.7111 -0.1905 0.6768
vn 0.0614 -0.0164 0.9980
vn 0.9659 -0.2588 -0.0000
vn 0.7111 -0.1905 -0.6768
vn 0.0614 -0.0164 -0.9980
vn -0.6495 0.1740 -0.7402
vn -0.9659 0.2588 -0.0000
vn -0.6495 0.1740 0.7402
vn 0.7111 0.1905 0.6768
vn 0.0614 0.0164 0.9980
vn 0.9659 0.2588 -0.0000
vn 0.7111 0.1905 -0.6768
vn 0.0614 0.0164 -0.9980
vn -0.6495 -0.1740 -0.7402
vn -0.9659 -0.2588 -0.0000
vn -0.6495 -0.1740 0.7402
vn 0.5206 0.5206 0.6768
vn 0.0449 0.0449 0.9980
vn 0.7071 0.7071 -0.0000
vn 0.5206 0.5206 -0.6768
vn 0.0449 0.0449 -0.9980
vn -0.4755 -0.4755 -0.7402
vn -0.7071 -0.7071 -0.0000
vn -0.4755 -0.4755 0.7402
vn 0.1905 0.7111 0.6768
vn 0.0164 0.0614 0.9980
vn 0.2588 0.9659 -0.0000
vn 0.1905 0.7111 -0.6768
vn 0.0164 0.0614 -0.9980
vn -0.1740 -0.6495 -0.7402
vn -0.2588 -0.9659 -0.0000
vn -0.1740 -0.6495 0.7402
vn -0.1905 0.7111 0.6768
vn -0.0164 0.0614 0.9980
vn -0.1905 0.7111 -0.6768
vn -0.0164 0.0614 -0.9980
vn 0.1740 -0.6495 -0.7402
vn 0.1740 -0.6495 0.7402
vn -0.5206 0.5206 0.6768
vn -0.0449 0.0449 0.9980
vn -0.5206 0.5206 -0.6768
vn -0.0449 0.0449 -0.9980
vn 0.4755 -0.4755 -0.7402
vn 0.4755 -0.4755 0.7402
vn -0.7111 0.1905 0.6768
vn -0.0614 0.0164 0.9980
vn -0.7111 0.1905 -0.6768
vn -0.0614 0.0164 -0.9980
vn 0.6495 -0.1740 -0.7402
vn 0.6495 -0.1740 0.7402
vn -0.7111 -0.1905 0.6768
vn -0.0614 -0.0164 0.9980
vn -0.7111 -0.1905 -0.6768
vn -0.0614 -0.0164 -0.9980
vn 0.6495 0.1740 -0.7402
vn 0.6495 0.1740 0.7402
vn -0.5206 -0.5206 0.6768
vn -0.0449 -0.0449 0.9980
vn -0.5206 -0.5206 -0.6768
vn -0.0449 -0.0449 -0.9980
vn 0.4755 0.4755 -0.7402
vn 0.4755 0.4755 0.7402
vn -0.1905 -0.7111 0.6768
vn -0.0164 -0.0614 0.9980
vn -0.1905 -0.7111 -0.6768
vn -0.0164 -0.0614 -0.9980
vn 0.1740 0.6495 -0.7402
vn 0.1740 0.6495 0.7402
vt 0.507452 0.402253
vt 0.519294 0.354167
vt 0.599597 0.396272
vt 0.566778 0.433360
vt 0.810960 0.382613
vt 0.815866 0.333333
vt 0.914376 0.353141
vt 0.899852 0.400486
vt 0.715384 0.677083
vt 0.720290 0.726363
vt 0.631398 0.744236
vt 0.616874 0.696891
vt 0.147373 0.645834
vt 0.159215 0.693920
vt 0.099889 0.725027
vt 0.067070 0.687939
vt 0.502965 0.740111
vt 0.514806 0.788198
vt 0.476454 0.808305
vt 0.443638 0.771217
vt 0.712723 0.756619
vt 0.717628 0.805898
vt 0.684791 0.812500
vt 0.670270 0.765154
vt 0.761539 0.576731
vt 0.766444 0.527452
vt 0.808897 0.535988
vt 0.794376 0.583333
vt 0.162277 0.371531
vt 0.174119 0.323445
vt 0.233445 0.354551
vt 0.200629 0.391639
vt 0.566778 0.433360
vt 0.651163 0.470851
vt 0.604876 0.488459
vt 0.547432 0.071189
vt 0.594778 0.056666
vt 0.614583 0.155176
vt 0.565304 0.160081
vt 0.446889 0.431666
vt 0.494235 0.446189
vt 0.476364 0.535081
vt 0.427084 0.530176
vt 0.067070 0.687939
vt 0.061790 0.780125
vt 0.015504 0.762518
vt 0.443638 0.771217
vt 0.451826 0.843923
vt 0.405540 0.826315
vt 0.181821 0.871787
vt 0.229167 0.886311
vt 0.222564 0.919147
vt 0.173284 0.914242
vt 0.166667 0.740478
vt 0.214012 0.725954
vt 0.222549 0.768409
vt 0.173270 0.773314
vt 0.200629 0.391639
vt 0.271544 0.409649
vt 0.225257 0.427257
vt 0.604876 0.488459
vt 0.662201 0.560848
vt 0.613030 0.554948
vt 0.565303 0.160081
vt 0.614583 0.255657
vt 0.565303 0.250752
vt 0.427083 0.530176
vt 0.476364 0.625752
vt 0.427083 0.630657
vt 0.015503 0.762518
vt 0.053636 0.846615
vt 0.004465 0.852515
vt 0.405540 0.826315
vt 0.446554 0.886905
vt 0.397384 0.892804
vt 0.173285 0.914242
vt 0.222564 0.952641
vt 0.173285 0.957546
vt 0.173270 0.773314
vt 0.222549 0.811713
vt 0.173270 0.806808
vt 0.225258 0.427257
vt 0.279699 0.476138
vt 0.230530 0.470239
vt 0.613031 0.554948
vt 0.630185 0.645678
vt 0.589377 0.617620
vt 0.565304 0.250752
vt 0.594776 0.354167
vt 0.547430 0.339644
vt 0.427084 0.630657
vt 0.494237 0.714644
vt 0.446892 0.729167
vt 0.004466 0.852515
vt 0.077290 0.909287
vt 0.036481 0.937345
vt 0.397384 0.892804
vt 0.461844 0.927419
vt 0.421036 0.955477
vt 0.173284 0.957546
vt 0.229167 0.985477
vt 0.181821 1.000000
vt 0.173270 0.806808
vt 0.214012 0.854167
vt 0.166667 0.839644
vt 0.230529 0.470239
vt 0.256047 0.538810
vt 0.215240 0.510753
vt 0.589377 0.617621
vt 0.562438 0.705941
vt 0.539327 0.662142
vt 0.951936 0.443265
vt 0.966459 0.490611
vt 0.867949 0.510417
vt 0.863044 0.461138
vt 0.668958 0.646861
vt 0.683480 0.599515
vt 0.772373 0.617387
vt 0.767468 0.666667
vt 0.036482 0.937345
vt 0.127340 0.953809
vt 0.104229 0.997608
vt 0.421036 0.955477
vt 0.494198 0.956201
vt 0.471085 1.000000
vt 0.472353 0.901512
vt 0.486875 0.854167
vt 0.519711 0.860769
vt 0.514806 0.910048
vt 0.783958 0.937500
vt 0.798480 0.984845
vt 0.756027 0.993382
vt 0.751122 0.944102
vt 0.215239 0.510753
vt 0.205998 0.583333
vt 0.182885 0.539535
vt 0.184535 0.583333
vt 0.196377 0.635417
vt 0.105706 0.635417
vt 0.117548 0.583333
vt 0.863044 0.461138
vt 0.767468 0.510417
vt 0.772373 0.461138
vt 0.767468 0.666667
vt 0.863044 0.617387
vt 0.867949 0.666667
vt 0.001540 0.656250
vt 0.013381 0.604167
vt 0.080369 0.604167
vt 0.092210 0.656250
vt 0.242548 0.854167
vt 0.254390 0.802083
vt 0.297694 0.802083
vt 0.309535 0.854167
vt 0.514806 0.910048
vt 0.553205 0.860769
vt 0.558110 0.910048
vt 0.751122 0.944103
vt 0.712723 0.993382
vt 0.717628 0.944103
vt 0.547694 0.562500
vt 0.559535 0.614583
vt 0.492548 0.614583
vt 0.504390 0.562500
vt 0.408590 0.662142
vt 0.385479 0.705941
vt 0.317731 0.645678
vt 0.358539 0.617621
vt 0.772373 0.461138
vt 0.668958 0.490611
vt 0.683480 0.443265
vt 0.867949 0.666667
vt 0.951936 0.599515
vt 0.966458 0.646861
vt 0.281188 0.997608
vt 0.258077 0.953809
vt 0.308127 0.909287
vt 0.348935 0.937345
vt 0.601832 1.000000
vt 0.578719 0.956201
vt 0.611073 0.927419
vt 0.651881 0.955477
vt 0.558110 0.910048
vt 0.586041 0.854167
vt 0.600564 0.901512
vt 0.717628 0.944102
vt 0.670270 0.984845
vt 0.684792 0.937500
vt 0.098365 0.539535
vt 0.075252 0.583333
vt 0.025203 0.538810
vt 0.066011 0.510753
vt 0.358540 0.617620
vt 0.285716 0.560848
vt 0.334886 0.554948
vt 0.421320 0.329228
vt 0.373974 0.343750
vt 0.354167 0.245241
vt 0.403446 0.240336
vt 0.323942 0.385417
vt 0.276596 0.370894
vt 0.294470 0.282002
vt 0.343749 0.286907
vt 0.348935 0.937345
vt 0.331781 0.846615
vt 0.380951 0.852515
vt 0.651881 0.955477
vt 0.626363 0.886905
vt 0.675533 0.892804
vt 0.141096 0.906250
vt 0.093750 0.891727
vt 0.100353 0.858891
vt 0.149632 0.863796
vt 0.166667 0.519940
vt 0.119321 0.534463
vt 0.110784 0.492009
vt 0.160064 0.487104
vt 0.066010 0.510753
vt 0.001551 0.476138
vt 0.050721 0.470239
vt 0.334886 0.554948
vt 0.296754 0.470851
vt 0.343041 0.488459
vt 0.403447 0.240335
vt 0.354167 0.144759
vt 0.403447 0.149665
vt 0.343750 0.286907
vt 0.294470 0.191331
vt 0.343750 0.186426
vt 0.380951 0.852515
vt 0.323626 0.780125
vt 0.369913 0.762518
vt 0.675532 0.892804
vt 0.621091 0.843923
vt 0.667377 0.826315
vt 0.149632 0.863796
vt 0.100353 0.825397
vt 0.149632 0.820492
vt 0.160063 0.487104
vt 0.110784 0.448705
vt 0.160063 0.453610
vt 0.050720 0.470239
vt 0.009706 0.409649
vt 0.055992 0.427257
vt 0.343040 0.488459
vt 0.348320 0.396272
vt 0.381139 0.433360
vt 0.403446 0.149665
vt 0.373972 0.046250
vt 0.421318 0.060772
vt 0.343749 0.186426
vt 0.276598 0.102439
vt 0.323944 0.087916
vt 0.369913 0.762518
vt 0.285528 0.725027
vt 0.318346 0.687939
vt 0.667377 0.826315
vt 0.596462 0.808305
vt 0.629279 0.771217
vt 0.149632 0.820492
vt 0.093750 0.792561
vt 0.141096 0.778037
vt 0.160064 0.453610
vt 0.119321 0.406250
vt 0.166667 0.420774
vt 0.055993 0.427257
vt 0.047805 0.354551
vt 0.080621 0.391639
vt 0.381138 0.433360
vt 0.428623 0.354167
vt 0.440464 0.402253
vt 0.631398 0.400486
vt 0.616874 0.353141
vt 0.715384 0.333333
vt 0.720290 0.382613
vt 0.914376 0.696891
vt 0.899852 0.744236
vt 0.810960 0.726363
vt 0.815866 0.677083
vt 0.318346 0.687939
vt 0.226202 0.693920
vt 0.238044 0.645834
vt 0.629279 0.771217
vt 0.558110 0.788198
vt 0.569952 0.740111
vt 0.798480 0.765154
vt 0.783959 0.812500
vt 0.751122 0.805898
vt 0.756027 0.756619
vt 0.695208 0.583333
vt 0.680686 0.535988
vt 0.723140 0.527452
vt 0.728045 0.576731
vt 0.080621 0.391639
vt 0.107131 0.323445
vt 0.118973 0.371531
vt 0.440465 0.402253
vt 0.507452 0.402253
vt 0.720290 0.382612
vt 0.810960 0.382612
vt 0.815866 0.677084
vt 0.715384 0.677084
vt 0.238044 0.645833
vt 0.147373 0.645833
vt 0.756027 0.756619
vt 0.712723 0.756619
vt 0.728045 0.576731
vt 0.761539 0.576731
vt 0.118973 0.371531
s 1
usemtl m_d366a928-24b8-988a-49f9-14eeec1a41f4
f 53/53/5 54/54/6 62/55/7 61/56/8
f 54/57/6 55/58/9 63/59/10 62/60/7
f 55/61/9 56/62/11 64/63/12 63/64/10
f 56/65/11 57/66/13 65/67/14 64/68/12
f 57/69/13 58/70/15 66/71/16 65/72/14
f 58/73/15 59/74/17 67/75/18 66/76/16
f 59/77/17 60/78/19 68/79/20 67/80/18
f 60/81/19 53/82/5 61/83/8 68/84/20
f 61/85/8 62/55/7 70/86/21 69/87/22
f 62/88/7 63/89/10 71/90/23 70/91/21
f 63/92/10 64/93/12 72/94/24 71/95/23
f 64/96/12 65/67/14 73/97/25 72/98/24
f 65/99/14 66/71/16 74/100/26 73/101/25
f 66/102/16 67/103/18 75/104/27 74/105/26
f 67/106/18 68/107/20 76/108/28 75/109/27
f 68/110/20 61/83/8 69/111/22 76/112/28
f 69/113/22 70/86/21 78/114/29 77/115/30
f 70/116/21 71/90/23 79/117/31 78/118/29
f 71/119/23 72/94/24 80/120/32 79/121/31
f 72/122/24 73/97/25 81/123/33 80/124/32
f 73/125/25 74/100/26 82/126/34 81/127/33
f 74/128/26 75/104/27 83/129/35 82/130/34
f 75/131/27 76/108/28 84/132/36 83/133/35
f 76/134/28 69/111/22 77/135/30 84/136/36
f 77/137/30 78/114/29 86/138/37 85/139/38
f 78/140/29 79/117/31 87/141/39 86/142/37
f 79/143/31 80/120/32 88/144/40 87/145/39
f 80/146/32 81/123/33 89/147/41 88/148/40
f 81/149/33 82/126/34 90/150/42 89/151/41
f 82/152/34 83/129/35 91/153/43 90/154/42
f 83/155/35 84/132/36 92/156/44 91/157/43
f 84/158/36 77/135/30 85/159/38 92/160/44
f 85/161/38 86/138/37 94/162/45 93/163/46
f 86/164/37 87/165/39 95/166/47 94/167/45
f 87/168/39 88/169/40 96/170/48 95/171/47
f 88/172/40 89/147/41 97/173/49 96/174/48
f 89/175/41 90/150/42 98/176/50 97/177/49
f 90/178/42 91/179/43 99/180/51 98/181/50
f 91/182/43 92/183/44 100/184/52 99/185/51
f 92/186/44 85/159/38 93/187/46 100/188/52
f 93/189/46 94/190/45 102/191/53 101/192/54
f 94/193/45 95/166/47 103/194/17 102/195/53
f 95/196/47 96/170/48 104/197/55 103/198/17
f 96/199/48 97/200/49 105/201/56 104/202/55
f 97/203/49 98/204/50 106/205/57 105/206/56
f 98/207/50 99/180/51 107/208/9 106/209/57
f 99/210/51 100/184/52 108/211/58 107/212/9
f 100/213/52 93/214/46 101/215/54 108/216/58
f 101/217/54 102/218/53 110/219/59 109/220/60
f 102/221/53 103/194/17 111/222/18 110/223/59
f 103/224/17 104/197/55 112/225/61 111/226/18
f 104/227/55 105/228/56 113/229/62 112/230/61
f 105/231/56 106/232/57 114/233/63 113/234/62
f 106/235/57 107/208/9 115/236/10 114/237/63
f 107/238/9 108/211/58 116/239/64 115/240/10
f 108/241/58 101/242/54 109/243/60 116/244/64
f 109/245/60 110/219/59 118/246/65 117/247/66
f 110/248/59 111/249/18 119/250/27 118/251/65
f 111/252/18 112/253/61 120/254/67 119/255/27
f 112/256/61 113/229/62 121/257/68 120/258/67
f 113/259/62 114/233/63 122/260/69 121/261/68
f 114/262/63 115/263/10 123/264/23 122/265/69
f 115/266/10 116/267/64 124/268/70 123/269/23
f 116/270/64 109/243/60 117/271/66 124/272/70
f 117/273/66 118/246/65 126/274/71 125/275/72
f 118/276/65 119/250/27 127/277/35 126/278/71
f 119/279/27 120/254/67 128/280/73 127/281/35
f 120/282/67 121/257/68 129/283/74 128/284/73
f 121/285/68 122/260/69 130/286/75 129/287/74
f 122/288/69 123/264/23 131/289/31 130/290/75
f 123/291/23 124/268/70 132/292/76 131/293/31
f 124/294/70 117/271/66 125/295/72 132/296/76
f 125/297/72 126/274/71 134/298/77 133/299/78
f 126/300/71 127/277/35 135/301/43 134/302/77
f 127/303/35 128/280/73 136/304/79 135/305/43
f 128/306/73 129/283/74 137/307/80 136/308/79
f 129/309/74 130/286/75 138/310/81 137/311/80
f 130/312/75 131/289/31 139/313/39 138/314/81
f 131/315/31 132/292/76 140/316/82 139/317/39
f 132/318/76 125/295/72 133/319/78 140/320/82
f 133/321/78 134/298/77 142/322/83 141/323/84
f 134/324/77 135/325/43 143/326/51 142/327/83
f 135/328/43 136/329/79 144/330/85 143/331/51
f 136/332/79 137/307/80 145/333/86 144/334/85
f 137/335/80 138/310/81 146/336/87 145/337/86
f 138/338/81 139/339/39 147/340/47 146/341/87
f 139/342/39 140/343/82 148/344/88 147/345/47
f 140/346/82 133/319/78 141/347/84 148/348/88
f 141/349/84 142/322/83 54/54/6 53/350/5
f 142/351/83 143/326/51 55/58/9 54/352/6
f 143/353/51 144/330/85 56/62/11 55/354/9
f 144/355/85 145/333/86 57/66/13 56/356/11
f 145/337/86 146/336/87 58/70/15 57/69/13
f 146/357/87 147/340/47 59/74/17 58/358/15
f 147/359/47 148/344/88 60/78/19 59/360/17
f 148/361/88 141/347/84 53/82/5 60/81/19
