# Blender 4.3.2
# www.blender.org
mtllib tomato.mtl
o body
v 0.092108 0.917388 0.312500
v 0.251642 0.917388 0.228766
v 0.000000 0.984375 -0.000000
v 0.159535 0.734375 0.541266
v 0.435858 0.734375 0.396234
v 0.184215 0.484375 0.625000
v 0.503285 0.484375 0.457532
v 0.159535 0.234375 0.541266
v 0.435858 0.234375 0.396234
v 0.092108 0.051362 0.312500
v 0.251642 0.051362 0.228766
v 0.000000 0.000000 0.000000
v 0.343750 0.917388 0.083734
v 0.595392 0.734375 0.145032
v 0.687500 0.484375 0.167468
v 0.595392 0.234375 0.145032
v 0.343750 0.051362 0.083734
v 0.343750 0.917388 -0.083734
v 0.595392 0.734375 -0.145032
v 0.687500 0.484375 -0.167468
v 0.595392 0.234375 -0.145032
v 0.343750 0.051362 -0.083734
v 0.251642 0.917388 -0.228766
v 0.435858 0.734375 -0.396234
v 0.503285 0.484375 -0.457532
v 0.435858 0.234375 -0.396234
v 0.251642 0.051362 -0.228766
v 0.092108 0.917388 -0.312500
v 0.159535 0.734375 -0.541266
v 0.184215 0.484375 -0.625000
v 0.159535 0.234375 -0.541266
v 0.092108 0.051362 -0.312500
v -0.092108 0.917388 -0.312500
v -0.159535 0.734375 -0.541266
v -0.184215 0.484375 -0.625000
v -0.159535 0.234375 -0.541266
v -0.092108 0.051362 -0.312500
v -0.251642 0.917388 -0.228766
v -0.435858 0.734375 -0.396234
v -0.503285 0.484375 -0.457532
v -0.435858 0.234375 -0.396234
v -0.251642 0.051362 -0.228766
v -0.343750 0.917388 -0.083734
v -0.595392 0.734375 -0.145032
v -0.687500 0.484375 -0.167468
v -0.595392 0.234375 -0.145032
v -0.343750 0.051362 -0.083734
v -0.343750 0.917388 0.083734
v -0.595392 0.734375 0.145032
v -0.687500 0.484375 0.167468
v -0.595392 0.234375 0.145032
v -0.343750 0.051362 0.083734
v -0.251642 0.917388 0.228766
v -0.435858 0.734375 0.396234
v -0.503285 0.484375 0.457532
v -0.435858 0.234375 0.396234
v -0.251642 0.051362 0.228766
v -0.092108 0.917388 0.312500
v -0.159535 0.734375 0.541266
v -0.184215 0.484375 0.625000
v -0.159535 0.234375 0.541266
v -0.092108 0.051362 0.312500
vn 0.1044 0.8962 0.4312
vn 0.2905 0.9012 0.3216
vn -0.0000 1.0000 -0.0000
vn 0.1974 0.5658 0.8006
vn 0.5533 0.5768 0.6011
vn 0.2414 -0.0000 0.9704
vn 0.6807 -0.0000 0.7325
vn 0.1974 -0.5658 0.8006
vn 0.5533 -0.5768 0.6011
vn 0.1000 -0.9048 0.4139
vn 0.2788 -0.9092 0.3092
vn -0.0000 -1.0000 -0.0000
vn 0.4048 0.9065 0.1201
vn 0.7766 0.5880 0.2260
vn 0.9610 -0.0000 0.2767
vn 0.7766 -0.5880 0.2260
vn 0.3892 -0.9139 0.1157
vn 0.4048 0.9065 -0.1201
vn 0.7766 0.5880 -0.2260
vn 0.9610 -0.0000 -0.2767
vn 0.7766 -0.5880 -0.2260
vn 0.3892 -0.9139 -0.1157
vn 0.2905 0.9012 -0.3216
vn 0.5533 0.5768 -0.6011
vn 0.6807 -0.0000 -0.7325
vn 0.5533 -0.5768 -0.6011
vn 0.2788 -0.9092 -0.3092
vn 0.1044 0.8962 -0.4312
vn 0.1974 0.5658 -0.8006
vn 0.2414 -0.0000 -0.9704
vn 0.1974 -0.5658 -0.8006
vn 0.1000 -0.9048 -0.4139
vn -0.1044 0.8962 -0.4312
vn -0.1974 0.5658 -0.8006
vn -0.2414 -0.0000 -0.9704
vn -0.1974 -0.5658 -0.8006
vn -0.1000 -0.9048 -0.4139
vn -0.2905 0.9012 -0.3216
vn -0.5533 0.5768 -0.6011
vn -0.6807 -0.0000 -0.7325
vn -0.5533 -0.5768 -0.6011
vn -0.2788 -0.9092 -0.3092
vn -0.4048 0.9065 -0.1201
vn -0.7766 0.5880 -0.2260
vn -0.9610 -0.0000 -0.2767
vn -0.7766 -0.5880 -0.2260
vn -0.3892 -0.9139 -0.1157
vn -0.4048 0.9065 0.1201
vn -0.7766 0.5880 0.2260
vn -0.9610 -0.0000 0.2767
vn -0.7766 -0.5880 0.2260
vn -0.3892 -0.9139 0.1157
vn -0.2905 0.9012 0.3216
vn -0.5533 0.5768 0.6011
vn -0.6807 -0.0000 0.7325
vn -0.5533 -0.5768 0.6011
vn -0.2788 -0.9092 0.3092
vn -0.1044 0.8962 0.4312
vn -0.1974 0.5658 0.8006
vn -0.2414 -0.0000 0.9704
vn -0.1974 -0.5658 0.8006
vn -0.1000 -0.9048 0.4139
vt 0.630242 0.817101
vt 0.670335 0.837630
vt 0.607216 0.897000
vt 0.647100 0.743860
vt 0.719496 0.772937
vt 0.672040 0.833889
vt 0.805509 0.706490
vt 0.811678 0.640578
vt 0.900646 0.654735
vt 0.882557 0.718750
vt 0.749178 0.468798
vt 0.743009 0.402885
vt 0.820057 0.390625
vt 0.838146 0.454642
vt 0.486152 0.738672
vt 0.462686 0.667273
vt 0.502779 0.646744
vt 0.555595 0.703115
vt 0.439659 0.587373
vt 0.694091 0.873414
vt 0.607214 0.897001
vt 0.771335 0.826298
vt 0.701969 0.864696
vt 0.304864 0.312500
vt 0.287971 0.248159
vt 0.372195 0.231251
vt 0.377805 0.297858
vt 0.631721 0.579968
vt 0.648614 0.515625
vt 0.721555 0.530267
vt 0.715945 0.596875
vt 0.560629 0.697935
vt 0.526536 0.610961
vt 0.601777 0.635955
vt 0.695365 0.915260
vt 0.793529 0.895334
vt 0.714783 0.904553
vt 0.455930 0.231251
vt 0.450320 0.297858
vt 0.715945 0.596874
vt 0.794070 0.530267
vt 0.799680 0.596874
vt 0.603823 0.628646
vt 0.527810 0.569114
vt 0.606030 0.556164
vt 0.673830 0.952423
vt 0.782499 0.968907
vt 0.708414 0.947030
vt 0.540154 0.248159
vt 0.523260 0.312500
vt 0.799680 0.596875
vt 0.867011 0.515625
vt 0.883904 0.579968
vt 0.604433 0.548744
vt 0.506275 0.531952
vt 0.567132 0.484375
vt 0.635059 0.975352
vt 0.607216 0.897002
vt 0.337666 0.484375
vt 0.304943 0.414401
vt 0.381991 0.402141
vt 0.382150 0.477297
vt 0.286854 0.350386
vt 0.375822 0.336229
vt 0.005604 0.477741
vt 0.023693 0.413724
vt 0.100741 0.425984
vt 0.094572 0.491898
vt 0.056416 0.343750
vt 0.100900 0.350828
vt 0.467505 0.509021
vt 0.439659 0.587372
vt 0.625339 0.978154
vt 0.579372 0.975352
vt 0.607215 0.897001
vt 0.398848 0.475382
vt 0.461759 0.402141
vt 0.444902 0.475382
vt 0.467928 0.336229
vt 0.094572 0.491896
vt 0.180509 0.425984
vt 0.186678 0.491896
vt 0.117598 0.352743
vt 0.163652 0.352743
vt 0.421537 0.506219
vt 0.540601 0.952423
vt 0.607215 0.897002
vt 0.461600 0.477297
vt 0.538807 0.414401
vt 0.506084 0.484375
vt 0.556896 0.350386
vt 0.186678 0.491898
vt 0.257557 0.413724
vt 0.275646 0.477741
vt 0.180350 0.350828
vt 0.224835 0.343750
vt 0.373044 0.531952
vt 0.411814 0.509021
vt 0.519065 0.915260
vt 0.607216 0.897001
vt 0.479744 1.000000
vt 0.442443 0.935632
vt 0.023615 0.328125
vt 0.006721 0.263784
vt 0.090945 0.246876
vt 0.096555 0.313483
vt 0.584846 0.345593
vt 0.601739 0.281250
vt 0.674680 0.295892
vt 0.669070 0.362500
vt 0.264375 0.515467
vt 0.338460 0.537344
vt 0.332092 0.579821
vt 0.253345 0.589040
vt 0.351508 0.569114
vt 0.439660 0.587373
vt 0.520339 0.873414
vt 0.440846 0.928211
vt 0.443052 0.855729
vt 0.174680 0.246876
vt 0.169070 0.313483
vt 0.669070 0.362499
vt 0.747195 0.295892
vt 0.752805 0.362499
vt 0.344906 0.619678
vt 0.275540 0.658076
vt 0.352783 0.610961
vt 0.544095 0.837630
vt 0.445097 0.848420
vt 0.486245 0.786440
vt 0.258904 0.263784
vt 0.242011 0.328125
vt 0.752805 0.362500
vt 0.820136 0.281250
vt 0.837029 0.345593
vt 0.374834 0.650486
vt 0.327379 0.711437
vt 0.376539 0.646744
vt 0.584189 0.817101
vt 0.607215 0.897000
vt 0.491279 0.781260
vt 0.560723 0.745703
vt 0.648693 0.718750
vt 0.630604 0.654735
vt 0.719572 0.640578
vt 0.725741 0.706490
vt 0.568104 0.454642
vt 0.586193 0.390625
vt 0.663241 0.402885
vt 0.657072 0.468798
vt 0.327378 0.711437
vt 0.416633 0.667273
vt 0.399775 0.740514
vt 0.567331 0.743860
vt 0.725741 0.706491
vt 0.805509 0.706491
vt 0.657072 0.468797
vt 0.749178 0.468797
vt 0.479544 0.740514
s 1
usemtl m_e7da4106-971c-0baa-dd6f-9513db34f385
f 1/1/1 2/2/2 3/3/3
f 1/1/1 4/4/4 5/5/5 2/6/2
f 4/7/4 6/8/6 7/9/7 5/10/5
f 6/11/6 8/12/8 9/13/9 7/14/7
f 8/15/8 10/16/10 11/17/11 9/18/9
f 11/17/11 10/16/10 12/19/12
f 2/2/2 13/20/13 3/21/3
f 2/6/2 5/5/5 14/22/14 13/23/13
f 5/24/5 7/25/7 15/26/15 14/27/14
f 7/28/7 9/29/9 16/30/16 15/31/15
f 9/32/9 11/17/11 17/33/17 16/34/16
f 17/33/17 11/17/11 12/19/12
f 13/20/13 18/35/18 3/21/3
f 13/23/13 14/22/14 19/36/19 18/37/18
f 14/27/14 15/26/15 20/38/20 19/39/19
f 15/40/15 16/30/16 21/41/21 20/42/20
f 16/43/16 17/33/17 22/44/22 21/45/21
f 22/44/22 17/33/17 12/19/12
f 18/35/18 23/46/23 3/21/3
f 18/37/18 19/36/19 24/47/24 23/48/23
f 19/39/19 20/38/20 25/49/25 24/50/24
f 20/51/20 21/41/21 26/52/26 25/53/25
f 21/54/21 22/44/22 27/55/27 26/56/26
f 27/55/27 22/44/22 12/19/12
f 23/46/23 28/57/28 3/58/3
f 23/59/23 24/60/24 29/61/29 28/62/28
f 24/60/24 25/63/25 30/64/30 29/61/29
f 25/65/25 26/66/26 31/67/31 30/68/30
f 26/66/26 27/69/27 32/70/32 31/67/31
f 32/71/32 27/55/27 12/72/12
f 28/73/28 33/74/33 3/75/3
f 28/76/28 29/61/29 34/77/34 33/78/33
f 29/61/29 30/64/30 35/79/35 34/77/34
f 30/80/30 31/67/31 36/81/36 35/82/35
f 31/67/31 32/83/32 37/84/37 36/81/36
f 37/85/37 32/71/32 12/72/12
f 33/74/33 38/86/38 3/87/3
f 33/88/33 34/77/34 39/89/39 38/90/38
f 34/77/34 35/79/35 40/91/40 39/89/39
f 35/92/35 36/81/36 41/93/41 40/94/40
f 36/81/36 37/95/37 42/96/42 41/93/41
f 42/97/42 37/98/37 12/72/12
f 38/86/38 43/99/43 3/100/3
f 38/86/38 39/101/39 44/102/44 43/99/43
f 39/103/39 40/104/40 45/105/45 44/106/44
f 40/107/40 41/108/41 46/109/46 45/110/45
f 41/111/41 42/112/42 47/113/47 46/114/46
f 47/115/47 42/97/42 12/116/12
f 43/99/43 48/117/48 3/100/3
f 43/99/43 44/118/44 49/119/49 48/117/48
f 44/106/44 45/105/45 50/120/50 49/121/49
f 45/122/45 46/109/46 51/123/51 50/124/50
f 46/114/46 47/113/47 52/125/52 51/126/51
f 52/127/52 47/115/47 12/116/12
f 48/117/48 53/128/53 3/100/3
f 48/117/48 49/129/49 54/130/54 53/128/53
f 49/121/49 50/120/50 55/131/55 54/132/54
f 50/133/50 51/123/51 56/134/56 55/135/55
f 51/126/51 52/125/52 57/136/57 56/137/56
f 57/138/57 52/127/52 12/116/12
f 53/128/53 58/139/58 3/140/3
f 53/128/53 54/141/54 59/142/59 58/139/58
f 54/143/54 55/144/55 60/145/60 59/146/59
f 55/147/55 56/148/56 61/149/61 60/150/60
f 56/151/56 57/136/57 62/152/62 61/153/61
f 62/152/62 57/138/57 12/19/12
f 58/139/58 1/1/1 3/75/3
f 58/139/58 59/154/59 4/4/4 1/1/1
f 59/155/59 60/145/60 6/8/6 4/156/4
f 60/157/60 61/149/61 8/12/8 6/158/6
f 61/153/61 62/152/62 10/16/10 8/159/8
f 10/16/10 62/152/62 12/19/12
o hair
v -0.031250 1.140625 0.031250
v 0.031250 1.140625 0.031250
v 0.031250 1.140625 -0.031250
v -0.031250 1.140625 -0.031250
v 0.031250 0.953125 0.031250
v 0.031250 0.953125 -0.031250
v -0.031250 0.953125 -0.031250
v -0.031250 0.953125 0.031250
v -0.500000 0.609375 -0.625000
v -0.166667 0.984375 -0.166667
v -0.166667 0.921875 -0.500000
v 0.625000 0.859375 -0.166667
v 0.166667 0.984375 -0.312500
v 0.104167 0.984375 -0.041667
v -0.166667 0.984375 0.437500
v -0.437500 0.921875 0.166667
v -0.562500 0.796875 0.625000
v -0.166667 0.984375 0.166667
v -0.500000 0.859375 -0.166667
v 0.562500 0.734375 0.437500
v 0.104167 0.984375 0.229167
v 0.041667 0.859375 0.562500
v 0.437500 0.734375 -0.500000
v 0.375000 0.984375 0.166667
vn -0.5774 0.5774 0.5774
vn 0.5774 0.5774 0.5774
vn 0.5774 0.5774 -0.5774
vn -0.5774 0.5774 -0.5774
vn 0.7071 -0.0000 0.7071
vn 0.7071 -0.0000 -0.7071
vn -0.7071 -0.0000 -0.7071
vn -0.7071 -0.0000 0.7071
vn -0.4837 0.8162 -0.3160
vn -0.1852 0.9722 -0.1433
vn -0.4602 0.8771 -0.1376
vn 0.2889 0.9133 -0.2872
vn 0.0992 0.9891 -0.1087
vn 0.0579 0.9973 -0.0457
vn 0.1200 0.9915 0.0494
vn -0.2689 0.9629 -0.0216
vn -0.3636 0.9191 0.1515
vn -0.0967 0.9948 0.0315
vn -0.3120 0.9047 -0.2900
vn 0.2362 0.8400 0.4884
vn 0.0578 0.9676 0.2457
vn 0.2590 0.9190 0.2971
vn 0.3726 0.7803 -0.5022
vn 0.1367 0.9697 0.2022
vt 0.093750 0.984375
vt 0.109375 0.984375
vt 0.109375 1.000000
vt 0.093750 1.000000
vt 0.171875 1.000000
vt 0.171875 0.953125
vt 0.187500 0.953125
vt 0.187500 1.000000
vt 0.343750 0.921875
vt 0.343750 0.875000
vt 0.359375 0.875000
vt 0.359375 0.921875
vt 0.375000 0.921875
vt 0.375000 0.875000
vt 0.390625 0.875000
vt 0.390625 0.921875
vt 0.203125 1.000000
vt 0.203125 0.953125
vt 0.218750 0.953125
vt 0.218750 1.000000
vt 0.007744 1.000000
vt 0.118688 0.871337
vt 0.113202 0.952206
vt 0.320381 0.871003
vt 0.201735 0.907860
vt 0.186397 0.840087
vt 0.119357 0.956119
vt 0.201431 0.906518
vt 0.118688 0.720295
vt 0.049200 0.788003
vt 0.011724 0.673420
vt 0.118688 0.788003
vt 0.029688 0.871337
vt 0.272352 0.713982
vt 0.185618 0.768279
vt 0.169516 0.683606
vt 0.282875 0.951936
vt 0.253001 0.784819
vt 0.186397 0.838306
vt 0.186397 0.772378
vt 0.320101 0.870404
vt 0.253474 0.783248
vt 0.118687 0.788003
vt 0.119605 0.724267
vt 0.049803 0.788003
vt 0.118689 0.871336
s 1
usemtl m_e7da4106-971c-0baa-dd6f-9513db34f385
f 63/160/63 64/161/64 65/162/65 66/163/66
f 64/164/64 67/165/67 68/166/68 65/167/65
f 65/168/65 68/169/68 69/170/69 66/171/66
f 66/172/66 69/173/69 70/174/70 63/175/63
f 63/176/63 70/177/70 67/178/67 64/179/64
f 71/180/71 72/181/72 73/182/73
f 74/183/74 75/184/75 76/185/76
f 73/186/73 76/185/76 75/187/75
f 77/188/77 78/189/78 79/190/79
f 80/191/80 72/181/72 81/192/81
f 82/193/82 83/194/83 84/195/84
f 75/184/75 74/183/74 85/196/85
f 86/197/86 76/198/76 83/199/83
f 86/197/86 74/200/74 76/198/76
f 82/193/82 86/201/86 83/194/83
f 84/195/84 83/199/83 80/202/80
f 84/195/84 80/202/80 77/203/77
f 77/188/77 80/191/80 78/189/78
f 80/191/80 81/192/81 78/204/78
f 72/181/72 71/180/71 81/192/81
f 80/191/80 83/199/83 76/185/76
f 80/191/80 76/185/76 72/181/72
f 76/185/76 73/186/73 72/205/72
o hair_inside
v -0.031250 1.140625 0.031250
v 0.031250 1.140625 0.031250
v 0.031250 1.140625 -0.031250
v -0.031250 1.140625 -0.031250
v 0.031250 0.953125 0.031250
v 0.031250 0.953125 -0.031250
v -0.031250 0.953125 -0.031250
v -0.031250 0.953125 0.031250
v -0.500000 0.609375 -0.625000
v -0.166667 0.984375 -0.166667
v -0.166667 0.921875 -0.500000
v 0.625000 0.859375 -0.166667
v 0.166667 0.984375 -0.312500
v 0.104167 0.984375 -0.041667
v -0.166667 0.984375 0.437500
v -0.437500 0.921875 0.166667
v -0.562500 0.796875 0.625000
v -0.166667 0.984375 0.166667
v -0.500000 0.859375 -0.166667
v 0.562500 0.734375 0.437500
v 0.104167 0.984375 0.229167
v 0.041667 0.859375 0.562500
v 0.437500 0.734375 -0.500000
v 0.375000 0.984375 0.166667
vn -0.5774 -0.5774 0.5774
vn -0.5774 -0.5774 -0.5774
vn 0.5774 -0.5774 -0.5774
vn 0.5774 -0.5774 0.5774
vn -0.7071 -0.0000 0.7071
vn -0.7071 -0.0000 -0.7071
vn 0.7071 -0.0000 0.7071
vn 0.7071 -0.0000 -0.7071
vn 0.1852 -0.9722 0.1433
vn 0.4837 -0.8162 0.3160
vn 0.4602 -0.8771 0.1376
vn -0.0992 -0.9891 0.1087
vn -0.2889 -0.9133 0.2872
vn -0.0579 -0.9973 0.0457
vn 0.2689 -0.9629 0.0216
vn -0.1200 -0.9915 -0.0494
vn 0.3636 -0.9191 -0.1515
vn 0.0967 -0.9948 -0.0315
vn 0.3120 -0.9047 0.2900
vn -0.0578 -0.9676 -0.2457
vn -0.2362 -0.8400 -0.4884
vn -0.2590 -0.9190 -0.2971
vn -0.3726 -0.7803 0.5022
vn -0.1367 -0.9697 -0.2022
vt 0.109375 1.000000
vt 0.109375 0.984375
vt 0.093750 0.984375
vt 0.093750 1.000000
vt 0.187500 0.953125
vt 0.171875 0.953125
vt 0.171875 1.000000
vt 0.187500 1.000000
vt 0.359375 0.875000
vt 0.343750 0.875000
vt 0.343750 0.921875
vt 0.359375 0.921875
vt 0.390625 0.875000
vt 0.375000 0.875000
vt 0.375000 0.921875
vt 0.390625 0.921875
vt 0.218750 0.953125
vt 0.203125 0.953125
vt 0.203125 1.000000
vt 0.218750 1.000000
vt 0.118688 0.871337
vt 0.007744 1.000000
vt 0.113202 0.952206
vt 0.201735 0.907860
vt 0.320381 0.871003
vt 0.186397 0.840087
vt 0.119357 0.956119
vt 0.201431 0.906518
vt 0.049200 0.788003
vt 0.118688 0.720295
vt 0.011724 0.673420
vt 0.118688 0.788003
vt 0.029688 0.871337
vt 0.185618 0.768279
vt 0.272352 0.713982
vt 0.169516 0.683606
vt 0.282875 0.951936
vt 0.186397 0.838306
vt 0.253001 0.784819
vt 0.186397 0.772378
vt 0.320101 0.870404
vt 0.253474 0.783248
vt 0.118687 0.788003
vt 0.119605 0.724267
vt 0.049803 0.788003
vt 0.118689 0.871336
s 1
usemtl m_e7da4106-971c-0baa-dd6f-9513db34f385
f 89/206/87 88/207/88 87/208/89 90/209/90
f 92/210/91 91/211/92 88/212/88 89/213/87
f 93/214/93 92/215/91 89/216/87 90/217/90
f 94/218/94 93/219/93 90/220/90 87/221/89
f 91/222/92 94/223/94 87/224/89 88/225/88
f 96/226/95 95/227/96 97/228/97
f 99/229/98 98/230/99 100/231/100
f 100/231/100 97/232/97 99/233/98
f 102/234/101 101/235/102 103/236/103
f 96/226/95 104/237/104 105/238/105
f 107/239/106 106/240/107 108/241/108
f 98/230/99 99/229/98 109/242/109
f 100/243/100 110/244/110 107/245/106
f 98/246/99 110/244/110 100/243/100
f 110/247/110 106/240/107 107/239/106
f 107/245/106 108/241/108 104/248/104
f 104/248/104 108/241/108 101/249/102
f 104/237/104 101/235/102 102/234/101
f 105/238/105 104/237/104 102/250/101
f 95/227/96 96/226/95 105/238/105
f 107/245/106 104/237/104 100/231/100
f 100/231/100 104/237/104 96/226/95
f 97/232/97 100/231/100 96/251/95
o left_eye
v -0.125000 0.678037 -0.585836
v -0.150120 0.634582 -0.588367
v -0.218750 0.703125 -0.584375
v -0.125000 0.728213 -0.582914
v -0.150120 0.771668 -0.580384
v -0.193630 0.796756 -0.578923
v -0.243870 0.796756 -0.578923
v -0.287380 0.771668 -0.580384
v -0.312500 0.728213 -0.582914
v -0.312500 0.678037 -0.585836
v -0.287380 0.634582 -0.588367
v -0.243870 0.609494 -0.589827
v -0.193630 0.609494 -0.589827
v -0.062500 0.700913 -0.579586
v -0.095994 0.642956 -0.582116
v -0.187500 0.734375 -0.578125
v -0.062500 0.767837 -0.576664
v -0.095994 0.825794 -0.574134
v -0.154006 0.859256 -0.572673
v -0.220994 0.859256 -0.572673
v -0.279006 0.825794 -0.574134
v -0.312500 0.767837 -0.576664
v -0.312500 0.700913 -0.579586
v -0.279006 0.642956 -0.582116
v -0.220994 0.609494 -0.583577
v -0.154006 0.609494 -0.583577
vn -0.0000 0.0581 -0.9983
vn -0.0000 0.0436 -0.9990
vt 0.000000 0.626520
vt 0.006280 0.615639
vt 0.023438 0.632803
vt 0.000000 0.639086
vt 0.006280 0.649967
vt 0.017158 0.656250
vt 0.029717 0.656250
vt 0.040595 0.649967
vt 0.046875 0.639086
vt 0.046875 0.626520
vt 0.040595 0.615639
vt 0.029717 0.609356
vt 0.017158 0.609356
vt 0.062500 0.632252
vt 0.070873 0.617748
vt 0.093750 0.640625
vt 0.062500 0.648998
vt 0.070873 0.663502
vt 0.085377 0.671875
vt 0.102123 0.671875
vt 0.116627 0.663502
vt 0.125000 0.648998
vt 0.125000 0.632252
vt 0.116627 0.617748
vt 0.102123 0.609375
vt 0.085377 0.609375
s 1
usemtl m_e7da4106-971c-0baa-dd6f-9513db34f385
f 111/252/111 112/253/111 113/254/111
f 114/255/111 111/252/111 113/254/111
f 115/256/111 114/255/111 113/254/111
f 116/257/111 115/256/111 113/254/111
f 117/258/111 116/257/111 113/254/111
f 118/259/111 117/258/111 113/254/111
f 119/260/111 118/259/111 113/254/111
f 120/261/111 119/260/111 113/254/111
f 121/262/111 120/261/111 113/254/111
f 122/263/111 121/262/111 113/254/111
f 123/264/111 122/263/111 113/254/111
f 112/253/111 123/264/111 113/254/111
f 124/265/112 125/266/112 126/267/112
f 127/268/112 124/265/112 126/267/112
f 128/269/112 127/268/112 126/267/112
f 129/270/112 128/269/112 126/267/112
f 130/271/112 129/270/112 126/267/112
f 131/272/112 130/271/112 126/267/112
f 132/273/112 131/272/112 126/267/112
f 133/274/112 132/273/112 126/267/112
f 134/275/112 133/274/112 126/267/112
f 135/276/112 134/275/112 126/267/112
f 136/277/112 135/276/112 126/267/112
f 125/266/112 136/277/112 126/267/112
o right_eye
v 0.095994 0.642956 -0.582116
v 0.062500 0.700913 -0.579586
v 0.187500 0.734375 -0.578125
v 0.062500 0.767837 -0.576664
v 0.095994 0.825794 -0.574134
v 0.154006 0.859256 -0.572673
v 0.220994 0.859256 -0.572673
v 0.279006 0.825794 -0.574134
v 0.312500 0.767837 -0.576664
v 0.312500 0.700913 -0.579586
v 0.279006 0.642956 -0.582116
v 0.220994 0.609494 -0.583577
v 0.154006 0.609494 -0.583577
v 0.150120 0.634582 -0.588367
v 0.125000 0.678037 -0.585836
v 0.218750 0.703125 -0.584375
v 0.125000 0.728213 -0.582914
v 0.150120 0.771668 -0.580384
v 0.193630 0.796756 -0.578923
v 0.243870 0.796756 -0.578923
v 0.287380 0.771668 -0.580384
v 0.312500 0.728213 -0.582914
v 0.312500 0.678037 -0.585836
v 0.287380 0.634582 -0.588367
v 0.243870 0.609494 -0.589827
v 0.193630 0.609494 -0.589827
vn -0.0000 0.0436 -0.9990
vn -0.0000 0.0581 -0.9983
vt 0.366627 0.945873
vt 0.375000 0.960377
vt 0.343750 0.968750
vt 0.375000 0.977123
vt 0.366627 0.991627
vt 0.352123 1.000000
vt 0.335377 1.000000
vt 0.320873 0.991627
vt 0.312500 0.977123
vt 0.312500 0.960377
vt 0.320873 0.945873
vt 0.335377 0.937500
vt 0.352123 0.937500
vt 0.337470 0.756264
vt 0.343750 0.767145
vt 0.320312 0.773428
vt 0.343750 0.779711
vt 0.337470 0.790592
vt 0.326592 0.796875
vt 0.314033 0.796875
vt 0.303155 0.790592
vt 0.296875 0.779711
vt 0.296875 0.767145
vt 0.303155 0.756264
vt 0.314033 0.749981
vt 0.326592 0.749981
s 1
usemtl m_e7da4106-971c-0baa-dd6f-9513db34f385
f 137/278/113 138/279/113 139/280/113
f 138/279/113 140/281/113 139/280/113
f 140/281/113 141/282/113 139/280/113
f 141/282/113 142/283/113 139/280/113
f 142/283/113 143/284/113 139/280/113
f 143/284/113 144/285/113 139/280/113
f 144/285/113 145/286/113 139/280/113
f 145/286/113 146/287/113 139/280/113
f 146/287/113 147/288/113 139/280/113
f 147/288/113 148/289/113 139/280/113
f 148/289/113 149/290/113 139/280/113
f 149/290/113 137/278/113 139/280/113
f 150/291/114 151/292/114 152/293/114
f 151/292/114 153/294/114 152/293/114
f 153/294/114 154/295/114 152/293/114
f 154/295/114 155/296/114 152/293/114
f 155/296/114 156/297/114 152/293/114
f 156/297/114 157/298/114 152/293/114
f 157/298/114 158/299/114 152/293/114
f 158/299/114 159/300/114 152/293/114
f 159/300/114 160/301/114 152/293/114
f 160/301/114 161/302/114 152/293/114
f 161/302/114 162/303/114 152/293/114
f 162/303/114 150/291/114 152/293/114
