# Blender 3.6.5
# www.blender.org
mtllib tomato.pbr
o body
v 0.000000 0.000000 0.000000
v 0.000000 0.984375 -0.000000
v 0.092108 0.917388 0.312500
v 0.159535 0.734375 0.541266
v 0.184215 0.484375 0.625000
v 0.159535 0.234375 0.541266
v 0.092108 0.051362 0.312500
v 0.251642 0.917388 0.228766
v 0.435858 0.734375 0.396234
v 0.503285 0.484375 0.457532
v 0.435858 0.234375 0.396234
v 0.251642 0.051362 0.228766
v 0.343750 0.917388 0.083734
v 0.595392 0.734375 0.145032
v 0.687500 0.484375 0.167468
v 0.595392 0.234375 0.145032
v 0.343750 0.051362 0.083734
v 0.343750 0.917388 -0.083734
v 0.595392 0.734375 -0.145032
v 0.687500 0.484375 -0.167468
v 0.595392 0.234375 -0.145032
v 0.343750 0.051362 -0.083734
v 0.251642 0.917388 -0.228766
v 0.435858 0.734375 -0.396234
v 0.503285 0.484375 -0.457532
v 0.435858 0.234375 -0.396234
v 0.251642 0.051362 -0.228766
v 0.092108 0.917388 -0.312500
v 0.159535 0.734375 -0.541266
v 0.184215 0.484375 -0.625000
v 0.159535 0.234375 -0.541266
v 0.092108 0.051362 -0.312500
v -0.092108 0.917388 -0.312500
v -0.159535 0.734375 -0.541266
v -0.184215 0.484375 -0.625000
v -0.159535 0.234375 -0.541266
v -0.092108 0.051362 -0.312500
v -0.251642 0.917388 -0.228766
v -0.435858 0.734375 -0.396234
v -0.503285 0.484375 -0.457532
v -0.435858 0.234375 -0.396234
v -0.251642 0.051362 -0.228766
v -0.343750 0.917388 -0.083734
v -0.595392 0.734375 -0.145032
v -0.687500 0.484375 -0.167468
v -0.595392 0.234375 -0.145032
v -0.343750 0.051362 -0.083734
v -0.343750 0.917388 0.083734
v -0.595392 0.734375 0.145032
v -0.687500 0.484375 0.167468
v -0.595392 0.234375 0.145032
v -0.343750 0.051362 0.083734
v -0.251642 0.917388 0.228766
v -0.435858 0.734375 0.396234
v -0.503285 0.484375 0.457532
v -0.435858 0.234375 0.396234
v -0.251642 0.051362 0.228766
v -0.092108 0.917388 0.312500
v -0.159535 0.734375 0.541266
v -0.184215 0.484375 0.625000
v -0.159535 0.234375 0.541266
v -0.092108 0.051362 0.312500
vn 0.1044 0.8962 0.4312
vn 0.2905 0.9012 0.3216
vn -0.0000 1.0000 -0.0000
vn 0.1974 0.5658 0.8006
vn 0.5533 0.5767 0.6011
vn 0.2414 -0.0000 0.9704
vn 0.6807 -0.0000 0.7325
vn 0.1974 -0.5658 0.8006
vn 0.5533 -0.5767 0.6011
vn 0.1000 -0.9048 0.4139
vn 0.2788 -0.9092 0.3092
vn -0.0000 -1.0000 -0.0000
vn 0.4048 0.9065 0.1201
vn 0.7766 0.5880 0.2260
vn 0.9610 -0.0000 0.2767
vn 0.7766 -0.5880 0.2260
vn 0.3892 -0.9139 0.1157
vn 0.4048 0.9065 -0.1201
vn 0.7766 0.5880 -0.2260
vn 0.9610 -0.0000 -0.2767
vn 0.7766 -0.5880 -0.2260
vn 0.3892 -0.9139 -0.1157
vn 0.2905 0.9012 -0.3216
vn 0.5533 0.5767 -0.6011
vn 0.6807 -0.0000 -0.7325
vn 0.5533 -0.5767 -0.6011
vn 0.2788 -0.9092 -0.3092
vn 0.1044 0.8962 -0.4312
vn 0.1974 0.5658 -0.8006
vn 0.2414 -0.0000 -0.9704
vn 0.1974 -0.5658 -0.8006
vn 0.1000 -0.9048 -0.4139
vn -0.1044 0.8962 -0.4312
vn -0.1974 0.5658 -0.8006
vn -0.2414 -0.0000 -0.9704
vn -0.1974 -0.5658 -0.8006
vn -0.1000 -0.9048 -0.4139
vn -0.2905 0.9012 -0.3216
vn -0.5533 0.5767 -0.6011
vn -0.6807 -0.0000 -0.7325
vn -0.5533 -0.5767 -0.6011
vn -0.2788 -0.9092 -0.3092
vn -0.4048 0.9065 -0.1201
vn -0.7766 0.5880 -0.2260
vn -0.9610 -0.0000 -0.2767
vn -0.7766 -0.5880 -0.2260
vn -0.3892 -0.9139 -0.1157
vn -0.4048 0.9065 0.1201
vn -0.7766 0.5880 0.2260
vn -0.9610 -0.0000 0.2767
vn -0.7766 -0.5880 0.2260
vn -0.3892 -0.9139 0.1157
vn -0.2905 0.9012 0.3216
vn -0.5533 0.5767 0.6011
vn -0.6807 -0.0000 0.7325
vn -0.5533 -0.5767 0.6011
vn -0.2788 -0.9092 0.3092
vn -0.1044 0.8962 0.4312
vn -0.1974 0.5658 0.8006
vn -0.2414 -0.0000 0.9704
vn -0.1974 -0.5658 0.8006
vn -0.1000 -0.9048 0.4139
vt 0.630242 0.817101
vt 0.670335 0.837630
vt 0.607216 0.897000
vt 0.630242 0.817101
vt 0.647100 0.743860
vt 0.719496 0.772937
vt 0.672040 0.833889
vt 0.805509 0.706490
vt 0.811678 0.640578
vt 0.900646 0.654735
vt 0.882557 0.718750
vt 0.749178 0.468798
vt 0.743009 0.402885
vt 0.820057 0.390625
vt 0.838146 0.454642
vt 0.486152 0.738672
vt 0.462686 0.667273
vt 0.502779 0.646744
vt 0.555595 0.703115
vt 0.439659 0.587373
vt 0.694091 0.873414
vt 0.607214 0.897001
vt 0.672040 0.833889
vt 0.771335 0.826298
vt 0.701969 0.864696
vt 0.304864 0.312500
vt 0.287971 0.248159
vt 0.372195 0.231251
vt 0.377805 0.297858
vt 0.631721 0.579968
vt 0.648614 0.515625
vt 0.721555 0.530267
vt 0.715945 0.596875
vt 0.560629 0.697935
vt 0.526536 0.610961
vt 0.601777 0.635955
vt 0.439659 0.587373
vt 0.695365 0.915260
vt 0.607214 0.897001
vt 0.701969 0.864696
vt 0.793529 0.895334
vt 0.714783 0.904553
vt 0.377805 0.297858
vt 0.455930 0.231251
vt 0.450320 0.297858
vt 0.715945 0.596874
vt 0.794070 0.530267
vt 0.799680 0.596874
vt 0.603823 0.628646
vt 0.527810 0.569114
vt 0.606030 0.556164
vt 0.439659 0.587373
vt 0.673830 0.952423
vt 0.607214 0.897001
vt 0.714783 0.904553
vt 0.782499 0.968907
vt 0.708414 0.947030
vt 0.450320 0.297858
vt 0.540154 0.248159
vt 0.523260 0.312500
vt 0.799680 0.596875
vt 0.867011 0.515625
vt 0.883904 0.579968
vt 0.604433 0.548744
vt 0.506275 0.531952
vt 0.567132 0.484375
vt 0.439659 0.587373
vt 0.635059 0.975352
vt 0.607216 0.897002
vt 0.337666 0.484375
vt 0.304943 0.414401
vt 0.381991 0.402141
vt 0.382150 0.477297
vt 0.286854 0.350386
vt 0.375822 0.336229
vt 0.005604 0.477741
vt 0.023693 0.413724
vt 0.100741 0.425984
vt 0.094572 0.491898
vt 0.056416 0.343750
vt 0.100900 0.350828
vt 0.467505 0.509021
vt 0.439659 0.587372
vt 0.625339 0.978154
vt 0.579372 0.975352
vt 0.607215 0.897001
vt 0.398848 0.475382
vt 0.381991 0.402141
vt 0.461759 0.402141
vt 0.444902 0.475382
vt 0.467928 0.336229
vt 0.094572 0.491896
vt 0.180509 0.425984
vt 0.186678 0.491896
vt 0.117598 0.352743
vt 0.163652 0.352743
vt 0.421537 0.506219
vt 0.439659 0.587372
vt 0.540601 0.952423
vt 0.607215 0.897002
vt 0.461600 0.477297
vt 0.461759 0.402141
vt 0.538807 0.414401
vt 0.506084 0.484375
vt 0.556896 0.350386
vt 0.186678 0.491898
vt 0.257557 0.413724
vt 0.275646 0.477741
vt 0.180350 0.350828
vt 0.224835 0.343750
vt 0.373044 0.531952
vt 0.411814 0.509021
vt 0.439659 0.587372
vt 0.519065 0.915260
vt 0.607216 0.897001
vt 0.479744 1.000000
vt 0.442443 0.935632
vt 0.023615 0.328125
vt 0.006721 0.263784
vt 0.090945 0.246876
vt 0.096555 0.313483
vt 0.584846 0.345593
vt 0.601739 0.281250
vt 0.674680 0.295892
vt 0.669070 0.362500
vt 0.264375 0.515467
vt 0.338460 0.537344
vt 0.332092 0.579821
vt 0.253345 0.589040
vt 0.351508 0.569114
vt 0.439660 0.587373
vt 0.520339 0.873414
vt 0.607216 0.897001
vt 0.440846 0.928211
vt 0.443052 0.855729
vt 0.096555 0.313483
vt 0.174680 0.246876
vt 0.169070 0.313483
vt 0.669070 0.362499
vt 0.747195 0.295892
vt 0.752805 0.362499
vt 0.253345 0.589040
vt 0.344906 0.619678
vt 0.275540 0.658076
vt 0.352783 0.610961
vt 0.439660 0.587373
vt 0.544095 0.837630
vt 0.607216 0.897001
vt 0.445097 0.848420
vt 0.486245 0.786440
vt 0.169070 0.313483
vt 0.258904 0.263784
vt 0.242011 0.328125
vt 0.752805 0.362500
vt 0.820136 0.281250
vt 0.837029 0.345593
vt 0.275540 0.658076
vt 0.374834 0.650486
vt 0.327379 0.711437
vt 0.376539 0.646744
vt 0.439660 0.587373
vt 0.584189 0.817101
vt 0.607215 0.897000
vt 0.491279 0.781260
vt 0.560723 0.745703
vt 0.648693 0.718750
vt 0.630604 0.654735
vt 0.719572 0.640578
vt 0.725741 0.706490
vt 0.568104 0.454642
vt 0.586193 0.390625
vt 0.663241 0.402885
vt 0.657072 0.468798
vt 0.327378 0.711437
vt 0.416633 0.667273
vt 0.399775 0.740514
vt 0.439659 0.587373
vt 0.607215 0.897001
vt 0.567331 0.743860
vt 0.725741 0.706491
vt 0.805509 0.706491
vt 0.657072 0.468797
vt 0.749178 0.468797
vt 0.399775 0.740514
vt 0.479544 0.740514
vt 0.439659 0.587373
s 1
usemtl m_dd3bcabf-0984-62af-8c32-531661a8207e
f 3/1/1 8/2/2 2/3/3
f 3/4/1 4/5/4 9/6/5 8/7/2
f 4/8/4 5/9/6 10/10/7 9/11/5
f 5/12/6 6/13/8 11/14/9 10/15/7
f 6/16/8 7/17/10 12/18/11 11/19/9
f 12/18/11 7/17/10 1/20/12
f 8/2/2 13/21/13 2/22/3
f 8/23/2 9/6/5 14/24/14 13/25/13
f 9/26/5 10/27/7 15/28/15 14/29/14
f 10/30/7 11/31/9 16/32/16 15/33/15
f 11/34/9 12/18/11 17/35/17 16/36/16
f 17/35/17 12/18/11 1/37/12
f 13/21/13 18/38/18 2/39/3
f 13/40/13 14/24/14 19/41/19 18/42/18
f 14/43/14 15/28/15 20/44/20 19/45/19
f 15/46/15 16/32/16 21/47/21 20/48/20
f 16/49/16 17/35/17 22/50/22 21/51/21
f 22/50/22 17/35/17 1/52/12
f 18/38/18 23/53/23 2/54/3
f 18/55/18 19/41/19 24/56/24 23/57/23
f 19/58/19 20/44/20 25/59/25 24/60/24
f 20/61/20 21/47/21 26/62/26 25/63/25
f 21/64/21 22/50/22 27/65/27 26/66/26
f 27/65/27 22/50/22 1/67/12
f 23/53/23 28/68/28 2/69/3
f 23/70/23 24/71/24 29/72/29 28/73/28
f 24/71/24 25/74/25 30/75/30 29/72/29
f 25/76/25 26/77/26 31/78/31 30/79/30
f 26/77/26 27/80/27 32/81/32 31/78/31
f 32/82/32 27/65/27 1/83/12
f 28/84/28 33/85/33 2/86/3
f 28/87/28 29/88/29 34/89/34 33/90/33
f 29/88/29 30/75/30 35/91/35 34/89/34
f 30/92/30 31/78/31 36/93/36 35/94/35
f 31/78/31 32/95/32 37/96/37 36/93/36
f 37/97/37 32/82/32 1/98/12
f 33/85/33 38/99/38 2/100/3
f 33/101/33 34/102/34 39/103/39 38/104/38
f 34/102/34 35/91/35 40/105/40 39/103/39
f 35/106/35 36/93/36 41/107/41 40/108/40
f 36/93/36 37/109/37 42/110/42 41/107/41
f 42/111/42 37/112/37 1/113/12
f 38/99/38 43/114/43 2/115/3
f 38/99/38 39/116/39 44/117/44 43/114/43
f 39/118/39 40/119/40 45/120/45 44/121/44
f 40/122/40 41/123/41 46/124/46 45/125/45
f 41/126/41 42/127/42 47/128/47 46/129/46
f 47/130/47 42/111/42 1/131/12
f 43/114/43 48/132/48 2/133/3
f 43/114/43 44/134/44 49/135/49 48/132/48
f 44/136/44 45/120/45 50/137/50 49/138/49
f 45/139/45 46/124/46 51/140/51 50/141/50
f 46/142/46 47/128/47 52/143/52 51/144/51
f 52/145/52 47/130/47 1/146/12
f 48/132/48 53/147/53 2/148/3
f 48/132/48 49/149/49 54/150/54 53/147/53
f 49/151/49 50/137/50 55/152/55 54/153/54
f 50/154/50 51/140/51 56/155/56 55/156/55
f 51/157/51 52/143/52 57/158/57 56/159/56
f 57/160/57 52/145/52 1/161/12
f 53/147/53 58/162/58 2/163/3
f 53/147/53 54/164/54 59/165/59 58/162/58
f 54/166/54 55/167/55 60/168/60 59/169/59
f 55/170/55 56/171/56 61/172/61 60/173/60
f 56/174/56 57/158/57 62/175/62 61/176/61
f 62/175/62 57/160/57 1/177/12
f 58/162/58 3/1/1 2/178/3
f 58/162/58 59/179/59 4/5/4 3/1/1
f 59/180/59 60/168/60 5/9/6 4/181/4
f 60/182/60 61/172/61 6/13/8 5/183/6
f 61/184/61 62/175/62 7/17/10 6/185/8
f 7/17/10 62/175/62 1/186/12
o hair
v 0.031250 1.140625 0.031250
v 0.031250 1.140625 -0.031250
v -0.031250 1.140625 0.031250
v -0.031250 1.140625 -0.031250
v 0.031250 0.953125 0.031250
v 0.031250 0.953125 -0.031250
v -0.031250 0.953125 -0.031250
v -0.031250 0.953125 0.031250
v 0.562500 0.734375 0.437500
v 0.437500 0.734375 -0.500000
v -0.562500 0.796875 0.625000
v -0.500000 0.609375 -0.625000
v 0.166667 0.984375 -0.312500
v 0.041667 0.859375 0.562500
v -0.166667 0.921875 -0.500000
v -0.166667 0.984375 0.437500
v -0.166667 0.984375 0.166667
v -0.437500 0.921875 0.166667
v -0.166667 0.984375 -0.166667
v -0.500000 0.859375 -0.166667
v 0.104167 0.984375 0.229167
v 0.104167 0.984375 -0.041667
v 0.375000 0.984375 0.166667
v 0.625000 0.859375 -0.166667
vn -0.5774 0.5774 0.5774
vn 0.5774 0.5774 0.5774
vn 0.5774 0.5774 -0.5774
vn -0.5774 0.5774 -0.5774
vn 0.7071 -0.0000 0.7071
vn 0.7071 -0.0000 -0.7071
vn -0.7071 -0.0000 -0.7071
vn -0.7071 -0.0000 0.7071
vn -0.4837 0.8162 -0.3160
vn -0.1852 0.9722 -0.1433
vn -0.4602 0.8771 -0.1376
vn 0.2889 0.9133 -0.2872
vn 0.0992 0.9891 -0.1087
vn 0.0579 0.9973 -0.0457
vn 0.1200 0.9915 0.0494
vn -0.2689 0.9629 -0.0216
vn -0.3636 0.9191 0.1515
vn -0.0966 0.9948 0.0315
vn -0.3120 0.9047 -0.2900
vn 0.2362 0.8400 0.4884
vn 0.0578 0.9676 0.2457
vn 0.2590 0.9190 0.2971
vn 0.3726 0.7803 -0.5022
vn 0.1367 0.9697 0.2022
vt 0.093750 0.984375
vt 0.109375 0.984375
vt 0.109375 1.000000
vt 0.093750 1.000000
vt 0.171875 1.000000
vt 0.171875 0.953125
vt 0.187500 0.953125
vt 0.187500 1.000000
vt 0.343750 0.921875
vt 0.343750 0.875000
vt 0.359375 0.875000
vt 0.359375 0.921875
vt 0.375000 0.921875
vt 0.375000 0.875000
vt 0.390625 0.875000
vt 0.390625 0.921875
vt 0.203125 1.000000
vt 0.203125 0.953125
vt 0.218750 0.953125
vt 0.218750 1.000000
vt 0.007744 1.000000
vt 0.118688 0.871337
vt 0.113202 0.952206
vt 0.320381 0.871003
vt 0.201735 0.907860
vt 0.186397 0.840087
vt 0.119357 0.956119
vt 0.201431 0.906518
vt 0.118688 0.720295
vt 0.049200 0.788003
vt 0.011724 0.673420
vt 0.118688 0.788003
vt 0.029688 0.871337
vt 0.272352 0.713982
vt 0.185618 0.768279
vt 0.169516 0.683606
vt 0.282875 0.951936
vt 0.253001 0.784819
vt 0.186397 0.838306
vt 0.186397 0.772378
vt 0.320101 0.870404
vt 0.253474 0.783248
vt 0.118687 0.788003
vt 0.119605 0.724267
vt 0.049803 0.788003
vt 0.029688 0.871337
vt 0.118689 0.871336
s 1
usemtl m_dd3bcabf-0984-62af-8c32-531661a8207e
f 65/187/63 63/188/64 64/189/65 66/190/66
f 63/191/64 67/192/67 68/193/68 64/194/65
f 64/195/65 68/196/68 69/197/69 66/198/66
f 66/199/66 69/200/69 70/201/70 65/202/63
f 65/203/63 70/204/70 67/205/67 63/206/64
f 74/207/71 81/208/72 77/209/73
f 86/210/74 75/211/75 84/212/76
f 77/213/73 84/212/76 75/214/75
f 78/215/77 80/216/78 73/217/79
f 79/218/80 81/208/72 82/219/81
f 71/220/82 83/221/83 76/222/84
f 75/211/75 86/210/74 72/223/85
f 85/224/86 84/225/76 83/226/83
f 85/224/86 86/227/74 84/225/76
f 71/220/82 85/228/86 83/221/83
f 76/222/84 83/226/83 79/229/80
f 76/222/84 79/229/80 78/230/77
f 78/215/77 79/218/80 80/216/78
f 79/218/80 82/219/81 80/231/78
f 81/208/72 74/207/71 82/232/81
f 79/218/80 83/226/83 84/212/76
f 79/218/80 84/212/76 81/208/72
f 84/212/76 77/213/73 81/233/72
o left_eye
v -0.218750 0.703125 -0.584375
v -0.193630 0.609494 -0.589827
v -0.150120 0.634582 -0.588367
v -0.125000 0.678037 -0.585836
v -0.125000 0.728213 -0.582914
v -0.150120 0.771668 -0.580384
v -0.193630 0.796756 -0.578923
v -0.243870 0.796756 -0.578923
v -0.287380 0.771668 -0.580384
v -0.312500 0.728213 -0.582914
v -0.312500 0.678037 -0.585836
v -0.287380 0.634582 -0.588367
v -0.243870 0.609494 -0.589827
v -0.187500 0.734375 -0.578125
v -0.154006 0.609494 -0.583577
v -0.095994 0.642956 -0.582116
v -0.062500 0.700913 -0.579586
v -0.062500 0.767837 -0.576664
v -0.095994 0.825794 -0.574134
v -0.154006 0.859256 -0.572673
v -0.220994 0.859256 -0.572673
v -0.279006 0.825794 -0.574134
v -0.312500 0.767837 -0.576664
v -0.312500 0.700913 -0.579586
v -0.279006 0.642956 -0.582116
v -0.220994 0.609494 -0.583577
vn -0.0000 0.0581 -0.9983
vn -0.0000 0.0436 -0.9990
vt 0.000000 0.626520
vt 0.006280 0.615639
vt 0.023438 0.632803
vt 0.000000 0.639086
vt 0.006280 0.649967
vt 0.017158 0.656250
vt 0.029717 0.656250
vt 0.040595 0.649967
vt 0.046875 0.639086
vt 0.046875 0.626520
vt 0.040595 0.615639
vt 0.029717 0.609356
vt 0.017158 0.609356
vt 0.062500 0.632252
vt 0.070873 0.617748
vt 0.093750 0.640625
vt 0.062500 0.648998
vt 0.070873 0.663502
vt 0.085377 0.671875
vt 0.102123 0.671875
vt 0.116627 0.663502
vt 0.125000 0.648998
vt 0.125000 0.632252
vt 0.116627 0.617748
vt 0.102123 0.609375
vt 0.085377 0.609375
s 1
usemtl m_dd3bcabf-0984-62af-8c32-531661a8207e
f 90/234/87 89/235/87 87/236/87
f 91/237/87 90/234/87 87/236/87
f 92/238/87 91/237/87 87/236/87
f 93/239/87 92/238/87 87/236/87
f 94/240/87 93/239/87 87/236/87
f 95/241/87 94/240/87 87/236/87
f 96/242/87 95/241/87 87/236/87
f 97/243/87 96/242/87 87/236/87
f 98/244/87 97/243/87 87/236/87
f 99/245/87 98/244/87 87/236/87
f 88/246/87 99/245/87 87/236/87
f 89/235/87 88/246/87 87/236/87
f 103/247/88 102/248/88 100/249/88
f 104/250/88 103/247/88 100/249/88
f 105/251/88 104/250/88 100/249/88
f 106/252/88 105/251/88 100/249/88
f 107/253/88 106/252/88 100/249/88
f 108/254/88 107/253/88 100/249/88
f 109/255/88 108/254/88 100/249/88
f 110/256/88 109/255/88 100/249/88
f 111/257/88 110/256/88 100/249/88
f 112/258/88 111/257/88 100/249/88
f 101/259/88 112/258/88 100/249/88
f 102/248/88 101/259/88 100/249/88
o right_eye
v 0.187500 0.734375 -0.578125
v 0.154006 0.609494 -0.583577
v 0.095994 0.642956 -0.582116
v 0.062500 0.700913 -0.579586
v 0.062500 0.767837 -0.576664
v 0.095994 0.825794 -0.574134
v 0.154006 0.859256 -0.572673
v 0.220994 0.859256 -0.572673
v 0.279006 0.825794 -0.574134
v 0.312500 0.767837 -0.576664
v 0.312500 0.700913 -0.579586
v 0.279006 0.642956 -0.582116
v 0.220994 0.609494 -0.583577
v 0.218750 0.703125 -0.584375
v 0.193630 0.609494 -0.589827
v 0.150120 0.634582 -0.588367
v 0.125000 0.678037 -0.585836
v 0.125000 0.728213 -0.582914
v 0.150120 0.771668 -0.580384
v 0.193630 0.796756 -0.578923
v 0.243870 0.796756 -0.578923
v 0.287380 0.771668 -0.580384
v 0.312500 0.728213 -0.582914
v 0.312500 0.678037 -0.585836
v 0.287380 0.634582 -0.588367
v 0.243870 0.609494 -0.589827
vn -0.0000 0.0436 -0.9990
vn -0.0000 0.0581 -0.9983
vt 0.366627 0.945873
vt 0.375000 0.960377
vt 0.343750 0.968750
vt 0.375000 0.977123
vt 0.366627 0.991627
vt 0.352123 1.000000
vt 0.335377 1.000000
vt 0.320873 0.991627
vt 0.312500 0.977123
vt 0.312500 0.960377
vt 0.320873 0.945873
vt 0.335377 0.937500
vt 0.352123 0.937500
vt 0.337470 0.756264
vt 0.343750 0.767145
vt 0.320312 0.773428
vt 0.343750 0.779711
vt 0.337470 0.790592
vt 0.326592 0.796875
vt 0.314033 0.796875
vt 0.303155 0.790592
vt 0.296875 0.779711
vt 0.296875 0.767145
vt 0.303155 0.756264
vt 0.314033 0.749981
vt 0.326592 0.749981
s 1
usemtl m_dd3bcabf-0984-62af-8c32-531661a8207e
f 115/260/89 116/261/89 113/262/89
f 116/261/89 117/263/89 113/262/89
f 117/263/89 118/264/89 113/262/89
f 118/264/89 119/265/89 113/262/89
f 119/265/89 120/266/89 113/262/89
f 120/266/89 121/267/89 113/262/89
f 121/267/89 122/268/89 113/262/89
f 122/268/89 123/269/89 113/262/89
f 123/269/89 124/270/89 113/262/89
f 124/270/89 125/271/89 113/262/89
f 125/271/89 114/272/89 113/262/89
f 114/272/89 115/260/89 113/262/89
f 128/273/90 129/274/90 126/275/90
f 129/274/90 130/276/90 126/275/90
f 130/276/90 131/277/90 126/275/90
f 131/277/90 132/278/90 126/275/90
f 132/278/90 133/279/90 126/275/90
f 133/279/90 134/280/90 126/275/90
f 134/280/90 135/281/90 126/275/90
f 135/281/90 136/282/90 126/275/90
f 136/282/90 137/283/90 126/275/90
f 137/283/90 138/284/90 126/275/90
f 138/284/90 127/285/90 126/275/90
f 127/285/90 128/273/90 126/275/90
