# Made in Blockbench 4.8.3
mtllib flashlight.pbr

o cylinder
v -0.0018749999999999878 -5.342948306008565e-18 -0.23375000000000012
v -0.0018749999999999878 0 0.48812500000000014
v 0.08102178140837846 -0.28875 -0.5018750000000001
v 0.0423366167511352 -0.16499999999999998 0.48812500000000014
v 0.22460321859162113 -0.2113796706855133 -0.5018750000000001
v 0.11891338324886469 -0.12078838324886476 0.48812500000000014
v 0.3075 -0.07737032931448667 -0.5018750000000001
v 0.16312500000000002 -0.04421161675113524 0.48812500000000014
v 0.3075 0.07737032931448667 -0.5018750000000001
v 0.16312500000000002 0.04421161675113525 0.48812500000000014
v 0.22460321859162113 0.2113796706855133 -0.5018750000000001
v 0.11891338324886469 0.12078838324886475 0.48812500000000014
v 0.0810217814083789 0.2887499999999999 -0.5018750000000001
v 0.04233661675113534 0.16499999999999998 0.48812500000000014
v -0.08477178140837842 0.28875 -0.5018750000000001
v -0.04608661675113518 0.165 0.48812500000000014
v -0.22835321859162128 0.2113796706855133 -0.5018750000000001
v -0.12266338324886474 0.12078838324886478 0.48812500000000014
v -0.31125 0.07737032931448662 -0.5018750000000001
v -0.166875 0.04421161675113522 0.48812500000000014
v -0.31125 -0.07737032931448654 -0.5018750000000001
v -0.166875 -0.04421161675113516 0.48812500000000014
v -0.22835321859162158 -0.2113796706855133 -0.5018750000000001
v -0.1226633832488648 -0.12078838324886472 0.48812500000000014
v -0.08477178140837842 -0.28875 -0.5018750000000001
v -0.04608661675113518 -0.16499999999999998 0.48812500000000014
v 0.11891338324886469 -0.12078838324886476 -0.23375000000000012
v 0.0423366167511352 -0.16499999999999998 -0.23375000000000012
v -0.04608661675113518 -0.16499999999999998 -0.23375000000000012
v -0.1226633832488648 -0.12078838324886472 -0.23375000000000012
v -0.166875 -0.04421161675113516 -0.23375000000000012
v -0.166875 0.04421161675113522 -0.23375000000000012
v -0.12266338324886474 0.12078838324886478 -0.23375000000000012
v -0.04608661675113518 0.165 -0.23375000000000012
v 0.04233661675113534 0.16499999999999998 -0.23375000000000012
v 0.11891338324886469 0.12078838324886475 -0.23375000000000012
v 0.16312500000000002 0.04421161675113525 -0.23375000000000012
v 0.16312500000000002 -0.04421161675113524 -0.23375000000000012
vt 0.6871204381144088 0.20723586229707935
vt 0.7632411665596919 0.17797933752096995
vt 0.8046883057951976 0.37499934357101095
vt 0.1158578765940228 0.8070863389913676
vt 0.11585787659402283 0.4461488389913676
vt 0.16007037659402282 0.4461488389913676
vt 0.1600703765940228 0.8070863389913676
vt 0.67054375 0.835
vt 0.70883125 0.85710625
vt 0.6484375 0.9175
vt 0.6299983064326783 0.26150470165863804
vt 0.6871204381144088 0.20723586229707935
vt 0.8046887658175811 0.375
vt 0.282787037537754 0.4483171261162815
vt 0.643724537537754 0.4483171261162815
vt 0.643724537537754 0.4925296261162815
vt 0.282787037537754 0.4925296261162816
vt 0.70883125 0.85710625
vt 0.7309375 0.89539375
vt 0.6484375 0.9175
vt 0.8060469585417229 1
vt 0.7916798341400759 0.9239769165779886
vt 1 0.9239769165779887
vt 0.282787037537754 0.4925296261162815
vt 0.643724537537754 0.4925296261162815
vt 0.643724537537754 0.5367421261162815
vt 0.282787037537754 0.5367421261162815
vt 0.7309375 0.89539375
vt 0.7309375 0.93960625
vt 0.6484375 0.9175
vt 0.2808704381144088 0.37088913770292065
vt 0.2237483064326783 0.31662029834136196
vt 0.39843876581758103 0.203125
vt 0.282787037537754 0.5367421261162815
vt 0.643724537537754 0.5367421261162815
vt 0.643724537537754 0.5809546261162816
vt 0.282787037537754 0.5809546261162816
vt 0.7309375 0.93960625
vt 0.70883125 0.97789375
vt 0.6484375 0.9175
vt 0.3569911665596918 0.40014566247903016
vt 0.2808704381144088 0.37088913770292065
vt 0.39843830579519757 0.20312565642898905
vt 0.0027073255258768802 0.8442440426383954
vt 0.3636448255258769 0.8442440426383954
vt 0.3636448255258769 0.8884565426383954
vt 0.0027073255258768802 0.8884565426383954
vt 0.70883125 0.97789375
vt 0.67054375 1
vt 0.6484375 0.9175
vt 0.43988491655969186 0.40014566247903016
vt 0.3569911665596918 0.40014566247903016
vt 0.39843804155969187 0.20312691247903014
vt 0.0027073255258768802 0.8884565426383954
vt 0.3636448255258769 0.8884565426383954
vt 0.3636448255258769 0.9326690426383953
vt 0.0027073255258768802 0.9326690426383953
vt 0.67054375 1
vt 0.62633125 1
vt 0.6484375 0.9175
vt 0.5160052403065218 0.3708880847649848
vt 0.43988491655969186 0.40014566247903016
vt 0.3984380691746062 0.20312704374721158
vt 0.002707325525876908 0.9326690426383953
vt 0.3636448255258769 0.9326690426383953
vt 0.3636448255258769 0.9768815426383953
vt 0.002707325525876908 0.9768815426383954
vt 0.62633125 1
vt 0.58804375 0.97789375
vt 0.6484375 0.9175
vt 0.5731266935673217 0.3166226473082181
vt 0.5160052403065218 0.3708880847649848
vt 0.39843721986381364 0.20312583183353405
vt 0.7328379624622459 0.7684456412640548
vt 0.37190046246224584 0.7684456412640548
vt 0.37190046246224584 0.7242331412640548
vt 0.7328379624622459 0.7242331412640548
vt 0.58804375 0.97789375
vt 0.5659375 0.93960625
vt 0.6484375 0.9175
vt 0.1939530414582772 0.17397691657798864
vt 0.20832016585992408 0.25
vt 0 0.2499999999999999
vt 0.7328379624622459 0.7242331412640548
vt 0.3719004624622459 0.7242331412640548
vt 0.3719004624622459 0.6800206412640548
vt 0.7328379624622459 0.6800206412640548
vt 0.5659375 0.93960625
vt 0.5659375 0.89539375
vt 0.6484375 0.9175
vt 0.9222552403065218 0.2072369152350152
vt 0.9793766935673217 0.2615023526917819
vt 0.8046872198638135 0.37499916816646595
vt 0.732837962462246 0.6800206412640548
vt 0.3719004624622459 0.6800206412640548
vt 0.3719004624622459 0.6358081412640548
vt 0.732837962462246 0.6358081412640548
vt 0.5659375 0.89539375
vt 0.58804375 0.85710625
vt 0.6484375 0.9175
vt 0.8461349165596919 0.17797933752096995
vt 0.9222552403065218 0.2072369152350152
vt 0.8046880691746062 0.3749979562527884
vt 0.027432876594022798 0.8070863389913676
vt 0.02743287659402277 0.4461488389913676
vt 0.07164537659402279 0.4461488389913676
vt 0.07164537659402281 0.8070863389913676
vt 0.58804375 0.85710625
vt 0.62633125 0.835
vt 0.6484375 0.9175
vt 0.7632411665596919 0.17797933752096995
vt 0.8461349165596919 0.17797933752096995
vt 0.8046880415596919 0.37499808752096997
vt 0.07164537659402281 0.8070863389913676
vt 0.07164537659402281 0.4461488389913676
vt 0.11585787659402282 0.4461488389913676
vt 0.11585787659402282 0.8070863389913676
vt 0.62633125 0.835
vt 0.67054375 0.835
vt 0.6484375 0.9175
vt 0.1831824404716931 0.296875
vt 0.16007037659402282 0.4461488389913676
vt 0.11585727470209205 0.4461488389913676
vt 0.10166857632212173 0.29792902420760725
vt 0.875 0.71875
vt 0.875 0.8676644220606462
vt 0.81960362191501 0.8734066286983905
vt 0.78125 0.7295160286452365
vt 0.08583304388907301 0.29791324163605126
vt 0.07164537659402279 0.4461488389913676
vt 0.027434919111869863 0.4461488389913676
vt 0.004317559528306897 0.2968934143413846
vt 0.22139234668546204 0.623001362229947
vt 0.3719004624622459 0.6358081412640548
vt 0.3719004624622459 0.6800185685947834
vt 0.2203026011628964 0.7017540606187906
vt 0.25 0.09375
vt 0.40316234241733706 0.09375
vt 0.40794785522678034 0.12328854592489202
vt 0.25837430916993187 0.15625
vt 0.22028703753775403 0.70249967822043
vt 0.37190046246224584 0.7242331412640548
vt 0.37190046246224584 0.768444999052895
vt 0.22140633876583404 0.78125
vt 0.5129176744741231 1
vt 0.3636448255258769 0.9768815426383953
vt 0.3636448255258769 0.9326709266683241
vt 0.5118671415645002 0.9184860907805864
vt 0.4745291777784151 0.1875
vt 0.4745291777784151 0.0385855779393538
vt 0.5183672003065749 0.032843371301609525
vt 0.5567208222215849 0.17673397135476354
vt 0.5118829359408164 0.9026423524738014
vt 0.3636448255258769 0.8884565426383954
vt 0.3636448255258769 0.8442460851562424
vt 0.5129027632354832 0.8211268681130353
vt 0.7942355281330867 0.59375
vt 0.643724537537754 0.5809546261162816
vt 0.643724537537754 0.5367403828609614
vt 0.795318280050024 0.5149980401295141
vt 0.953125 0.6875
vt 0.7999657642226358 0.6875
vt 0.795180154345162 0.6435472629481322
vt 0.9447505209678755 0.6105858167988308
vt 0.795337962462246 0.5142630891599063
vt 0.643724537537754 0.4925296261162815
vt 0.643724537537754 0.4483177683274413
vt 0.7942194747443568 0.4355097501255958
vn -0.31993945638466914 0.5937336362187997 -0.7383218224261588
vn 0.4999999999999999 -0.8660254037844387 0
vn 0 0 1
vn -0.5627397868009956 0.34810496506421623 -0.7497645401383097
vn 0.8660254037844384 -0.5000000000000007 0
vn 0 0 1
vn -0.6549305384178419 0 -0.7556890827898177
vn 1 0 0
vn 0 0 1
vn -0.5627397868009955 -0.3481049650642162 -0.7497645401383097
vn 0.8660254037844384 0.5000000000000009 0
vn 0 0 1
vn -0.3199394563846696 -0.5937336362187995 -0.738321822426159
vn 0.5000000000000007 0.8660254037844384 0
vn 0 0 1
vn -4.556585097842507e-16 -0.6804510993672778 -0.7327934916262993
vn 3.1389460118438454e-16 1 0
vn 0 0 1
vn 0.31993945638466886 -0.5937336362187999 -0.7383218224261588
vn -0.49999999999999967 0.8660254037844389 0
vn 0 0 1
vn 0.5627397868009957 -0.3481049650642157 -0.7497645401383098
vn -0.8660254037844387 0.4999999999999999 0
vn 0 0 1
vn 0.6549305384178418 0 -0.7556890827898177
vn -1 0 0
vn 0 0 1
vn 0.5627397868009962 0.3481049650642145 -0.74976454013831
vn -0.8660254037844392 -0.49999999999999933 0
vn 0 0 1
vn 0.31993945638466825 0.5937336362188002 -0.7383218224261588
vn -0.49999999999999956 -0.8660254037844392 0
vn 0 0 1
vn 0 0.6804510993672778 -0.7327934916262993
vn 0 -1 0
vn 0 0 1
vn 0.449049385065952 -0.7777763500417902 0.43979381428978903
vn 0 -0.9079593845004518 0.4190581774617471
vn -0.4521903043721684 -0.7832165818626313 0.42672674456521
vn -0.771390660269189 -0.4453626053567785 0.45454218616019276
vn -0.8804710999221752 0 0.4740998230350176
vn -0.7657801326725893 0.4421233657385866 0.46702004011812553
vn -0.4490493850659517 0.77777635004179 0.43979381428978914
vn 2.657375747220407e-16 0.9079593845004517 0.41905817746174695
vn 0.4521903043721691 0.783216581862631 0.4267267445652102
vn 0.7713906602691886 0.44536260535678 0.45454218616019193
vn 0.8804710999221754 0 0.47409982303501746
vn 0.7657801326725892 -0.4421233657385872 0.4670200401181253
usemtl m_97078a0f-f8d2-0bf5-ba1f-4e289e78e775
f 5/1/1 3/2/1 1/3/1
f 4/4/2 28/5/2 27/6/2 6/7/2
f 4/8/3 6/9/3 2/10/3
f 7/11/4 5/12/4 1/13/4
f 6/14/5 27/15/5 38/16/5 8/17/5
f 6/18/6 8/19/6 2/20/6
f 9/21/7 7/22/7 1/23/7
f 8/24/8 38/25/8 37/26/8 10/27/8
f 8/28/9 10/29/9 2/30/9
f 11/31/10 9/32/10 1/33/10
f 10/34/11 37/35/11 36/36/11 12/37/11
f 10/38/12 12/39/12 2/40/12
f 13/41/13 11/42/13 1/43/13
f 12/44/14 36/45/14 35/46/14 14/47/14
f 12/48/15 14/49/15 2/50/15
f 15/51/16 13/52/16 1/53/16
f 14/54/17 35/55/17 34/56/17 16/57/17
f 14/58/18 16/59/18 2/60/18
f 17/61/19 15/62/19 1/63/19
f 16/64/20 34/65/20 33/66/20 18/67/20
f 16/68/21 18/69/21 2/70/21
f 19/71/22 17/72/22 1/73/22
f 18/74/23 33/75/23 32/76/23 20/77/23
f 18/78/24 20/79/24 2/80/24
f 21/81/25 19/82/25 1/83/25
f 20/84/26 32/85/26 31/86/26 22/87/26
f 20/88/27 22/89/27 2/90/27
f 23/91/28 21/92/28 1/93/28
f 22/94/29 31/95/29 30/96/29 24/97/29
f 22/98/30 24/99/30 2/100/30
f 25/101/31 23/102/31 1/103/31
f 24/104/32 30/105/32 29/106/32 26/107/32
f 24/108/33 26/109/33 2/110/33
f 3/111/34 25/112/34 1/113/34
f 26/114/35 29/115/35 28/116/35 4/117/35
f 26/118/36 4/119/36 2/120/36
f 5/121/37 27/122/37 28/123/37 3/124/37
f 3/125/38 28/126/38 29/127/38 25/128/38
f 25/129/39 29/130/39 30/131/39 23/132/39
f 23/133/40 30/134/40 31/135/40 21/136/40
f 21/137/41 31/138/41 32/139/41 19/140/41
f 19/141/42 32/142/42 33/143/42 17/144/42
f 17/145/43 33/146/43 34/147/43 15/148/43
f 15/149/44 34/150/44 35/151/44 13/152/44
f 13/153/45 35/154/45 36/155/45 11/156/45
f 11/157/46 36/158/46 37/159/46 9/160/46
f 9/161/47 37/162/47 38/163/47 7/164/47
f 7/165/48 38/166/48 27/167/48 5/168/48
o cuboid
v -0.125 0.09375 0.0625
v -0.125 0.09375 -0.1875
v -0.125 -0.03125 0.0625
v -0.125 -0.03125 -0.1875
v -0.1875 0.09375 0.0625
v -0.1875 0.09375 -0.1875
v -0.1875 -0.03125 0.0625
v -0.1875 -0.03125 -0.1875
vt 0.78125 0.078125
vt 0.78125 0.140625
vt 0.65625 0.140625
vt 0.65625 0.078125
vt 0.59375 0.015625
vt 0.625 0.015625
vt 0.625 0.140625
vt 0.59375 0.140625
vt 0.65625 0.015625
vt 0.65625 0.140625
vt 0.625 0.140625
vt 0.625 0.015625
vt 0.8125 0.078125
vt 0.8125 0.140625
vt 0.78125 0.140625
vt 0.78125 0.078125
vt 0.84375 0.140625
vt 0.8125 0.140625
vt 0.8125 0.078125
vt 0.84375 0.078125
vn -1 0 0
vn 0 1 0
vn 0 -1 0
vn 0 0 1
vn 0 0 -1
usemtl m_97078a0f-f8d2-0bf5-ba1f-4e289e78e775
f 45/169/49 43/170/49 44/171/49 46/172/49
f 43/173/50 39/174/50 40/175/50 44/176/50
f 42/177/51 41/178/51 45/179/51 46/180/51
f 41/181/52 39/182/52 43/183/52 45/184/52
f 44/185/53 40/186/53 42/187/53 46/188/53