# Blender 4.3.2
# www.blender.org
mtllib flashlight.mtl
o cuboid
v -0.125000 0.093750 0.062500
v -0.125000 0.093750 -0.187500
v -0.125000 -0.031250 0.062500
v -0.125000 -0.031250 -0.187500
v -0.187500 0.093750 0.062500
v -0.187500 0.093750 -0.187500
v -0.187500 -0.031250 0.062500
v -0.187500 -0.031250 -0.187500
vn -0.5774 -0.5774 0.5774
vn -0.5774 0.5774 0.5774
vn -0.5774 0.5774 -0.5774
vn -0.5774 -0.5774 -0.5774
vn -0.0000 0.7071 0.7071
vn -0.0000 0.7071 -0.7071
vn -0.0000 -0.7071 -0.7071
vn -0.0000 -0.7071 0.7071
vt 0.781250 0.078125
vt 0.781250 0.140625
vt 0.656250 0.140625
vt 0.656250 0.078125
vt 0.593750 0.015625
vt 0.625000 0.015625
vt 0.625000 0.140625
vt 0.593750 0.140625
vt 0.656250 0.015625
vt 0.812500 0.078125
vt 0.812500 0.140625
vt 0.843750 0.140625
vt 0.843750 0.078125
s 1
usemtl m_97078a0f-f8d2-0bf5-ba1f-4e289e78e775
f 7/1/1 5/2/2 6/3/3 8/4/4
f 5/5/2 1/6/5 2/7/6 6/8/3
f 4/9/7 3/3/8 7/7/1 8/6/4
f 3/10/8 1/11/5 5/2/2 7/1/1
f 6/12/3 2/11/6 4/10/7 8/13/4
o cylinder
v -0.001875 -0.000000 -0.233750
v -0.001875 0.000000 0.488125
v 0.081022 -0.288750 -0.501875
v 0.042337 -0.165000 0.488125
v 0.224603 -0.211380 -0.501875
v 0.118913 -0.120788 0.488125
v 0.307500 -0.077370 -0.501875
v 0.163125 -0.044212 0.488125
v 0.307500 0.077370 -0.501875
v 0.163125 0.044212 0.488125
v 0.224603 0.211380 -0.501875
v 0.118913 0.120788 0.488125
v 0.081022 0.288750 -0.501875
v 0.042337 0.165000 0.488125
v -0.084772 0.288750 -0.501875
v -0.046087 0.165000 0.488125
v -0.228353 0.211380 -0.501875
v -0.122663 0.120788 0.488125
v -0.311250 0.077370 -0.501875
v -0.166875 0.044212 0.488125
v -0.311250 -0.077370 -0.501875
v -0.166875 -0.044212 0.488125
v -0.228353 -0.211380 -0.501875
v -0.122663 -0.120788 0.488125
v -0.084772 -0.288750 -0.501875
v -0.046087 -0.165000 0.488125
v 0.118913 -0.120788 -0.233750
v 0.042337 -0.165000 -0.233750
v -0.046087 -0.165000 -0.233750
v -0.122663 -0.120788 -0.233750
v -0.166875 -0.044212 -0.233750
v -0.166875 0.044212 -0.233750
v -0.122663 0.120788 -0.233750
v -0.046087 0.165000 -0.233750
v 0.042337 0.165000 -0.233750
v 0.118913 0.120788 -0.233750
v 0.163125 0.044212 -0.233750
v 0.163125 -0.044212 -0.233750
vn 0.4911 -0.4976 -0.7150
vn 0.1823 -0.6539 -0.7343
vn -0.0000 -0.0000 -1.0000
vn 0.1960 -0.7314 0.6532
vn 0.2501 -0.9397 0.2333
vn 0.6748 -0.6927 0.2547
vn 0.5354 -0.5354 0.6532
vn -0.0000 -0.0000 1.0000
vn 0.6932 -0.1879 -0.6959
vn 0.9302 -0.2559 0.2630
vn 0.7314 -0.1960 0.6532
vn 0.6967 0.1748 -0.6957
vn 0.9303 0.2559 0.2629
vn 0.7314 0.1960 0.6532
vn 0.5108 0.4787 -0.7141
vn 0.6748 0.6927 0.2545
vn 0.5354 0.5354 0.6532
vn 0.1875 0.6566 -0.7306
vn 0.2469 0.9396 0.2372
vn 0.1960 0.7314 0.6532
vn -0.1750 0.6576 -0.7327
vn -0.2453 0.9399 0.2376
vn -0.1960 0.7314 0.6532
vn -0.4911 0.4976 -0.7150
vn -0.6748 0.6927 0.2547
vn -0.5354 0.5354 0.6532
vn -0.6932 0.1879 -0.6959
vn -0.9302 0.2559 0.2630
vn -0.7314 0.1960 0.6532
vn -0.6968 -0.1748 -0.6957
vn -0.9303 -0.2559 0.2629
vn -0.7314 -0.1960 0.6532
vn -0.5108 -0.4787 -0.7141
vn -0.6748 -0.6927 0.2545
vn -0.5354 -0.5354 0.6532
vn -0.1875 -0.6566 -0.7306
vn -0.2469 -0.9396 0.2372
vn -0.1960 -0.7314 0.6532
vt 0.687120 0.207236
vt 0.763241 0.177979
vt 0.804688 0.374999
vt 0.115858 0.807086
vt 0.115858 0.446149
vt 0.160070 0.446149
vt 0.160070 0.807086
vt 0.670544 0.835000
vt 0.708831 0.857106
vt 0.648438 0.917500
vt 0.629998 0.261505
vt 0.804689 0.375000
vt 0.282787 0.448317
vt 0.643725 0.448317
vt 0.643725 0.492530
vt 0.282787 0.492530
vt 0.730937 0.895394
vt 0.806047 1.000000
vt 0.791680 0.923977
vt 1.000000 0.923977
vt 0.643725 0.536742
vt 0.282787 0.536742
vt 0.730937 0.939606
vt 0.280870 0.370889
vt 0.223748 0.316620
vt 0.398439 0.203125
vt 0.643725 0.580955
vt 0.282787 0.580955
vt 0.708831 0.977894
vt 0.356991 0.400146
vt 0.398438 0.203126
vt 0.002707 0.844244
vt 0.363645 0.844244
vt 0.363645 0.888457
vt 0.002707 0.888457
vt 0.670544 1.000000
vt 0.439885 0.400146
vt 0.398438 0.203127
vt 0.363645 0.932669
vt 0.002707 0.932669
vt 0.626331 1.000000
vt 0.516005 0.370888
vt 0.398438 0.203127
vt 0.363645 0.976882
vt 0.002707 0.976882
vt 0.588044 0.977894
vt 0.573127 0.316623
vt 0.398437 0.203126
vt 0.732838 0.768446
vt 0.371900 0.768446
vt 0.371900 0.724233
vt 0.732838 0.724233
vt 0.565938 0.939606
vt 0.193953 0.173977
vt 0.208320 0.250000
vt 0.000000 0.250000
vt 0.371900 0.680021
vt 0.732838 0.680021
vt 0.565938 0.895394
vt 0.922255 0.207237
vt 0.979377 0.261502
vt 0.804687 0.374999
vt 0.371900 0.635808
vt 0.732838 0.635808
vt 0.588044 0.857106
vt 0.846135 0.177979
vt 0.804688 0.374998
vt 0.027433 0.807086
vt 0.027433 0.446149
vt 0.071645 0.446149
vt 0.071645 0.807086
vt 0.626331 0.835000
vt 0.804688 0.374998
vt 0.183182 0.296875
vt 0.115857 0.446149
vt 0.101669 0.297929
vt 0.875000 0.718750
vt 0.875000 0.867664
vt 0.819604 0.873407
vt 0.781250 0.729516
vt 0.085833 0.297913
vt 0.027435 0.446149
vt 0.004318 0.296893
vt 0.221392 0.623001
vt 0.371900 0.680019
vt 0.220303 0.701754
vt 0.250000 0.093750
vt 0.403162 0.093750
vt 0.407948 0.123289
vt 0.258374 0.156250
vt 0.220287 0.702500
vt 0.371900 0.768445
vt 0.221406 0.781250
vt 0.512918 1.000000
vt 0.363645 0.932671
vt 0.511867 0.918486
vt 0.474529 0.187500
vt 0.474529 0.038586
vt 0.518367 0.032843
vt 0.556721 0.176734
vt 0.511883 0.902642
vt 0.363645 0.844246
vt 0.512903 0.821127
vt 0.794236 0.593750
vt 0.643725 0.536740
vt 0.795318 0.514998
vt 0.953125 0.687500
vt 0.799966 0.687500
vt 0.795180 0.643547
vt 0.944751 0.610586
vt 0.795338 0.514263
vt 0.643725 0.448318
vt 0.794219 0.435510
s 1
usemtl m_97078a0f-f8d2-0bf5-ba1f-4e289e78e775
f 13/14/9 11/15/10 9/16/11
f 12/17/12 36/18/13 35/19/14 14/20/15
f 12/21/12 14/22/15 10/23/16
f 15/24/17 13/14/9 9/25/11
f 14/26/15 35/27/14 46/28/18 16/29/19
f 14/22/15 16/30/19 10/23/16
f 17/31/20 15/32/17 9/33/11
f 16/29/19 46/28/18 45/34/21 18/35/22
f 16/30/19 18/36/22 10/23/16
f 19/37/23 17/38/20 9/39/11
f 18/35/22 45/34/21 44/40/24 20/41/25
f 18/36/22 20/42/25 10/23/16
f 21/43/26 19/37/23 9/44/11
f 20/45/25 44/46/24 43/47/27 22/48/28
f 20/42/25 22/49/28 10/23/16
f 23/50/29 21/43/26 9/51/11
f 22/48/28 43/47/27 42/52/30 24/53/31
f 22/49/28 24/54/31 10/23/16
f 25/55/32 23/50/29 9/56/11
f 24/53/31 42/52/30 41/57/33 26/58/34
f 24/54/31 26/59/34 10/23/16
f 27/60/35 25/55/32 9/61/11
f 26/62/34 41/63/33 40/64/36 28/65/37
f 26/59/34 28/66/37 10/23/16
f 29/67/38 27/68/35 9/69/11
f 28/65/37 40/64/36 39/70/39 30/71/40
f 28/66/37 30/72/40 10/23/16
f 31/73/41 29/74/38 9/75/11
f 30/71/40 39/70/39 38/76/42 32/77/43
f 30/72/40 32/78/43 10/23/16
f 33/79/44 31/73/41 9/80/11
f 32/81/43 38/82/42 37/83/45 34/84/46
f 32/78/43 34/85/46 10/23/16
f 11/15/10 33/79/44 9/86/11
f 34/84/46 37/83/45 36/18/13 12/17/12
f 34/85/46 12/21/12 10/23/16
f 13/87/9 35/19/14 36/88/13 11/89/10
f 11/90/10 36/91/13 37/92/45 33/93/44
f 33/94/44 37/83/45 38/95/42 31/96/41
f 31/97/41 38/76/42 39/98/39 29/99/38
f 29/100/38 39/101/39 40/102/36 27/103/35
f 27/104/35 40/64/36 41/105/33 25/106/32
f 25/107/32 41/57/33 42/108/30 23/109/29
f 23/110/29 42/111/30 43/112/27 21/113/26
f 21/114/26 43/47/27 44/115/24 19/116/23
f 19/117/23 44/40/24 45/118/21 17/119/20
f 17/120/20 45/121/21 46/122/18 15/123/17
f 15/124/17 46/28/18 35/125/14 13/126/9
