# Made in Blockbench 4.12.2
mtllib dummy.mtl

o sphere
v 0.12814078323088546 2.246859216769115 0.30935921676911454
v 0.3093592167691145 2.246859216769115 0.12814078323088549
v 3.469446951953614e-18 2.375 -6.938893903907228e-18
v 0.1812184335382291 1.9375 0.43749999999999994
v 0.4375 1.9375 0.1812184335382291
v 0.12814078323088549 1.6281407832308854 0.3093592167691146
v 0.3093592167691146 1.6281407832308854 0.1281407832308855
v 3.469446951953614e-18 1.5 -6.938893903907228e-18
v 0.3093592167691145 2.246859216769115 -0.12814078323088546
v 0.4375 1.9375 -0.18121843353822908
v 0.3093592167691146 1.6281407832308854 -0.12814078323088546
v 0.1281407832308855 2.246859216769115 -0.30935921676911454
v 0.18121843353822917 1.9375 -0.4375
v 0.1281407832308855 1.6281407832308854 -0.3093592167691146
v -0.12814078323088543 2.246859216769115 -0.30935921676911454
v -0.18121843353822906 1.9375 -0.43750000000000006
v -0.12814078323088543 1.6281407832308854 -0.3093592167691146
v -0.3093592167691145 2.246859216769115 -0.12814078323088565
v -0.4374999999999999 1.9375 -0.18121843353822936
v -0.3093592167691145 1.6281407832308854 -0.12814078323088568
v -0.3093592167691145 2.246859216769115 0.1281407832308855
v -0.4375 1.9375 0.1812184335382292
v -0.3093592167691146 1.6281407832308854 0.12814078323088554
v -0.12814078323088568 2.246859216769115 0.30935921676911443
v -0.1812184335382294 1.9375 0.4374999999999999
v -0.12814078323088568 1.6281407832308854 0.3093592167691145
vt 0.5221010635763439 0.5015919373079437
vt 0.4889086828546735 0.4553114364611225
vt 0.5659722222222222 0.4350844969722224
vt 0.6673638888888889 0.5694444444444444
vt 0.6555694444444444 0.5
vt 0.7361111111111112 0.5
vt 0.7243166666666666 0.5694444444444444
vt 0.6694583333333334 0.7083333333333333
vt 0.6812527777777777 0.6388888888888888
vt 0.7382055555555556 0.6388888888888888
vt 0.75 0.7083333333333333
vt 0.48890868285467337 0.5932996746499888
vt 0.5221010635763438 0.5470191738031676
vt 0.5659722222222222 0.6135266141388886
vt 0.4889086828546735 0.4553114364611225
vt 0.49509373980734495 0.39869550259885045
vt 0.5659722222222222 0.4350844969722224
vt 0.5131902777777778 0.7916666666666666
vt 0.5013958333333333 0.7222222222222222
vt 0.5819375 0.7222222222222222
vt 0.5701430555555556 0.7916666666666666
vt 0.5986180555555555 0.875
vt 0.6104125 0.8055555555555556
vt 0.6673652777777778 0.8055555555555556
vt 0.6791597222222223 0.875
vt 0.49509373980734495 0.6499156085122607
vt 0.48890868285467337 0.5932996746499888
vt 0.5659722222222222 0.6135266141388888
vt 0.49509373980734495 0.39869550259885045
vt 0.5374958333333333 0.3606733858611112
vt 0.5659722222222222 0.4350844969722224
vt 0.4979055555555556 0.33333333333333337
vt 0.4861111111111111 0.26388888888888884
vt 0.5666527777777778 0.26388888888888884
vt 0.5548583333333332 0.33333333333333337
vt 0.6666666666666666 0.48611111111111116
vt 0.6784611111111112 0.41666666666666663
vt 0.7354138888888888 0.41666666666666663
vt 0.7472083333333334 0.48611111111111116
vt 0.5374958333333333 0.6879377252499999
vt 0.49509373980734495 0.6499156085122607
vt 0.5659722222222222 0.6135266141388889
vt 0.5374958333333333 0.3606733858611112
vt 0.5944486111111111 0.3606733858611112
vt 0.5659722222222222 0.4350844969722224
vt 0.2215236111111111 0.9583333333333334
vt 0.20972916666666666 0.8888888888888888
vt 0.2902708333333333 0.8888888888888888
vt 0.27847638888888887 0.9583333333333334
vt 0.3069513888888889 0.9583333333333334
vt 0.31874583333333334 0.8888888888888888
vt 0.37569861111111114 0.8888888888888888
vt 0.3874930555555556 0.9583333333333334
vt 0.5944486111111111 0.6879377252499999
vt 0.5374958333333333 0.6879377252499999
vt 0.5659722222222222 0.6135266141388889
vt 0.5944486111111111 0.3606733858611112
vt 0.6368507046370995 0.39869550259885045
vt 0.5659722222222222 0.4350844969722224
vt 0.7090305555555555 0.7916666666666666
vt 0.6972361111111112 0.7222222222222222
vt 0.7777777777777778 0.7222222222222222
vt 0.7659833333333332 0.7916666666666666
vt 0.0027916666666666615 0.2777777777777778
vt 0.014586111111111109 0.20833333333333337
vt 0.07153888888888887 0.20833333333333337
vt 0.08333333333333333 0.2777777777777778
vt 0.6368507046370995 0.6499156085122607
vt 0.5944486111111111 0.6879377252499999
vt 0.5659722222222222 0.6135266141388889
vt 0.6368507046370995 0.39869550259885045
vt 0.6430357615897709 0.4553114364611225
vt 0.5659722222222222 0.4350844969722224
vt 0.6104125 0.7916666666666666
vt 0.5986180555555555 0.7222222222222222
vt 0.6791597222222223 0.7222222222222222
vt 0.6673652777777778 0.7916666666666666
vt 0.6263958333333333 0.36111111111111116
vt 0.6381902777777778 0.29166666666666663
vt 0.6951430555555556 0.29166666666666663
vt 0.7069375 0.36111111111111116
vt 0.6430357615897709 0.5932996746499888
vt 0.6368507046370995 0.6499156085122607
vt 0.5659722222222222 0.6135266141388888
vt 0.6430357615897709 0.4553114364611225
vt 0.6098433808681006 0.5015919373079437
vt 0.5659722222222222 0.4350844969722224
vt 0.38679444444444444 0.3194444444444444
vt 0.375 0.25
vt 0.4555416666666667 0.25
vt 0.44374722222222224 0.3194444444444444
vt 0.6944444444444444 0.875
vt 0.706238888888889 0.8055555555555556
vt 0.7631916666666666 0.8055555555555556
vt 0.7749861111111112 0.875
vt 0.6098433808681007 0.5470191738031676
vt 0.6430357615897709 0.5932996746499888
vt 0.5659722222222222 0.6135266141388886
vt 0.5777104501798735 0.5138888888888888
vt 0.5221010635763439 0.5015919373079437
vt 0.5659722222222222 0.4350844969722224
vt 0.31874583333333334 0.875
vt 0.3069513888888889 0.8055555555555556
vt 0.3874930555555556 0.8055555555555556
vt 0.37569861111111114 0.875
vt 0.5013958333333333 0.875
vt 0.5131902777777778 0.8055555555555556
vt 0.5701430555555556 0.8055555555555556
vt 0.5819375 0.875
vt 0.554233994264571 0.5347222222222222
vt 0.6098433808681007 0.5470191738031676
vt 0.5659722222222222 0.6135266141388886
vn 0.270598050073098 0.9238795325112872 0.270598050073098
vn 0.6532814824381883 0.38268343236508945 0.6532814824381884
vn 0.6532814824381883 -0.38268343236508956 0.6532814824381884
vn 0.27059805007309834 -0.9238795325112868 0.2705980500730984
vn 0.38268343236508917 0.923879532511287 0
vn 0.9238795325112868 0.3826834323650896 0
vn 0.9238795325112868 -0.38268343236508967 0
vn 0.38268343236508956 -0.9238795325112868 0
vn 0.27059805007309806 0.9238795325112872 -0.2705980500730979
vn 0.6532814824381885 0.38268343236508967 -0.6532814824381883
vn 0.6532814824381884 -0.38268343236508967 -0.6532814824381882
vn 0.2705980500730984 -0.9238795325112868 -0.27059805007309834
vn 0 0.9238795325112872 -0.38268343236508917
vn 1.1435105125473216e-16 0.3826834323650895 -0.923879532511287
vn 0 -0.38268343236508956 -0.9238795325112868
vn 0 -0.9238795325112868 -0.3826834323650896
vn -0.27059805007309784 0.9238795325112871 -0.27059805007309806
vn -0.6532814824381881 0.38268343236508967 -0.6532814824381885
vn -0.6532814824381881 -0.3826834323650897 -0.6532814824381885
vn -0.27059805007309823 -0.9238795325112868 -0.27059805007309845
vn -0.38268343236508917 0.9238795325112871 0
vn -0.9238795325112871 0.3826834323650895 -2.8587762813683026e-16
vn -0.9238795325112868 -0.3826834323650896 -4.042920188901577e-16
vn -0.3826834323650897 -0.923879532511287 -1.6578014705465836e-16
vn -0.27059805007309806 0.9238795325112871 0.2705980500730979
vn -0.6532814824381884 0.38268343236508984 0.6532814824381883
vn -0.6532814824381884 -0.3826834323650898 0.6532814824381883
vn -0.2705980500730983 -0.9238795325112868 0.2705980500730983
vn -1.6578014705465822e-16 0.9238795325112871 0.38268343236508917
vn -1.143510512547321e-16 0.38268343236508956 0.9238795325112868
vn -4.042920188901578e-16 -0.38268343236508956 0.923879532511287
vn -1.6578014705465844e-16 -0.923879532511287 0.3826834323650897
usemtl m_c264d719-7d90-f928-0e53-56318ee0e6ed
f 1/1/1 2/2/1 3/3/1
f 1/4/2 4/5/2 5/6/2 2/7/2
f 4/8/3 6/9/3 7/10/3 5/11/3
f 7/12/4 6/13/4 8/14/4
f 2/15/5 9/16/5 3/17/5
f 2/18/6 5/19/6 10/20/6 9/21/6
f 5/22/7 7/23/7 11/24/7 10/25/7
f 11/26/8 7/27/8 8/28/8
f 9/29/9 12/30/9 3/31/9
f 9/32/10 10/33/10 13/34/10 12/35/10
f 10/36/11 11/37/11 14/38/11 13/39/11
f 14/40/12 11/41/12 8/42/12
f 12/43/13 15/44/13 3/45/13
f 12/46/14 13/47/14 16/48/14 15/49/14
f 13/50/15 14/51/15 17/52/15 16/53/15
f 17/54/16 14/55/16 8/56/16
f 15/57/17 18/58/17 3/59/17
f 15/60/18 16/61/18 19/62/18 18/63/18
f 16/64/19 17/65/19 20/66/19 19/67/19
f 20/68/20 17/69/20 8/70/20
f 18/71/21 21/72/21 3/73/21
f 18/74/22 19/75/22 22/76/22 21/77/22
f 19/78/23 20/79/23 23/80/23 22/81/23
f 23/82/24 20/83/24 8/84/24
f 21/85/25 24/86/25 3/87/25
f 21/88/26 22/89/26 25/90/26 24/91/26
f 22/92/27 23/93/27 26/94/27 25/95/27
f 26/96/28 23/97/28 8/98/28
f 24/99/29 1/100/29 3/101/29
f 24/102/30 25/103/30 4/104/30 1/105/30
f 25/106/31 26/107/31 6/108/31 4/109/31
f 6/110/32 26/111/32 8/112/32
o cone
v 0.20710678118654754 0.6875 0.5
v 0.5 0.6875 0.20710678118654757
v 0 2 0
v 0.5 0.6875 -0.20710678118654752
v 0.2071067811865476 0.6875 -0.5
v -0.2071067811865475 0.6875 -0.5000000000000001
v -0.4999999999999999 0.6875 -0.20710678118654785
v -0.49999999999999994 0.6875 0.20710678118654766
v -0.20710678118654788 0.6875 0.4999999999999999
vt 0.0061596981003271024 0.3090500756934298
vt 0.09722222222222218 0.2956222009778824
vt 0.09722222222222222 0.6111111111111112
vt 0.28085762682794135 0.4340500756934298
vt 0.3719201509498364 0.4206222009778824
vt 0.37192015094983644 0.7361111111111112
vt 0.375 0.3507167423600964
vt 0.4660625241218951 0.337288867644549
vt 0.4660625241218951 0.6527777777777778
vt 0.10030207127238577 0.6284945201378742
vt 0.19136459539428086 0.6150666454223268
vt 0.19136459539428088 0.9305555555555556
vt 0.395048586989216 0.6979389645823186
vt 0.4861111111111111 0.6845110898667712
vt 0.4861111111111111 1
vt 0.197524293494608 0.5590500756934298
vt 0.28858681761650307 0.5456222009778824
vt 0.2885868176165031 0.8611111111111112
vt 0.09722222222222222 0.22571674236009642
vt 0.18828474634411732 0.21228886764454902
vt 0.18828474634411735 0.5277777777777778
vt 0.0030798490501635512 0.6979389645823186
vt 0.09414237317205863 0.6845110898667712
vt 0.09414237317205867 1
vn 0.6607826143039303 0.3559953275919878 0.6607826143039303
vn 0.9344877349289682 0.3559953275919879 0
vn 0.6607826143039304 0.3559953275919879 -0.6607826143039303
vn 2.504721944892406e-16 0.35599532759198793 -0.9344877349289682
vn -0.6607826143039301 0.3559953275919879 -0.6607826143039305
vn -0.9344877349289681 0.35599532759198776 -1.2523609724462016e-16
vn -0.6607826143039305 0.35599532759198793 0.6607826143039301
vn -2.504721944892404e-16 0.3559953275919878 0.9344877349289681
usemtl m_c264d719-7d90-f928-0e53-56318ee0e6ed
f 27/113/33 28/114/33 29/115/33
f 28/116/34 30/117/34 29/118/34
f 30/119/35 31/120/35 29/121/35
f 31/122/36 32/123/36 29/124/36
f 32/125/37 33/126/37 29/127/37
f 33/128/38 34/129/38 29/130/38
f 34/131/39 35/132/39 29/133/39
f 35/134/40 27/135/40 29/136/40
o cube
v 0.75 1.4375 -0.0625
v 0.75 1.5625 -0.0625
v 0.75 1.5625 0.0625
v 0.75 1.4375 0.0625
v -0.75 1.4375 0.0625
v -0.75 1.5625 0.0625
v -0.75 1.5625 -0.0625
v -0.75 1.4375 -0.0625
vt 0.027777777777777776 0.9722222222222222
vt 0.027777777777777776 1
vt 0 1
vt 0 0.9722222222222222
vt 0.027777777777777776 0.9305555555555556
vt 0.027777777777777776 0.9583333333333334
vt 0 0.9583333333333334
vt 0 0.9305555555555556
vt 0.4444444444444444 0.9722222222222222
vt 0.4444444444444444 1
vt 0.1111111111111111 1
vt 0.1111111111111111 0.9722222222222222
vt 0.8333333333333334 0.9722222222222222
vt 0.8333333333333334 1
vt 0.5 1
vt 0.5 0.9722222222222222
vt 0.8333333333333334 0.9305555555555556
vt 0.8333333333333334 0.9583333333333334
vt 0.5 0.9583333333333334
vt 0.5 0.9305555555555556
vt 0.8333333333333334 0.8888888888888888
vt 0.8333333333333334 0.9166666666666666
vt 0.5 0.9166666666666666
vt 0.5 0.8888888888888888
vn 1 0 0
vn -1 0 0
vn 0 1 0
vn 0 -1 0
vn 0 0 1
vn 0 0 -1
usemtl m_c264d719-7d90-f928-0e53-56318ee0e6ed
f 36/137/41 37/138/41 38/139/41 39/140/41
f 40/141/42 41/142/42 42/143/42 43/144/42
f 38/145/43 37/146/43 42/147/43 41/148/43
f 36/149/44 39/150/44 40/151/44 43/152/44
f 39/153/45 38/154/45 41/155/45 40/156/45
f 43/157/46 42/158/46 37/159/46 36/160/46
o cube
v 0.0625 0 -0.0625
v 0.0625 1.75 -0.0625
v 0.0625 1.75 0.0625
v 0.0625 0 0.0625
v -0.0625 0 0.0625
v -0.0625 1.75 0.0625
v -0.0625 1.75 -0.0625
v -0.0625 0 -0.0625
vt 0.2361111111111111 0.13888888888888884
vt 0.2361111111111111 0.5277777777777778
vt 0.20833333333333334 0.5277777777777778
vt 0.20833333333333334 0.13888888888888884
vt 0.2777777777777778 0.02777777777777779
vt 0.2777777777777778 0.41666666666666663
vt 0.25 0.41666666666666663
vt 0.25 0.02777777777777779
vt 0.027777777777777776 0.8888888888888888
vt 0.027777777777777776 0.9166666666666666
vt 0 0.9166666666666666
vt 0 0.8888888888888888
vt 0.3194444444444444 0.01388888888888884
vt 0.3194444444444444 0.4027777777777778
vt 0.2916666666666667 0.4027777777777778
vt 0.2916666666666667 0.01388888888888884
vt 0.3611111111111111 0.01388888888888884
vt 0.3611111111111111 0.4027777777777778
vt 0.3333333333333333 0.4027777777777778
vt 0.3333333333333333 0.01388888888888884
vn 1 0 0
vn -1 0 0
vn 0 -1 0
vn 0 0 1
vn 0 0 -1
usemtl m_c264d719-7d90-f928-0e53-56318ee0e6ed
f 44/161/47 45/162/47 46/163/47 47/164/47
f 48/165/48 49/166/48 50/167/48 51/168/48
f 44/169/49 47/170/49 48/171/49 51/172/49
f 47/173/50 46/174/50 49/175/50 48/176/50
f 51/177/51 50/178/51 45/179/51 44/180/51
o cone
v 0.5 0.6875 0.20710678118654757
v 0.20710678118654754 0.6875 0.5
v 0 2 0
v 0.5 0.6875 -0.20710678118654752
v 0.2071067811865476 0.6875 -0.5
v -0.2071067811865475 0.6875 -0.5000000000000001
v -0.4999999999999999 0.6875 -0.20710678118654785
v -0.49999999999999994 0.6875 0.20710678118654766
v -0.20710678118654788 0.6875 0.4999999999999999
vt 0.09722222222222218 0.2956222009778824
vt 0.0061596981003271024 0.3090500756934298
vt 0.09722222222222222 0.6111111111111112
vt 0.3719201509498364 0.4206222009778824
vt 0.28085762682794135 0.4340500756934298
vt 0.37192015094983644 0.7361111111111112
vt 0.4660625241218951 0.337288867644549
vt 0.375 0.3507167423600964
vt 0.4660625241218951 0.6527777777777778
vt 0.19136459539428086 0.6150666454223268
vt 0.10030207127238577 0.6284945201378742
vt 0.19136459539428088 0.9305555555555556
vt 0.4861111111111111 0.6845110898667712
vt 0.395048586989216 0.6979389645823186
vt 0.4861111111111111 1
vt 0.28858681761650307 0.5456222009778824
vt 0.197524293494608 0.5590500756934298
vt 0.2885868176165031 0.8611111111111112
vt 0.18828474634411732 0.21228886764454902
vt 0.09722222222222222 0.22571674236009642
vt 0.18828474634411735 0.5277777777777778
vt 0.09414237317205863 0.6845110898667712
vt 0.0030798490501635512 0.6979389645823186
vt 0.09414237317205867 1
vn -0.6607826143039303 -0.3559953275919879 -0.6607826143039303
vn -0.9344877349289682 -0.3559953275919879 0
vn -0.6607826143039304 -0.3559953275919879 0.6607826143039303
vn -2.504721944892406e-16 -0.35599532759198793 0.9344877349289682
vn 0.6607826143039301 -0.3559953275919879 0.6607826143039305
vn 0.9344877349289681 -0.35599532759198776 1.2523609724462016e-16
vn 0.6607826143039304 -0.35599532759198793 -0.66078261430393
vn 2.504721944892404e-16 -0.3559953275919878 -0.9344877349289681
usemtl m_c264d719-7d90-f928-0e53-56318ee0e6ed
f 52/181/52 53/182/52 54/183/52
f 55/184/53 52/185/53 54/186/53
f 56/187/54 55/188/54 54/189/54
f 57/190/55 56/191/55 54/192/55
f 58/193/56 57/194/56 54/195/56
f 59/196/57 58/197/57 54/198/57
f 60/199/58 59/200/58 54/201/58
f 53/202/59 60/203/59 54/204/59