# Blender 4.3.2
# www.blender.org
mtllib strawberry.mtl
o hair
v -0.031250 1.156250 0.031250
v 0.031250 1.156250 0.031250
v 0.031250 1.156250 -0.031250
v -0.031250 1.156250 -0.031250
v 0.031250 0.968750 0.031250
v 0.031250 0.968750 -0.031250
v -0.031250 0.968750 -0.031250
v -0.031250 0.968750 0.031250
v 0.437500 0.875000 0.166667
v 0.166667 0.875000 0.437500
v 0.375000 0.625000 0.437500
v 0.104167 1.000000 0.166667
v -0.375000 0.843750 -0.104167
v -0.500000 0.750000 0.166667
v -0.166667 1.000000 0.166667
v -0.166667 1.000000 -0.166667
v -0.437500 0.687500 -0.500000
v -0.166667 0.875000 -0.312500
v 0.166667 1.000000 -0.229167
v 0.229167 0.812500 -0.437500
v 0.437500 0.875000 -0.104167
v 0.437500 0.750000 -0.500000
v -0.166667 0.812500 0.562500
v -0.312500 0.812500 0.312500
vn -0.5774 0.5774 0.5774
vn 0.5774 0.5774 0.5774
vn 0.5774 0.5774 -0.5774
vn -0.5774 0.5774 -0.5774
vn 0.7071 -0.0000 0.7071
vn 0.7071 -0.0000 -0.7071
vn -0.7071 -0.0000 -0.7071
vn -0.7071 -0.0000 0.7071
vn 0.4526 0.8470 0.2789
vn 0.2735 0.8347 0.4779
vn 0.6092 0.5077 0.6092
vn 0.1521 0.9665 0.2066
vn -0.6139 0.7849 -0.0839
vn -0.5921 0.7895 0.1613
vn -0.3039 0.9304 0.2050
vn -0.2929 0.9181 -0.2670
vn -0.4693 0.8017 -0.3703
vn -0.0921 0.7507 -0.6541
vn 0.1986 0.9117 -0.3597
vn 0.2096 0.8472 -0.4882
vn 0.4225 0.8908 -0.1670
vn 0.1921 0.9358 -0.2955
vn -0.2321 0.8791 0.4164
vn -0.5714 0.7324 0.3702
vt 0.000000 0.750000
vt 0.020833 0.750000
vt 0.020833 0.770833
vt 0.000000 0.770833
vt 0.375000 0.895833
vt 0.375000 0.833333
vt 0.395833 0.833333
vt 0.395833 0.895833
vt 0.375000 0.812500
vt 0.375000 0.750000
vt 0.395833 0.750000
vt 0.395833 0.812500
vt 0.395833 1.000000
vt 0.395833 0.937500
vt 0.416667 0.937500
vt 0.416667 1.000000
vt 0.437500 0.458333
vt 0.437500 0.395833
vt 0.458333 0.395833
vt 0.458333 0.458333
vt 0.498167 0.586501
vt 0.384328 0.499689
vt 0.472618 0.494458
vt 0.361844 0.618054
vt 0.384142 0.499690
vt 0.498167 0.586502
vt 0.738480 0.910069
vt 0.828759 0.861110
vt 0.828759 1.000000
vt 0.717647 1.000000
vt 0.936300 0.266404
vt 0.948863 0.397442
vt 0.858480 0.416666
vt 0.860073 0.352661
vt 0.747046 0.398070
vt 0.728812 0.304187
vt 0.858480 0.416667
vt 0.655303 0.399037
vt 0.660187 0.272864
vt 0.747062 0.398153
vt 0.499267 0.596195
vt 0.481428 0.685911
vt 0.382679 0.729167
vt 0.361846 0.618055
vt 0.384218 0.500269
vt 0.271566 0.597221
vt 0.274801 0.451258
vt 0.828759 0.999910
vt 0.881573 0.923471
vt 0.969853 0.962387
vt 0.361846 0.618054
vt 0.271566 0.708333
s 1
usemtl m_d3bb0ba5-8b8b-1bee-401f-13914eab71e8
f 1/1/1 2/2/2 3/3/3 4/4/4
f 2/5/2 5/6/5 6/7/6 3/8/3
f 3/9/3 6/10/6 7/11/7 4/12/4
f 4/13/4 7/14/7 8/15/8 1/16/1
f 1/17/1 8/18/8 5/19/5 2/20/2
f 9/21/9 10/22/10 11/23/11
f 12/24/12 10/25/10 9/26/9
f 13/27/13 14/28/14 15/29/15
f 13/27/13 15/29/15 16/30/16
f 17/31/17 13/32/13 16/33/16
f 17/31/17 16/33/16 18/34/18
f 19/35/19 20/36/20 18/34/18
f 19/35/19 18/34/18 16/37/16
f 21/38/21 22/39/22 20/36/20
f 21/38/21 20/36/20 19/40/19
f 9/41/9 21/42/21 19/43/19
f 9/41/9 19/43/19 12/44/12
f 10/45/10 12/24/12 15/46/15
f 10/45/10 15/46/15 23/47/23
f 15/48/15 24/49/24 23/50/23
f 24/49/24 15/48/15 14/28/14
f 12/51/12 19/43/19 16/52/16
f 12/51/12 16/52/16 15/46/15
o hair_inside
v -0.031250 1.156250 0.031250
v 0.031250 1.156250 0.031250
v 0.031250 1.156250 -0.031250
v -0.031250 1.156250 -0.031250
v 0.031250 0.968750 0.031250
v 0.031250 0.968750 -0.031250
v -0.031250 0.968750 -0.031250
v -0.031250 0.968750 0.031250
v 0.437500 0.875000 0.166667
v 0.166667 0.875000 0.437500
v 0.375000 0.625000 0.437500
v 0.104167 1.000000 0.166667
v -0.375000 0.843750 -0.104167
v -0.500000 0.750000 0.166667
v -0.166667 1.000000 0.166667
v -0.166667 1.000000 -0.166667
v -0.437500 0.687500 -0.500000
v -0.166667 0.875000 -0.312500
v 0.166667 1.000000 -0.229167
v 0.229167 0.812500 -0.437500
v 0.437500 0.875000 -0.104167
v 0.437500 0.750000 -0.500000
v -0.166667 0.812500 0.562500
v -0.312500 0.812500 0.312500
vn -0.5774 -0.5774 0.5774
vn -0.5774 -0.5774 -0.5774
vn 0.5774 -0.5774 -0.5774
vn 0.5774 -0.5774 0.5774
vn -0.7071 -0.0000 0.7071
vn -0.7071 -0.0000 -0.7071
vn 0.7071 -0.0000 0.7071
vn 0.7071 -0.0000 -0.7071
vn -0.2759 -0.8349 -0.4763
vn -0.4526 -0.8470 -0.2789
vn -0.6092 -0.5077 -0.6092
vn -0.1521 -0.9665 -0.2066
vn 0.5921 -0.7895 -0.1613
vn 0.6139 -0.7849 0.0839
vn 0.3024 -0.9309 -0.2049
vn 0.2929 -0.9181 0.2670
vn 0.4693 -0.8017 0.3703
vn 0.0921 -0.7507 0.6541
vn -0.2096 -0.8472 0.4882
vn -0.1986 -0.9117 0.3597
vn -0.1921 -0.9358 0.2955
vn -0.4225 -0.8908 0.1670
vn 0.2321 -0.8791 -0.4164
vn 0.5714 -0.7324 -0.3702
vt 0.020833 0.770833
vt 0.020833 0.750000
vt 0.000000 0.750000
vt 0.000000 0.770833
vt 0.395833 0.833333
vt 0.375000 0.833333
vt 0.375000 0.895833
vt 0.395833 0.895833
vt 0.395833 0.750000
vt 0.375000 0.750000
vt 0.375000 0.812500
vt 0.395833 0.812500
vt 0.416667 0.937500
vt 0.395833 0.937500
vt 0.395833 1.000000
vt 0.416667 1.000000
vt 0.458333 0.395833
vt 0.437500 0.395833
vt 0.437500 0.458333
vt 0.458333 0.458333
vt 0.384328 0.499689
vt 0.498167 0.586501
vt 0.472618 0.494458
vt 0.384142 0.499690
vt 0.361844 0.618054
vt 0.498167 0.586502
vt 0.828759 0.861110
vt 0.738480 0.910069
vt 0.828759 1.000000
vt 0.717647 1.000000
vt 0.948863 0.397442
vt 0.936300 0.266404
vt 0.858480 0.416666
vt 0.860073 0.352661
vt 0.728812 0.304187
vt 0.747046 0.398070
vt 0.858480 0.416667
vt 0.660187 0.272864
vt 0.655303 0.399037
vt 0.747062 0.398153
vt 0.481428 0.685911
vt 0.499267 0.596195
vt 0.382679 0.729167
vt 0.361846 0.618055
vt 0.384218 0.500269
vt 0.271566 0.597221
vt 0.274801 0.451258
vt 0.881573 0.923471
vt 0.828759 0.999910
vt 0.969853 0.962387
vt 0.361846 0.618054
vt 0.271566 0.708333
s 1
usemtl m_d3bb0ba5-8b8b-1bee-401f-13914eab71e8
f 27/53/25 26/54/26 25/55/27 28/56/28
f 30/57/29 29/58/30 26/59/26 27/60/25
f 31/61/31 30/62/29 27/63/25 28/64/28
f 32/65/32 31/66/31 28/67/28 25/68/27
f 29/69/30 32/70/32 25/71/27 26/72/26
f 34/73/33 33/74/34 35/75/35
f 34/76/33 36/77/36 33/78/34
f 38/79/37 37/80/38 39/81/39
f 39/81/39 37/80/38 40/82/40
f 37/83/38 41/84/41 40/85/40
f 40/85/40 41/84/41 42/86/42
f 44/87/43 43/88/44 42/86/42
f 42/86/42 43/88/44 40/89/40
f 46/90/45 45/91/46 44/87/43
f 44/87/43 45/91/46 43/92/44
f 45/93/46 33/94/34 43/95/44
f 43/95/44 33/94/34 36/96/36
f 36/77/36 34/97/33 39/98/39
f 39/98/39 34/97/33 47/99/47
f 48/100/48 39/101/39 47/102/47
f 39/101/39 48/100/48 38/79/37
f 43/95/44 36/103/36 40/104/40
f 40/104/40 36/103/36 39/98/39
o left_eye
v -0.125000 0.615537 -0.460836
v -0.150120 0.572082 -0.463366
v -0.218750 0.640625 -0.459375
v -0.125000 0.665713 -0.457914
v -0.150120 0.709168 -0.455384
v -0.193630 0.734256 -0.453923
v -0.243870 0.734256 -0.453923
v -0.287380 0.709168 -0.455384
v -0.312500 0.665713 -0.457914
v -0.312500 0.615537 -0.460836
v -0.287380 0.572082 -0.463366
v -0.243870 0.546994 -0.464827
v -0.193630 0.546994 -0.464827
v -0.062500 0.638413 -0.454586
v -0.095994 0.580456 -0.457116
v -0.187500 0.671875 -0.453125
v -0.062500 0.705337 -0.451664
v -0.095994 0.763294 -0.449134
v -0.154006 0.796756 -0.447673
v -0.220994 0.796756 -0.447673
v -0.279006 0.763294 -0.449134
v -0.312500 0.705337 -0.451664
v -0.312500 0.638413 -0.454586
v -0.279006 0.580456 -0.457116
v -0.220994 0.546994 -0.458577
v -0.154006 0.546994 -0.458577
vn -0.0000 0.0581 -0.9983
vn -0.0000 0.0436 -0.9990
vt 0.375000 0.210360
vt 0.383373 0.195850
vt 0.406250 0.218737
vt 0.375000 0.227115
vt 0.383373 0.241623
vt 0.397877 0.250000
vt 0.414623 0.250000
vt 0.429127 0.241623
vt 0.437500 0.227115
vt 0.437500 0.210360
vt 0.429127 0.195850
vt 0.414623 0.187473
vt 0.397877 0.187473
vt 0.708333 0.780502
vt 0.719498 0.761165
vt 0.750000 0.791667
vt 0.708333 0.802831
vt 0.719498 0.822169
vt 0.738835 0.833333
vt 0.761165 0.833333
vt 0.780502 0.822169
vt 0.791667 0.802831
vt 0.791667 0.780502
vt 0.780502 0.761165
vt 0.761165 0.750000
vt 0.738835 0.750000
s 1
usemtl m_d3bb0ba5-8b8b-1bee-401f-13914eab71e8
f 49/105/49 50/106/49 51/107/49
f 52/108/49 49/105/49 51/107/49
f 53/109/49 52/108/49 51/107/49
f 54/110/49 53/109/49 51/107/49
f 55/111/49 54/110/49 51/107/49
f 56/112/49 55/111/49 51/107/49
f 57/113/49 56/112/49 51/107/49
f 58/114/49 57/113/49 51/107/49
f 59/115/49 58/114/49 51/107/49
f 60/116/49 59/115/49 51/107/49
f 61/117/49 60/116/49 51/107/49
f 50/106/49 61/117/49 51/107/49
f 62/118/50 63/119/50 64/120/50
f 65/121/50 62/118/50 64/120/50
f 66/122/50 65/121/50 64/120/50
f 67/123/50 66/122/50 64/120/50
f 68/124/50 67/123/50 64/120/50
f 69/125/50 68/124/50 64/120/50
f 70/126/50 69/125/50 64/120/50
f 71/127/50 70/126/50 64/120/50
f 72/128/50 71/127/50 64/120/50
f 73/129/50 72/128/50 64/120/50
f 74/130/50 73/129/50 64/120/50
f 63/119/50 74/130/50 64/120/50
o right_eye
v 0.095994 0.580456 -0.457116
v 0.062500 0.638413 -0.454586
v 0.187500 0.671875 -0.453125
v 0.062500 0.705337 -0.451664
v 0.095994 0.763294 -0.449134
v 0.154006 0.796756 -0.447673
v 0.220994 0.796756 -0.447673
v 0.279006 0.763294 -0.449134
v 0.312500 0.705337 -0.451664
v 0.312500 0.638413 -0.454586
v 0.279006 0.580456 -0.457116
v 0.220994 0.546994 -0.458577
v 0.154006 0.546994 -0.458577
v 0.150120 0.572082 -0.463366
v 0.125000 0.615537 -0.460836
v 0.218750 0.640625 -0.459375
v 0.125000 0.665713 -0.457914
v 0.150120 0.709168 -0.455384
v 0.193630 0.734256 -0.453923
v 0.243870 0.734256 -0.453923
v 0.287380 0.709168 -0.455384
v 0.312500 0.665713 -0.457914
v 0.312500 0.615537 -0.460836
v 0.287380 0.572082 -0.463366
v 0.243870 0.546994 -0.464827
v 0.193630 0.546994 -0.464827
vn -0.0000 0.0436 -0.9990
vn -0.0000 0.0581 -0.9983
vt 0.363835 0.927831
vt 0.375000 0.947169
vt 0.333333 0.958333
vt 0.375000 0.969498
vt 0.363835 0.988835
vt 0.344498 1.000000
vt 0.322169 1.000000
vt 0.302831 0.988835
vt 0.291667 0.969498
vt 0.291667 0.947169
vt 0.302831 0.927831
vt 0.322169 0.916667
vt 0.344498 0.916667
vt 0.054127 0.945850
vt 0.062500 0.960360
vt 0.031250 0.968737
vt 0.062500 0.977115
vt 0.054127 0.991623
vt 0.039623 1.000000
vt 0.022877 1.000000
vt 0.008373 0.991623
vt 0.000000 0.977115
vt 0.000000 0.960360
vt 0.008373 0.945850
vt 0.022877 0.937473
vt 0.039623 0.937473
s 1
usemtl m_d3bb0ba5-8b8b-1bee-401f-13914eab71e8
f 75/131/51 76/132/51 77/133/51
f 76/132/51 78/134/51 77/133/51
f 78/134/51 79/135/51 77/133/51
f 79/135/51 80/136/51 77/133/51
f 80/136/51 81/137/51 77/133/51
f 81/137/51 82/138/51 77/133/51
f 82/138/51 83/139/51 77/133/51
f 83/139/51 84/140/51 77/133/51
f 84/140/51 85/141/51 77/133/51
f 85/141/51 86/142/51 77/133/51
f 86/142/51 87/143/51 77/133/51
f 87/143/51 75/131/51 77/133/51
f 88/144/52 89/145/52 90/146/52
f 89/145/52 91/147/52 90/146/52
f 91/147/52 92/148/52 90/146/52
f 92/148/52 93/149/52 90/146/52
f 93/149/52 94/150/52 90/146/52
f 94/150/52 95/151/52 90/146/52
f 95/151/52 96/152/52 90/146/52
f 96/152/52 97/153/52 90/146/52
f 97/153/52 98/154/52 90/146/52
f 98/154/52 99/155/52 90/146/52
f 99/155/52 100/156/52 90/146/52
f 100/156/52 88/144/52 90/146/52
o sphere
v 0.066987 0.933013 0.250000
v 0.183013 0.933013 0.183013
v 0.000000 1.000000 -0.000000
v 0.116025 0.750000 0.433013
v 0.316987 0.750000 0.316987
v 0.117228 0.500000 0.437500
v 0.320272 0.500000 0.320272
v 0.082532 0.250000 0.308013
v 0.225481 0.250000 0.225481
v 0.050240 0.066987 0.187500
v 0.137260 0.066987 0.137260
v 0.000000 0.000000 0.000000
v 0.250000 0.933013 0.066987
v 0.433013 0.750000 0.116025
v 0.437500 0.500000 0.117228
v 0.308013 0.250000 0.082532
v 0.187500 0.066987 0.050240
v 0.250000 0.933013 -0.066987
v 0.433013 0.750000 -0.116025
v 0.437500 0.500000 -0.117228
v 0.308013 0.250000 -0.082532
v 0.187500 0.066987 -0.050240
v 0.183013 0.933013 -0.183013
v 0.316987 0.750000 -0.316987
v 0.320272 0.500000 -0.320272
v 0.225481 0.250000 -0.225481
v 0.137260 0.066987 -0.137260
v 0.066987 0.933013 -0.250000
v 0.116025 0.750000 -0.433013
v 0.117228 0.500000 -0.437500
v 0.082532 0.250000 -0.308013
v 0.050240 0.066987 -0.187500
v -0.066987 0.933013 -0.250000
v -0.116025 0.750000 -0.433013
v -0.117228 0.500000 -0.437500
v -0.082532 0.250000 -0.308013
v -0.050240 0.066987 -0.187500
v -0.183013 0.933013 -0.183013
v -0.316987 0.750000 -0.316987
v -0.320272 0.500000 -0.320272
v -0.225481 0.250000 -0.225481
v -0.137260 0.066987 -0.137260
v -0.250000 0.933013 -0.066987
v -0.433013 0.750000 -0.116025
v -0.437500 0.500000 -0.117228
v -0.308013 0.250000 -0.082532
v -0.187500 0.066987 -0.050240
v -0.250000 0.933013 0.066987
v -0.433013 0.750000 0.116025
v -0.437500 0.500000 0.117228
v -0.308013 0.250000 0.082532
v -0.187500 0.066987 0.050240
v -0.183013 0.933013 0.183013
v -0.316987 0.750000 0.316987
v -0.320272 0.500000 0.320272
v -0.225481 0.250000 0.225481
v -0.137260 0.066987 0.137260
v -0.066987 0.933013 0.250000
v -0.116025 0.750000 0.433013
v -0.117228 0.500000 0.437500
v -0.082532 0.250000 0.308013
v -0.050240 0.066987 0.187500
vn 0.1345 0.8544 0.5019
vn 0.3675 0.8544 0.3675
vn -0.0000 1.0000 -0.0000
vn 0.2396 0.3778 0.8943
vn 0.6547 0.3778 0.6547
vn 0.2521 -0.2256 0.9410
vn 0.6889 -0.2256 0.6889
vn 0.2219 -0.5148 0.8281
vn 0.6062 -0.5148 0.6062
vn 0.1651 -0.7700 0.6163
vn 0.4512 -0.7700 0.4512
vn -0.0000 -1.0000 -0.0000
vn 0.5019 0.8544 0.1345
vn 0.8943 0.3778 0.2396
vn 0.9410 -0.2256 0.2521
vn 0.8281 -0.5148 0.2219
vn 0.6163 -0.7700 0.1651
vn 0.5019 0.8544 -0.1345
vn 0.8943 0.3778 -0.2396
vn 0.9410 -0.2256 -0.2521
vn 0.8281 -0.5148 -0.2219
vn 0.6163 -0.7700 -0.1651
vn 0.3675 0.8544 -0.3675
vn 0.6547 0.3778 -0.6547
vn 0.6889 -0.2256 -0.6889
vn 0.6062 -0.5148 -0.6062
vn 0.4512 -0.7700 -0.4512
vn 0.1345 0.8544 -0.5019
vn 0.2396 0.3778 -0.8943
vn 0.2521 -0.2256 -0.9410
vn 0.2219 -0.5148 -0.8281
vn 0.1651 -0.7700 -0.6163
vn -0.1345 0.8544 -0.5019
vn -0.2396 0.3778 -0.8943
vn -0.2521 -0.2256 -0.9410
vn -0.2219 -0.5148 -0.8281
vn -0.1651 -0.7700 -0.6163
vn -0.3675 0.8544 -0.3675
vn -0.6547 0.3778 -0.6547
vn -0.6889 -0.2256 -0.6889
vn -0.6062 -0.5148 -0.6062
vn -0.4512 -0.7700 -0.4512
vn -0.5019 0.8544 -0.1345
vn -0.8943 0.3778 -0.2396
vn -0.9410 -0.2256 -0.2521
vn -0.8281 -0.5148 -0.2219
vn -0.6163 -0.7700 -0.1651
vn -0.5019 0.8544 0.1345
vn -0.8943 0.3778 0.2396
vn -0.9410 -0.2256 0.2521
vn -0.8281 -0.5148 0.2219
vn -0.6163 -0.7700 0.1651
vn -0.3675 0.8544 0.3675
vn -0.6547 0.3778 0.6547
vn -0.6889 -0.2256 0.6889
vn -0.6062 -0.5148 0.6062
vn -0.4512 -0.7700 0.4512
vn -0.1345 0.8544 0.5019
vn -0.2396 0.3778 0.8943
vn -0.2521 -0.2256 0.9410
vn -0.2219 -0.5148 0.8281
vn -0.1651 -0.7700 0.6163
vt 0.199189 0.825623
vt 0.238240 0.847289
vt 0.176860 0.911896
vt 0.215535 0.739350
vt 0.287524 0.767645
vt 0.240752 0.841959
vt 0.163675 0.707591
vt 0.164075 0.624245
vt 0.242221 0.624995
vt 0.241021 0.708333
vt 0.176540 0.530512
vt 0.231558 0.531041
vt 0.188005 0.457575
vt 0.221495 0.457897
vt 0.827478 0.243754
vt 0.797996 0.259643
vt 0.781250 0.193274
vt 0.261876 0.885179
vt 0.344173 0.820312
vt 0.273459 0.872367
vt 0.529812 0.708333
vt 0.528612 0.624995
vt 0.606758 0.624245
vt 0.607158 0.707591
vt 0.539275 0.531041
vt 0.594293 0.530512
vt 0.549338 0.457897
vt 0.582828 0.457575
vt 0.845893 0.215779
vt 0.264163 0.929779
vt 0.290171 0.270833
vt 0.273825 0.187500
vt 0.351175 0.187500
vt 0.334829 0.270833
vt 0.684908 0.624245
vt 0.684508 0.707591
vt 0.618323 0.530397
vt 0.673344 0.530397
vt 0.629088 0.457353
vt 0.662579 0.457353
vt 0.848832 0.182416
vt 0.244525 0.969888
vt 0.351318 0.416667
vt 0.280603 0.364612
vt 0.337253 0.311945
vt 0.384024 0.386259
vt 0.763055 0.624995
vt 0.761855 0.708333
vt 0.697373 0.530512
vt 0.752391 0.531041
vt 0.708838 0.457575
vt 0.742328 0.457897
vt 0.835591 0.151653
vt 0.207894 0.995433
vt 0.409242 0.283650
vt 0.425588 0.369923
vt 0.446479 1.000000
vt 0.445279 0.916662
vt 0.523425 0.915912
vt 0.523825 0.999258
vt 0.455942 0.822707
vt 0.510960 0.822179
vt 0.466005 0.749564
vt 0.499495 0.749242
vt 0.809340 0.130855
vt 0.190249 1.000000
vt 0.145825 0.995433
vt 0.486592 0.283650
vt 0.470246 0.369923
vt 0.601575 0.915912
vt 0.601175 0.999258
vt 0.534990 0.822064
vt 0.590010 0.822064
vt 0.545754 0.749020
vt 0.579246 0.749020
vt 0.776364 0.125000
vt 0.109195 0.969888
vt 0.558581 0.311945
vt 0.511809 0.386259
vt 0.679721 0.916662
vt 0.678521 1.000000
vt 0.614040 0.822179
vt 0.669058 0.822707
vt 0.625505 0.749242
vt 0.658995 0.749564
vt 0.726909 0.151653
vt 0.753160 0.130855
vt 0.089557 0.929779
vt 0.615230 0.364612
vt 0.544516 0.416667
vt 0.008979 0.416667
vt 0.007779 0.333329
vt 0.085925 0.332578
vt 0.086325 0.415924
vt 0.018442 0.239374
vt 0.073460 0.238846
vt 0.028505 0.166230
vt 0.061995 0.165909
vt 0.713668 0.182416
vt 0.091843 0.885179
vt 0.561004 0.270833
vt 0.544658 0.187500
vt 0.622008 0.187500
vt 0.605663 0.270833
vt 0.164075 0.332578
vt 0.163675 0.415924
vt 0.097490 0.238730
vt 0.152510 0.238730
vt 0.108254 0.165687
vt 0.141746 0.165687
vt 0.716607 0.215779
vt 0.115480 0.847289
vt 0.009993 0.853386
vt 0.050933 0.787758
vt 0.242221 0.333329
vt 0.241021 0.416667
vt 0.176540 0.238846
vt 0.231558 0.239374
vt 0.188005 0.165909
vt 0.221495 0.166230
vt 0.735022 0.243754
vt 0.154531 0.825623
vt 0.059332 0.779779
vt 0.126969 0.742253
vt 0.008979 0.708333
vt 0.007779 0.624995
vt 0.085925 0.624245
vt 0.086325 0.707591
vt 0.018442 0.531041
vt 0.073460 0.530512
vt 0.028505 0.457897
vt 0.061995 0.457575
vt 0.764504 0.259643
vt 0.138185 0.739350
vt 0.097490 0.530397
vt 0.152510 0.530397
vt 0.108254 0.457353
vt 0.141746 0.457353
s 1
usemtl m_d3bb0ba5-8b8b-1bee-401f-13914eab71e8
f 101/157/53 102/158/54 103/159/55
f 101/157/53 104/160/56 105/161/57 102/162/54
f 104/163/56 106/164/58 107/165/59 105/166/57
f 106/164/58 108/167/60 109/168/61 107/165/59
f 108/167/60 110/169/62 111/170/63 109/168/61
f 111/171/63 110/172/62 112/173/64
f 102/158/54 113/174/65 103/159/55
f 102/162/54 105/161/57 114/175/66 113/176/65
f 105/177/57 107/178/59 115/179/67 114/180/66
f 107/178/59 109/181/61 116/182/68 115/179/67
f 109/181/61 111/183/63 117/184/69 116/182/68
f 117/185/69 111/171/63 112/173/64
f 113/174/65 118/186/70 103/159/55
f 113/187/65 114/188/66 119/189/71 118/190/70
f 114/180/66 115/179/67 120/191/72 119/192/71
f 115/179/67 116/193/68 121/194/73 120/191/72
f 116/193/68 117/195/69 122/196/74 121/194/73
f 122/197/74 117/185/69 112/173/64
f 118/186/70 123/198/75 103/159/55
f 118/199/70 119/200/71 124/201/76 123/202/75
f 119/192/71 120/191/72 125/203/77 124/204/76
f 120/191/72 121/205/73 126/206/78 125/203/77
f 121/205/73 122/207/74 127/208/79 126/206/78
f 127/209/79 122/197/74 112/173/64
f 123/198/75 128/210/80 103/159/55
f 123/202/75 124/201/76 129/211/81 128/212/80
f 124/213/76 125/214/77 130/215/82 129/216/81
f 125/214/77 126/217/78 131/218/83 130/215/82
f 126/217/78 127/219/79 132/220/84 131/218/83
f 132/221/84 127/209/79 112/173/64
f 128/222/80 133/223/85 103/159/55
f 128/212/80 129/211/81 134/224/86 133/225/85
f 129/216/81 130/215/82 135/226/87 134/227/86
f 130/215/82 131/228/83 136/229/88 135/226/87
f 131/228/83 132/230/84 137/231/89 136/229/88
f 137/232/89 132/221/84 112/173/64
f 133/223/85 138/233/90 103/159/55
f 133/225/85 134/224/86 139/234/91 138/235/90
f 134/227/86 135/226/87 140/236/92 139/237/91
f 135/226/87 136/238/88 141/239/93 140/236/92
f 136/238/88 137/240/89 142/241/94 141/239/93
f 142/242/94 137/243/89 112/173/64
f 138/233/90 143/244/95 103/159/55
f 138/235/90 139/234/91 144/245/96 143/246/95
f 139/247/91 140/248/92 145/249/97 144/250/96
f 140/248/92 141/251/93 146/252/98 145/249/97
f 141/251/93 142/253/94 147/254/99 146/252/98
f 147/255/99 142/242/94 112/173/64
f 143/244/95 148/256/100 103/159/55
f 143/257/95 144/258/96 149/259/101 148/260/100
f 144/250/96 145/249/97 150/261/102 149/262/101
f 145/249/97 146/263/98 151/264/103 150/261/102
f 146/263/98 147/265/99 152/266/104 151/264/103
f 152/267/104 147/255/99 112/173/64
f 148/256/100 153/268/105 103/159/55
f 148/256/100 149/269/101 154/270/106 153/268/105
f 149/262/101 150/261/102 155/271/107 154/272/106
f 150/261/102 151/273/103 156/274/108 155/271/107
f 151/273/103 152/275/104 157/276/109 156/274/108
f 157/277/109 152/267/104 112/173/64
f 153/268/105 158/278/110 103/159/55
f 153/268/105 154/279/106 159/280/111 158/278/110
f 154/281/106 155/282/107 160/283/112 159/284/111
f 155/282/107 156/285/108 161/286/113 160/283/112
f 156/285/108 157/287/109 162/288/114 161/286/113
f 162/289/114 157/277/109 112/173/64
f 158/278/110 101/157/53 103/159/55
f 158/278/110 159/290/111 104/160/56 101/157/53
f 159/284/111 160/283/112 106/164/58 104/163/56
f 160/283/112 161/291/113 108/292/60 106/164/58
f 161/291/113 162/293/114 110/294/62 108/292/60
f 110/172/62 162/289/114 112/173/64
