# Made in Blockbench 4.12.2
mtllib floor.mtl

o floor
v 1.5 0 1.5
v 1.5 0 -1.5
v -1.5 0 -1.5
v -1.5 0 1.5
v -1.5 0 -1.5
v 1.5 0 -1.5
v 1.5 0 1.5
v -1.5 0 1.5
vt 0.5 0
vt 0.5 1
vt 0 1
vt 0 0
vt 0 1
vt 0.5 1
vt 0.5 0
vt 0 0
vn 0 1 0
vn 0 -1 0
usemtl m_19c6c0ec-c66a-3859-9285-acc85627ad5a
f 1/1/1 2/2/1 3/3/1 4/4/1
f 5/5/2 6/6/2 7/7/2 8/8/2
o glass
v 1.5 0 1.5
v 1.5 0 -1.5
v -1.5 0 -1.5
v -1.5 0 1.5
vt 1 0
vt 1 1
vt 0.5 1
vt 0.5 0
vn 0 1 0
usemtl m_19c6c0ec-c66a-3859-9285-acc85627ad5a
f 9/9/3 10/10/3 11/11/3 12/12/3