# Blender 3.6.5
# www.blender.org
mtllib coxinha.pbr
o coxinha
v 0.000000 0.000000 0.000000
v 0.000000 1.375000 -0.000000
v 0.066987 1.058013 0.250000
v 0.116025 0.750000 0.433013
v 0.133975 0.375000 0.500000
v 0.116025 0.125000 0.433013
v 0.066987 0.004487 0.250000
v 0.183013 1.058013 0.183013
v 0.316987 0.750000 0.316987
v 0.366025 0.375000 0.366025
v 0.316987 0.125000 0.316987
v 0.183013 0.004487 0.183013
v 0.250000 1.058013 0.066987
v 0.433013 0.750000 0.116025
v 0.500000 0.375000 0.133975
v 0.433013 0.125000 0.116025
v 0.250000 0.004487 0.066987
v 0.250000 1.058013 -0.066987
v 0.433013 0.750000 -0.116025
v 0.500000 0.375000 -0.133975
v 0.433013 0.125000 -0.116025
v 0.250000 0.004487 -0.066987
v 0.183013 1.058013 -0.183013
v 0.316987 0.750000 -0.316987
v 0.366025 0.375000 -0.366025
v 0.316987 0.125000 -0.316987
v 0.183013 0.004487 -0.183013
v 0.066987 1.058013 -0.250000
v 0.116025 0.750000 -0.433013
v 0.133975 0.375000 -0.500000
v 0.116025 0.125000 -0.433013
v 0.066987 0.004487 -0.250000
v -0.066987 1.058013 -0.250000
v -0.116025 0.750000 -0.433013
v -0.133975 0.375000 -0.500000
v -0.116025 0.125000 -0.433013
v -0.066987 0.004487 -0.250000
v -0.183013 1.058013 -0.183013
v -0.316987 0.750000 -0.316987
v -0.366025 0.375000 -0.366025
v -0.316987 0.125000 -0.316987
v -0.183013 0.004487 -0.183013
v -0.250000 1.058013 -0.066987
v -0.433013 0.750000 -0.116025
v -0.500000 0.375000 -0.133975
v -0.433013 0.125000 -0.116025
v -0.250000 0.004487 -0.066987
v -0.250000 1.058013 0.066987
v -0.433013 0.750000 0.116025
v -0.500000 0.375000 0.133975
v -0.433013 0.125000 0.116025
v -0.250000 0.004487 0.066987
v -0.183013 1.058013 0.183013
v -0.316987 0.750000 0.316987
v -0.366025 0.375000 0.366025
v -0.316987 0.125000 0.316987
v -0.183013 0.004487 0.183013
v -0.066987 1.058013 0.250000
v -0.116025 0.750000 0.433013
v -0.133975 0.375000 0.500000
v -0.116025 0.125000 0.433013
v -0.066987 0.004487 0.250000
vn 0.2119 0.5743 0.7907
vn 0.5788 0.5743 0.5788
vn -0.0000 1.0000 -0.0000
vn 0.2425 0.3492 0.9051
vn 0.6626 0.3492 0.6626
vn 0.2586 -0.0423 0.9651
vn 0.7065 -0.0423 0.7065
vn 0.2130 -0.5683 0.7948
vn 0.5818 -0.5683 0.5818
vn 0.0849 -0.9446 0.3169
vn 0.2320 -0.9446 0.2320
vn -0.0000 -1.0000 -0.0000
vn 0.7907 0.5743 0.2119
vn 0.9051 0.3492 0.2425
vn 0.9651 -0.0423 0.2586
vn 0.7948 -0.5683 0.2130
vn 0.3169 -0.9446 0.0849
vn 0.7907 0.5743 -0.2119
vn 0.9051 0.3492 -0.2425
vn 0.9651 -0.0423 -0.2586
vn 0.7948 -0.5683 -0.2130
vn 0.3169 -0.9446 -0.0849
vn 0.5788 0.5743 -0.5788
vn 0.6626 0.3492 -0.6626
vn 0.7065 -0.0423 -0.7065
vn 0.5818 -0.5683 -0.5818
vn 0.2320 -0.9446 -0.2320
vn 0.2119 0.5743 -0.7907
vn 0.2425 0.3492 -0.9051
vn 0.2586 -0.0423 -0.9651
vn 0.2130 -0.5683 -0.7948
vn 0.0849 -0.9446 -0.3169
vn -0.2119 0.5743 -0.7907
vn -0.2425 0.3492 -0.9051
vn -0.2586 -0.0423 -0.9651
vn -0.2130 -0.5683 -0.7948
vn -0.0849 -0.9446 -0.3169
vn -0.5788 0.5743 -0.5788
vn -0.6626 0.3492 -0.6626
vn -0.7065 -0.0423 -0.7065
vn -0.5818 -0.5683 -0.5818
vn -0.2320 -0.9446 -0.2320
vn -0.7907 0.5743 -0.2119
vn -0.9051 0.3492 -0.2425
vn -0.9651 -0.0423 -0.2586
vn -0.7948 -0.5683 -0.2130
vn -0.3169 -0.9446 -0.0849
vn -0.7907 0.5743 0.2119
vn -0.9051 0.3492 0.2425
vn -0.9651 -0.0423 0.2586
vn -0.7948 -0.5683 0.2130
vn -0.3169 -0.9446 0.0849
vn -0.5788 0.5743 0.5788
vn -0.6626 0.3492 0.6626
vn -0.7065 -0.0423 0.7065
vn -0.5818 -0.5683 0.5818
vn -0.2320 -0.9446 0.2320
vn -0.2119 0.5743 0.7907
vn -0.2425 0.3492 0.9051
vn -0.2586 -0.0423 0.9651
vn -0.2130 -0.5683 0.7948
vn -0.0849 -0.9446 0.3169
vt 0.189552 0.863928
vt 0.234012 0.868127
vt 0.199128 1.000000
vt 0.184508 0.743493
vt 0.261516 0.750766
vt 0.190492 0.616514
vt 0.279413 0.624912
vt 0.204561 0.531186
vt 0.281568 0.538459
vt 0.773751 0.977851
vt 0.751391 0.906419
vt 0.790068 0.884093
vt 0.840741 0.939181
vt 0.729062 0.823073
vt 0.057654 0.368127
vt 0.102115 0.363928
vt 0.092539 0.500000
vt 0.030151 0.250766
vt 0.107158 0.243493
vt 0.012254 0.124912
vt 0.101175 0.116514
vt 0.010098 0.038459
vt 0.087106 0.031186
vt 0.845145 0.934779
vt 0.812402 0.845421
vt 0.883830 0.867797
vt 0.123504 0.362920
vt 0.168162 0.362920
vt 0.145833 0.497489
vt 0.184508 0.243493
vt 0.190492 0.116514
vt 0.107158 0.030241
vt 0.184508 0.030241
vt 0.885443 0.861783
vt 0.812412 0.800762
vt 0.885460 0.784433
vt 0.189552 0.363928
vt 0.234012 0.368127
vt 0.199128 0.500000
vt 0.261516 0.250766
vt 0.279413 0.124912
vt 0.204561 0.031186
vt 0.281568 0.038459
vt 0.883850 0.778418
vt 0.790094 0.762081
vt 0.845194 0.711419
vt 0.349321 0.680627
vt 0.393782 0.676428
vt 0.384205 0.812500
vt 0.321818 0.563266
vt 0.398825 0.555993
vt 0.303921 0.437412
vt 0.392842 0.429014
vt 0.301765 0.350959
vt 0.378772 0.343686
vt 0.840793 0.707015
vt 0.751427 0.739737
vt 0.773820 0.668315
vt 0.415171 0.675420
vt 0.459829 0.675420
vt 0.437500 0.809989
vt 0.476175 0.555993
vt 0.482158 0.429014
vt 0.398825 0.342741
vt 0.476175 0.342741
vt 0.767806 0.666701
vt 0.706769 0.739718
vt 0.690455 0.666667
vt 0.481218 0.676428
vt 0.525679 0.680627
vt 0.490795 0.812500
vt 0.553182 0.563266
vt 0.571079 0.437412
vt 0.496228 0.343686
vt 0.573235 0.350959
vt 0.612299 0.673481
vt 0.661648 0.729760
vt 0.635311 0.765825
vt 0.566682 0.735948
vt 0.668029 0.762081
vt 0.706696 0.739737
vt 0.620155 0.368127
vt 0.664615 0.363928
vt 0.655039 0.500000
vt 0.592651 0.250766
vt 0.669658 0.243493
vt 0.574754 0.124912
vt 0.663675 0.116514
vt 0.572598 0.038459
vt 0.649606 0.031186
vt 0.626858 0.809676
vt 0.552040 0.811900
vt 0.645711 0.800762
vt 0.686004 0.362920
vt 0.730663 0.362920
vt 0.708333 0.497489
vt 0.747008 0.243493
vt 0.752992 0.116514
vt 0.669658 0.030241
vt 0.747008 0.030241
vt 0.637901 0.852947
vt 0.571167 0.886848
vt 0.645721 0.845421
vt 0.752052 0.363928
vt 0.796512 0.368127
vt 0.761628 0.500000
vt 0.824016 0.250766
vt 0.841913 0.124912
vt 0.767061 0.031186
vt 0.844068 0.038459
vt 0.666334 0.887385
vt 0.620414 0.946495
vt 0.668055 0.884093
vt 0.057654 0.868127
vt 0.102115 0.863928
vt 0.092539 1.000000
vt 0.030151 0.750766
vt 0.107158 0.743493
vt 0.012254 0.624912
vt 0.101175 0.616514
vt 0.010098 0.538459
vt 0.087106 0.531186
vt 0.706732 0.906419
vt 0.690387 0.979463
vt 0.123504 0.862920
vt 0.168162 0.862920
vt 0.145833 0.997489
vt 0.107158 0.530241
vt 0.184508 0.530241
vt 0.767737 0.979463
s 1
usemtl m_04c604ad-ddc7-05e5-bf74-796eba4d7fcc
f 3/1/1 8/2/2 2/3/3
f 3/1/1 4/4/4 9/5/5 8/2/2
f 4/4/4 5/6/6 10/7/7 9/5/5
f 5/6/6 6/8/8 11/9/9 10/7/7
f 6/10/8 7/11/10 12/12/11 11/13/9
f 12/12/11 7/11/10 1/14/12
f 8/15/2 13/16/13 2/17/3
f 8/15/2 9/18/5 14/19/14 13/16/13
f 9/18/5 10/20/7 15/21/15 14/19/14
f 10/20/7 11/22/9 16/23/16 15/21/15
f 11/24/9 12/12/11 17/25/17 16/26/16
f 17/25/17 12/12/11 1/14/12
f 13/27/13 18/28/18 2/29/3
f 13/27/13 14/19/14 19/30/19 18/28/18
f 14/19/14 15/21/15 20/31/20 19/30/19
f 15/21/15 16/32/16 21/33/21 20/31/20
f 16/34/16 17/25/17 22/35/22 21/36/21
f 22/35/22 17/25/17 1/14/12
f 18/37/18 23/38/23 2/39/3
f 18/37/18 19/30/19 24/40/24 23/38/23
f 19/30/19 20/31/20 25/41/25 24/40/24
f 20/31/20 21/42/21 26/43/26 25/41/25
f 21/44/21 22/35/22 27/45/27 26/46/26
f 27/45/27 22/35/22 1/14/12
f 23/47/23 28/48/28 2/49/3
f 23/47/23 24/50/24 29/51/29 28/48/28
f 24/50/24 25/52/25 30/53/30 29/51/29
f 25/52/25 26/54/26 31/55/31 30/53/30
f 26/56/26 27/45/27 32/57/32 31/58/31
f 32/57/32 27/45/27 1/14/12
f 28/59/28 33/60/33 2/61/3
f 28/59/28 29/51/29 34/62/34 33/60/33
f 29/51/29 30/53/30 35/63/35 34/62/34
f 30/53/30 31/64/31 36/65/36 35/63/35
f 31/66/31 32/57/32 37/67/37 36/68/36
f 37/67/37 32/57/32 1/14/12
f 33/69/33 38/70/38 2/71/3
f 33/69/33 34/62/34 39/72/39 38/70/38
f 34/62/34 35/63/35 40/73/40 39/72/39
f 35/63/35 36/74/36 41/75/41 40/73/40
f 36/76/36 37/77/37 42/78/42 41/79/41
f 42/80/42 37/81/37 1/14/12
f 38/82/38 43/83/43 2/84/3
f 38/82/38 39/85/39 44/86/44 43/83/43
f 39/85/39 40/87/40 45/88/45 44/86/44
f 40/87/40 41/89/41 46/90/46 45/88/45
f 41/79/41 42/78/42 47/91/47 46/92/46
f 47/93/47 42/80/42 1/14/12
f 43/94/43 48/95/48 2/96/3
f 43/94/43 44/86/44 49/97/49 48/95/48
f 44/86/44 45/88/45 50/98/50 49/97/49
f 45/88/45 46/99/46 51/100/51 50/98/50
f 46/92/46 47/91/47 52/101/52 51/102/51
f 52/103/52 47/93/47 1/14/12
f 48/104/48 53/105/53 2/106/3
f 48/104/48 49/97/49 54/107/54 53/105/53
f 49/97/49 50/98/50 55/108/55 54/107/54
f 50/98/50 51/109/51 56/110/56 55/108/55
f 51/102/51 52/101/52 57/111/57 56/112/56
f 57/113/57 52/103/52 1/14/12
f 53/114/53 58/115/58 2/116/3
f 53/114/53 54/117/54 59/118/59 58/115/58
f 54/117/54 55/119/55 60/120/60 59/118/59
f 55/119/55 56/121/56 61/122/61 60/120/60
f 56/112/56 57/111/57 62/123/62 61/124/61
f 62/123/62 57/113/57 1/14/12
f 58/125/58 3/126/1 2/127/3
f 58/125/58 59/118/59 4/4/4 3/126/1
f 59/118/59 60/120/60 5/6/6 4/4/4
f 60/120/60 61/128/61 6/129/8 5/6/6
f 61/124/61 62/123/62 7/11/10 6/130/8
f 7/11/10 62/123/62 1/14/12
o left_eye
v -0.218750 0.703125 -0.459375
v -0.193630 0.609494 -0.464827
v -0.150120 0.634582 -0.463367
v -0.125000 0.678037 -0.460836
v -0.125000 0.728213 -0.457914
v -0.150120 0.771668 -0.455384
v -0.193630 0.796756 -0.453923
v -0.243870 0.796756 -0.453923
v -0.287380 0.771668 -0.455384
v -0.312500 0.728213 -0.457914
v -0.312500 0.678037 -0.460836
v -0.287380 0.634582 -0.463367
v -0.243870 0.609494 -0.464827
v -0.187500 0.734375 -0.453125
v -0.154006 0.609494 -0.458577
v -0.095994 0.642956 -0.457117
v -0.062500 0.700913 -0.454586
v -0.062500 0.767837 -0.451664
v -0.095994 0.825794 -0.449134
v -0.154006 0.859256 -0.447673
v -0.220994 0.859256 -0.447673
v -0.279006 0.825794 -0.449134
v -0.312500 0.767837 -0.451664
v -0.312500 0.700913 -0.454586
v -0.279006 0.642956 -0.457117
v -0.220994 0.609494 -0.458577
vn -0.0000 0.0581 -0.9983
vn -0.0000 0.0436 -0.9990
vt 0.458333 0.960360
vt 0.466706 0.945850
vt 0.489583 0.968737
vt 0.458333 0.977115
vt 0.466706 0.991623
vt 0.481210 1.000000
vt 0.497956 1.000000
vt 0.512460 0.991623
vt 0.520833 0.977115
vt 0.520833 0.960360
vt 0.512460 0.945850
vt 0.497956 0.937473
vt 0.481210 0.937473
vt 0.354167 0.947169
vt 0.365331 0.927831
vt 0.395833 0.958333
vt 0.354167 0.969498
vt 0.365331 0.988835
vt 0.384669 1.000000
vt 0.406998 1.000000
vt 0.426335 0.988835
vt 0.437500 0.969498
vt 0.437500 0.947169
vt 0.426335 0.927831
vt 0.406998 0.916667
vt 0.384669 0.916667
s 1
usemtl m_04c604ad-ddc7-05e5-bf74-796eba4d7fcc
f 66/131/63 65/132/63 63/133/63
f 67/134/63 66/131/63 63/133/63
f 68/135/63 67/134/63 63/133/63
f 69/136/63 68/135/63 63/133/63
f 70/137/63 69/136/63 63/133/63
f 71/138/63 70/137/63 63/133/63
f 72/139/63 71/138/63 63/133/63
f 73/140/63 72/139/63 63/133/63
f 74/141/63 73/140/63 63/133/63
f 75/142/63 74/141/63 63/133/63
f 64/143/63 75/142/63 63/133/63
f 65/132/63 64/143/63 63/133/63
f 79/144/64 78/145/64 76/146/64
f 80/147/64 79/144/64 76/146/64
f 81/148/64 80/147/64 76/146/64
f 82/149/64 81/148/64 76/146/64
f 83/150/64 82/149/64 76/146/64
f 84/151/64 83/150/64 76/146/64
f 85/152/64 84/151/64 76/146/64
f 86/153/64 85/152/64 76/146/64
f 87/154/64 86/153/64 76/146/64
f 88/155/64 87/154/64 76/146/64
f 77/156/64 88/155/64 76/146/64
f 78/145/64 77/156/64 76/146/64
o right_eye
v 0.187500 0.734375 -0.453125
v 0.154006 0.609494 -0.458577
v 0.095994 0.642956 -0.457117
v 0.062500 0.700913 -0.454586
v 0.062500 0.767837 -0.451664
v 0.095994 0.825794 -0.449134
v 0.154006 0.859256 -0.447673
v 0.220994 0.859256 -0.447673
v 0.279006 0.825794 -0.449134
v 0.312500 0.767837 -0.451664
v 0.312500 0.700913 -0.454586
v 0.279006 0.642956 -0.457117
v 0.220994 0.609494 -0.458577
v 0.218750 0.703125 -0.459375
v 0.193630 0.609494 -0.464827
v 0.150120 0.634582 -0.463367
v 0.125000 0.678037 -0.460836
v 0.125000 0.728213 -0.457914
v 0.150120 0.771668 -0.455384
v 0.193630 0.796756 -0.453923
v 0.243870 0.796756 -0.453923
v 0.287380 0.771668 -0.455384
v 0.312500 0.728213 -0.457914
v 0.312500 0.678037 -0.460836
v 0.287380 0.634582 -0.463367
v 0.243870 0.609494 -0.464827
vn -0.0000 0.0436 -0.9990
vn -0.0000 0.0581 -0.9983
vt 0.322169 0.927831
vt 0.333333 0.947169
vt 0.291667 0.958333
vt 0.333333 0.969498
vt 0.322169 0.988835
vt 0.302831 1.000000
vt 0.280502 1.000000
vt 0.261165 0.988835
vt 0.250000 0.969498
vt 0.250000 0.947169
vt 0.261165 0.927831
vt 0.280502 0.916667
vt 0.302831 0.916667
vt 0.324960 0.841683
vt 0.333333 0.856194
vt 0.302083 0.864571
vt 0.333333 0.872948
vt 0.324960 0.887456
vt 0.310456 0.895833
vt 0.293710 0.895833
vt 0.279206 0.887456
vt 0.270833 0.872948
vt 0.270833 0.856194
vt 0.279206 0.841683
vt 0.293710 0.833306
vt 0.310456 0.833306
s 1
usemtl m_04c604ad-ddc7-05e5-bf74-796eba4d7fcc
f 91/157/65 92/158/65 89/159/65
f 92/158/65 93/160/65 89/159/65
f 93/160/65 94/161/65 89/159/65
f 94/161/65 95/162/65 89/159/65
f 95/162/65 96/163/65 89/159/65
f 96/163/65 97/164/65 89/159/65
f 97/164/65 98/165/65 89/159/65
f 98/165/65 99/166/65 89/159/65
f 99/166/65 100/167/65 89/159/65
f 100/167/65 101/168/65 89/159/65
f 101/168/65 90/169/65 89/159/65
f 90/169/65 91/157/65 89/159/65
f 104/170/66 105/171/66 102/172/66
f 105/171/66 106/173/66 102/172/66
f 106/173/66 107/174/66 102/172/66
f 107/174/66 108/175/66 102/172/66
f 108/175/66 109/176/66 102/172/66
f 109/176/66 110/177/66 102/172/66
f 110/177/66 111/178/66 102/172/66
f 111/178/66 112/179/66 102/172/66
f 112/179/66 113/180/66 102/172/66
f 113/180/66 114/181/66 102/172/66
f 114/181/66 103/182/66 102/172/66
f 103/182/66 104/170/66 102/172/66
