# Blender 3.6.5
# www.blender.org
mtllib rice.mtl
o cuboid
v -0.022321 0.022321 0.102273
v 0.022321 0.022321 0.102273
v -0.022321 -0.022321 0.102273
v 0.022321 -0.022321 0.102273
v -0.022321 0.022321 -0.102273
v 0.022321 0.022321 -0.102273
v -0.022321 -0.022321 -0.102273
v 0.022321 -0.022321 -0.102273
v 0.000000 0.031250 0.102273
v 0.000000 -0.031250 0.102273
v 0.000000 -0.031250 -0.102273
v 0.000000 0.031250 -0.102273
v 0.000000 0.000000 0.125000
v -0.031250 0.000000 0.102273
v -0.031250 -0.000000 -0.102273
v 0.000000 -0.000000 -0.125000
v 0.031250 -0.000000 -0.102273
v 0.031250 0.000000 0.102273
vn -0.6434 0.6434 0.4150
vn -0.0000 0.9097 0.4152
vn -0.0000 0.9097 -0.4152
vn -0.6434 0.6434 -0.4150
vn -0.6434 -0.6434 -0.4150
vn -0.0000 -0.9097 -0.4152
vn -0.0000 -0.9097 0.4152
vn -0.6434 -0.6434 0.4150
vn -0.9097 -0.0000 -0.4152
vn -0.9097 -0.0000 0.4152
vn 0.6434 0.6434 0.4150
vn 0.9097 -0.0000 0.4152
vn 0.9097 -0.0000 -0.4152
vn 0.6434 0.6434 -0.4150
vn 0.6434 -0.6434 0.4150
vn 0.6434 -0.6434 -0.4150
vn -0.0000 -0.0000 1.0000
vn -0.0000 -0.0000 -1.0000
vt 0.437500 0.812500
vt 0.437500 0.875000
vt 0.250000 0.875000
vt 0.250000 0.812500
vt 0.250000 0.750000
vt 0.250000 0.687500
vt 0.437500 0.687500
vt 0.437500 0.750000
vt 0.000000 1.000000
vt 0.000000 0.937500
vt 0.187500 0.937500
vt 0.187500 1.000000
vt 0.000000 0.875000
vt 0.000000 0.812500
vt 0.187500 0.812500
vt 0.187500 0.875000
vt 0.000000 0.625000
vt 0.000000 0.562500
vt 0.187500 0.562500
vt 0.187500 0.625000
vt 0.437500 0.562500
vt 0.437500 0.625000
vt 0.250000 0.625000
vt 0.250000 0.562500
vt 0.187500 0.687500
vt 0.187500 0.750000
vt 0.000000 0.750000
vt 0.000000 0.687500
vt 0.437500 0.937500
vt 0.437500 1.000000
vt 0.250000 1.000000
vt 0.250000 0.937500
vt 0.031883 0.500000
vt 0.010452 0.489112
vt 0.038233 0.461888
vt 0.000000 0.467463
vt 0.038233 0.461888
vt 0.530617 0.750000
vt 0.524267 0.711887
vt 0.552048 0.739112
vt 0.552048 0.739112
vt 0.562500 0.717463
vt 0.562500 0.845037
vt 0.524267 0.850612
vt 0.552048 0.823388
vt 0.524267 0.850613
vt 0.530617 0.812500
vt 0.406883 0.437500
vt 0.413233 0.475612
vt 0.385452 0.448388
vt 0.385452 0.448388
vt 0.375000 0.470037
vt 0.552048 0.989112
vt 0.530617 1.000000
vt 0.524267 0.961887
vt 0.524267 0.961888
vt 0.562500 0.967463
vt 0.312500 0.470037
vt 0.274267 0.475612
vt 0.302048 0.448388
vt 0.274267 0.475612
vt 0.280617 0.437500
vt 0.531883 0.562500
vt 0.538233 0.600613
vt 0.510452 0.573388
vt 0.510452 0.573388
vt 0.500000 0.595037
vt 0.125000 0.467463
vt 0.163233 0.461888
vt 0.135452 0.489112
vt 0.163233 0.461888
vt 0.156883 0.500000
s 1
usemtl m_7ceec2a4-e8c0-453e-c687-fcd926d198bc
f 1/1/1 9/2/2 12/3/3 5/4/4
f 7/5/5 11/6/6 10/7/7 3/8/8
f 5/9/4 15/10/9 14/11/10 1/12/1
f 2/13/11 18/14/12 17/15/13 6/16/14
f 4/17/15 10/18/7 11/19/6 8/20/16
f 6/21/14 12/22/3 9/23/2 2/24/11
f 3/25/8 14/26/10 15/27/9 7/28/5
f 8/29/16 17/30/13 18/31/12 4/32/15
f 9/33/2 1/34/1 13/35/17
f 14/36/10 13/37/17 1/34/1
f 9/38/2 13/39/17 2/40/11
f 2/41/11 13/39/17 18/42/12
f 18/43/12 13/44/17 4/45/15
f 4/45/15 13/46/17 10/47/7
f 10/48/7 13/49/17 3/50/8
f 3/51/8 13/49/17 14/52/10
f 5/53/4 12/54/3 16/55/18
f 5/53/4 16/56/18 15/57/9
f 15/58/9 16/59/18 7/60/5
f 7/60/5 16/61/18 11/62/6
f 11/63/6 16/64/18 8/65/16
f 8/66/16 16/64/18 17/67/13
f 17/68/13 16/69/18 6/70/14
f 6/70/14 16/71/18 12/72/3
