# Made in Blockbench 5.2.2
mtllib crystal_heart.mtl

o mesh
v 0 0 0
v -0.390625 0.546875 0
v -0.390625 0.3125 0
v 0.390625 0.546875 0
v 0.390625 0.3125 0
v -0.1953125 0.703125 0
v 0.1953125 0.703125 0
v 0 0.625 0
v 0.15625 0.4296875 -0.1171875
v -0.15625 0.4296875 -0.1171875
v -0.15625 0.4296875 0.1171875
v 0.15625 0.4296875 0.1171875
vt 0 0
vt 1 0
vt 0.5 1
vt 0 0
vt 1 0
vt 0.5 1
vt 0 0
vt 1 0
vt 0.5 1
vt 0 0
vt 1 0
vt 0.5 1
vt 0 0
vt 1 0
vt 0.5 1
vt 0 0
vt 1 0
vt 0.5 1
vt 0 0
vt 1 0
vt 0.5 1
vt 0 0
vt 1 0
vt 0.5 1
vt 0 0
vt 1 0
vt 0.5 1
vt 0 0
vt 1 0
vt 0.5 1
vt 0 0
vt 1 0
vt 0.5 1
vt 0 0
vt 1 0
vt 0.5 1
vt 0 0
vt 1 0
vt 0.5 1
vt 0 0
vt 1 0
vt 0.5 1
vt 0 0
vt 1 0
vt 0.5 1
vt 0 0
vt 1 0
vt 0.5 1
vt 0 0
vt 1 0
vt 0.5 1
vt 0 0
vt 1 0
vt 0.5 1
vt 0 0
vt 1 0
vt 0.5 1
vt 0 0
vt 1 0
vt 0.5 1
vn 0 -0.2631174057921088 -0.9647638212377323
vn -0.2760262237369417 -0.3450327796711771 -0.8970852271450606
vn -0.44721359549995804 0 -0.8944271909999161
vn -0.2760262237369417 0.3450327796711771 -0.8970852271450606
vn 0.16329931618554522 0.408248290463863 -0.8981462390204986
vn 0 0.5144957554275266 -0.8574929257125442
vn -0.16329931618554522 0.408248290463863 -0.8981462390204986
vn 0.2760262237369417 0.3450327796711771 -0.8970852271450606
vn 0.44721359549995804 0 -0.8944271909999161
vn 0.2760262237369417 -0.3450327796711771 -0.8970852271450606
vn 0 -0.2631174057921088 0.9647638212377323
vn 0.2760262237369417 -0.3450327796711771 0.8970852271450606
vn 0.44721359549995804 0 0.8944271909999161
vn 0.2760262237369417 0.3450327796711771 0.8970852271450606
vn -0.16329931618554522 0.408248290463863 0.8981462390204986
vn 0 0.5144957554275266 0.8574929257125442
vn 0.16329931618554522 0.408248290463863 0.8981462390204986
vn -0.2760262237369417 0.3450327796711771 0.8970852271450606
vn -0.44721359549995804 0 0.8944271909999161
vn -0.2760262237369417 -0.3450327796711771 0.8970852271450606
usemtl m_048c02f6-393e-e699-3034-a12af07357eb
f 9/1/1 1/2/1 10/3/1
f 1/4/2 3/5/2 10/6/2
f 3/7/3 2/8/3 10/9/3
f 2/10/4 6/11/4 10/12/4
f 10/13/5 6/14/5 8/15/5
f 10/16/6 8/17/6 9/18/6
f 9/19/7 8/20/7 7/21/7
f 7/22/8 4/23/8 9/24/8
f 9/25/9 4/26/9 5/27/9
f 9/28/10 5/29/10 1/30/10
f 11/31/11 1/32/11 12/33/11
f 1/34/12 5/35/12 12/36/12
f 5/37/13 4/38/13 12/39/13
f 4/40/14 7/41/14 12/42/14
f 12/43/15 7/44/15 8/45/15
f 12/46/16 8/47/16 11/48/16
f 11/49/17 8/50/17 6/51/17
f 6/52/18 2/53/18 11/54/18
f 11/55/19 2/56/19 3/57/19
f 11/58/20 3/59/20 1/60/20